<?xml version="1.0" encoding="utf-8"?>
<!-- Generator: Adobe Illustrator 25.2.0, SVG Export Plug-In . SVG Version: 6.00 Build 0)  -->
<svg version="1.1" id="Layer_1" xmlns="http://www.w3.org/2000/svg" x="0px" y="0px" viewBox="0 0 500 500" style="enable-background:new 0 0 500 500;" xml:space="preserve">
<style type="text/css">
	.st0{fill:#E0E0E0;}
	.st1{fill:#F5F5F5;}
	.st2{fill:#EBEBEB;}
	.st3{fill:#FAFAFA;}
	.st4{fill:#FFFFFF;}
	.st5{fill:#263238;}
	.st6{fill:#FFBE9D;}
	.st7{fill:#EB996E;}
	.st8{opacity:0.2;}
	.st9{fill:#FFC108;}
	.st10{opacity:0.3;enable-background:new    ;}
	.st11{opacity:0.3;fill:#FFFFFF;enable-background:new    ;}
	.st12{opacity:0.8;}
	.st13{opacity:0.3;}
	.st14{opacity:0.2;enable-background:new    ;}
	.st15{fill:#455A64;}
	.st16{fill:#CF8165;}
	.st17{fill:#935643;}
	.st18{opacity:0.6;}
	.st19{fill:#FFFFFF;stroke:#263238;stroke-width:0.5;stroke-linecap:round;stroke-linejoin:round;}
</style>
<g id="freepik--background-complete--inject-155">
	<rect x="356.7" y="289.3" class="st0" width="93.1" height="176"/>
	<rect x="329.1" y="289.3" class="st1" width="93.1" height="176"/>
	<path class="st0" d="M415.3,325.5h-79.9v-27.9h79.9V325.5z M336.4,324.5h77.9v-25.9h-77.9V324.5z"/>
	<path class="st2" d="M360.8,298.1h30.3l0,0v0.6c0,2.7-2.2,5-4.9,5h0h-20.4c-2.7,0-5-2.2-5-4.9v0L360.8,298.1L360.8,298.1z"/>
	<path class="st0" d="M415.3,360.9h-79.9V333h79.9V360.9z M336.4,359.9h77.9V334h-77.9V359.9z"/>
	<path class="st2" d="M360.8,333.5h30.3l0,0v0.6c0,2.7-2.2,5-4.9,5h0h-20.4c-2.7,0-5-2.2-5-4.9v0L360.8,333.5L360.8,333.5z"/>
	<path class="st0" d="M415.3,396.4h-79.9v-27.9h79.9V396.4z M336.4,395.4h77.9v-25.9h-77.9V395.4z"/>
	<path class="st2" d="M360.8,369h30.3l0,0v0.6c0,2.7-2.2,5-4.9,5h0h-20.4c-2.7,0-5-2.2-5-4.9v0L360.8,369L360.8,369z"/>
	<path class="st0" d="M415.3,431.8h-79.9v-27.9h79.9V431.8z M336.4,430.8h77.9v-25.9h-77.9V430.8z"/>
	<path class="st2" d="M360.8,404.4h30.3l0,0v0.6c0,2.7-2.2,5-4.9,5h0h-20.4c-2.7,0-5-2.2-5-4.9v0L360.8,404.4L360.8,404.4z"/>
	<rect x="325" y="282.7" class="st2" width="101.1" height="8.8"/>
	<rect x="426.1" y="282.7" class="st0" width="30.4" height="8.8"/>
	<rect x="329.1" y="465.3" class="st0" width="4.9" height="9"/>
	<rect x="359.3" y="465.3" class="st0" width="4.9" height="9"/>
	<rect x="414.5" y="465.3" class="st0" width="4.9" height="9"/>
	<rect x="442.1" y="465.3" class="st0" width="4.9" height="9"/>
	<polygon class="st0" points="407,259.3 416.4,283.4 410.5,283.4 405.8,268.5 	"/>
	<polygon class="st2" points="374.8,237 371.5,283.2 405,283.9 408.7,237 	"/>
	<polygon class="st3" points="378.1,240.7 375.4,279.2 400.3,280.3 403.8,240.5 	"/>
	<polygon class="st0" points="383.6,246.2 381.5,273.2 395.3,273.2 397.7,246.2 	"/>
	<path class="st0" d="M78.1,375.5c-4.6-2.9-9.7-4.6-15.1-5.2c-2.5-0.3-5.1-0.2-7.1,1.3c-0.5,0.3-0.7,0.8-0.7,1.3
		c0.1,0.4,0.4,0.7,0.7,0.9C62,378.5,71.2,379.1,78.1,375.5"/>
	<path class="st0" d="M77.7,375c-3.5-2.5-6.7-5.4-9.7-8.5c-3-3.2-5.1-7-6.1-11.3c-0.4-1.3-0.2-2.6,0.5-3.8
		C70.1,357.5,76.2,365.3,77.7,375"/>
	<path class="st0" d="M78,375.4c-0.7-4.2-0.7-8.6,0.2-12.8c0.9-4.2,3.3-8,6.8-10.5c1.3,3.1,0.8,6.7-0.2,10
		c-1.5,5.1-3.7,9.9-6.7,14.2"/>
	<path class="st0" d="M85.6,389c-4.6,0.6-8.6,3-12.1,6.1c-3.5,3.2-5.9,7.3-6.9,11.9c4.5-0.3,8.4-3.5,11.2-7s4.7-7.5,7.8-10.9"/>
	<path class="st0" d="M87.3,391.2c-3.7-9.4-2.4-20,3.4-28.2C93.3,372.3,92.4,382.9,87.3,391.2"/>
	<path class="st0" d="M97.3,403.2c-8.6-0.5-16.7,4.1-20.6,11.8c-0.3,0.5-0.4,1.1-0.1,1.6c0.4,0.4,0.9,0.5,1.4,0.4
		c4-0.3,7.7-2.7,10.6-5.5s5.6-6,8.8-8.4"/>
	<path class="st0" d="M97,402.5c-2.2-7-2.3-14.4-0.4-21.4c0.8-2.8,2-5.7,4.6-7c0.2-0.1,0.5-0.2,0.7-0.1c0.2,0.1,0.4,0.3,0.4,0.5
		c0.9,1.9,1.2,4,1.1,6.1c-0.2,2.1-0.5,4.2-1,6.2c-0.8,3.8-1.2,7.9-3.3,11.2c-0.5,0.8-0.9,1.6-1.3,2.5c-0.4,0.8-0.4,1.1-0.8,1.8"/>
	<path class="st0" d="M123.6,406.5c-2-7.5,0.1-16.6,4.8-22.7c0.4-0.5,0.8-0.9,1.4-0.9c0.9,0.1,1.1,1.2,1.1,2.1
		C130.5,392.7,128,400.1,123.6,406.5"/>
	<path class="st0" d="M126,408.1c9.1,2.4,19.5,0.1,27.1-5.5c-4.5-2.3-9.7-2.9-14.7-1.8C133.5,401.9,129.1,404.1,126,408.1"/>
	<path class="st0" d="M128,403.1c5.1-8.3,14.9-13.7,24.6-14.2c-1.1,4-4.4,7-8.1,8.9s-7.8,2.7-11.8,3.5
		C131.2,401.5,129,401.9,128,403.1"/>
	<path class="st0" d="M124.1,378.9c1.5-4.7,2.6-9.5,3.1-14.4c0.4-4.9-0.3-10-2.9-14.3c-4.8,9.2-5.2,20-0.4,29.2"/>
	<path class="st0" d="M140.1,370.8c5.6-10.1,16.9-18.2,28.4-19.3C164.1,362.5,152,371.1,140.1,370.8"/>
	<path class="st0" d="M136.6,372.8c8.3,1.3,15.4,6.6,23.1,9.8c1.6,0.8,3.4,1.1,5.2,1c2.3,0,4.1-1.9,4-4.2c0-1.2-0.6-2.3-1.5-3.1
		c-1.1-1-2.4-1.8-3.8-2.3c-8.4-3.5-17.5-3.6-26.4-1.5"/>
	<path class="st0" d="M131.8,378.6c1.9,0.5,2.5,1.5,4,2.8c5.1,4.3,11.1,7.4,17.5,9c0.7,0.2,1.6,0.2,1.9-0.4s-0.1-1.2-0.4-1.6
		c-2.8-3.3-6.5-5.8-10.6-7.2c-4.1-1.5-7.6-3.3-12.4-2.9"/>
	<path class="st0" d="M126.4,343.5c6.9,6.3,16.1,9.5,25.5,8.7c0.4,0,0.8-0.1,1.2-0.4c0.6-0.7-0.1-1.8-0.9-2.4
		C144.6,343.5,135.6,341.1,126.4,343.5"/>
	<path class="st0" d="M132.8,341.1c9.1-6.7,21-8.7,31.8-5.2c-4.2,3.9-9.5,6.2-15.1,6.6C143.8,343,138.2,342.5,132.8,341.1"/>
	<path class="st0" d="M130.3,324.9c-0.7-7.5-0.3-13.4-0.8-20.9c0-0.6-0.2-1.3-0.7-1.5c-0.8-0.3-1.4,0.7-1.7,1.5
		c-2.2,7.1-1,14.7,3.2,20.8"/>
	<path class="st0" d="M129.7,325.8c4.9-3.1,9.1-7.2,12.4-12c2.4-3.3,4.5-7.4,3.9-11.5c-3.5,0.1-6.7,1.7-8.9,4.4
		c-2.1,2.7-3.7,5.8-4.6,9.1C131.6,319.2,130.9,322.6,129.7,325.8"/>
	<path class="st0" d="M141.9,322.4c11.1-4.1,21.5-10.2,30.4-18c-3.6-1.5-7.8-0.6-11.4,0.9c-8.3,3.4-15.1,9-19.2,17"/>
	<path class="st0" d="M133.1,329.9c5.6,0.6,11.3,1,16.9,0.1s10.7-3.1,15.8-5.2c0.4-0.1,0.8-0.4,1.1-0.8c0.2-0.5,0-1-0.4-1.4
		c-0.4-0.3-0.9-0.5-1.3-0.6c-5.6-1.5-11.6-0.8-17.1,1C142.9,324.7,137.9,327,133.1,329.9"/>
	<path class="st0" d="M101,343.7c-3.8-7.7-3.6-16.8-0.3-24.8c2.3,3.5,2.6,8.1,2.2,12.3s-1.7,8.6-1.8,12.8"/>
	<path class="st0" d="M85.7,336c-9.7-0.1-19,3.8-25.7,10.9c4.8,0.8,9.7-0.5,14-2.6c4.3-2.3,8.3-5,12-8.1"/>
	<path class="st0" d="M75.4,332.5c-4.7-0.4-9.2-1-13.7,0.4c-4.6,1.3-8.4,4.5-10.4,8.9c4.4,0.4,8.9-0.5,12.8-2.4
		C68.1,337.4,71.9,335.2,75.4,332.5"/>
	<path class="st0" d="M90.7,332.7c-4.2-2.8-8.5-5.6-13.4-6.7s-10.6-0.3-14,3.4c4,2.3,8.8,2.6,13.4,2.6s10.3,0,14.6,1.5"/>
	<path class="st0" d="M90.7,332.9c-7.2-7.1-9.9-19.8-7-29.5C89.4,312.2,91.8,322.6,90.7,332.9"/>
	<path class="st0" d="M110.5,312.9c1.4-3.2,2.3-6.5,3.5-9.7c1.1-3.3,2.8-6.3,5-8.9c2.3-2.7,5.5-4.3,8.9-4.6
		c-2.2,9.9-8.5,18.3-17.3,23.3"/>
	<path class="st0" d="M106.9,317c-2.3-3.1-4.8-7.3-7.9-9.6s-7-3.7-10.7-2.8C92.2,311.5,99.1,316.1,106.9,317"/>
	<path class="st0" d="M107.6,313.1c-1.6-3.7-2.8-7.6-3.6-11.5c-0.7-4-0.1-8.1,1.8-11.7c4,7.5,5.2,15.5,2,23.3"/>
	<path class="st0" d="M110.5,289.9c2.2-7.4,9-12.9,16.3-15.4c0.9-0.4,1.9-0.5,2.9-0.4c1,0.1,1.8,0.8,2.1,1.8
		c0.3,1.3-0.8,2.4-1.8,3.2C124.4,284,117.7,287.7,110.5,289.9"/>
	<path class="st0" d="M110.6,283.9c0.3-4.8,0.6-9.6,2.1-14.2s4.6-8.8,8.9-10.8c0.7,4.8-1.4,9.6-4,13.8s-5.7,8.1-7.2,12.7"/>
	<path class="st0" d="M110.5,287.1c-1.8-5.4-2-12.3-5.3-17c-2.3-3.3-5.9-5.5-7.8-9c-1.2,3.3-1,7,0.4,10.2c1.5,3.2,3.5,6.1,6,8.6
		C106.2,282.5,108.3,284.4,110.5,287.1"/>
	<path class="st0" d="M110.5,446.2c-0.1,0-0.3-36-0.3-80.5s0.1-80.5,0.2-80.5s0.3,36,0.3,80.5S110.7,446.2,110.5,446.2z"/>
	<path class="st0" d="M142,338.3c-0.4,0.2-0.9,0.4-1.4,0.5l-3.7,1.2c-3.1,1.1-7.5,2.6-12.1,4.5s-9,3.6-11.5,5.8
		c-1,0.8-1.8,1.9-2.3,3.1c-0.3,0.8-0.4,1.4-0.5,1.4c0-0.1,0-0.2,0-0.4c0.1-0.4,0.1-0.7,0.3-1c0.5-1.3,1.2-2.4,2.3-3.3
		c1.5-1.3,3.2-2.3,5-3.1c2-0.9,4.2-1.9,6.6-2.9c4.7-1.9,9-3.4,12.2-4.4c1.6-0.5,2.9-0.9,3.8-1.1C141,338.4,141.5,338.3,142,338.3z"
		/>
	<path class="st0" d="M152.3,312.9c0,0-0.1,0.2-0.4,0.4l-1.2,1.1l-4.3,3.9c-3.7,3.3-8.8,7.8-14.4,12.8s-10.4,9.8-13.8,13.4
		c-1.7,1.8-3,3.3-3.9,4.3l-1,1.2c-0.2,0.3-0.4,0.4-0.4,0.4c0.1-0.2,0.2-0.3,0.3-0.5c0.2-0.3,0.5-0.7,1-1.3c0.9-1.1,2.2-2.6,3.8-4.4
		c4.3-4.7,8.9-9.2,13.7-13.5c5.6-5,10.8-9.5,14.5-12.7l4.4-3.8l1.2-1C152,313.1,152.2,313,152.3,312.9z"/>
	<path class="st0" d="M126.1,336.2c-0.2-0.1,1-2.8,2.2-6.2c1.2-3.4,1.7-6.3,1.9-6.3c-0.1,2.2-0.6,4.4-1.4,6.5
		c-0.5,1.5-1.1,2.9-1.7,4.3C126.8,335.1,126.5,335.7,126.1,336.2z"/>
	<path class="st0" d="M110.6,358c-0.3-0.3-0.6-0.6-0.9-1l-2.2-2.8c-1.9-2.4-4.4-5.7-7.3-9.4s-5.5-6.9-7.4-9.3l-2.3-2.8
		c-0.3-0.3-0.6-0.7-0.8-1.1c0.3,0.3,0.7,0.6,0.9,0.9c0.6,0.6,1.4,1.5,2.4,2.7c2,2.3,4.7,5.5,7.6,9.2s5.4,7,7.2,9.5
		c0.9,1.2,1.6,2.2,2.1,2.9C110.1,357.2,110.4,357.6,110.6,358z"/>
	<path class="st0" d="M103.7,349.1c-1.4-1.5-2.4-3.4-2.9-5.4c-0.5-1.8-0.8-3.6-0.7-5.5h0.2c-0.1,0.4-0.2,0.6-0.2,0.6s0-0.2,0-0.7
		h0.2c0.1,1.8,0.4,3.6,0.9,5.3C101.9,345.5,102.7,347.3,103.7,349.1z"/>
	<path class="st0" d="M94.8,337.9c-0.6-0.5-1.3-0.9-2-1.2c-1.8-0.5-3.7-0.7-5.6-0.4c-1.9,0.1-3.8,0.4-5.6,0.9
		c-0.8,0.2-1.5,0.4-2.3,0.6c0.7-0.4,1.4-0.7,2.2-0.9c1.9-0.6,3.8-0.9,5.7-1.1c2-0.3,3.9,0,5.8,0.6C93.7,336.7,94.3,337.2,94.8,337.9
		z"/>
	<path class="st0" d="M92.6,335.2c0,0.1-1.2-0.5-3.1-1.1c-5-1.7-10.3-2.1-15.5-1.2c-2,0.4-3.2,0.7-3.2,0.6c0.3-0.2,0.5-0.3,0.8-0.4
		c0.8-0.3,1.5-0.5,2.3-0.7c5.3-1.2,10.8-0.7,15.8,1.2c0.8,0.3,1.5,0.6,2.2,1C92.2,334.9,92.4,335,92.6,335.2z"/>
	<path class="st0" d="M110.5,323.7c-0.9-2.6-1.7-5.2-2.3-7.8c-0.8-2.6-1.3-5.3-1.8-8c0.9,2.6,1.7,5.2,2.3,7.8
		C109.5,318.3,110.1,321,110.5,323.7z"/>
	<path class="st0" d="M110.6,323.7c-0.7-1.6-1.6-3.2-2.5-4.7c-1.1-1.4-2.3-2.7-3.7-3.8c0.5,0.1,1,0.4,1.4,0.7c1,0.8,1.9,1.7,2.7,2.8
		C109.7,320.2,110.4,321.9,110.6,323.7z"/>
	<path class="st0" d="M110.5,427c0,0-0.2-0.9-0.6-2.4c-0.6-2.2-1.4-4.2-2.4-6.2c-2.5-5.1-7-11.5-12.8-18c-2.8-3.3-5.6-6.3-8-9.3
		c-2.1-2.6-4-5.3-5.7-8.2c-1.1-1.9-2.1-4-2.9-6.1c-0.3-0.8-0.5-1.3-0.6-1.7c-0.1-0.2-0.1-0.4-0.1-0.6c0,0,0.3,0.8,0.9,2.3
		c0.8,2.1,1.9,4.1,3,6c1.7,2.8,3.7,5.5,5.8,8.1c2.3,2.9,5.1,6,8,9.2c5.8,6.5,10.3,13,12.7,18.2c1,2,1.7,4.2,2.3,6.4
		c0.1,0.6,0.2,1.2,0.3,1.8C110.5,426.6,110.5,426.8,110.5,427z"/>
	<path class="st0" d="M139,394.9c-0.5,0.3-1,0.6-1.5,0.8c-1.3,0.8-2.6,1.6-3.9,2.6c-1.8,1.4-3.5,3-5.1,4.6c-1.8,1.9-3.6,4.1-5.5,6.4
		c-3.8,4.7-7.3,8.9-9.3,12.2c-1.1,1.6-1.8,3-2.3,4c-0.2,0.5-0.5,1-0.8,1.5c0-0.1,0.1-0.3,0.1-0.4c0.1-0.3,0.3-0.7,0.5-1.2
		c0.7-1.4,1.4-2.8,2.2-4.1c2-3.4,5.5-7.6,9.3-12.3c1.9-2.4,3.7-4.5,5.6-6.4c1.6-1.7,3.3-3.2,5.2-4.6c1.3-0.9,2.6-1.7,4-2.4
		c0.5-0.3,0.9-0.4,1.2-0.5C138.7,394.9,138.9,394.9,139,394.9z"/>
	<path class="st0" d="M139.5,405.3c-1,0.2-2.1,0.4-3.1,0.5c-2.5,0.3-5,0.8-7.5,1.5c-2.4,0.8-4.7,2-6.7,3.5c-1.5,1.2-2.3,2.2-2.3,2.1
		s0.1-0.3,0.5-0.7c0.5-0.6,1-1.2,1.6-1.7c2-1.7,4.3-2.9,6.8-3.7c2.5-0.7,5-1.2,7.6-1.4C137.4,405.2,138.5,405.2,139.5,405.3z"/>
	<path class="st0" d="M120.8,411.7c-0.2-0.1,1.3-2.3,2.4-5.2s1.3-5.5,1.5-5.5c0.1,0.6,0.1,1.1-0.1,1.7c-0.2,1.4-0.5,2.7-0.9,4
		c-0.5,1.3-1.1,2.5-1.8,3.6C121.3,411.2,120.9,411.7,120.8,411.7z"/>
	<path class="st0" d="M148.2,366.9c-0.2,0.1-0.3,0.2-0.5,0.3l-1.5,0.7c-0.6,0.3-1.4,0.6-2.3,1.1s-1.9,0.9-3,1.6l-1.7,1
		c-0.6,0.3-1.2,0.8-1.8,1.1c-1.3,0.8-2.5,1.7-3.9,2.7c-5.8,4.3-10.9,9.6-15,15.5c-0.9,1.4-1.8,2.7-2.6,4c-0.4,0.6-0.8,1.2-1.1,1.9
		s-0.6,1.2-0.9,1.8c-0.6,1.1-1,2.2-1.5,3.1s-0.8,1.7-1,2.4l-0.6,1.5c-0.1,0.2-0.1,0.4-0.3,0.5c0-0.2,0.1-0.4,0.2-0.5
		c0.2-0.4,0.3-0.9,0.5-1.5c0.3-0.8,0.6-1.6,0.9-2.4c0.4-0.9,0.8-2,1.4-3.1l0.9-1.8c0.3-0.6,0.7-1.2,1.1-1.9c0.7-1.3,1.6-2.6,2.5-4
		c4.1-6,9.2-11.3,15.1-15.6c1.4-1,2.7-1.9,3.9-2.7c0.6-0.4,1.2-0.8,1.8-1.1l1.8-1c1.1-0.6,2.2-1.1,3.1-1.5s1.7-0.8,2.4-1l1.5-0.6
		C147.8,367,148,366.9,148.2,366.9z"/>
	<path class="st0" d="M125.7,382c0.2-0.7,0.6-1.4,1.2-1.9c1.4-1.2,3.2-1.9,5-1.9c1.8,0,3.6,0.3,5.3,1c0.7,0.2,1.4,0.6,2,1
		c-0.7-0.1-1.4-0.3-2.1-0.6c-1.6-0.6-3.4-0.9-5.1-0.9c-1.7,0-3.4,0.6-4.8,1.7C126.6,380.9,126.1,381.4,125.7,382z"/>
	<path class="st0" d="M122.3,385.4c1.5-2.9,1.9-6.3,1.1-9.4c0.1,0,0.3,0.5,0.6,1.3c0.6,2.3,0.3,4.8-0.8,6.9
		C122.8,385,122.4,385.5,122.3,385.4z"/>
	<path class="st0" d="M85.7,432.2c0.8,13.8,4.9,27.8,11.3,41.9h27.8c6.1-14,10-28,10.6-41.9H85.7z"/>
	<path class="st3" d="M130.9,454.4c0,0.1-9.1,0.3-20.4,0.3S90,454.6,90,454.4s9.1-0.3,20.4-0.3S130.9,454.3,130.9,454.4z"/>
	<path class="st3" d="M130.2,459.4c0,0.1-8.6,0.3-19.1,0.3S92,459.6,92,459.4s8.6-0.3,19.1-0.3S130.2,459.3,130.2,459.4z"/>
	<path class="st3" d="M97.4,441.2c0.3,4.3,0.3,8.5,0,12.8C97.1,449.7,97.1,445.5,97.4,441.2z"/>
	<path class="st3" d="M112.3,441.2c0.3,4.4,0.3,8.8,0,13.2C111.9,450,111.9,445.6,112.3,441.2z"/>
	<path class="st3" d="M126.2,441.1c0.3,4.5,0.3,9,0,13.5C125.9,450.1,125.9,445.6,126.2,441.1z"/>
	<path class="st3" d="M134.5,441.2c0,0.1-10.7,0.3-23.9,0.3s-23.9-0.1-23.9-0.3s10.7-0.3,23.9-0.3S134.5,441,134.5,441.2z"/>
	<rect x="343.3" y="52.8" class="st0" width="98.8" height="163.6"/>
	<rect x="340" y="52.8" class="st2" width="98.8" height="163.6"/>
	<rect x="344.2" y="56.2" class="st4" width="90.4" height="157"/>
	<rect x="361.5" y="76.6" class="st2" width="55.6" height="116.2"/>
	<path class="st0" d="M361.5,151.6c-0.1-10.9,9.6-21.4,20.4-23c5.1-0.7,10.6,0.3,15.4-1.7c8.5-3.5,11.3-14.9,19.9-18.2l0.4,84h-56
		L361.5,151.6z"/>
	<rect x="131.3" y="48.8" class="st0" width="6.1" height="130.8"/>
	<path class="st1" d="M43.1,49.8h87.1c0,0,0.1,0,0.1,0.1v129.8c0,0,0,0.1-0.1,0.1H43.1c0,0-0.1,0-0.1-0.1L43.1,49.8
		C43,49.9,43.1,49.8,43.1,49.8z"/>
	<path class="st2" d="M131.3,180.8H42.1c0,0-0.1,0-0.1-0.1V48.9c0,0,0-0.1,0.1-0.1c0,0,0,0,0,0h89.2c0,0,0.1,0,0.1,0.1c0,0,0,0,0,0
		L131.3,180.8C131.4,180.8,131.3,180.8,131.3,180.8C131.3,180.8,131.3,180.8,131.3,180.8z M44.1,178.8h85.1c0,0,0.1,0,0.1-0.1V51
		c0,0,0-0.1-0.1-0.1H44.1c0,0-0.1,0-0.1,0c0,0,0,0,0,0.1v127.7C44,178.7,44,178.8,44.1,178.8C44.1,178.8,44.1,178.8,44.1,178.8
		L44.1,178.8z"/>
	<path class="st4" d="M51.9,57.9h69.7c0,0,0.1,0,0.1,0.1v113.7c0,0,0,0.1-0.1,0.1H51.9c0,0-0.1,0-0.1-0.1L51.9,57.9
		C51.8,57.9,51.9,57.9,51.9,57.9z"/>
	<path class="st2" d="M67.1,90.1h39.1c0,0,0.1,0,0.1,0.1v45.9c0,0,0,0.1-0.1,0.1H67.1c0,0-0.1,0-0.1-0.1L67.1,90.1
		C67.1,90.2,67.1,90.1,67.1,90.1z"/>
	<path class="st0" d="M103.2,130.5c0,0.1-1.9,1-5.6,0.6c-2.3-0.3-4.4-1.2-6.3-2.5c-2.5-1.9-4.2-4.6-4.9-7.7
		c-0.7-3.9,0.7-7.9,3.7-10.5c0.8-0.7,1.8-1.3,2.8-1.6c1.1-0.4,2.3-0.6,3.5-0.4c1.3,0.1,2.5,0.7,3.5,1.5c1.1,1.1,1.6,2.6,1.4,4.1
		c-0.3,1.3-0.9,2.6-1.9,3.5c-0.9,0.9-1.9,1.6-3,2.2c-2.2,1.2-4.5,1.9-7,2c-2.6,0.1-5.2-0.4-7.5-1.7c-2.4-1.3-4.3-3.3-5.5-5.7
		c-1.3-2.5-1.6-5.3-1-8c0.6-2.6,2.1-5,4.2-6.6c1.1-0.8,2.3-1.4,3.6-1.8c1.3-0.3,2.7-0.4,4-0.1c1.4,0.3,2.7,1,3.6,2
		c0.9,1.1,1.4,2.5,1.4,3.9c0,1.3-0.3,2.6-1,3.7c-0.6,1-1.3,1.9-2.2,2.7c-1.6,1.4-3.5,2.4-5.6,3c-1.9,0.6-3.9,0.7-5.8,0.4
		c-1.8-0.3-3.6-0.9-5.1-1.9c-2.7-1.7-4.4-4.6-4.9-7.7c-0.3-2.3,0.4-4.7,1.8-6.6c0.8-1.2,2-2.1,3.3-2.7c0.9-0.3,1.4-0.3,1.5-0.3
		s-0.4,0.3-1.2,0.8c-1.1,0.7-1.9,1.7-2.6,2.8c-1,1.7-1.4,3.7-1.1,5.6c0.5,2.5,2.1,4.7,4.3,6.1c2.7,1.6,6,1.9,8.9,0.8
		c1.6-0.5,3.2-1.4,4.5-2.5c1.3-1,2-2.5,2.1-4.2c0-1.5-1.1-2.8-2.7-3c-0.9-0.1-1.7-0.1-2.6,0.1c-0.9,0.3-1.7,0.7-2.4,1.3
		c-1.5,1.2-2.5,3-3,4.9c-0.5,2-0.2,4,0.8,5.8c0.9,1.8,2.4,3.4,4.2,4.4c1.8,1,3.8,1.4,5.8,1.3c2-0.1,4-0.6,5.7-1.6
		c0.8-0.4,1.6-1,2.3-1.6c0.6-0.5,1-1.2,1.2-1.9c0.1-0.6-0.1-1.1-0.5-1.5c-0.5-0.5-1.2-0.8-1.9-0.8c-0.7-0.1-1.5-0.1-2.2,0.2
		c-0.8,0.3-1.5,0.6-2.1,1.1c-2.4,1.9-3.6,5-3.2,8c0.4,2.6,1.7,4.9,3.7,6.6c1.6,1.3,3.4,2.2,5.4,2.7
		C101.2,130.6,103.2,130.2,103.2,130.5z"/>
</g>
<g id="freepik--Floor--inject-155">
	<path class="st5" d="M461,474.5c0,0.1-94.5,0.3-211,0.3s-211-0.1-211-0.3s94.4-0.3,211-0.3S461,474.4,461,474.5z"/>
</g>
<g id="freepik--Sandwich--inject-155">
	<path class="st6" d="M130.3,187l0.1-5c0-0.3,0.2-0.6,0.5-0.7c1.9-0.4,3.9-1,5.7-1.8c2.4-1.1,5.3-2.8,7.3-3.7
		c2.3-0.9,8.3-3.8,9.5-4.2c0.1,0,0.2,0,0.4,0l23.1,4.9h0.1c0.4,0,2.5,0.1,2.6,1.1s0,4.3-0.1,5.5c0,0.3-0.2,0.5-0.4,0.6
		c-2.1,0.9-12,5-14.4,7.5c-2.7,2.8-6,5.2-7.2,5.3s-5.8-1.6-7.2-2s-16.6-5.9-19.6-6.9C130.4,187.6,130.2,187.3,130.3,187z"/>
	<path class="st7" d="M179.6,177.7c0,0-7.6,3.4-11,4.9c-2.7,1.3-5.2,3.1-7.2,5.4c-1.4,1.5-2.1,2.5-4.5,2.6s-9.6-2.8-13.3-4.3
		s-11.2-4.1-12.9-4.7c-0.1,0-0.3,0-0.4,0.2c0,0,0,0.1,0,0.1v1l-0.1,4.7c0,0,18.7,6.7,20,7.1s5.9,2.1,7.2,2s4.5-2.5,7.2-5.3
		s14.8-7.7,14.8-7.7S179.7,178.8,179.6,177.7z"/>
	<path class="st7" d="M143.7,177.7c-0.4,0.1-0.7,0.3-0.6,0.6s0.5,0.4,0.9,0.4s0.7-0.3,0.7-0.5s-0.4-0.5-0.8-0.5"/>
	<path class="st7" d="M166.9,180.5c-0.4,0.1-0.7,0.3-0.6,0.6s0.5,0.4,0.9,0.4s0.7-0.3,0.7-0.5s-0.4-0.5-0.8-0.5"/>
	<path class="st7" d="M167.1,179.4c-0.2,0-0.4,0.2-0.3,0.3s0.3,0.3,0.5,0.2s0.4-0.1,0.4-0.3s-0.2-0.3-0.4-0.3"/>
	<path class="st7" d="M162.2,183.6c-0.2,0-0.4,0.2-0.3,0.3s0.3,0.3,0.5,0.2s0.4-0.1,0.4-0.3s-0.2-0.3-0.4-0.3"/>
	<path class="st7" d="M141.6,178.4c-0.2,0-0.4,0.2-0.3,0.3s0.3,0.3,0.5,0.2s0.4-0.1,0.4-0.3s-0.2-0.3-0.4-0.3"/>
	<path class="st5" d="M130.7,181.5h0.1l0.4,0.1l1.5,0.5c1.3,0.4,3.2,1.1,5.5,1.9c1.2,0.4,2.4,0.9,3.8,1.4s2.8,1.1,4.3,1.7
		s3.1,1.2,4.8,1.8c0.8,0.3,1.7,0.6,2.6,0.8c0.9,0.3,1.8,0.5,2.7,0.6c0.1,0,0.2,0,0.4,0h0.4h0.3h0.3c0.4-0.1,0.9-0.2,1.3-0.4
		c0.8-0.4,1.4-1,2-1.7c1.1-1.3,2.4-2.4,3.7-3.5c1.2-1,2.6-1.7,4-2.4l3.7-1.6l5.3-2.4l1.4-0.6l0.4-0.2h0.1l-0.1,0.1l-0.4,0.2
		l-1.4,0.6l-5.3,2.4l-3.7,1.6c-1.4,0.6-2.7,1.4-3.9,2.4c-1.3,1.1-2.6,2.2-3.7,3.5c-0.6,0.7-1.3,1.3-2.1,1.7
		c-0.4,0.2-0.9,0.3-1.3,0.4h-0.4H157c-0.1,0-0.2,0-0.4,0s-0.2,0-0.4,0c-0.9-0.1-1.8-0.3-2.7-0.6c-0.9-0.3-1.7-0.5-2.6-0.8
		c-1.7-0.6-3.3-1.2-4.8-1.8s-2.9-1.2-4.3-1.7s-2.6-1-3.8-1.4l-5.5-2l-1.5-0.5l-0.4-0.1L130.7,181.5z"/>
	<g class="st8">
		<path d="M137.5,179c3,1.6,6.2,3.4,9.6,3.2c2.6-0.1,5-1.4,7.4-2.5c4.2-2,8.5-3.7,12.9-5.1c-3.4-0.7-6.7-1.5-10.1-2.2
			c-1-0.2-2.9-0.6-3.5-0.8c-0.2,0-0.3,0-0.5,0.1c-0.7,0.3-3.3,1.4-4.2,1.8C142.2,176.6,141.5,176.9,137.5,179"/>
	</g>
	<path class="st9" d="M129.8,181.2c-0.1,0.2,3,11.6,3,11.6s7.7,1.9,11.4,0.9s14.4-4.8,17-5.2s10.1-0.2,13.8,0.2s7.8,0.4,10.1-0.5
		l0.1-0.6l-4.9-9.6c-2.8,0.3-5.7,0.2-8.5-0.1c-4.8-0.6-11.4-1-16.6,1.2s-8,2.7-10.2,3s-13.7-1.3-15.1-1.4L129.8,181.2z"/>
	<path class="st10" d="M129.8,181.2c-0.1,0.2,3,11.6,3,11.6s7.7,1.9,11.4,0.9s14.4-4.8,17-5.2s10.1-0.2,13.8,0.2s7.8,0.4,10.1-0.5
		l0.1-0.6l-4.9-9.6c-2.8,0.3-5.7,0.2-8.5-0.1c-4.8-0.6-11.4-1-16.6,1.2s-8,2.7-10.2,3s-13.7-1.3-15.1-1.4L129.8,181.2z"/>
	<path class="st9" d="M129.8,180.6c-0.1,0.2,3,11.6,3,11.6s7.7,1.9,11.4,1s14.4-4.8,17-5.2s10.1-0.2,13.8,0.2s7.8,0.4,10.1-0.5
		l-4.8-10.3c-2.8,0.3-5.7,0.2-8.5-0.2c-4.9-0.6-11.4-1-16.6,1.2s-8,2.7-10.2,3S129.8,180.6,129.8,180.6z"/>
	<path class="st11" d="M185.1,187.6c-2.3,0.9-6.6,0.9-10.3,0.5s-11.3-0.6-13.8-0.2s-13.3,4.2-17,5.2s-11.1-0.8-11.1-0.8l-0.2,0.5
		l-1.1-4.1l0.1-0.3c2.5-0.2,5-0.3,7.5-0.1c3.8,0.3,7.2,1.1,9.2,0.6c2.3-0.5,4.6-1.2,6.8-2.2c2.8-1.5,6-2.3,9.2-2.1
		c3.9,0.2,5.8,0.6,9,0.9s9.3-1.2,9.9-1.4L185.1,187.6z"/>
	<path class="st11" d="M130,182.3l0.1-0.2c2.1,0.9,4.5,1.3,6.8,1.2c3.9-0.2,12.6-1.3,13.1-1s0.7,0.2-0.4,0.9s-14.5,3.6-18.5,3
		l-0.2,0.2L130,182.3z"/>
	<path class="st11" d="M181.1,179.1c0,0-4.1,1.9-14.7,0.9c0,0-6.8-0.3-10.5,1.8c-3,1.5-6,2.9-9.2,4c-0.7,0.4-2.4,0.8-1.1,1.1
		s6.8-1.4,8.7-2.4c1.4-0.8,2.9-1.5,4.5-1.9c1.4-0.4,5.4-0.5,9.8,0s10.2,0.9,11.6,0.2s2.1-1,2.1-1L181.1,179.1z"/>
	<g class="st12">
		<path class="st4" d="M156.6,178.3L156.6,178.3l-0.2,0.1c-0.2,0.1-0.4,0.2-0.7,0.4c-0.6,0.3-1.4,0.7-2.5,1.1
			c-1.3,0.5-2.6,0.9-3.9,1.2c-1.6,0.4-3.3,0.6-5,0.7c-3,0.2-6.1,0.1-9.1-0.2l-2.8-0.3l-0.7-0.1h-0.2h0.2l0.8,0.1l2.8,0.2
			c3,0.3,6.1,0.4,9.1,0.2c1.7-0.1,3.3-0.4,4.9-0.7c1.3-0.3,2.6-0.7,3.9-1.1c1.1-0.4,1.9-0.8,2.5-1.1c0.3-0.1,0.5-0.3,0.7-0.3
			l0.2-0.1L156.6,178.3z"/>
	</g>
	<g class="st12">
		<path class="st4" d="M161.3,177.6c0,0-0.7,0.1-1.6,0.2s-1.6,0.3-1.6,0.2c0.5-0.2,1.1-0.3,1.6-0.4
			C160.2,177.5,160.7,177.5,161.3,177.6z"/>
	</g>
	<g class="st12">
		<path class="st4" d="M177.1,178.4c0,0-2.9-0.1-6.4-0.4s-6.4-0.5-6.4-0.6s2.9,0.1,6.4,0.4S177.1,178.4,177.1,178.4z"/>
	</g>
	<g class="st12">
		<path class="st4" d="M133.5,191.1c-0.1-0.1-0.1-0.2-0.1-0.3c-0.1-0.2-0.2-0.5-0.3-0.8c-0.2-0.7-0.5-1.6-0.8-2.7s-0.6-2-0.7-2.7
			c-0.1-0.4-0.1-0.6-0.2-0.8c0-0.1,0-0.2,0-0.3c0,0.1,0.1,0.2,0.1,0.3l0.2,0.8l0.8,2.7c0.3,1,0.6,2,0.8,2.7c0.1,0.3,0.2,0.6,0.2,0.8
			C133.5,190.9,133.5,191,133.5,191.1z"/>
	</g>
	<path class="st9" d="M185.1,177.6c-0.7-1-1.7-1.8-2.9-2c-1.2-0.3-2.4-0.4-3.6-0.7c-2.3-0.6-4.3-1.9-6.6-2.6
		c-5.2-1.5-10.6,0.6-15.6,2.8c-3.3,0.5-5.7-0.8-8.9-1.7s-6.7-1.8-9.8-0.6c-2.4,0.8-4.4,2.7-6.9,2.8c-1.7,0.1-3.7-0.6-5,0.5
		c-1.1,1-0.9,2.8-0.1,4c1.3,1.8,3.6,2.6,5.8,2.8s4.5,0,6.6,0.6c5.1,1.2,8.7,6.2,13.9,7.4c3.9,0.9,8-0.5,11.6-2.2s7.2-3.8,11.2-4.4
		c1.6-0.2,3.3-0.2,4.9-0.4c1.6-0.1,3.2-0.8,4.4-1.9C185.4,181,185.8,179.2,185.1,177.6z"/>
	<g class="st12">
		<path class="st4" d="M185.1,177.6c-0.7-1-1.7-1.8-2.9-2c-1.2-0.3-2.4-0.4-3.6-0.7c-2.3-0.6-4.3-1.9-6.6-2.6
			c-5.2-1.5-10.6,0.6-15.6,2.8c-3.3,0.5-5.7-0.8-8.9-1.7s-6.7-1.8-9.8-0.6c-2.4,0.8-4.4,2.7-6.9,2.8c-1.7,0.1-3.7-0.6-5,0.5
			c-1.1,1-0.9,2.8-0.1,4c1.3,1.8,3.6,2.6,5.8,2.8s4.5,0,6.6,0.6c5.1,1.2,8.7,6.2,13.9,7.4c3.9,0.9,8-0.5,11.6-2.2s7.2-3.8,11.2-4.4
			c1.6-0.2,3.3-0.2,4.9-0.4c1.6-0.1,3.2-0.8,4.4-1.9C185.4,181,185.8,179.2,185.1,177.6z"/>
	</g>
	<path class="st9" d="M165,181c-2.9-5.6-9.8-7.7-15.4-4.7c-2,1-3.6,2.6-4.6,4.5c-0.5,0.9-0.2,2,0.7,2.5c5.4,3.2,12.6,3.8,18.2,1.1
		c0.7-0.2,1.2-0.7,1.6-1.4C165.6,182.4,165.4,181.6,165,181z"/>
	<g class="st13">
		<path class="st4" d="M161.3,182.2c-0.5,0-0.9,0.1-1.3,0.2c-2.8,0.7-5.8,0.5-8.5-0.8c-0.6-0.3-1.3-0.8-1.3-1.5c0-0.4,0.2-0.7,0.4-1
			c0.2-0.3,0.3-0.7,0.2-1c-0.1-0.3-0.6-0.6-0.8-0.3c-1,0.6-1.8,1.3-2.6,2.1c-0.6,0.7-0.8,1.6-0.5,2.5c0.3,0.5,0.8,0.9,1.4,1.2
			c2.6,1.3,5.6,1.4,8.4,1.4c1.7,0,3.4,0,4.8-0.9c0.4-0.2,0.6-0.6,0.7-1C162.2,182.6,161.8,182.3,161.3,182.2z"/>
	</g>
	<g class="st12">
		<path class="st4" d="M157.9,189.1c-0.6,1.7-7.1,0.6-10-1.3c-2.3-1.5-4.1-3.9-6.6-5c-2.3-1-4.8-1-7.3-1.2s-5.7-0.5-7.2-2.5
			c0,0-0.6-0.5,0.6-0.6c1.2-0.1,0.5,1,4,1.6c3.5,0.6,6.2-1.5,12.8,3.7s9.1,5.1,10.5,5S158.1,188.3,157.9,189.1z"/>
	</g>
	<g class="st12">
		<path class="st4" d="M127.6,176.4c-0.4,0.1-0.7,0.2-1,0.4c-0.3,0.2-0.5,0.5-0.7,0.8c0,0,0-0.1,0.1-0.3c0.1-0.2,0.3-0.5,0.5-0.6
			c0.2-0.2,0.5-0.3,0.8-0.3C127.3,176.4,127.5,176.4,127.6,176.4z"/>
	</g>
	<g class="st12">
		<path class="st4" d="M140.1,173.4c-0.5,0-0.9,0-1.4,0c-0.5,0-1,0.1-1.5,0.3c-0.6,0.2-1.1,0.5-1.6,0.9c-0.5,0.4-1,0.7-1.6,1.1
			c-0.4,0.3-0.9,0.5-1.4,0.6c-0.3,0.1-0.7,0.1-1,0l-0.3-0.1h-0.1c0,0,0.1,0,0.4,0.1c0.3,0.1,0.7,0.1,1,0c0.5-0.1,1-0.3,1.4-0.6
			c0.5-0.3,1-0.7,1.5-1.1c0.5-0.4,1.1-0.7,1.7-0.9c0.5-0.2,1-0.3,1.5-0.3c0.3,0,0.7,0,1,0.1l0.3,0.1L140.1,173.4z"/>
	</g>
	<g class="st12">
		<path class="st4" d="M173.9,178.2c0,0-0.2,0-0.6,0.1c-0.5,0.1-1,0.3-1.5,0.5c-0.7,0.3-1.4,0.7-2,1.2c-0.7,0.5-1.4,1.2-2.2,1.8
			c-1.3,1.2-2.7,2.1-4.3,2.9c-0.5,0.2-1,0.4-1.5,0.5c-0.2,0-0.3,0.1-0.4,0.1h-0.1c0.2-0.1,0.4-0.1,0.6-0.2c0.5-0.1,1-0.3,1.4-0.6
			c1.5-0.8,3-1.8,4.2-2.9c0.7-0.6,1.4-1.3,2.2-1.8c0.6-0.5,1.3-0.9,2-1.2c0.5-0.2,1-0.4,1.5-0.4c0.2,0,0.3,0,0.4,0L173.9,178.2z"/>
	</g>
	<g class="st12">
		<path class="st4" d="M182.9,181.5c0.2-0.1,0.4-0.3,0.6-0.4c0.4-0.4,0.7-1,0.8-1.6c0-0.6-0.1-1.2-0.5-1.7c-0.2-0.2-0.3-0.4-0.5-0.5
			c0,0,0.1,0,0.2,0.1c0.2,0.1,0.3,0.2,0.4,0.4c0.4,0.5,0.6,1.1,0.6,1.7c-0.1,0.6-0.4,1.2-0.9,1.6c-0.1,0.1-0.3,0.2-0.5,0.3
			C183,181.5,182.9,181.5,182.9,181.5z"/>
	</g>
	<g class="st12">
		<path class="st4" d="M144.6,174.7c-1.9-1-4-1.4-6.1-1c-1.4,0.2-2.6,0.9-3.3,2.1c-0.2,0.4,0.5,0.6,0.8,0.5c0.3-0.2,0.6-0.4,0.9-0.6
			c1.5-0.9,3.2-1.2,4.9-0.8c0.8,0.3,1.7,0.5,2.6,0.6c0.3,0,0.6-0.1,0.6-0.4S144.7,174.8,144.6,174.7z"/>
	</g>
	<g class="st12">
		<path class="st4" d="M154,175.6l-0.4,0.1l-0.5,0.1c-0.2,0.1-0.4,0.1-0.6,0.1c-0.3,0.1-0.5,0.1-0.8,0.2c-0.3,0.1-0.5,0.2-0.8,0.3
			c-0.6,0.3-1.2,0.6-1.8,1c-0.6,0.4-1.1,0.8-1.6,1.3c-0.2,0.2-0.4,0.4-0.6,0.7c-0.2,0.2-0.3,0.4-0.5,0.6c-0.1,0.2-0.3,0.3-0.4,0.5
			c-0.1,0.2-0.2,0.3-0.3,0.4c-0.1,0.1-0.1,0.2-0.2,0.4c0.1-0.1,0.1-0.3,0.2-0.4c0.1-0.1,0.2-0.3,0.3-0.4c0.1-0.2,0.2-0.4,0.4-0.6
			c0.2-0.2,0.3-0.4,0.5-0.6c0.2-0.2,0.4-0.5,0.6-0.7c0.5-0.5,1-0.9,1.6-1.3c0.6-0.4,1.2-0.7,1.8-1c0.3-0.1,0.6-0.2,0.9-0.3
			s0.5-0.1,0.8-0.2c0.2-0.1,0.4-0.1,0.6-0.1c0.2,0,0.3-0.1,0.5-0.1L154,175.6z"/>
	</g>
	<g class="st12">
		<path class="st4" d="M156.5,175.7c-0.2,0-0.4,0-0.6-0.1c-0.2,0-0.4,0-0.6-0.1c0.2-0.1,0.4-0.1,0.7-0.1
			C156.1,175.5,156.3,175.6,156.5,175.7z"/>
	</g>
	<path class="st6" d="M132.2,178.7l0.1-4.8c0-0.3,0.2-0.6,0.5-0.6c1.9-0.4,3.7-0.9,5.4-1.7c2.3-1.1,5.1-2.7,7-3.5
		c2.2-0.9,8-3.7,9.1-4.1c0.1,0,0.2,0,0.4,0l22.1,4.7h0.1c0.4,0,2.4,0.1,2.5,1.1s0,4.1-0.1,5.3c0,0.3-0.2,0.5-0.4,0.6
		c-2,0.8-11.5,4.8-13.8,7.2c-2.6,2.7-5.7,5-6.9,5s-5.6-1.5-6.9-1.9s-16-5.6-18.8-6.6C132.4,179.2,132.2,179,132.2,178.7z"/>
	<path class="st7" d="M179.5,169.9c0,0-7.3,3.3-10.5,4.7c-2.6,1.2-5,3-6.9,5.1c-1.4,1.4-2.1,2.4-4.3,2.4s-9.2-2.7-12.7-4.1
		s-10.7-3.9-12.4-4.5c-0.1,0-0.3,0-0.3,0.2c0,0,0,0.1,0,0.1v0.9l-0.1,4.5c0,0,17.9,6.4,19.2,6.8s5.7,2,6.9,1.9s4.3-2.4,6.9-5
		s14.2-7.4,14.2-7.4S179.6,170.9,179.5,169.9z"/>
	<path class="st7" d="M145.1,169.9c-0.4,0-0.6,0.3-0.6,0.5s0.5,0.4,0.8,0.4s0.7-0.3,0.7-0.5s-0.4-0.4-0.8-0.4"/>
	<path class="st7" d="M167.4,172.6c-0.4,0-0.6,0.3-0.6,0.5s0.4,0.4,0.8,0.4s0.7-0.3,0.7-0.5s-0.4-0.4-0.8-0.4"/>
	<path class="st7" d="M167.5,171.6c-0.2,0-0.4,0.2-0.3,0.3c0.1,0.2,0.3,0.3,0.5,0.2c0.2,0,0.4-0.1,0.4-0.3s-0.2-0.3-0.4-0.3"/>
	<path class="st7" d="M162.9,175.6c-0.2,0-0.4,0.2-0.3,0.3s0.3,0.2,0.5,0.2s0.4-0.1,0.4-0.3s-0.2-0.3-0.4-0.3"/>
	<path class="st7" d="M143.1,170.5c-0.2,0-0.4,0.2-0.3,0.3c0.1,0.2,0.3,0.2,0.5,0.2c0.2,0,0.4-0.1,0.4-0.3S143.4,170.5,143.1,170.5"
		/>
	<path class="st5" d="M132.7,173.6h0.1l0.4,0.1l1.4,0.5c1.3,0.4,3,1.1,5.3,1.8c1.1,0.4,2.3,0.8,3.6,1.3s2.6,1.1,4.1,1.6
		s3,1.1,4.6,1.7c0.8,0.3,1.6,0.6,2.4,0.8c0.8,0.3,1.7,0.5,2.6,0.6c0.1,0,0.2,0,0.3,0c0.1,0,0.2,0,0.3,0h0.3h0.3
		c0.4,0,0.8-0.2,1.2-0.4c0.8-0.4,1.4-1,2-1.6c1.1-1.2,2.3-2.3,3.6-3.3c1.2-0.9,2.4-1.7,3.8-2.3l3.5-1.6l5.1-2.3l1.4-0.6l0.4-0.2
		l0.1-0.1l-0.1,0.1l-0.4,0.2l-1.4,0.6l-5.1,2.3l-3.5,1.6c-1.3,0.6-2.6,1.3-3.8,2.3c-1.3,1-2.5,2.1-3.6,3.3c-0.6,0.7-1.2,1.2-2,1.6
		c-0.4,0.2-0.8,0.3-1.3,0.4h-0.3h-0.7c-0.1,0-0.2,0-0.3,0c-0.9-0.1-1.7-0.3-2.6-0.6c-0.8-0.3-1.6-0.5-2.4-0.8
		c-1.6-0.6-3.1-1.1-4.6-1.7s-2.8-1.1-4.1-1.6s-2.5-0.9-3.6-1.3l-5.2-1.9l-1.4-0.5l-0.4-0.1L132.7,173.6z"/>
	<g class="st13">
		<path class="st4" d="M161.5,166.6c-2.5-0.7-5-0.9-7.6-0.7c-2.5,0.5-4.8,1.4-7,2.7c-2.4,1.3-4.8,2.6-7.2,4
			c-0.4,0.2-0.5,0.7-0.3,1.1c0,0,0,0,0,0.1l0,0c1.4,1.3,3.2,1,4.9,0.3s3.3-2.3,4.8-3.5s3.5-2.3,5.5-2c1,0.3,2,0.6,2.9,1
			c1.1,0.3,2.2,0.5,3.3,0.5l5.9,0.3c0.6,0,1-0.5,1-1c0-0.3-0.2-0.6-0.4-0.8C165.5,167.5,163.5,166.9,161.5,166.6z"/>
	</g>
</g>
<g id="freepik--Burger--inject-155">
	<path class="st7" d="M300.2,95.2c-1.1,1.3-1.8,2.9-1.8,4.6c0,1.7,0.3,3.4,0.9,5c1.5,3.6,6.6,6.2,10.4,6.9c3.8,0.7,11.6,2.8,21,0.1
		c7.1-2,12.3-5.2,12.3-12.2c-0.1-7.1-7.4-11-23.1-11.5C308.8,87.6,302.8,92.4,300.2,95.2z"/>
	<path class="st14" d="M343,99.5c0-0.7-0.1-1.3-0.2-2c-0.1,2-1.8,3.6-3.8,4.7c-3.3,1.9-6.9,3.4-10.6,4.4c-3.6,0.9-7.3,1.4-11,1.5
		c-4,0-7.9-0.8-11.6-2.4c-3.6-1.5-6.6-3.5-7.3-7.2c-0.1,0.4-0.1,0.8-0.1,1.2c0,1.7,0.3,3.4,0.9,5c1.5,3.6,6.6,6.2,10.4,6.9
		c3.8,0.7,11.6,2.7,21,0.1C337.9,109.8,343,106.6,343,99.5z"/>
	<g class="st13">
		<path d="M338.4,94.9c-1.4-1.5-3.2-2.6-5.2-3.2c-3.9-1.3-8.1-1.5-12.1-0.5l-15.9,2.3c-1.4,2.4-0.6,5.6,1.8,7
			c0.4,0.2,0.8,0.4,1.2,0.5c0.7,1.9,2.7,2.9,4.7,2.5c0.7-0.3,1.5-0.5,2.3-0.6c0.8,0,1.6,0.5,2.4,0.1c0.5-0.2,0.7-0.7,1.1-1
			c0.5-0.5,1.1-0.9,1.9-0.9c1.6-0.2,3.3,1,4.8,0.3c1.2,1.1,3.1,1,4.2-0.2c0.4-0.5,0.7-1.1,0.8-1.8c1,0.6,2.4,0.5,3.3-0.4
			c1,0.4,2.1,0.7,3.3,0.7c1.1,0,2.2-0.8,2.5-1.8C339.5,96.6,339.1,95.6,338.4,94.9z"/>
	</g>
	<path class="st5" d="M342,95.5c0,0,0.1,0.1,0.1,0.1l0.2,0.3c0.3,0.5,0.4,1,0.4,1.5c0,0.8-0.3,1.6-0.8,2.3c-0.6,0.9-1.5,1.7-2.4,2.3
		c-1,0.6-2.2,1.3-3.5,1.9c-1.3,0.6-2.7,1.2-4.2,1.8c-1.6,0.6-3.2,1.1-4.9,1.4c-1.8,0.4-3.6,0.7-5.4,0.8c-0.9,0.1-1.9,0.2-2.8,0.2
		c-0.9,0.1-1.8,0.1-2.7,0.1c-1.7-0.1-3.4-0.3-5-0.7c-1.5-0.4-3-0.8-4.4-1.4c-1.3-0.5-2.5-1-3.6-1.7c-1-0.5-1.8-1.2-2.6-2
		c-0.6-0.6-1.1-1.3-1.5-2c-0.2-0.5-0.4-1-0.5-1.5l-0.1-0.4c0,0,0-0.1,0-0.1v0.1c0,0.1,0.1,0.2,0.1,0.4c0.3,1.3,1,2.5,1.9,3.5
		c0.8,0.8,1.6,1.5,2.6,2c1.2,0.7,2.4,1.2,3.6,1.7c1.4,0.5,2.9,1,4.3,1.3c1.6,0.4,3.3,0.6,5,0.7c0.9,0,1.8,0,2.7-0.1
		c0.9-0.1,1.8-0.1,2.8-0.2c1.8-0.2,3.6-0.4,5.4-0.8c1.7-0.4,3.3-0.8,4.9-1.4c1.5-0.6,2.9-1.2,4.2-1.8c1.3-0.6,2.5-1.2,3.5-1.9
		c0.9-0.6,1.7-1.3,2.4-2.2c0.5-0.7,0.8-1.5,0.8-2.3c0-0.5-0.1-1-0.4-1.5l-0.2-0.3L342,95.5z"/>
	<path class="st4" d="M300.9,101.8L300.9,101.8c-0.1-0.1-0.2-0.2-0.3-0.3c-0.2-0.3-0.4-0.5-0.6-0.8c-0.5-1-0.7-2.1-0.6-3.2
		c0.2-1.1,0.7-2.1,1.5-2.8c0.2-0.2,0.5-0.4,0.8-0.6L302,94c0.1,0,0.1,0,0.1,0c-0.4,0.2-0.7,0.5-1,0.8c-0.8,0.7-1.3,1.7-1.5,2.8
		c-0.2,1.1,0,2.1,0.5,3.1C300.4,101.1,300.6,101.4,300.9,101.8z"/>
	<path class="st4" d="M303,103.5c-0.2-0.1-0.5-0.2-0.7-0.4c-0.2-0.1-0.4-0.3-0.6-0.5c0.2,0.1,0.5,0.2,0.7,0.4
		C302.6,103.2,302.8,103.3,303,103.5z"/>
	<path class="st15" d="M318.7,81.5c2.7,1.9,4.5,2.1,6.8,3.3c2.7,1.3,5.8,1.6,8.7,1c1.4-0.2,3-0.7,4.1,0.2c0.2,0.2,0.4,0.4,0.7,0.6
		c0.3,0.2,0.6,0.4,1,0.6c0.7,0.3,1.4,0.8,1.8,1.5c0.3,0.7-0.2,1.8-1,1.7c0.3,0.2,0.3,0.7,0.1,1c-0.2,0.3-0.5,0.6-0.7,1
		c-0.2,0.5-0.1,1.1,0.1,1.7c1.2,0.3,2,1.4,1.7,2.6c0,0.1,0,0.2-0.1,0.2c-0.1,0.2-0.2,0.5-0.3,0.8c0,0.3,0,0.6,0,0.9
		c-0.1,0.9-0.9,1.5-1.8,1.5c-0.2,1-1,1.7-1.9,1.9c0.4,0.2,0.6,0.7,0.4,1.1c-0.2,0.4-0.6,0.5-0.9,0.5c0.3,1.3-0.5,2.5-1.7,2.8
		c-0.2,0-0.3,0.1-0.5,0.1c-0.4,1-1.1,1.8-2.1,2.3c-0.4,0.3-0.9,0.5-1.4,0.6c-0.9-0.1-1.4-1-2.2-1.3c-0.4-0.1-0.7-0.1-1.1-0.2
		c-0.3-0.1-0.7-0.4-0.7-0.8c-0.3,0.4-0.8,0.5-1.2,0.4c-0.4-0.2-0.7-0.5-1-0.9c0.5,1.4-0.2,3-1.6,3.5c-1.2,0.5-2.6,0-3.3-1.2
		c-0.3,0.4-0.8,0.6-1.2,0.4c-0.4-0.2-0.8-0.5-1.1-0.8c-0.4,0.5-0.9,1.1-1.5,1.1c-0.2,0-0.4,0-0.6,0c-0.3,0.1-0.5,0.4-0.7,0.7
		c-0.4,0.7-1.2,1-2,1c-0.8-0.1-1.5-0.7-1.6-1.4c-0.2,0.5-0.8,0.8-1.3,0.7c-0.5-0.1-0.9-0.6-0.9-1.2c-0.6,0.3-1.3-0.2-1.8-0.8
		c-0.8-1.1-1.1-2.4-0.8-3.6c-0.3,0.4-0.9,0.4-1.3,0.1c0,0,0,0,0,0c-0.4-0.4-0.6-0.8-0.7-1.3c-0.2,0.7-0.9,1.2-1.7,1.2
		c-0.8-0.2-1.4-0.7-1.6-1.4c-0.2-0.7-0.3-1.5-0.3-2.2c-0.1-1.3,0.1-2.6,0.5-3.8c0.3-0.7,0.7-1.3,1.2-1.9c0.6-0.9,1.3-1.8,2-2.7
		c1.8-1.7,3.8-3.3,6-4.6c2.2-1.5,5-3.5,5.9-5.9c0.3-0.7,0.3-1.5,0.4-1.6S318.7,81.5,318.7,81.5"/>
	<path class="st4" d="M317.2,80.5L317.2,80.5l0.1,0.1l0.5,0.3c0.4,0.3,1,0.7,1.7,1.2c1.4,1,3.3,2.4,5.5,3.8c1,0.7,2.1,1.2,3.3,1.7
		c0.9,0.4,1.9,0.6,2.9,0.8c0.7,0.1,1.3,0.2,2,0.2h0.6h-0.5c-0.7,0-1.3,0-2-0.1c-1-0.2-2-0.4-2.9-0.8c-1.1-0.5-2.2-1-3.3-1.7
		c-2.2-1.4-4.1-2.8-5.5-3.8l-1.7-1.2l-0.5-0.3L317.2,80.5L317.2,80.5z"/>
	<path class="st4" d="M332,89.9L332,89.9h-0.1l-0.5-0.1c-0.4-0.1-1-0.3-1.8-0.5c-0.9-0.2-1.8-0.5-2.6-0.9c-1-0.5-2-1.2-2.8-2
		c-1.8-1.5-3.5-2.9-4.7-3.9l-1.4-1.1l-0.4-0.3l-0.1-0.1l0,0l0,0l0.1,0.1l0.4,0.3l1.4,1.2l4.7,3.8c0.8,0.8,1.7,1.4,2.7,1.9
		c0.8,0.4,1.7,0.7,2.6,0.9c0.8,0.2,1.4,0.4,1.8,0.5l0.5,0.2L332,89.9L332,89.9z"/>
	<path class="st4" d="M332.6,99.4L332.6,99.4l-0.2-0.1c-0.1-0.1-0.3-0.2-0.6-0.4c-0.7-0.5-1.4-1-2-1.6c-0.4-0.4-0.8-0.8-1.3-1.3
		c-0.5-0.5-0.9-1.1-1.3-1.6c-1-1.3-1.8-2.6-2.5-4.1c-0.4-0.8-0.7-1.5-1.1-2.2c-0.4-0.7-0.8-1.3-1.3-1.9c-0.9-1.2-1.8-2.1-2.5-3
		c-0.7-0.8-1.4-1.4-1.8-1.9l-0.5-0.5l-0.1-0.1l0,0l0,0l0.1,0.1l0.5,0.5c0.4,0.4,1.1,1.1,1.8,1.9c0.9,0.9,1.7,1.9,2.5,2.9
		c0.5,0.6,0.9,1.2,1.3,1.9c0.4,0.7,0.8,1.4,1.1,2.2c0.7,1.4,1.5,2.8,2.4,4c0.4,0.6,0.9,1.1,1.3,1.6c0.4,0.5,0.9,0.9,1.3,1.3
		c0.6,0.6,1.3,1.1,2,1.6l0.6,0.4l0.2,0.1L332.6,99.4z"/>
	<path class="st4" d="M323.6,102.4C323.6,102.4,323.6,102.4,323.6,102.4v-0.2c0-0.2,0-0.4,0-0.7c0-0.6,0-1.5,0-2.5
		c0-1.1,0-2.3-0.1-3.7c0-0.7-0.1-1.4-0.3-2.2c-0.1-0.8-0.3-1.6-0.5-2.3c0-0.2-0.1-0.4-0.2-0.6s-0.1-0.4-0.2-0.6
		c-0.1-0.4-0.3-0.7-0.4-1.1c-0.3-0.7-0.6-1.4-1-2c-0.7-1.2-1.4-2.3-1.9-3.2s-1.1-1.6-1.4-2.1l-0.4-0.6l-0.1-0.2l0,0l0,0l0.1,0.1
		c0.1,0.1,0.2,0.3,0.4,0.6c0.4,0.5,0.9,1.2,1.4,2.1c0.6,0.9,1.3,2,2,3.2c0.4,0.6,0.7,1.3,1,2c0.2,0.3,0.3,0.7,0.4,1.1
		c0.1,0.2,0.1,0.4,0.2,0.6c0.1,0.2,0.1,0.4,0.2,0.6c0.2,0.8,0.4,1.5,0.5,2.3c0.1,0.8,0.2,1.5,0.3,2.2c0.1,1.4,0.1,2.7,0.1,3.7
		c0,1.1,0,1.9-0.1,2.5v0.7L323.6,102.4L323.6,102.4z"/>
	<path class="st4" d="M313.4,104.5C313.4,104.4,313.4,104.4,313.4,104.5v-0.2c0-0.2,0.1-0.4,0.2-0.7c0.2-0.6,0.4-1.5,0.8-2.5
		s0.8-2.3,1.3-3.7c0.2-0.7,0.5-1.4,0.6-2.2c0.2-0.8,0.3-1.6,0.4-2.4c0.2-1.6,0.2-3.2,0.2-4.8c0-1.5,0-2.8,0-3.9s0-2,0.1-2.6
		c0-0.3,0-0.5,0.1-0.7v-0.2v-0.1v0.2c0,0.2,0,0.4-0.1,0.7c0,0.6,0,1.5-0.1,2.6s0,2.4,0,3.9c0,1.6,0,3.2-0.2,4.8
		c-0.1,0.8-0.2,1.6-0.4,2.4c-0.2,0.8-0.4,1.5-0.6,2.2c-0.5,1.4-0.9,2.6-1.3,3.7s-0.7,1.9-0.8,2.5c-0.1,0.3-0.1,0.5-0.2,0.7
		L313.4,104.5C313.3,104.4,313.3,104.4,313.4,104.5z"/>
	<path class="st4" d="M316.1,101.5c0,0,0-0.1,0-0.3s0.1-0.4,0.1-0.8c0.1-0.7,0.2-1.5,0.3-2.6c0.1-1,0.1-1.9,0-2.6v-0.8
		c0-0.1,0-0.2,0-0.3c0,0.1,0,0.2,0,0.3c0,0.2,0,0.4,0,0.8c0,0.7,0,1.6,0,2.6c0,0.9-0.1,1.7-0.3,2.6c-0.1,0.3-0.1,0.6-0.2,0.8
		C316.1,101.3,316.1,101.4,316.1,101.5z"/>
	<path class="st4" d="M309.1,99.2l0.1-0.1l0.3-0.4c0.1-0.2,0.3-0.4,0.4-0.6c0.2-0.2,0.4-0.5,0.6-0.8c0.4-0.6,0.9-1.3,1.4-2.1
		s1.1-1.7,1.6-2.7c0.5-1,1-1.9,1.5-2.8c0.5-0.9,0.8-1.7,1.1-2.3c0.1-0.3,0.3-0.6,0.4-0.9c0.1-0.3,0.2-0.5,0.3-0.7l0.2-0.4l0.1-0.2
		c0,0,0,0.1-0.1,0.2l-0.2,0.5c-0.1,0.2-0.1,0.4-0.3,0.7c-0.1,0.3-0.2,0.6-0.4,0.9c-0.3,0.7-0.6,1.5-1.1,2.3
		c-0.4,0.9-0.9,1.8-1.5,2.8c-0.5,1-1.1,1.9-1.6,2.7c-0.5,0.8-1,1.5-1.5,2.1c-0.2,0.3-0.4,0.6-0.6,0.8c-0.2,0.2-0.3,0.4-0.5,0.6
		l-0.3,0.4L309.1,99.2z"/>
	<path class="st4" d="M302.3,103c-0.1-0.1-0.1-0.2-0.2-0.3c0,0,0-0.1-0.1-0.1l-0.1-0.2l-0.1-0.2c0-0.1-0.1-0.2-0.1-0.2
		c-0.1-0.4-0.2-0.8-0.2-1.2c0-0.5,0-1,0.1-1.5c0.1-0.9,0.4-1.7,0.9-2.5c0.1-0.2,0.2-0.3,0.2-0.4l0.2-0.3l0.2-0.2
		c0,0.1-0.1,0.2-0.1,0.3c-0.1,0.1-0.1,0.2-0.2,0.3c-0.1,0.1-0.1,0.3-0.2,0.4c-0.4,0.8-0.7,1.6-0.8,2.5c-0.1,0.5-0.1,1-0.1,1.4
		c0,0.4,0.1,0.8,0.2,1.2C302,102.3,302.1,102.7,302.3,103z"/>
	<path class="st4" d="M305.5,104.1c-0.1-0.2-0.2-0.4-0.3-0.7c-0.1-0.2-0.1-0.5,0-0.7c0,0,0,0.3,0.1,0.7
		C305.4,103.8,305.5,104.1,305.5,104.1z"/>
	<path class="st4" d="M308.1,107.8c0,0,0,0-0.1-0.1c-0.1-0.1-0.2-0.2-0.3-0.3c-0.1-0.2-0.2-0.3-0.3-0.5c-0.1-0.2-0.2-0.5-0.2-0.7
		c-0.1-0.2-0.1-0.5-0.1-0.8c0-0.2,0-0.4,0.1-0.6c0-0.1,0.1-0.3,0.1-0.4l0.1-0.1c0,0,0,0.2-0.1,0.5c0,0.2-0.1,0.4-0.1,0.6
		c0,0.2,0,0.5,0.1,0.7c0.1,0.2,0.1,0.5,0.2,0.7c0.1,0.2,0.2,0.4,0.3,0.5C307.9,107.6,308.1,107.7,308.1,107.8z"/>
	<path class="st4" d="M312.8,110.2c-0.2-0.1-0.4-0.3-0.5-0.6c-0.1-0.2-0.1-0.5,0-0.8c0,0.2,0.1,0.5,0.1,0.7
		C312.6,109.8,312.7,110,312.8,110.2z"/>
	<path class="st4" d="M319.2,108.4c0,0-0.1-0.1-0.2-0.3c-0.2-0.2-0.3-0.5-0.3-0.8c-0.1-0.3-0.1-0.6,0-0.8c0-0.1,0.1-0.2,0.1-0.3
		c0,0,0,0.1-0.1,0.3c-0.1,0.3-0.1,0.5,0,0.8c0,0.3,0.1,0.5,0.3,0.8C319.1,108.3,319.2,108.4,319.2,108.4z"/>
	<path class="st4" d="M321.5,109.1c0,0,0,0-0.1-0.1c-0.1-0.1-0.1-0.2-0.2-0.3c-0.1-0.2-0.2-0.3-0.2-0.5c-0.1-0.4-0.1-0.9,0-1.4
		c0-0.2,0.1-0.4,0.2-0.5c0.1-0.1,0.1-0.2,0.2-0.3l0.1-0.1c0,0-0.1,0.2-0.2,0.5c-0.1,0.2-0.1,0.3-0.1,0.5c0,0.2-0.1,0.4-0.1,0.7
		c0,0.2,0,0.4,0.1,0.7c0,0.2,0.1,0.4,0.2,0.5C321.4,109,321.5,109.1,321.5,109.1z"/>
	<g class="st13">
		<path d="M306.9,90.3c-0.2,0.8-0.5,1.5,0.2,1.9c0.7,0.4,1.5,0.6,2.2,1c0.7,0.3,1.2,1.1,1.1,1.9c-0.1,0.5-0.5,0.9-0.3,1.3
			c0.7-0.6,1.2-1.5,1.5-2.4l1.7,1.3c0.4,0.2,0.7,0.5,0.9,0.9c0.6,1.3-1.1,2.8-0.5,4.2c0.5-0.9,0.9-1.8,1.2-2.8
			c0.9,1-0.5,2.9,0.4,3.8c0.2-0.9,0.3-1.8,0.5-2.8c1,1.5,2,2.9,3.2,4.3c0.3,0.4,0.6,0.7,1,0.9c1,0.3,2-0.6,2.6-1.5l0.4,1
			c0.6-0.4,0.4-1.3,0.7-1.9c0.3-0.5,0.8-0.8,1.4-1c1.9-0.9,4-1.8,6-1c-0.3-0.3-0.3-0.8,0-1.2c0,0,0,0,0.1-0.1
			c0.4-0.3,0.8-0.4,1.3-0.5c2.3-0.6,4.4-1.9,5.9-3.7c1.6-1.8,2.6-4.9,1.9-6.8c-1.1-0.3-2.2-0.5-3.3-0.5c-1.7,0-13.4,1-13.4,1
			l-9.7-1.6L306.9,90.3z"/>
	</g>
	<path class="st9" d="M340,97.1c0.5-1,0.4-5.6-0.7-6.5c-2.7-2.2-9.2-0.4-15.1-1c-5.6-0.5-11.3,0-16.8,1.6c-1.4,0.4-5.3-0.3-6.3,0.4
		c-0.3,1.5-0.4,3.1-0.2,4.6c0,2.2,1.3,4.2,3.3,5.2c4.9,2.2,10.2,3.4,15.5,3.4c5.2,0,12.7-1.4,15.6-2.8
		C337.5,101,339.1,99.3,340,97.1z"/>
	<path class="st9" d="M339.8,92.3c-0.4-4.3-7.3-6.5-15.6-7.3c-5.6-0.5-11.3,0-16.8,1.6c-3.3,1.1-5.4,2.7-6.3,5
		c-0.1,2.2,1.1,4.2,3,5.2c4.9,2.3,10.3,3.6,15.7,3.7c5.2,0,12.5-1.6,15.5-3C338.3,96,339.9,93.5,339.8,92.3z"/>
	<path class="st10" d="M323.6,86.3c-1.1,2-2.5,3.8-3.9,5.6c-1.3,1.9-2.8,3.6-4.4,5.2c1.1-2,2.5-3.8,3.9-5.6
		C320.5,89.6,321.9,87.9,323.6,86.3z"/>
	<path class="st10" d="M329.8,86.7c-1.1,1.9-2.4,3.7-3.8,5.3c-1.3,1.8-2.7,3.5-4.3,5c-0.1-0.1,1.6-2.5,3.8-5.3
		C327.8,88.9,329.7,86.6,329.8,86.7z"/>
	<path class="st10" d="M335.2,88.7c-0.7,1.5-1.7,2.9-2.8,4.2c-1,1.4-2.1,2.6-3.5,3.7c0.9-1.4,1.9-2.8,3-4
		C333.7,90.3,335.1,88.6,335.2,88.7z"/>
	<path class="st10" d="M315.8,86.5c-0.9,1.8-1.9,3.5-3.2,5.1c-1.1,1.7-2.4,3.2-3.9,4.6c-0.1-0.1,1.5-2.3,3.4-4.9
		C314.1,88.5,315.7,86.4,315.8,86.5z"/>
	<path class="st10" d="M309.4,87.8c-0.5,1-1.2,2-1.9,2.8c-0.6,1-1.4,1.8-2.2,2.6c0.4-1.1,1-2.1,1.7-3
		C307.6,89.3,308.4,88.5,309.4,87.8z"/>
	<path class="st4" d="M310.2,98.1H310l-0.3-0.1c-0.3-0.1-0.7-0.2-1.3-0.4c-0.6-0.2-1.2-0.4-1.8-0.7c-0.7-0.3-1.4-0.7-2-1.2
		c-0.6-0.5-1.1-1.1-1.6-1.8c-0.3-0.6-0.6-1.2-0.7-1.8c-0.1-0.4-0.1-0.9,0-1.3c0-0.1,0-0.2,0.1-0.3c0-0.1,0-0.1,0-0.1s0,0.2-0.1,0.5
		c-0.1,0.4-0.1,0.9,0,1.3c0.1,0.6,0.4,1.2,0.7,1.8c0.4,0.7,1,1.3,1.6,1.7c0.6,0.5,1.3,0.9,2,1.2c0.7,0.3,1.3,0.5,1.8,0.7l1.2,0.4
		L310.2,98.1L310.2,98.1z"/>
	<path class="st4" d="M313.8,98.4c-0.3,0-0.7,0-1,0c-0.3,0-0.7,0-1-0.1c0.3,0,0.7,0,1,0C313.2,98.3,313.5,98.3,313.8,98.4z"/>
	<path class="st4" d="M304.3,100.3c0,0-0.1,0-0.2-0.1c-0.2-0.1-0.3-0.2-0.5-0.3c-0.5-0.4-0.9-0.9-1.3-1.5c-0.3-0.6-0.6-1.2-0.7-1.8
		c0-0.2-0.1-0.4-0.1-0.6c0-0.1,0-0.1,0-0.2c0,0,0.1,0.3,0.2,0.8c0.2,0.6,0.4,1.2,0.7,1.8c0.3,0.6,0.8,1.1,1.3,1.5
		C304,100.2,304.3,100.3,304.3,100.3z"/>
	<path class="st7" d="M341.7,87.4c-1.3-5.1-6.4-14.5-22.5-13.6c-14.5,0.7-18.7,7.8-20.3,13.3c-0.9,3.2,1.5,7.7,4.4,9.4
		c4,2.4,9,2.9,13.5,3.2c6,0.4,12.1-0.2,17.9-1.8c3.4-0.9,6.1-3.4,7.2-6.7C342.1,89.9,342,88.6,341.7,87.4z"/>
	<path class="st10" d="M312.8,82.6c-0.5,0.1-1,0.4-1.2,0.9c-0.2,0.3-0.1,0.6,0.1,0.8c0,0,0.1,0.1,0.2,0.1c0.3,0.1,0.7-0.2,0.8-0.5
		C313,83.5,313,83,312.8,82.6z"/>
	<path class="st10" d="M305.5,84.2c0.5,0.1,1.1,0,1.5-0.3c0.3-0.2,0.4-0.5,0.2-0.8c0,0-0.1-0.1-0.1-0.1c-0.3-0.2-0.7-0.2-1,0.1
		C305.7,83.3,305.5,83.7,305.5,84.2z"/>
	<path class="st10" d="M314.4,78.8c-0.5-0.3-1-0.3-1.5,0c-0.3,0.1-0.5,0.4-0.4,0.7c0,0.1,0,0.1,0.1,0.2c0.3,0.3,0.7,0.3,1,0.1
		C314,79.6,314.3,79.2,314.4,78.8z"/>
	<path class="st10" d="M319.9,81.9c-0.1-0.5-0.5-0.9-1-1.1c-0.3-0.2-0.6-0.1-0.8,0.2c0,0.1-0.1,0.1-0.1,0.2
		c-0.1,0.3,0.2,0.7,0.6,0.8C319.1,82.2,319.5,82.1,319.9,81.9z"/>
	<path class="st10" d="M316.4,85.7c-0.4,0.4-0.6,0.9-0.5,1.4c0,0.3,0.3,0.6,0.6,0.6c0.1,0,0.1,0,0.2,0c0.3-0.2,0.5-0.5,0.4-0.9
		C317,86.4,316.8,86,316.4,85.7z"/>
	<path class="st10" d="M323.5,83.1c-0.3,0.4-0.4,1-0.2,1.5c0.1,0.3,0.4,0.5,0.7,0.5c0.1,0,0.1,0,0.2-0.1c0.3-0.1,0.4-0.6,0.2-1
		C324.2,83.6,323.9,83.3,323.5,83.1z"/>
	<path class="st10" d="M331.6,87c-0.2-0.5-0.6-0.9-1.1-1c-0.3-0.1-0.6,0-0.8,0.3c0,0.1,0,0.1,0,0.2c0,0.3,0.3,0.7,0.7,0.7
		C330.7,87.3,331.2,87.2,331.6,87z"/>
	<path class="st10" d="M333.9,83.4c0.1-0.5,0-1-0.4-1.4c-0.2-0.3-0.5-0.4-0.8-0.2c-0.1,0-0.1,0.1-0.1,0.1c-0.2,0.3-0.1,0.8,0.2,1
		C333.1,83.2,333.5,83.4,333.9,83.4z"/>
	<path class="st10" d="M327.6,79.4c0.4,0.4,0.9,0.6,1.4,0.5c0.3,0,0.6-0.3,0.6-0.6c0-0.1,0-0.1,0-0.2c-0.2-0.3-0.5-0.5-0.9-0.4
		C328.2,78.8,327.8,79,327.6,79.4z"/>
	<path class="st10" d="M319,77.6c0.4,0.4,0.9,0.6,1.4,0.5c0.3,0,0.6-0.2,0.6-0.6c0-0.1,0-0.1,0-0.2c-0.1-0.3-0.5-0.5-0.9-0.4
		C319.7,77,319.3,77.3,319,77.6z"/>
	<path class="st4" d="M312.8,82.1c-0.5,0.1-1,0.4-1.2,0.9c-0.2,0.3-0.1,0.6,0.1,0.8c0,0,0.1,0.1,0.2,0.1c0.3,0.1,0.7-0.2,0.8-0.5
		C313,83,313,82.5,312.8,82.1z"/>
	<path class="st4" d="M305.5,83.6c0.5,0.1,1.1,0,1.5-0.3c0.3-0.2,0.4-0.5,0.2-0.8c0,0-0.1-0.1-0.1-0.1c-0.3-0.2-0.7-0.2-1,0.1
		C305.7,82.8,305.5,83.2,305.5,83.6z"/>
	<path class="st4" d="M314.4,78.2c-0.5-0.3-1-0.3-1.5,0c-0.3,0.1-0.5,0.4-0.4,0.7c0,0.1,0,0.1,0.1,0.2c0.3,0.3,0.7,0.3,1,0.1
		C314,79,314.3,78.7,314.4,78.2z"/>
	<path class="st4" d="M319.9,81.4c-0.1-0.5-0.5-0.9-1-1.1c-0.3-0.2-0.6-0.1-0.8,0.2c0,0.1-0.1,0.1-0.1,0.2c-0.1,0.3,0.2,0.7,0.6,0.8
		C319.1,81.7,319.5,81.6,319.9,81.4z"/>
	<path class="st4" d="M316.4,85.2c-0.4,0.4-0.6,0.9-0.5,1.4c0,0.3,0.3,0.6,0.6,0.6c0.1,0,0.1,0,0.1,0c0.3-0.2,0.5-0.5,0.4-0.9
		C317,85.9,316.8,85.5,316.4,85.2z"/>
	<path class="st4" d="M323.5,82.6c-0.3,0.4-0.4,1-0.2,1.5c0.1,0.3,0.4,0.5,0.7,0.5c0.1,0,0.1,0,0.2-0.1c0.3-0.2,0.4-0.7,0.2-1
		C324.2,83.1,323.9,82.8,323.5,82.6z"/>
	<path class="st4" d="M331.6,86.4c-0.2-0.5-0.6-0.9-1.1-1c-0.3-0.1-0.6,0-0.8,0.3c0,0.1,0,0.1,0,0.2c0,0.3,0.3,0.7,0.7,0.7
		C330.7,86.7,331.2,86.7,331.6,86.4z"/>
	<path class="st4" d="M333.9,82.9c0.1-0.5,0-1-0.4-1.4c-0.2-0.3-0.5-0.4-0.8-0.2c-0.1,0-0.1,0.1-0.1,0.1c-0.2,0.3-0.1,0.8,0.2,1
		C333.1,82.7,333.5,82.9,333.9,82.9z"/>
	<path class="st4" d="M327.6,78.9c0.4,0.4,0.9,0.6,1.4,0.5c0.3,0,0.6-0.3,0.6-0.6c0-0.1,0-0.1,0-0.2c-0.2-0.3-0.5-0.5-0.9-0.4
		C328.2,78.3,327.8,78.5,327.6,78.9z"/>
	<path class="st4" d="M319,77.1c0.4,0.4,0.9,0.6,1.4,0.5c0.3,0,0.6-0.2,0.6-0.6c0-0.1,0-0.1,0-0.2c-0.1-0.3-0.5-0.5-0.9-0.4
		C319.7,76.5,319.3,76.8,319,77.1z"/>
	<path class="st5" d="M329.9,99.1L329.9,99.1h-0.3c-0.2,0-0.6,0.1-1,0.1c-0.9,0.1-2.1,0.3-3.7,0.4s-3.5,0.2-5.6,0.2
		c-1,0-2.1,0-3.3-0.1c-1.1-0.1-2.3-0.1-3.5-0.3c-1.2-0.2-2.4-0.4-3.5-0.6c-0.5-0.1-1.1-0.3-1.6-0.4c-0.5-0.2-1-0.3-1.5-0.6
		c-0.9-0.4-1.8-0.9-2.6-1.4c-0.7-0.5-1.4-1-2-1.6c-0.8-0.9-1.5-2-1.9-3.2c-0.2-0.4-0.3-0.9-0.4-1.3c0,0,0,0,0,0.1l0.1,0.3
		c0.1,0.2,0.2,0.5,0.3,1c0.5,1.2,1.1,2.2,1.9,3.2c0.6,0.6,1.3,1.2,2,1.6c0.8,0.5,1.7,1,2.6,1.4c0.5,0.2,1,0.4,1.5,0.6
		c0.5,0.2,1.1,0.3,1.6,0.4c1.1,0.3,2.3,0.5,3.5,0.6c1.2,0.2,2.4,0.2,3.5,0.3s2.2,0.1,3.3,0.1c2.1,0,4,0,5.5-0.1
		c1.5-0.1,2.9-0.2,3.7-0.3l1-0.1h0.3L329.9,99.1z"/>
	<path class="st5" d="M335.4,94.7l-0.3,0.2c-0.2,0.1-0.5,0.2-0.9,0.4c-2.1,0.8-4.2,1.2-6.5,1.3h-1h-0.4h0.4h1
		c1.1-0.1,2.2-0.2,3.3-0.4c1.1-0.2,2.1-0.5,3.2-0.9l0.9-0.3C335.2,94.8,335.3,94.7,335.4,94.7z"/>
	<g class="st13">
		<path d="M310.2,85.7c0.3,0,0.6,0.3,0.7,0.6c0,0.3-0.2,0.6-0.6,0.7c-0.3,0-0.6-0.2-0.7-0.5c-0.1-0.3,0.2-0.7,0.5-0.7"/>
	</g>
	<g class="st13">
		<path d="M310.2,79.4c0.4,0,0.6,0.3,0.7,0.6c0,0.4-0.3,0.6-0.6,0.7c-0.3,0-0.6-0.2-0.7-0.5c0-0.3,0.2-0.6,0.5-0.7"/>
	</g>
	<g class="st13">
		<path d="M334.9,84.9c0.5,0.1,1,0.5,0.9,1.1c-0.1,0.5-0.5,1-1.1,0.9c-0.5-0.1-1-0.5-0.9-1.1c0-0.5,0.4-0.9,0.9-0.9"/>
	</g>
	<g class="st13">
		<path d="M324.3,78.6c0.3,0.1,0.5,0.3,0.4,0.6c0,0.2-0.2,0.3-0.3,0.4c-0.3,0-0.5-0.2-0.6-0.4c0-0.3,0.1-0.5,0.4-0.6"/>
	</g>
	<g class="st13">
		<path d="M311.9,87.6c-0.1,0.1-0.2,0.2-0.1,0.3c0,0,0,0,0,0c0.1,0.1,0.2,0.1,0.3,0c0,0,0,0,0,0C312.2,87.8,312.1,87.5,311.9,87.6"
			/>
	</g>
	<path class="st4" d="M306.7,78l-0.1,0.1l-0.3,0.2l-0.4,0.3l-0.6,0.4c-0.2,0.2-0.4,0.3-0.7,0.5c-0.2,0.2-0.5,0.4-0.7,0.6
		c-0.5,0.5-1,1-1.5,1.6c-0.5,0.6-0.9,1.2-1.2,1.8c-0.2,0.3-0.3,0.6-0.5,0.8c-0.1,0.3-0.3,0.5-0.4,0.8s-0.2,0.5-0.3,0.6
		c-0.1,0.2-0.1,0.3-0.2,0.5l-0.1,0.3c0,0.1,0,0.1-0.1,0.1c0,0,0-0.1,0-0.1l0.1-0.3c0-0.1,0.1-0.3,0.2-0.5c0.1-0.2,0.1-0.4,0.2-0.7
		s0.2-0.5,0.3-0.8c0.1-0.3,0.3-0.6,0.4-0.9c0.4-0.6,0.8-1.3,1.3-1.8c0.5-0.6,1-1.1,1.5-1.6c0.3-0.2,0.5-0.4,0.7-0.6
		c0.2-0.2,0.5-0.3,0.7-0.5s0.4-0.3,0.6-0.4s0.3-0.2,0.5-0.3l0.3-0.2L306.7,78z"/>
	<path class="st4" d="M309.1,76.9c-0.2,0.1-0.4,0.3-0.6,0.3c-0.3,0.2-0.6,0.3-0.6,0.2c0.2-0.1,0.4-0.3,0.6-0.3
		C308.6,77.1,308.8,77,309.1,76.9z"/>
</g>
<g id="freepik--Character--inject-155">
	<path class="st5" d="M279.2,109.5c1.8-3,0.9-7.2-1.6-9.7s-6.2-3.6-9.7-3.6c-3.5,0.2-7.1,0.8-10.4,1.9c-3.7-5.1-10.8-6.2-15.8-2.5
		c-2,1.4-3.4,3.4-4.1,5.7c-3.7-1.6-7.9,0.1-9.4,3.8c-0.6,1.3-0.7,2.8-0.4,4.2l14.8,8l12.4,32.8c5,5.8,13.7,6.5,19.5,1.5
		c4.8-4.1,6.2-10.9,3.5-16.5c1.1-0.7,2.1-1.6,2.9-2.6c3-1.2,5.4-3.6,6.7-6.6C289.9,119.5,285.8,111.3,279.2,109.5z"/>
	<path class="st16" d="M259,170.6c-0.2-5-0.4-8.5-0.4-8.5s9.8-2.2,11.2-15.2c0.7-6.5-0.2-17-1.2-25.5c-0.9-7.7-6.5-17-14.2-15.7
		l-23.8,7.3c-2.3,0.4-3,2.4-2.9,4.7l-0.1,1.1l3,36.9l-0.2,15.7c0.6,7,7.7,13.2,14.8,13.2l0,0c7.5,0.1,13.7-5.9,13.8-13.4
		C259,171.1,259,170.9,259,170.6z"/>
	<path class="st5" d="M265.8,132.9c0.1,0.9-0.6,1.7-1.5,1.8c-0.9,0.1-1.7-0.5-1.8-1.4c0,0,0,0,0-0.1c-0.1-0.9,0.6-1.7,1.5-1.8
		C264.9,131.4,265.7,132,265.8,132.9C265.8,132.9,265.8,132.9,265.8,132.9z"/>
	<path class="st5" d="M266.3,128.4c-0.2,0.2-1.5-0.6-3.3-0.5s-3,1.1-3.2,0.8s0.1-0.5,0.6-0.9c0.7-0.6,1.6-0.9,2.6-0.9
		c0.9-0.1,1.8,0.2,2.6,0.7C266.2,127.9,266.4,128.3,266.3,128.4z"/>
	<path class="st5" d="M249.7,133.6c0.1,0.9-0.6,1.7-1.5,1.8c-0.9,0.1-1.7-0.5-1.8-1.3c0,0,0,0,0-0.1c-0.1-0.9,0.6-1.7,1.5-1.8
		C248.8,132.1,249.6,132.7,249.7,133.6C249.7,133.6,249.7,133.6,249.7,133.6z"/>
	<path class="st5" d="M249.3,128.9c-0.2,0.2-1.5-0.6-3.3-0.5s-3,1.1-3.2,0.8s0.1-0.5,0.6-0.9c0.7-0.6,1.6-0.9,2.6-0.9
		c0.9-0.1,1.8,0.2,2.6,0.7C249.2,128.4,249.4,128.8,249.3,128.9z"/>
	<path class="st5" d="M256.3,141.2c0.9-0.3,1.9-0.6,2.9-0.7c0.5-0.1,0.9-0.2,0.9-0.5c0-0.5-0.1-0.9-0.4-1.3l-1.5-3.4
		c-2.1-4.8-3.7-8.8-3.5-8.9s2.1,3.8,4.2,8.6l1.5,3.4c0.3,0.5,0.4,1.2,0.3,1.8c-0.1,0.3-0.4,0.6-0.7,0.7c-0.2,0.1-0.5,0.1-0.8,0.1
		C258.3,141.2,257.3,141.2,256.3,141.2z"/>
	<path class="st17" d="M258.6,162.2c-6.1,0.4-12.1-0.9-17.5-3.7c0,0,4.8,8.9,17.7,7L258.6,162.2z"/>
	<path class="st5" d="M249.1,121.6c-0.2,0.5-2,0.2-4.1,0.4s-3.8,0.7-4.1,0.3c-0.1-0.2,0.2-0.7,0.9-1.1c1.9-1.1,4.2-1.3,6.2-0.5
		C248.8,121,249.1,121.4,249.1,121.6z"/>
	<path class="st5" d="M266.1,121.8c-0.4,0.4-1.8,0.1-3.6,0.2s-3.2,0.4-3.6,0c-0.2-0.2,0-0.6,0.7-1c0.9-0.5,1.9-0.8,2.9-0.8
		c1,0,2,0.2,2.9,0.7C266,121.2,266.3,121.6,266.1,121.8z"/>
	<path class="st5" d="M237.5,105.6c0.2,4.9,4.4,8.7,9.2,8.4c0.5,0,1.1-0.1,1.6-0.2c2-0.5,4.1-1.6,5.8-0.6s2,3.7,3.7,5
		c2.4,1.9,5.9-0.2,8.8,0.5c2.3,0.6,3.8,2.6,5.3,4.3s3.9,3.3,6.1,2.5c-0.2-2-0.6-4-1.2-5.9c-0.6-1.9-1.9-3.6-3.6-4.7
		c-1-0.6-2-0.9-2.9-1.5c-1.9-1.4-2.5-4-3.7-6c-1.7-2.7-4.5-4.3-7.6-4.5c-2.5-0.1-5.1,0.8-7.6,0.3c-1.9-0.4-3.5-1.5-5.4-1.7
		c-3.6-0.5-6.9,2.3-9.4,5"/>
	<path class="st5" d="M249.3,110.2c-1.6-0.4-5-1.3-5.9-2.6c-1.9-3-5.3-4.7-8.8-4.5c-3.6,0.5-6.4,3.2-7,6.8c-4.3,0.4-8,3.1-9.8,7
		c-1.8,4.1-1.4,8.8,1,12.6c0.6,1,1,2,1.5,3.1c-0.9,0.8-1.8,1.8-2.6,2.8c-3.6,5.4,3.3,8.8,3.3,8.8c-0.6,4,3,4.5,5.4,4.9
		s2.6,6.8,4.5,6.8l1.2-19.5c0.3,0.1,0.5,0.2,0.8,0.3c4.4,0.8,4.5-7.7,3.4-10.1c1.6-1.4,3-3,4.1-4.8c1.1-1.8,1.9-6.7,1.6-8.9
		C243.4,112.9,250,110.3,249.3,110.2z"/>
	<path class="st16" d="M232.4,137.4c-0.2-2.1-2-3.6-4.1-3.4c-0.6,0-1.1,0.2-1.6,0.5c-1.3,0.8-2.2,2.4-1.9,5.3
		c0.7,7.8,8.4,5.5,8.3,5.2S232.7,140.6,232.4,137.4z"/>
	<path class="st17" d="M230.5,142.3c0,0-0.1,0.1-0.3,0.2c-0.3,0.2-0.7,0.2-1,0.1c-0.9-0.2-1.6-1.5-1.8-2.9c-0.1-0.7,0-1.4,0.2-2
		c0.1-0.5,0.4-0.9,0.9-1.1c0.3-0.1,0.7,0,0.8,0.3c0.1,0.2,0.1,0.4,0.1,0.4s0.1-0.1,0.1-0.5c-0.1-0.2-0.2-0.4-0.4-0.5
		c-0.2-0.1-0.5-0.2-0.8-0.1c-0.6,0.2-1.1,0.7-1.3,1.3c-0.3,0.7-0.4,1.5-0.3,2.2c0.2,1.6,1.1,2.9,2.3,3.2c0.4,0.1,0.9,0,1.2-0.3
		C230.5,142.5,230.5,142.3,230.5,142.3z"/>
	<path class="st5" d="M221.3,121.2c-0.1-0.1-0.2-0.2-0.3-0.3c-0.3-0.3-0.6-0.6-0.8-0.9c-1-1.1-1.7-2.5-2-4c-0.2-1-0.2-2.1,0.1-3.1
		c0.3-1.2,0.9-2.3,1.8-3.1c1-0.9,2.3-1.4,3.7-1.4c1.5,0,2.9,0.7,3.8,1.9l-0.4,0.2v-0.1c-0.9-2.7-0.8-5.6,0.4-8.1
		c1-2.1,3-3.5,5.3-3.8c1.5-0.2,3.1,0.3,4.3,1.3c0.3,0.3,0.6,0.6,0.8,0.9c0.1,0.1,0.1,0.2,0.2,0.4c-0.3-0.4-0.7-0.8-1.1-1.2
		c-1.2-0.9-2.6-1.4-4.1-1.2c-2.2,0.4-4,1.8-5,3.7c-1.1,2.5-1.3,5.3-0.4,7.8v0.1l0.4,1.2l-0.7-1c-0.8-1.1-2.1-1.7-3.5-1.8
		c-1.3-0.1-2.5,0.4-3.4,1.3c-0.8,0.8-1.4,1.8-1.7,2.9c-0.3,1-0.3,2-0.1,3c0.3,1.5,0.9,2.8,1.8,4
		C220.9,120.8,221.4,121.1,221.3,121.2z"/>
	<path class="st15" d="M226.4,144c-0.3,0.1-0.6,0.3-0.9,0.5c-0.7,0.6-1.3,1.5-1.5,2.4c-0.2,0.6-0.3,1.3-0.3,2
		c0.1,0.8,0.3,1.5,0.7,2.1c0.5,0.7,1.1,1.3,1.8,1.7c0.8,0.5,1.7,0.7,2.6,0.6c0.9-0.1,1.8-0.4,2.5-0.9c0.7-0.5,1.2-1.2,1.5-2
		c0.6-1.3,0.5-2.8-0.1-4.1c-0.4-0.9-1.2-1.5-2.1-1.9c-0.3-0.1-0.7-0.2-1-0.2c0.1,0,0.2,0,0.3,0c0.3,0,0.5,0.1,0.8,0.1
		c0.9,0.3,1.7,1,2.2,1.9c0.7,1.3,0.7,2.9,0.2,4.3c-0.3,0.8-0.9,1.5-1.6,2.1c-0.7,0.6-1.6,0.9-2.6,1c-0.9,0.1-1.9-0.1-2.7-0.6
		c-0.8-0.4-1.4-1-1.9-1.8c-0.4-0.7-0.7-1.4-0.7-2.2c0-0.7,0.1-1.4,0.3-2c0.3-1,0.8-1.8,1.6-2.4c0.2-0.2,0.5-0.3,0.7-0.4L226.4,144z"
		/>
	<polygon class="st16" points="225.4,435.9 229.4,470.7 244.7,468.4 245.7,434.1 	"/>
	<path class="st9" d="M244.7,461.5c0,0-10.2,8.7-15.9,2.3l-1.1,3.4l-4.5,23.9c-0.3,1.5,0.5,3.1,2,3.6c1.1,0.4,2.3,0,3.1-0.9
		c4.1-4.7,19.2-21.9,18.9-24l-0.5-5.7C246.7,462.9,245.9,461.9,244.7,461.5L244.7,461.5z"/>
	<g class="st18">
		<path class="st4" d="M225.7,494.8l21.4-27l0.1,1.3c0.2,1.4-0.3,1.9-0.9,2.9c-1.7,2.7-6.5,8.9-17.9,21.9
			C227.7,494.6,226.7,495,225.7,494.8L225.7,494.8z"/>
	</g>
	<g class="st18">
		<path class="st4" d="M243.4,464.3c-0.7,0.6-0.8,1.7-0.3,2.4c0.6,0.7,1.6,0.9,2.4,0.4c0.7-0.7,0.9-1.8,0.3-2.6
			c-0.7-0.7-1.8-0.8-2.5-0.1c0,0,0,0,0,0"/>
	</g>
	<path class="st5" d="M231.5,481.4c-0.2,0.1-0.9-1.4-2.7-2.1s-3.3-0.2-3.4-0.4s0.3-0.3,1-0.5c0.9-0.2,1.8-0.1,2.6,0.3
		c0.8,0.3,1.6,0.9,2.1,1.7C231.5,480.9,231.6,481.4,231.5,481.4z"/>
	<path class="st5" d="M229.7,485.5c-0.9-0.4-1.7-0.8-2.6-1.1c-1.5-0.4-2.8,0-2.9-0.2s1.3-0.9,3-0.5S229.8,485.4,229.7,485.5z"/>
	<path class="st5" d="M235,476c-0.1,0.1-1.6-1.2-4-2s-4.4-0.5-4.4-0.7s2.1-0.7,4.6,0.1S235.1,475.9,235,476z"/>
	<path class="st5" d="M235,468.8c-0.1,0.2-1.7-0.4-3.8-0.3s-3.7,0.7-3.8,0.5s1.5-1.1,3.8-1.2S235.1,468.7,235,468.8z"/>
	<path class="st5" d="M230,468.6c-0.1-0.4,0-0.8,0.1-1.1c0.2-1,0.6-2,1.2-2.8c0.4-0.7,0.9-1.2,1.6-1.5c0.5-0.2,1,0,1.3,0.4
		c0.3,0.4,0.4,0.9,0.3,1.4c-0.3,2-2.1,3.5-4.1,3.5c-2,0-3.8-1.3-4.5-3.1c-0.2-0.5-0.2-1,0.1-1.5c0.3-0.4,0.8-0.6,1.3-0.5
		c0.7,0.2,1.3,0.7,1.8,1.2c0.7,0.7,1.3,1.6,1.7,2.5c0.2,0.3,0.3,0.7,0.3,1.1c-0.6-1.2-1.4-2.3-2.4-3.3c-0.4-0.5-1-0.8-1.6-1
		c-0.3-0.1-0.6,0-0.7,0.3c-0.1,0.3-0.1,0.6,0,1c0.7,1.6,2.2,2.6,3.9,2.7c1.7,0,3.2-1.3,3.5-3c0.1-0.3,0-0.7-0.2-1
		c-0.2-0.2-0.4-0.3-0.7-0.3c-0.6,0.3-1.1,0.7-1.4,1.2C230.9,466,230.3,467.2,230,468.6z"/>
	<path class="st16" d="M285.8,463.3c-0.4-0.5-3.5-12.2-3.5-12.2l19.8-5.4l2.8,16.8L285.8,463.3z"/>
	<path class="st9" d="M304.6,459.3v1.3c0,0,21.7,8.8,22,13.1l-42.9,0.3l0.5-15C290.6,462.1,297.3,462.4,304.6,459.3z"/>
	<g class="st18">
		<path class="st4" d="M288.6,463.8c-0.9,0.3-1.4,1.2-1.2,2.1c0.2,0.9,1.1,1.5,2,1.3c0,0,0,0,0,0c0.9-0.4,1.4-1.3,1.2-2.2
			c-0.3-0.9-1.3-1.4-2.2-1.1c0,0,0,0,0,0"/>
	</g>
	<g class="st18">
		<path class="st4" d="M283.7,474.1l0.1-3.6l41.1,1c0,0,1.9,0.9,1.7,2.3L283.7,474.1z"/>
	</g>
	<path class="st5" d="M304.8,460.7c0,0.2-1,0.3-2.1,1s-1.6,1.6-1.8,1.6s0.1-1.4,1.4-2.2S304.8,460.5,304.8,460.7z"/>
	<path class="st5" d="M309.3,462.6c0,0.2-0.9,0.6-1.6,1.5s-0.9,1.9-1.1,1.9s-0.4-1.3,0.5-2.4S309.3,462.4,309.3,462.6z"/>
	<path class="st5" d="M311.9,468.3c-0.2,0-0.5-1,0-2.3s1.5-1.7,1.6-1.5s-0.5,0.8-0.9,1.8S312.1,468.3,311.9,468.3z"/>
	<path class="st5" d="M275.3,259c0.9,0.6,8,42.9,17.2,99.2c7.6,46.3,12,93.1,12,93.1l-21.2,4.1c0,0-20-57.4-30.6-98.6
		c-9.8-38.1-14.5-64.7-14.5-64.7v-27.9L275.3,259z"/>
	<path class="st5" d="M210.9,243.4c0,0-19.6,26.4-17.9,54c1,16.5,32.7,155.8,32.7,155.8l21-0.6l-5.6-153l2.2-36.1L210.9,243.4z"/>
	<path class="st15" d="M243.6,292.1c0.2-1,0.5-1.9,0.9-2.9c0.7-2.3,1.3-4.7,1.6-7.1c0.4-2.4,0.6-4.8,0.7-7.3c0.1-1.9,0-3,0.1-3
		c0.1,0.3,0.1,0.5,0.1,0.8c0,0.5,0.1,1.3,0.1,2.2c0,4.9-0.8,9.8-2.4,14.5c-0.3,0.9-0.6,1.6-0.8,2.1
		C243.9,291.7,243.8,291.9,243.6,292.1z"/>
	<path class="st15" d="M287.6,454.2c-0.6-0.8-1.1-1.7-1.3-2.7c-0.3-0.9-0.5-1.9-0.4-2.9c0.4,0.9,0.6,1.8,0.8,2.8
		C287.2,452.3,287.5,453.2,287.6,454.2z"/>
	<path class="st15" d="M294.9,452.8c0,0-0.1-0.1-0.2-0.2l0,0c-0.1-0.5-0.2-1.5-0.4-2.7c-0.3-1-0.4-1.9-0.6-2.9
		c0.6,0.8,1,1.8,1.1,2.8c0.2,0.9,0.2,1.8,0.1,2.8l0,0C294.9,452.6,294.9,452.7,294.9,452.8z"/>
	<path class="st15" d="M301.8,451.5c-0.1,0-0.1-1.5-0.4-3.3s-0.8-3.2-0.7-3.3C301.9,447,302.3,449.3,301.8,451.5L301.8,451.5z"/>
	<path class="st15" d="M243,453c-0.1-0.1,0.3-1.4,0.4-3s-0.1-3,0-3C244.1,449,244,451.2,243,453z"/>
	<path class="st15" d="M235.9,453.1c-0.5-2-0.6-4-0.4-6c0.3,1,0.5,2,0.4,3C236.1,451.1,236.1,452.1,235.9,453.1z"/>
	<path class="st15" d="M230.3,453c-1-1.8-1.4-3.9-1.3-5.9c0.3,1,0.5,1.9,0.7,3C230,451.1,230.2,452,230.3,453z"/>
	<path class="st5" d="M250.9,146.6c0.1,0,0.5,0.4,1.3,1.1c1,0.8,2.2,1.4,3.4,1.6c1.3,0.2,2.5,0.1,3.8-0.3c0.9-0.3,1.4-0.6,1.6-0.5
		c0.1,0.1-0.4,0.6-1.4,1.1c-1.3,0.6-2.7,0.8-4.1,0.5c-1.4-0.3-2.7-1-3.6-2C251,147.3,250.8,146.6,250.9,146.6z"/>
	<path class="st9" d="M230.5,166.3l-14.5,3.4l-5.4,60.5l-11.1,32c0,0,10.8,13.5,23.5,16.7c19.3,5,28.9,3,40.3,0.1
		c7.7-2,13.9-11.9,13.9-11.9l-5.1-29l6.1-61.3l-19.3-8.5c-0.7,5.9-5.6,10.4-11.5,10.7C235.9,179.9,230.5,166.3,230.5,166.3z"/>
	<g class="st13">
		<path d="M272.9,241c-4.2-6.3-8.9-12-13.1-18.3s-7.8-13.2-9.4-21c-0.6-3-1-6.2-2.7-8.6c-2.1-2.7-5.7-3.8-8.9-2.5
			c-3.1,1.1-5.6,3.8-7.5,6.9s-3.3,6.5-5,9.7c-4.9,9.6-11.7,17.6-18.4,25.5l0.2,3.5c4.6,1.3,10.9,0,15-2.7s7.5-6.5,10.9-10.3
			c1.9-2.1,4.4-4.5,6.9-3.5c2.1,0.8,3.1,3.5,4.1,5.8c4.9,11.5,15,19.9,25.9,21.5c1,0.3,2,0.1,2.8-0.6C275,244.9,274,242.5,272.9,241
			z"/>
	</g>
	<path class="st9" d="M216,169.6c0,0-12.3,3-16,12.9c-3,8-10.6,35.4-10.6,41.3s-0.7,20.5,10.4,19.4s28.9-14.1,33.2-28.2
		c1.7-5.7,2.8-10.4,4-13.6c0.7-1.9,1.6-3.6,2.7-5.2l-9.6-7.6L214,203.4L216,169.6z"/>
	<path class="st9" d="M245,198.4c0,0,1.2,26.1,9.2,39.4c3.1,5.2,16.5,19.6,25.5,12.2s9.5-18.3,10.6-26.4s0.4-41.5-12.1-46.7
		c-0.9-0.4-7.5,17.7-7.5,17.7l-1.4,14.9l-13.1-16.4L245,198.4z"/>
	<path class="st5" d="M206.4,241.4l0.3-0.1l0.7-0.3c0.6-0.3,1.6-0.7,2.8-1.3c3.4-1.6,6.5-3.7,9.4-6.1c2-1.7,3.8-3.5,5.5-5.5
		c1.9-2.3,3.6-4.7,5.1-7.3c1.6-2.9,2.9-5.9,3.8-9.1c1-3.3,1.6-6.8,2.9-10.2c0.7-1.9,1.6-3.6,2.8-5.2v0.4l-10.3-8h0.3
		c-5.4,6.1-11.4,11.6-18,16.4c-2.4,1.8-4.4,3.1-5.8,3.9c-0.7,0.4-1.2,0.8-1.6,1c-0.2,0.1-0.4,0.2-0.6,0.3c0.2-0.1,0.3-0.3,0.5-0.4
		l1.6-1c1.4-0.9,3.3-2.2,5.7-4c6.5-4.9,12.5-10.4,17.9-16.4l0.1-0.2l0.2,0.1c3.2,2.5,6.7,5.2,10.3,8l0.2,0.2l-0.2,0.2
		c-1.2,1.6-2.1,3.3-2.7,5.1c-1.3,3.4-1.9,6.9-2.9,10.2c-0.9,3.2-2.2,6.3-3.9,9.2c-1.5,2.6-3.2,5.1-5.1,7.4c-1.7,2-3.6,3.8-5.6,5.5
		c-2.9,2.4-6.1,4.4-9.6,6c-1.2,0.6-2.2,0.9-2.8,1.2l-0.8,0.3L206.4,241.4z"/>
	<path class="st5" d="M213.2,187.2c0.5,2.6,0.7,5.2,0.9,7.8c0.3,2.6,0.4,5.2,0.3,7.8c-0.5-2.6-0.7-5.2-0.8-7.8
		C213.3,192.4,213.2,189.8,213.2,187.2z"/>
	<path class="st5" d="M285.3,229.2c0,0-0.1,0-0.2-0.1l-0.5-0.5l-1.8-1.9c-1.5-1.7-3.7-4.1-6.4-7.2c-5.4-6.3-12.8-15.2-20.6-26.1
		l0.3,0.1l-11.6,5.3l0.1-0.3c0.2,0.6,0.4,1.1,0.6,1.7c0.1,0.2,0.1,0.3,0.1,0.5l0.1,0.5l0.1,0.9c0.9,8.6,1.6,16.9,3.7,24.1
		c1.7,6.4,4.9,12.4,9.3,17.3c3,3.3,6.8,5.9,10.9,7.5c1.1,0.4,2.3,0.8,3.5,1.1l0.9,0.2l0.3,0.1h-0.3L273,252c-1.2-0.2-2.4-0.6-3.5-1
		c-4.2-1.6-8-4.1-11.1-7.4c-4.5-5-7.7-10.9-9.5-17.4c-2.1-7.3-2.9-15.5-3.8-24.1l-0.1-0.9v-0.5c0-0.1,0-0.3-0.1-0.4
		c-0.2-0.6-0.4-1.1-0.6-1.7l-0.1-0.2l0.2-0.1l11.5-5.3l0.2-0.1l0.1,0.2c7.7,10.9,15.1,19.9,20.4,26.2c2.7,3.1,4.8,5.6,6.3,7.3
		c0.7,0.8,1.3,1.5,1.7,2l0.4,0.5C285.2,229.1,285.2,229.1,285.3,229.2z"/>
	<path class="st5" d="M270.9,195c0,2.6-0.3,5.2-0.7,7.8c-0.2,2.6-0.6,5.2-1.2,7.7c0-2.6,0.3-5.2,0.7-7.8
		C270,200.1,270.4,197.5,270.9,195z"/>
	<path class="st4" d="M272.5,215.4c-0.1,0.4-0.3,0.7-0.5,1c-0.3,0.6-0.8,1.5-1.5,2.6c-1.7,2.9-3.9,5.4-6.4,7.6
		c-2.6,2.2-5.7,3.6-9,4.2c-1,0.1-2,0.2-3,0.1c-0.4,0-0.7-0.1-1.1-0.2c1.4,0,2.7-0.1,4.1-0.3c3.2-0.6,6.2-2.1,8.8-4.2
		c2.5-2.2,4.7-4.7,6.5-7.4C271.6,216.7,272.4,215.3,272.5,215.4z"/>
	<path class="st4" d="M276.1,260c-0.2,0.2-0.4,0.3-0.7,0.4l-2,1.1l-1.4,0.8c-0.5,0.3-1.1,0.5-1.8,0.8c-1.4,0.7-2.9,1.3-4.4,1.8
		l-2.6,0.9c-0.9,0.3-1.9,0.5-2.9,0.8c-2.1,0.6-4.3,1.1-6.5,1.5c-5,0.8-10.1,1.1-15.2,0.9c-5.1-0.3-10.1-1.1-15-2.4
		c-2.2-0.7-4.4-1.3-6.3-2.1c-1-0.4-1.9-0.7-2.8-1.1l-2.6-1.2c-1.4-0.7-2.8-1.4-4.2-2.3c-0.6-0.4-1.2-0.7-1.7-1s-1-0.6-1.4-0.9
		l-1.9-1.3c-0.2-0.1-0.4-0.3-0.6-0.5c0.2,0.1,0.5,0.3,0.7,0.4l1.9,1.2l1.4,0.9c0.5,0.3,1.1,0.6,1.7,1c1.4,0.8,2.8,1.5,4.2,2.2
		l2.5,1.1c0.9,0.4,1.8,0.7,2.8,1.1c2.1,0.8,4.2,1.4,6.3,2c9.8,2.6,20,3.1,30,1.4c2.3-0.5,4.5-0.8,6.4-1.4c1-0.3,2-0.5,2.9-0.8
		l2.6-0.9c1.7-0.5,3.1-1.2,4.4-1.8c0.6-0.3,1.3-0.5,1.8-0.8s1-0.5,1.5-0.8l2-1C275.6,260.2,275.8,260.1,276.1,260z"/>
	<path class="st4" d="M228.8,223.1c-0.3-0.1-0.7-0.2-1-0.4l-2.6-1.2c-2.2-1-5.2-2.5-8.5-4.2c-1.6-0.8-3.1-1.7-4.4-2.9
		c-1.1-0.9-2-2.1-2.8-3.3c-0.5-0.9-0.8-1.8-0.9-2.8c-0.1-0.4-0.1-0.7,0-1.1c0.2,1.3,0.6,2.5,1.3,3.6c0.7,1.2,1.6,2.3,2.7,3.1
		c1.4,1.1,2.8,2,4.4,2.8c3.3,1.7,6.3,3.2,8.4,4.3c1.1,0.6,1.9,1,2.5,1.4C228.2,222.7,228.5,222.9,228.8,223.1z"/>
	<path class="st16" d="M255,174c0,0,2.3,3,2,4.1s-3,11.7-3,11.7l1.1,3.9l-8.9,4.1c0,0-3-3.2-3.3-6.3c-0.1-2.4,0.4-4.7,1.4-6.9
		l-1.8-1.4c0,0-2.3-6.7-2.3-7c0.4-1,0.8-1.9,1.4-2.8l7.8-1.3L255,174z"/>
	<path class="st17" d="M255,174c0,0-0.1,0-0.4-0.1l-1.1-0.3l-4.2-1.2h0.1l-7.8,1.3l0.1-0.1c-0.4,0.7-0.7,1.4-1.1,2.1
		c-0.1,0.2-0.2,0.4-0.2,0.6c0,0.2,0.1,0.3,0.1,0.5c0.1,0.4,0.3,0.8,0.4,1.2c0.6,1.7,1.2,3.4,1.8,5.2l-0.1-0.1l1.8,1.4l0.1,0.1
		l-0.1,0.2c-0.6,1.3-1,2.7-1.2,4.2c-0.3,1.5-0.2,3,0.4,4.4c0.7,1.6,1.6,3,2.7,4.3l-0.3-0.1l8.9-4.1l-0.1,0.3
		c-0.4-1.4-0.8-2.7-1.1-3.9v-0.1c1.3-4.8,2.4-8.8,3.1-11.7c0-0.6-0.2-1.2-0.5-1.8c-0.2-0.4-0.5-0.8-0.7-1.3
		C255.2,174.4,255,174,255,174c0.1,0.1,0.1,0.2,0.2,0.3c0.1,0.2,0.3,0.4,0.5,0.7c0.2,0.3,0.5,0.7,0.8,1.2c0.4,0.6,0.6,1.2,0.6,1.9
		c-0.7,2.9-1.7,6.9-2.9,11.8v-0.1l1.1,3.9l0.1,0.2l-0.2,0.1l-8.9,4l-0.2,0.1L246,198c-1.2-1.3-2.2-2.8-2.9-4.4
		c-0.6-1.5-0.7-3.1-0.4-4.7c0.3-1.5,0.7-2.9,1.3-4.3l0.1,0.3l-1.8-1.4h-0.1v-0.1c-0.6-1.8-1.2-3.6-1.8-5.2l-0.4-1.2
		c-0.1-0.2-0.1-0.5-0.1-0.7c0.1-0.2,0.1-0.4,0.3-0.6c0.4-0.8,0.7-1.5,1.1-2.1l0.1-0.1h0.1l7.8-1.2h0.1l4.2,1.4l1.1,0.4
		C254.7,173.9,254.9,173.9,255,174z"/>
	<path class="st16" d="M231.2,189.4l1.4-2.9c0,0-0.7-11.7-0.6-13c0.2-1.7,1.7-2.9,3.4-2.9l9.4-1.6c0.9-0.2,1.7-0.2,2.6-0.1l10.3,4
		c0.2,0,0.2,1.6-0.5,1.8c-0.6,0.2-1.2,0.2-1.8,0.3c0.1-0.2-1.4,1.4-2.8,1.1s-5.2-1.6-5.2-1.6l-3.1,0.9l-2.3,2.6
		c0,0,0.9,10.9,0.3,13.7c-0.4,1.7-1.3,3.3-2.6,4.6L231.2,189.4z"/>
	<path class="st17" d="M231.2,189.4c0,0,0.2,0.1,0.6,0.4l1.7,1.3l6.4,5h-0.2c0.9-0.9,1.7-2,2.1-3.3c0.5-1.4,0.7-2.9,0.6-4.4
		c0-3.2-0.3-6.7-0.6-10.4V178l0.1-0.1l2.3-2.7v-0.1h0.1l3.1-0.9h0.1h0.1l4,1.2l1,0.3c0.3,0.1,0.7,0.1,1,0c0.3-0.1,0.6-0.2,0.9-0.4
		c0.1-0.1,0.3-0.2,0.4-0.3l0.2-0.2l0.1-0.1l0.1-0.1l0,0h0.1c-0.1-0.1,0.4,0,0.4,0.3c0,0.1,0,0.1,0,0.1l0,0l0,0l-0.2-0.4
		c0.5,0,0.9-0.1,1.3-0.2c0.2,0,0.3-0.1,0.5-0.2c0.1-0.1,0.2-0.3,0.2-0.4c0.1-0.2,0.1-0.4,0.1-0.5c0-0.1,0-0.2,0-0.3c0,0,0-0.1,0-0.1
		c0,0-0.1,0,0.1,0.1h-0.1l-5.9-2.3l-2.9-1.1l-1.4-0.5c-0.4-0.2-0.9-0.2-1.4-0.1c-0.9,0.1-1.9,0.3-2.8,0.4l-2.8,0.5l-5.2,0.9l0,0
		c-1.8,0-3.2,1.4-3.2,3.2c0,0.1,0,0.3,0,0.4c0,1.8,0.1,3.4,0.1,4.9c0.1,3,0.3,5.4,0.3,7.2l0,0l-1.1,2.1l-0.3,0.5
		C231.3,189.3,231.3,189.4,231.2,189.4c0.1-0.2,0.2-0.5,0.4-0.7c0.3-0.5,0.6-1.3,1-2.2l0,0c-0.1-1.7-0.3-4.2-0.5-7.2
		c-0.1-1.5-0.2-3.1-0.2-5c-0.2-2,1.2-3.8,3.2-4c0.1,0,0.3,0,0.4,0l0,0l5.2-0.9l2.8-0.5c0.9-0.1,1.9-0.4,2.9-0.4
		c0.5-0.1,1.1,0,1.6,0.2l1.4,0.5l2.9,1.1l5.9,2.3h-0.1c0.1,0,0.1,0,0.2,0.1c0,0,0.1,0.1,0.1,0.1c0,0,0,0.1,0.1,0.1
		c0,0.1,0,0.1,0,0.2c0,0.1,0,0.2,0,0.4c0,0.2-0.1,0.5-0.1,0.7c-0.1,0.2-0.2,0.5-0.4,0.6c-0.2,0.1-0.4,0.2-0.7,0.3
		c-0.5,0.1-1,0.2-1.5,0.2l-0.2-0.4c0,0,0.2,0.1,0.2,0.1c0,0.1,0,0.1,0.1,0.1c0,0,0,0,0.1,0.1l0,0l0,0l0,0l-0.1,0.1l-0.2,0.2
		c-0.2,0.1-0.3,0.2-0.5,0.3c-0.3,0.2-0.7,0.4-1.1,0.4c-0.4,0.1-0.8,0.1-1.2,0l-1-0.3l-4.1-1.2h0.1l-3.1,0.9l0.1-0.1l-2.3,2.6
		l0.1-0.2c0.3,3.8,0.5,7.3,0.5,10.5c0.1,1.5-0.1,3.1-0.6,4.5c-0.5,1.3-1.3,2.4-2.3,3.4l-0.1,0.1l-0.1-0.1l-6.3-5.2l-1.7-1.4
		C231.6,189.7,231.4,189.5,231.2,189.4z"/>
	<path class="st17" d="M238.9,173.1c0.8-0.3,1.6-0.6,2.5-0.8c0.8-0.2,1.7-0.4,2.7-0.7c0.5-0.1,1.1-0.3,1.6-0.4
		c0.3-0.1,0.6-0.1,0.9-0.1c0.1,0,0.1,0,0.2,0h0.1l0.2,0.1l0.4,0.2c2.3,0.9,4.4,1.6,5.9,2.3c0.8,0.3,1.6,0.6,2.4,1.1
		c-0.9-0.2-1.7-0.4-2.5-0.7c-1.5-0.5-3.6-1.3-5.9-2.1l-0.4-0.2l-0.2-0.1h-0.1l0,0c-0.3,0-0.5,0.1-0.8,0.1l-1.6,0.3l-2.8,0.6
		C240.6,172.9,239.8,173,238.9,173.1z"/>
	<path class="st17" d="M249.2,181.4c0.1-0.4,0.1-0.7,0.1-1.1c-0.1-0.7-0.9-1.3-1.9-1.8s-1.8-1.1-2.5-1.4s-1.1-0.5-1.1-0.6
		s0.5,0,1.2,0.2c0.9,0.4,1.8,0.8,2.6,1.3c0.5,0.3,0.9,0.6,1.3,1c0.3,0.3,0.6,0.8,0.7,1.3C249.7,181.1,249.2,181.5,249.2,181.4z"/>
	<path class="st17" d="M252.8,179.9c-0.2-0.9-0.6-1.8-1.1-2.6c-0.9-1.3-2.2-1.8-2.1-1.9s0.4,0,0.9,0.2c0.7,0.3,1.2,0.8,1.7,1.4
		c0.4,0.6,0.7,1.3,0.8,2C253,179.5,252.9,179.9,252.8,179.9z"/>
</g>
<g id="freepik--speech-bubble--inject-155">
	<circle class="st4" cx="180.3" cy="101.1" r="20.3"/>
	<path class="st5" d="M200.6,101.1c0-0.1,0-0.2,0-0.3c0-0.3,0-0.6-0.1-1c0-0.5-0.1-1-0.2-1.6c-0.1-0.7-0.2-1.4-0.4-2.1
		c-0.5-1.9-1.2-3.7-2.3-5.3c-1.3-2.2-3.1-4.1-5.1-5.7c-2.5-1.9-5.4-3.1-8.5-3.7c-3.5-0.6-7.2-0.3-10.5,0.9c-1.8,0.6-3.5,1.6-5,2.7
		c-0.8,0.6-1.6,1.3-2.3,2c-0.7,0.7-1.4,1.5-2,2.3c-1.2,1.7-2.2,3.5-2.9,5.5c-1.4,4.1-1.4,8.5,0,12.6c0.7,2,1.6,3.8,2.9,5.5
		c0.6,0.8,1.3,1.6,2,2.3c0.7,0.7,1.5,1.3,2.3,1.9c1.5,1.2,3.2,2.1,5.1,2.7c9,3.3,19.1-0.3,24.1-8.5c1-1.7,1.8-3.5,2.3-5.3
		c0.2-0.7,0.3-1.4,0.4-2.1c0.1-0.5,0.2-1,0.2-1.6c0-0.4,0.1-0.7,0.1-1C200.6,101.3,200.6,101.2,200.6,101.1c0,0.1,0,0.2,0,0.3
		c0,0.3,0,0.6,0,1c0,0.5-0.1,1.1-0.1,1.6c-0.1,0.7-0.2,1.4-0.4,2.1c-0.4,1.9-1.2,3.8-2.2,5.4c-3,5.1-8,8.6-13.8,9.7
		c-3.6,0.7-7.3,0.4-10.8-0.9c-2.8-1-5.4-2.7-7.5-4.8c-0.7-0.7-1.4-1.5-2-2.4c-1.3-1.7-2.3-3.6-2.9-5.7c-1.4-4.2-1.4-8.8,0-13
		c0.7-2,1.7-3.9,3-5.6c0.6-0.8,1.3-1.6,2-2.4c0.7-0.7,1.5-1.4,2.3-2c0.8-0.6,1.7-1.1,2.5-1.6c0.9-0.4,1.8-0.8,2.7-1.2
		c3.5-1.2,7.2-1.5,10.8-0.8c5.8,1.1,10.8,4.6,13.8,9.7c1,1.7,1.8,3.5,2.2,5.4c0.2,0.7,0.3,1.4,0.4,2.1c0.1,0.5,0.1,1,0.1,1.6
		c0,0.4,0,0.7,0,1C200.6,100.9,200.6,101,200.6,101.1z"/>
	<path class="st4" d="M208.3,113.8c0,1.8-1.5,3.3-3.3,3.3s-3.3-1.5-3.3-3.3c0-1.8,1.5-3.3,3.3-3.3
		C206.8,110.5,208.3,112,208.3,113.8C208.3,113.8,208.3,113.8,208.3,113.8z"/>
	<path class="st5" d="M208.3,113.8c-0.1-0.3-0.2-0.5-0.2-0.8c-0.2-0.7-0.6-1.3-1.2-1.7c-0.8-0.6-1.9-0.7-2.9-0.4
		c-1.6,0.6-2.4,2.3-1.8,3.9c0.3,0.8,1,1.5,1.8,1.8c1,0.4,2.1,0.2,2.9-0.4c0.6-0.4,1-1,1.2-1.7C208.3,114.2,208.3,113.9,208.3,113.8
		c0.1,0.3,0.1,0.6,0,0.8c-0.1,0.8-0.6,1.5-1.2,1.9c-0.9,0.7-2.2,1-3.3,0.6c-1.8-0.7-2.8-2.7-2.1-4.5c0.4-1,1.1-1.8,2.1-2.1
		c1.1-0.4,2.4-0.2,3.3,0.6c0.6,0.5,1,1.2,1.2,1.9C208.4,113.3,208.4,113.6,208.3,113.8z"/>
</g>
<path class="st9" d="M173.2,93.5c4-1.1,6.3,1.3,7.3,2.9c1.1-1.5,3.5-3.9,7.5-2.6c4.2,1.4,5.6,6.9,1.9,11.8c-2.7,3.5-6.9,5.9-9,6.9
	c-0.3,0.1-0.5,0.2-0.7,0.3l-0.7-0.3c-2.1-1.1-6.2-3.6-8.7-7.3C167.3,100.1,168.9,94.7,173.2,93.5z"/>
<g id="freepik--Pizza--inject-153">
	<path class="st9" d="M333.5,152.7c-1.6-1.6-3.5-2.6-5.5-2.5c-2.1,0.1-3.8,1.6-3.8,1.6s-2.4-1.3-4.9-0.5c-1.4,0.5-2.7,1.3-3.6,2.5
		c0,0-3.1-0.6-5,0.5c-1.1,0.7-2,1.7-2.4,2.9c0,0-3.9,0.2-5.9,2.1c-2,1.9-2.4,3.1-2.4,3.1c-0.3,1.5,0.1,3,1,4.2
		c1.5,1.9,2.8,1.4,4.8,3.1c2,1.8,7.9,5.6,15.4,11.1c7.5,5.6,14.7,8.4,18.2,12.7c3.5,4.3,5.5,5.2,7.8,6.8c2.4,1.6,2.8-3.1,1.5-5.5
		c-1.3-2.3,1.2-6.9-2.6-16.6s-7.2-15.2-7.7-17.3C337.6,158,335.9,155.1,333.5,152.7z"/>
	<path class="st19" d="M300,162.6c0,0,0.8-3.7,5.6-1.5c4.8,2.1,3.8,5.3,5.3,7.5c1.5,2.2,9,4.8,11.3,8s7.3,6.6,9.3,7.9
		c2,1.3,7.8,6.8,9.8,8c2,1.1,4.1,3.3,4.9,4.6c0.7,1.3,1.1,2.9,1.7,2.4c0.7-0.6,0.9-4.3,0.9-4.3"/>
	<path class="st19" d="M310.4,164.4c0,0-0.1-1.2,4-2c4.2-0.8,4.5-3.7,6.6-4.6s6.4-0.3,7.6-0.2s2.7-0.4,3.3-0.6c0.6-0.2,3.1-2,3.1-2"
		/>
	<path class="st11" d="M320.6,164c-1.3,0.5-2.3,1.4-2.5,2.8c-0.4,2.7,4,5.8,6.4,4.8c1.3-0.5,5.8-5,4.5-6.3
		C327.5,163.7,323.4,163,320.6,164z"/>
	<path class="st11" d="M336.1,171.3c-0.9-0.1-1.8,0-2.8,0.2c-1.1,0.2-2.5,0.3-2.7,1.6c-0.2,1.4,2.2,2.7,3.3,2.8
		c1.4,0.1,5.6-0.9,5.5-2.2C339.3,172,337.7,171.4,336.1,171.3z"/>
	<path class="st11" d="M335.5,164.4c-1.3,0.1-2.3,0.7-1.5,1.5c1.5,1.7,4.7,1.1,4.7,0.3C338.7,164.8,336.9,164.3,335.5,164.4z"/>
	<path class="st11" d="M337.5,181.8c-1.2-0.2-2.4,0.3-2.1,1.9c0.3,1.9,3.7,2.9,4.2,1.9C340.6,183.5,339,182.1,337.5,181.8z"/>
	<path class="st19" d="M308.3,157.3c0,0,4.8-1.6,6.5,2"/>
	<path class="st19" d="M317.9,154.9c0,0,2.4,0.8,2.8,1.8"/>
	<path class="st19" d="M324,152.2c0,0,2.4,0.8,2.8,1.8"/>
	<path class="st19" d="M308.1,168.1c0,0-3.3-6.5-4.8-5.2c-1.5,1.4-1.2,2.4,0.8,3.5c2,1.1,5.4,3.4,6.3,3.9
		C311.4,170.8,308.1,168.1,308.1,168.1z"/>
</g>
</svg>
