<?xml version="1.0" encoding="utf-8"?>
<!-- Generator: Adobe Illustrator 25.2.0, SVG Export Plug-In . SVG Version: 6.00 Build 0)  -->
<svg version="1.1" id="Layer_1" xmlns="http://www.w3.org/2000/svg" x="0px" y="0px" viewBox="0 0 500 500" style="enable-background:new 0 0 500 500;" xml:space="preserve">
<style type="text/css">
	.st0{fill:#EAEAEA;}
	.st1{fill:#F5F5F5;}
	.st2{fill:#E0E0E0;}
	.st3{fill:#FFC108;}
	.st4{fill:#263238;}
	.st5{opacity:0.3;}
	.st6{fill:#D3D3D3;}
	.st7{fill:#EBEBEB;}
	.st8{fill:#FFFFFF;}
	.st9{opacity:0.6;}
	.st10{fill:#455A64;}
	.st11{fill:#FFBE9D;}
	.st12{fill:#EB996E;}
</style>
<g id="freepik--background-complete--inject-84">
	<path class="st0" d="M451.7,57.8c0.5-4-5.1-7.3-9.3-7.6c-2-0.2-4.1,0.1-6-0.5c-4.1-1.5-5.8-6.8-9.9-8.5c-3-1.3-6.5-0.1-9.5,1.3
		s-5.9,3.3-9.1,3.5c-2.9,0.2-6-0.9-8.5,0.5c-1.9,1-2.8,3.2-4.5,4.5c-1.8,1.1-3.9,1.7-6,1.6c-2.1-0.1-4.2,0.3-6.1,1
		c-1.9,0.9-3.5,2.9-3.1,4.9L451.7,57.8z"/>
	<path class="st1" d="M161.3,62.5c0.9-6.3-8-11.4-14.6-11.9c-3.2-0.3-6.4,0.2-9.4-0.8c-6.5-2.3-9.1-10.7-15.4-13.3
		c-4.7-2-10.2-0.2-14.8,2.1s-9.1,5.2-14.3,5.5c-4.5,0.3-9.3-1.4-13.2,0.8c-2.9,1.6-4.4,5-7.1,7s-6,2.3-9.3,2.5s-6.6,0.2-9.6,1.6
		s-5.4,4.5-4.8,7.7L161.3,62.5z"/>
	<path class="st1" d="M391,98c0.8-6.1-7.8-11.1-14.3-11.7c-3.1-0.3-6.3,0.2-9.2-0.8c-6.3-2.2-8.9-10.4-15.1-13c-4.6-2-10-0.2-14.4,2
		s-8.9,5.1-13.9,5.4c-4.4,0.3-9.1-1.3-12.9,0.8c-2.8,1.6-4.3,4.9-7,6.8s-5.9,2.3-9.1,2.5s-6.5,0.2-9.4,1.5s-5.3,4.4-4.7,7.5L391,98z
		"/>
	<path class="st0" d="M379.6,465.4c-21.1-9.7-29.7-33.3-32.9-55.3c-0.5-3.7-1.6-7.5-0.5-11s4.8-6.4,8.4-5.5c2.9,0.8,4.7,3.7,6.7,6.1
		c2.6,3.1,6.1,5.4,10,6.6c2.5,0.8,5.5,1,7.6-0.7c2.8-2.3,2.4-6.7,1.8-10.3c-1.3-6.8-2.5-13.5-3.8-20.3c-0.7-3.6-1.4-7.3-0.8-11
		s2.4-7.3,5.7-8.9s7.9-0.4,9.3,3.1c0.4,1.5,0.7,3,0.9,4.5c0.4,1.5,1.4,3,2.9,3.2s2.8-1.1,3.7-2.4c3.1-4.3,4.8-9.5,6.3-14.6
		s3-10.3,5.7-15s6.8-8.6,12-9.9s11.3,1,13.5,5.9s0.2,10.6-2.3,15.3c-3.7,7-8.4,13.5-14,19.1c-1.1,0.9-1.9,2.1-2.3,3.5
		c-0.4,2.6,2.4,4.5,4.9,4.9c2.9,0.4,5.8-0.4,8.6-0.6s6.2,0.5,7.7,3c2.2,3.4-0.3,7.9-2.8,11c-5.2,6.2-11.4,11.5-18.4,15.5
		c-2.5,1.5-5.1,2.8-7,5.1s-2.5,5.8-0.8,8.1s5.3,2.5,8,1.5s4.9-3,7.4-4.5c4.6-2.8,11.2-3.6,15.1,0.1c2.6,2.5,3.5,6.4,3,9.9
		c-0.6,3.6-1.9,7-3.9,10c-6.3,10.8-15.2,20.2-26,26.3S391.8,467.5,379.6,465.4"/>
	<path class="st2" d="M382.8,450.7c1.5-12.6,3.7-25,6.6-37.3c0.8-3.3,1.5-6.5,2.2-9.7c0.8-3.2,1.5-6.3,2.4-9.4
		c1.8-5.8,3.8-11.6,6.2-17.2c2.3-5.4,4.6-10.4,6.8-15s4.4-9,6.5-12.8c3.3-6.1,7.2-11.9,11.4-17.4c1.5-1.9,2.7-3.4,3.5-4.4l1-1.1
		c0.1-0.1,0.2-0.3,0.3-0.4c-0.1,0.1-0.2,0.3-0.3,0.4l-0.9,1.1c-0.8,1-2,2.5-3.5,4.5c-4.2,5.5-7.9,11.4-11.2,17.4
		c-2.1,3.9-4.2,8.2-6.4,12.8s-4.5,9.7-6.7,15c-2.4,5.6-4.4,11.3-6.2,17.1c-0.9,3-1.6,6.2-2.4,9.4s-1.5,6.4-2.2,9.7
		c-2.9,12.3-5.1,24.7-6.7,37.3"/>
	<path class="st2" d="M394.2,394.2c-0.3-0.5-0.5-1-0.6-1.5c-0.4-1-0.9-2.4-1.4-4.1c-1.2-3.5-2.6-8.4-4.2-13.9s-3.1-10.3-4.3-13.8
		c-0.6-1.8-1.1-3.2-1.5-4.1c-0.2-0.5-0.4-1-0.5-1.5c0.3,0.5,0.5,0.9,0.7,1.4c0.4,0.9,1,2.3,1.7,4.1c1.3,3.5,2.9,8.4,4.5,13.8
		s2.9,10.2,4,13.9l1.2,4.2C394,393.1,394.2,393.7,394.2,394.2z"/>
	<path class="st2" d="M439.3,377.1c-0.6,0.2-1.2,0.4-1.8,0.5c-1.2,0.3-2.9,0.8-5,1.4c-4.2,1.2-9.9,3.1-16.1,5.5s-11.8,4.8-15.7,6.6
		c-2,0.9-3.6,1.7-4.7,2.2c-0.6,0.3-1.1,0.6-1.7,0.8c0.5-0.4,1.1-0.7,1.6-1c1.1-0.6,2.6-1.5,4.6-2.4c3.9-2,9.5-4.4,15.7-6.8
		c5.3-2.1,10.8-3.8,16.3-5.3c2.1-0.6,3.9-1,5-1.2C438.1,377.2,438.7,377.1,439.3,377.1z"/>
	<path class="st2" d="M383.2,449.7c-0.2-0.2-0.3-0.3-0.4-0.5l-1.1-1.5c-1-1.4-2.3-3.3-3.9-5.8c-3.2-5-7.4-11.9-12-19.7
		s-8.7-14.8-11.8-19.8l-3.7-5.9c-0.4-0.6-0.7-1.2-1-1.6c-0.1-0.2-0.2-0.4-0.3-0.6c0.2,0.2,0.3,0.3,0.4,0.5l1.1,1.5
		c1,1.3,2.3,3.3,3.9,5.8c3.2,4.9,7.4,11.9,12,19.7s8.7,14.7,11.8,19.8l3.7,5.9l1,1.6C383,449.3,383.1,449.5,383.2,449.7z"/>
	<path class="st2" d="M441.6,418.6c-0.2,0.1-0.4,0.3-0.6,0.4l-1.7,0.9l-6.3,3.4c-5.3,2.8-12.5,6.8-20.5,11.2s-15.3,8.3-20.6,11
		c-2.7,1.4-4.9,2.4-6.4,3.1l-1.8,0.8c-0.2,0.1-0.4,0.2-0.6,0.2c0.2-0.2,0.4-0.3,0.6-0.4l1.7-0.9l6.3-3.4c5.3-2.8,12.5-6.8,20.5-11.2
		s15.3-8.3,20.6-11c2.7-1.4,4.9-2.4,6.4-3.1l1.8-0.8C441.2,418.7,441.4,418.7,441.6,418.6z"/>
	<polygon class="st0" points="472.8,214.4 453.6,198.6 453.5,207.2 399.9,206.5 399.8,220.5 453.3,221.2 453.2,229.4 	"/>
	<polygon class="st0" points="444.2,237.1 431.8,226.9 431.8,232.4 397.2,232 397.1,241 431.7,241.4 431.6,246.8 	"/>
	<path class="st0" d="M37.1,110.1c0,0-11.2,3.5-0.6,27.4s18.1,36,18.1,36s1.8,5.5-2.8,6.1s-14.5-1.6-16.9,3.9
		c-2.4,5.6,1.4,11.3,9.7,16.6s25.8,17.4,27.4,18.6s3,3.7,0,4.6s-25.7,1.9-24.6,12.7s26.5,21.6,29.2,22.9s3.3,2.5,3,4
		s-8,1.2-14.4,1.7s-13.8,2.4-12.6,8.5s15.8,19.7,52.8,25.5l17.3,1.6l10.3-14.2c20.2-31.6,19.7-51.5,15.9-56.4s-10-0.6-14.7,3.8
		s-9.5,10.4-10.8,9.6s-1.9-2-1-4.9s9.5-29.1,2.2-37s-23.1,8.3-25.8,10s-3.7-1.1-3.5-3s2.7-23.2,4.2-32.8s-0.2-16.3-6-18.2
		c-5.6-1.9-10.6,7-14.1,10.1s-6.5-2-6.5-2s-4-13.6-15-37.4s-21.2-17.5-21.2-17.5"/>
	<path class="st2" d="M123.4,304.1c-8-17.5-21.7-48.8-33.5-75.6s-22.7-51.1-30.5-68.6l-9.4-20.7l-2.5-5.6c-0.3-0.6-0.5-1.1-0.7-1.5
		s-0.2-0.5-0.2-0.5s0.1,0.2,0.3,0.5s0.4,0.8,0.7,1.4c0.6,1.3,1.5,3.2,2.6,5.6c2.3,4.9,5.5,11.9,9.5,20.7c8,17.5,18.8,41.7,30.7,68.5
		s25.5,58.1,33.4,75.7"/>
	<path class="st2" d="M48.7,187c0.4,0.1,0.8,0.2,1.2,0.4c0.8,0.3,1.8,0.7,3.2,1.3c2.7,1.1,6.3,2.8,10.2,4.8l10.1,5l3.1,1.5
		c0.4,0.2,0.8,0.4,1.1,0.6c-0.4-0.1-0.8-0.2-1.2-0.4c-0.8-0.3-1.8-0.8-3.2-1.3c-2.6-1.2-6.2-3-10.2-4.8l-10.2-4.9l-3.1-1.5
		C49.4,187.5,49,187.3,48.7,187z"/>
	<path class="st2" d="M78.8,199.5c-0.1-0.1,3-7.7,7-17s7.4-16.9,7.5-16.8s-3,7.7-7,17S79,199.5,78.8,199.5z"/>
	<path class="st2" d="M95.2,241.5c0.2-0.4,0.5-0.7,0.8-1l2.2-2.7c1.9-2.3,4.4-5.4,7.1-9s5.1-6.9,6.7-9.3l2-2.9
		c0.2-0.4,0.5-0.7,0.8-1c-0.2,0.4-0.4,0.8-0.6,1.1c-0.4,0.7-1,1.7-1.8,3c-1.6,2.5-3.9,5.9-6.6,9.4s-5.3,6.7-7.3,8.9
		c-1,1.1-1.8,2-2.3,2.6C95.9,241,95.5,241.2,95.2,241.5z"/>
	<path class="st2" d="M65.5,236.2c0.4,0,0.8,0,1.2,0.1l3.2,0.4c2.7,0.4,6.4,1,10.5,1.6s7.8,1.3,10.5,1.8l3.2,0.6
		c0.4,0.1,0.8,0.2,1.2,0.3c-0.4,0-0.8,0-1.2-0.1l-3.2-0.4c-2.7-0.4-6.4-1-10.5-1.6s-7.8-1.3-10.5-1.8l-3.2-0.6
		C66.2,236.4,65.8,236.3,65.5,236.2z"/>
	<path class="st2" d="M75.2,275.1c0.5,0,1,0,1.5,0.1l4.1,0.5c3.5,0.5,8.2,1.2,13.5,2s10,1.6,13.5,2.2l4.1,0.7c0.5,0.1,1,0.2,1.5,0.3
		c-0.5,0-1,0-1.5-0.1l-4.1-0.5c-3.5-0.5-8.2-1.2-13.5-2s-10-1.6-13.5-2.2l-4.1-0.7C76.2,275.4,75.7,275.3,75.2,275.1z"/>
	<path class="st2" d="M112.5,280.6c0.3-0.5,0.6-0.9,0.9-1.3l2.7-3.5c2.3-3,5.4-7.1,8.7-11.7s6.2-8.9,8.3-12l2.4-3.7
		c0.3-0.5,0.6-0.9,1-1.3c-0.2,0.5-0.5,1-0.8,1.4c-0.5,0.9-1.3,2.2-2.3,3.8c-2,3.2-4.8,7.5-8.2,12.1s-6.5,8.7-8.8,11.6
		c-1.2,1.5-2.1,2.6-2.8,3.4C113.3,279.8,112.9,280.2,112.5,280.6z"/>
</g>
<g id="freepik--Plant--inject-84">
	<path class="st3" d="M371.5,424c2,0.9,3.6,2.6,4.4,4.6c0.7,2.1,1,4.3,0.8,6.5c-0.4,4.2-2.6,8.5-5.1,12c-3.6-3-4.6-8.3-4.9-11.1
		C366.1,431.7,367.8,423.5,371.5,424"/>
	<path class="st3" d="M375.9,453.8c-0.6-2.4,0.2-5,2-6.7c1.8-1.7,4.3-2.5,6.7-2.3c1.1,0,2.2,0.4,3,1.3c0.6,0.9,0.6,2,0.1,3
		c-0.5,0.9-1.3,1.7-2.2,2.3C382.6,453.3,379.3,454.7,375.9,453.8"/>
	<path class="st4" d="M371.7,466.8c0-0.3,0-0.6,0.1-0.9c0.1-0.6,0.2-1.4,0.4-2.4c0.3-2.6,1-5.1,2.2-7.5c1.2-2.4,3-4.4,5.2-5.9
		c0.7-0.4,1.4-0.8,2.1-1c0.2-0.1,0.4-0.1,0.6-0.2c0.1,0,0.2,0,0.2,0c-1,0.4-2,0.9-2.9,1.4c-2.1,1.5-3.9,3.5-5,5.8
		c-1.1,2.3-1.9,4.8-2.2,7.4c-0.2,1-0.3,1.8-0.5,2.3C371.9,466.3,371.8,466.6,371.7,466.8z"/>
	<path class="st4" d="M370.7,430.3c0,0.1,0,0.3,0,0.4c0,0.3,0.1,0.6,0.1,1.1c0.1,0.9,0.2,2.3,0.3,4c0.2,3.4,0.4,8,0.6,13.1
		s0.1,9.8,0.1,13.2c0,1.7,0,3-0.1,4c0,0.4,0,0.8,0,1.1c0,0.1,0,0.3,0,0.4c0,0,0-0.1,0-0.4s0-0.6,0-1.1c0-1,0-2.3,0-4
		c0-3.4-0.1-8-0.2-13.1s-0.3-9.8-0.5-13.1c-0.1-1.6-0.1-3-0.2-4c0-0.5,0-0.8,0-1.1C370.8,430.5,370.8,430.4,370.7,430.3z"/>
	<path class="st3" d="M369.8,456.6c-1-5.1-4.5-9.5-9.2-11.6c-1.2-0.5-2.8-0.9-3.7,0.1s-0.7,2.5-0.2,3.7c2.3,5.1,7.4,8.4,13,8.2"/>
	<path class="st4" d="M361.3,448.9c0.3,0.1,0.5,0.2,0.8,0.3c0.3,0.1,0.6,0.3,0.9,0.4c0.4,0.2,0.7,0.4,1.1,0.6
		c0.4,0.3,0.8,0.5,1.3,0.9s0.9,0.7,1.4,1.1c1,0.9,1.8,2,2.6,3.1c0.7,1.1,1.3,2.4,1.8,3.7c0.2,0.6,0.3,1.1,0.5,1.7
		c0.1,0.5,0.2,1,0.3,1.5c0.1,0.4,0.1,0.9,0.1,1.3c0,0.3,0,0.7,0,1c0,0.3,0,0.5-0.1,0.8c-0.1,0,0-1.2-0.3-3c-0.1-0.5-0.1-1-0.3-1.5
		s-0.3-1.1-0.5-1.7c-0.5-1.3-1-2.5-1.8-3.6c-0.7-1.1-1.6-2.2-2.5-3.1c-0.4-0.4-0.9-0.8-1.3-1.2c-0.4-0.4-0.9-0.6-1.2-0.9
		C362.3,449.4,361.3,449,361.3,448.9z"/>
	<path class="st3" d="M71.4,442c0.9-3.6-1.4-7.2-4-9.8s-5.8-4.9-7.1-8.4c-2.2-5.6,0.8-12.8-3-17.4c-2.3-2.7-6.3-3.6-8.3-6.5
		c-0.9-1.6-1.5-3.4-1.8-5.2c-2.1-9.2-6.6-17.7-13.2-24.6c-0.4,8.2,1.3,16.4,5.2,23.7c1.5,2.9,3.4,5.8,3.9,9
		c0.8,5.3-2.1,10.7-0.8,15.9c1.5,5.9,8.2,9.9,8.5,16c0.3,5.2-4.2,9.7-3.9,14.9c0.3,2.2,1.1,4.3,2.3,6.1c4,6.6,9.9,11.2,18.8,11.1
		l10.9,0.4L71.4,442z"/>
	<g class="st5">
		<path d="M71.4,442c0.9-3.6-1.4-7.2-4-9.8s-5.8-4.9-7.1-8.4c-2.2-5.6,0.8-12.8-3-17.4c-2.3-2.7-6.3-3.6-8.3-6.5
			c-0.9-1.6-1.5-3.4-1.8-5.2c-2.1-9.2-6.6-17.7-13.2-24.6c-0.4,8.2,1.3,16.4,5.2,23.7c1.5,2.9,3.4,5.8,3.9,9
			c0.8,5.3-2.1,10.7-0.8,15.9c1.5,5.9,8.2,9.9,8.5,16c0.3,5.2-4.2,9.7-3.9,14.9c0.3,2.2,1.1,4.3,2.3,6.1c4,6.6,9.9,11.2,18.8,11.1
			l10.9,0.4L71.4,442z"/>
	</g>
	<path class="st4" d="M81.1,467.5c1,0.2,2,0.1,3-0.1c1.2-0.2,2.4-0.5,3.5-0.9c1.6-0.5,3.1-1.4,4.4-2.4c0.8-0.6,1.4-1.5,1.8-2.4
		c0.3-1.1,0.5-2.1,0.5-3.3c0-1.2,0.1-2.4,0.3-3.5c0.2-1.2,0.7-2.4,1.3-3.5c1.3-2.3,3.4-4.4,4.1-7.5s0.2-6.3-0.3-9.5s-1-6.8,0.3-10.2
		s3.6-6.5,4.8-10.3s0.6-8,0.9-12.2c0.1-2.1,0.6-4.1,1.4-6c0.9-1.9,2.1-3.7,3.1-5.8c1.9-4.1,2.3-8.8,2.8-13.3c0.3-2.3,0.5-4.6,0.8-7
		c0.2-2.4,0.6-4.7,1.2-7c0.7-2.3,1.6-4.5,2.6-6.7c0.5-1.1,0.9-2.3,1.3-3.5c0.2-1.2,0.3-2.5,0.3-3.7c0.1-2.5,0-5-0.3-7.5
		c-0.3-2.5-0.8-5-1-7.5c0-0.1,0-0.3,0-0.4l-0.1-0.5l-0.4,0.2c-2.3,1.2-4.3,2.9-5.9,5c-1.5,2-2.7,4.3-3.6,6.6
		c-1.8,4.7-2.5,9.6-3.4,14.3s-2.1,9.3-4.5,13.2c-1.2,1.9-2.6,3.7-3.9,5.6c-1.3,1.8-2.3,4-2.7,6.2c-0.6,4.6,1.9,8.7,1.4,12.7
		c-0.3,2-0.9,3.9-2,5.7c-1,1.7-2.2,3.4-3.3,5c-1.1,1.6-2.1,3.2-2.9,5c-0.8,1.7-1.2,3.6-1.3,5.5c-0.3,3.7,0.3,7.1,0,10.4
		c-0.3,3.2-1.3,6.2-2.8,9c-1.3,2.7-2.8,5.1-4,7.5c-0.6,1.2-1.2,2.3-1.7,3.5c-0.5,1.1-0.8,2.3-1,3.4c-0.3,2.1-0.4,4.2-0.1,6.2
		c0.3,2.9,1.4,5.6,3.1,7.9c0.3,0.4,0.6,0.7,0.9,1c0.2,0.2,0.5,0.4,0.7,0.6C80.8,467.4,81,467.6,81.1,467.5c-0.8-0.6-1.5-1.3-2.1-2.1
		c-1.7-2.3-2.7-5-3-7.9c-0.2-2-0.2-4.1,0.1-6.1c0.2-1.2,0.5-2.3,1-3.4c0.5-1.1,1-2.3,1.7-3.4c1.2-2.3,2.7-4.7,4.1-7.4
		c1.5-2.8,2.5-5.9,2.8-9.1c0.3-3.4-0.2-6.9,0.1-10.4c0.1-1.8,0.6-3.6,1.3-5.3c0.8-1.7,1.8-3.4,2.9-4.9c1.1-1.6,2.3-3.2,3.3-5
		c1.1-1.8,1.8-3.8,2.1-5.9c0.5-4.4-2-8.4-1.3-12.7c0.4-2.1,1.3-4.2,2.6-5.9c1.2-1.9,2.7-3.6,3.9-5.6c2.5-4,3.7-8.7,4.6-13.4
		s1.6-9.6,3.4-14.1c0.9-2.3,2-4.5,3.5-6.5c1.5-2,3.4-3.6,5.6-4.8l-0.5-0.3c0,0.1,0,0.3,0,0.4c0.3,2.5,0.7,5,1,7.5
		c0.3,2.5,0.4,4.9,0.3,7.4c0,1.2-0.2,2.4-0.3,3.6c-0.3,1.2-0.7,2.3-1.2,3.4c-1,2.2-1.9,4.5-2.6,6.8c-0.7,2.3-1.1,4.7-1.2,7.1
		c-0.3,2.3-0.5,4.7-0.8,7c-0.5,4.6-0.9,9.1-2.7,13.1c-0.9,2-2.1,3.8-3,5.8c-0.9,2-1.4,4.1-1.5,6.3c-0.2,4.2,0.3,8.3-0.8,12
		s-3.5,6.8-4.7,10.3s-0.8,7.2-0.2,10.5s1.1,6.5,0.3,9.4s-2.7,5-4,7.4c-0.7,1.1-1.1,2.4-1.3,3.7c-0.1,1.2-0.2,2.4-0.2,3.6
		c0,1.1-0.2,2.1-0.5,3.2c-0.4,0.9-0.9,1.7-1.7,2.3c-1.3,1-2.7,1.8-4.3,2.4c-1.1,0.4-2.3,0.7-3.5,1c-0.7,0.1-1.5,0.2-2.2,0.2
		C81.3,467.5,81.1,467.5,81.1,467.5z"/>
	<path class="st4" d="M115.5,339.2c0,0.1-0.1,0.2-0.1,0.3c-0.1,0.3-0.2,0.6-0.2,1c-0.2,0.9-0.5,2.1-0.9,3.8s-1.4,3.4-2.3,5.7
		s-1.8,4.8-2.6,7.7s-1.6,6.1-2.3,9.6c-0.7,3.7-1.8,7.3-3.5,10.6c-0.9,1.8-1.9,3.6-2.7,5.5c-0.8,2-1.3,4.1-1.6,6.3
		c-0.5,4.4-1.3,8.8-2.3,13.2l-6.2,25.2c-1.9,7.7-3.7,14.7-5.2,20.5s-2.6,10.5-3.4,13.9c-0.4,1.6-0.7,2.9-0.9,3.8
		c-0.1,0.4-0.2,0.7-0.2,1c0,0.1,0,0.2,0,0.3c0.1-0.1,0.1-0.2,0.1-0.3c0.1-0.3,0.2-0.6,0.3-1c0.3-0.9,0.6-2.2,1-3.7
		c0.9-3.3,2.1-8,3.6-13.8s3.3-12.8,5.3-20.5s4-16.2,6.2-25.2c1-4.4,1.8-8.8,2.3-13.2c0.2-2.1,0.7-4.1,1.5-6.1
		c0.8-1.9,1.8-3.7,2.7-5.5c1.9-3.5,2.7-7.4,3.5-10.8s1.4-6.7,2.2-9.6s1.6-5.5,2.5-7.7s1.8-4.1,2.2-5.8s0.6-2.9,0.8-3.8
		c0.1-0.4,0.1-0.7,0.2-1C115.5,339.5,115.5,339.3,115.5,339.2z"/>
	<path class="st3" d="M83,467.6c7.1-4.2,9.2-17.1,6.2-24.8s-8.2-14.8-9-23c-0.6-6.3,1.5-12.8,0-19c-2-8.4-10.1-14.8-10-23.4
		c0.1-4.8,2.8-9.4,2.6-14.2c-0.3-5.9-4.8-10.6-7.6-15.8c-4.3-8-4.6-17.4-6-26.3s-4.9-18.5-12.8-22.9c-1.2,7.6-3.2,12.8-2.5,23
		c0.2,3.7,4.5,10.7,5.1,18.8c0.3,4.8,0.6,9.7,0.9,14.5s0.6,9.5,2.3,13.9c1.3,3.4,3.4,6.4,4.3,9.9c1.8,6.5-0.6,13.6,0.9,20.3
		c1.2,5.6,5.1,10.5,5.9,16.2c1.1,8-4.1,16.3-1.4,24c1.3,3.8,4.4,6.8,5.3,10.8c0.7,3-0.1,6.3,0.6,9.3c1,4.9,10.4,8.7,15.4,8.4"/>
	<path class="st4" d="M48.3,305.8c0,0.1,0,0.3,0,0.4c0,0.3,0.1,0.7,0.2,1.2c0.2,1.1,0.3,2.7,0.7,4.8s1.5,4.4,2.3,7.3
		s1.8,6.1,2.6,9.7s1.5,7.7,2.2,12s1.5,9.1,3.6,13.6c1,2.3,2.1,4.5,3,7c0.8,2.5,1.3,5.1,1.5,7.7c0.4,5.6,1.1,11.1,2.1,16.6
		c2.2,11.2,4.3,21.9,6.1,31.6l5.3,25.8c1.5,7.3,2.8,13.2,3.6,17.4c0.4,2,0.8,3.6,1,4.7c0.1,0.5,0.2,0.9,0.3,1.2s0.1,0.4,0.1,0.4
		c0-0.1,0-0.3-0.1-0.4c-0.1-0.3-0.1-0.7-0.2-1.2c-0.2-1.1-0.5-2.7-0.9-4.7c-0.8-4.2-2-10.1-3.4-17.4s-3.2-16.1-5.2-25.8
		s-4-20.4-6.1-31.6c-1-5.5-1.7-11-2.1-16.5c-0.2-2.7-0.7-5.3-1.5-7.8c-0.9-2.5-2-4.8-3-7c-2.1-4.5-2.9-9.1-3.7-13.5s-1.5-8.4-2.3-12
		c-0.7-3.3-1.6-6.5-2.7-9.8c-0.9-2.9-2-5.2-2.4-7.2s-0.6-3.7-0.8-4.7c-0.1-0.5-0.2-0.9-0.2-1.2C48.4,306,48.3,305.9,48.3,305.8z"/>
</g>
<g id="freepik--Device--inject-84">
	<path class="st4" d="M269,467.2H129.8c-16.8-0.1-31-14.4-31-31.2l1.5-350.5c0.1-16.8,13.8-30.4,30.6-30.3c0,0,0.1,0,0.1,0
		l139.8,0.7c16.8,0.1,30.4,13.8,30.3,30.6c0,0,0,0,0,0l-1.5,350.5C299.6,453.7,285.9,467.3,269,467.2C269,467.2,269,467.2,269,467.2
		z"/>
	<path class="st1" d="M270.9,69.1L243.8,69c-3.7,0.1-6.7,3.1-6.6,6.8v4.9c0.1,3.7-2.9,6.8-6.6,6.8l-52.8-0.2
		c-3.7-0.1-6.6-3.2-6.6-6.9c0,0,0,0,0,0v-4.9c0.1-3.7-2.8-6.8-6.6-6.9h-9.5l-23.7-0.1c-11.8,0-21.4,9.5-21.4,21.2c0,0,0,0,0,0
		l-1.4,342.1c-0.1,11.8,9.4,21.4,21.2,21.4c0,0,0,0,0,0l139.5,0.6c11.8,0.1,21.4-9.4,21.4-21.2c0,0,0,0,0,0l1.5-342.2
		C292.1,78.8,282.6,69.2,270.9,69.1z"/>
	<path class="st1" d="M211.6,389.3c-0.2,4.1-0.3,8-0.4,11.2h20l-2.4-12.3L211.6,389.3z"/>
	<path class="st1" d="M130.2,394.4l0.2,6.1h78.8c0.1-3.4,0.3-7.2,0.4-11.1L130.2,394.4z"/>
	<polygon class="st1" points="229.8,388.1 232.3,400.5 269.2,400.5 268.8,385.6 	"/>
	<polygon class="st1" points="213.6,215.1 220.6,174.6 202.3,173.3 202.3,215.1 	"/>
	<polygon class="st1" points="128.5,371.9 108.7,379.7 108.6,393.8 129.1,392.5 	"/>
	<polygon class="st1" points="128.4,368.8 127.4,331 127.3,331 127.3,317.7 108.9,319.7 108.7,376.5 128.4,368.7 	"/>
	<polygon class="st1" points="127.3,288 109.1,285.6 108.9,316.7 127.3,314.7 	"/>
	<polygon class="st1" points="263.5,318.3 262.8,329.1 241.2,331.4 242.9,340 267.4,338.1 267,325.9 268.9,317.7 	"/>
	<polygon class="st1" points="224.6,341.4 241.9,340.1 238.1,320.9 223.1,322.4 	"/>
	<polygon class="st1" points="224.8,343.4 226.1,359.4 228.5,381.3 229.4,386.1 268.7,383.6 267.4,340.1 	"/>
	<path class="st1" d="M157.1,267.7l1.5,2.6L128.4,288v42l32-2.3l61.6-6.3l-2.3-27.5l-58.9-7.7l0.4-3l58.3,7.6l-3.8-46.5l-57.7,5.6
		l-0.2-2l57.7-5.6l-2-24.3H158l-48.7,8.9l-0.2,55.6l18.4,2.4L157.1,267.7z M131.4,326c0,0,0.2-34.6,0-35.9l24.7-13.2l3.2,47.3
		L131.4,326z"/>
	<polygon class="st1" points="261.5,318.5 239.1,320.8 240.8,329.5 260.9,327.3 	"/>
	<path class="st1" d="M211.9,381.9c-0.1,1.8-0.1,3.6-0.2,5.4l16.7-1l-0.9-4.3L211.9,381.9z"/>
	<polygon class="st1" points="176,215.1 178.9,201.8 201.3,201.8 201.3,173.2 131.3,168 131.3,194.9 109.4,199.8 109.3,223.9 
		157.8,215.1 	"/>
	<path class="st1" d="M222.7,135.5l-0.6-2.4l26.7-10.6l-17.4-34.9c-0.3,0.1-0.7,0.1-1,0.1L201,87.5l0.8,48.9L222.7,135.5z"/>
	<path class="st1" d="M263.3,116.8V69.1L243.8,69c-3.7,0.1-6.7,3.1-6.6,6.8v4.9c0,2.2-1.1,4.3-2.9,5.6l17.4,34.9L263.3,116.8z"/>
	<path class="st1" d="M162.7,118.8l-2.3-50.2h-5.4l-21.1-0.1l-9,44.9L162.7,118.8z M157.9,73.7l0.7,40.9l-28.1-4.1l6.1-36.8H157.9z"
		/>
	<path class="st1" d="M163.8,119v0.4c0,3.9,0.1,11,0.2,18.5l36.8-1.5L200,87.5l-22.3-0.1c-3.7-0.1-6.6-3.2-6.6-6.9c0,0,0,0,0,0v-4.9
		c0.1-3.7-2.8-6.8-6.6-6.9h-3.1L163.8,119L163.8,119z"/>
	<path class="st1" d="M121.9,113l8.9-44.4c-11.6,0.2-20.9,9.6-20.9,21.2l-0.1,22.2l0.1-0.7L121.9,113z"/>
	<polygon class="st1" points="128.3,167.8 109.6,166.4 109.4,196.7 128.3,192.5 	"/>
	<polygon class="st1" points="121.7,113.9 109.8,112.2 109.6,161.4 112.2,161.6 	"/>
	<polygon class="st1" points="159.6,368.2 159.9,328.7 128.4,331 129.5,369.6 	"/>
	<path class="st1" d="M165.4,359.1l44.6,21.4c0.5-14,1-27,1-27.9h1l0.5-0.9c0.6,0.3,0.6,0.3,0.3,9.8c-0.2,5.3-0.4,12.4-0.7,19.5
		h15.3l-2.3-21.4l-3-37l-58.3,5.9L165.4,359.1z"/>
	<polygon class="st1" points="274.8,293.6 274.2,288.4 220.8,294 223,321.4 269.2,316.7 	"/>
	<polygon class="st1" points="201.3,204.8 181.4,204.8 179.1,215.1 201.3,215.1 	"/>
	<path class="st1" d="M266.5,208.3l-50.1-3.5l-2,11.8l2.1,25.7l52.8-5.1L266.5,208.3z M218.3,216.6l2.7-7.5l43.5,2.8l2.6,21.3
		l-47.2,5.6L218.3,216.6z"/>
	<polygon class="st1" points="271.7,261.9 269.5,239.2 216.7,244.3 218.7,268.5 	"/>
	<polygon class="st1" points="129.2,394.5 108.7,395.8 108.6,394.4 108.6,400.5 129.4,400.5 	"/>
	<path class="st1" d="M291.7,105.5l0.3,0.8l0.1-15.7c0-11.8-9.5-21.4-21.2-21.4h-6.6v47.3L291.7,105.5z"/>
	<path class="st1" d="M209.9,381.5l-45.6-21.8l-1.6-31.3l-1.9,0.2l-0.3,40.5l-31.1,1.5v0.9l0,0l0.6,20.9l79.6-5
		C209.8,385.4,209.9,383.5,209.9,381.5z M131.5,373.2l43.5-3l28.3,13.1l-71.7,3.9V373.2z"/>
	<path class="st1" d="M278.8,158l1.9-11c-16.3-5.8-17.5-22.9-17.4-28l-10.7,4.2l16.1,32.2L278.8,158z"/>
	<polygon class="st1" points="220.5,291 242.7,288.7 238.3,269 218.9,271.4 	"/>
	<polygon class="st1" points="266.6,174.9 225.1,174.9 221.6,174.7 216.9,201.9 266.2,205.3 265,193.4 269.9,176 	"/>
	<path class="st1" d="M265.5,170l0.5-13l-16.3-32.7l-25.3,10l8.7,35.7H265.5z M248.8,128.3l14.9,28.4l-2.2,8.9l-25.6-1l-6.4-26.9
		L248.8,128.3z"/>
	<polygon class="st1" points="272,326.4 272.8,351.9 290.7,350.8 290.8,351.8 272.8,352.9 273.7,383.3 290.7,382.3 290.8,384.3 
		273.8,385.3 274.2,400.5 290.8,400.5 291.1,315.5 274.2,317.2 	"/>
	<path class="st1" d="M162.8,119.8l-38.1-5.5l-9.5,47.4l47.8,3.5C163.1,158,163,135.6,162.8,119.8z"/>
	<polygon class="st1" points="225.4,169.9 231.1,169.9 223,136.5 201.8,137.4 202.3,168.2 	"/>
	<path class="st1" d="M108.5,424.8v7c0,0.2,0,0.4,0,0.6V424.8z"/>
	<path class="st1" d="M163.9,165.4l37.4,2.8l-0.5-30.8l-36.8,1.5C164,149.3,164.1,160.4,163.9,165.4z"/>
	<polygon class="st1" points="272,264.9 239.3,268.9 243.7,288.6 274,285.4 	"/>
	<path class="st1" d="M280.8,146l2.1-12.4l9,0.7l0.1-26.7l-27.8,11C263.7,137.3,275.5,143.9,280.8,146z"/>
	<polygon class="st1" points="270.1,193.9 271.3,205.6 291.6,207 291.7,182.9 274.7,177.5 	"/>
	<path class="st1" d="M279.8,294l-5.3,22.2l16.7-1.7l0.1-23.3c-5.1-1.4-9.6-2.5-12-2.9L279.8,294z"/>
	<polygon class="st1" points="268.5,170.3 291.7,177.6 291.8,164.5 269,158.6 	"/>
	<path class="st1" d="M279,285.2c1.9,0.3,5.4,1,12.3,2.9l0.2-51l-17,1.6L279,285.2z"/>
	<polygon class="st1" points="274.3,236.8 291.5,235.1 291.6,210 271.5,208.6 	"/>
	<path class="st1" d="M282.7,146.6c3.3,1,6.3,1.8,9.1,2.3v-12.6l-7.3-0.6L282.7,146.6z"/>
	<path class="st1" d="M280.7,158.5l11.1,2.9l0-11.4c-2.9-0.6-6-1.4-9.3-2.4L280.7,158.5z"/>
	<path class="st6" d="M290.8,384.3l-0.1-2l-17,1.1l-0.9-30.5l18-1l-0.1-1l-18,1l-0.7-25.4l2.2-9.2l16.9-1.7v-1l-16.7,1.7l5.3-22.2
		l-0.5-5.7c2.4,0.5,6.9,1.6,12,2.9v-3.1c-6.9-1.8-10.4-2.6-12.3-2.9l-4.5-46.5l17-1.6v-2l-17.2,1.7l-2.7-28.1l20,1.4v-3l-20.4-1.4
		L270,194l4.5-16.4l17,5.4v-5.2l-23.2-7.3l0.5-11.8l22.8,5.9v-3.1l-11.1-2.9l1.8-10.9c3.3,1,6.4,1.8,9.3,2.4v-1
		c-2.8-0.6-5.9-1.3-9.1-2.3l1.8-10.9l7.3,0.6v-2l-9-0.7l-1.9,12.3c-5.3-2-17.1-8.6-16.6-27.4l27.8-11v-1.3l-0.3-0.8l-27.5,10.9V69.2
		h-1v47.7l-11.6,4.6l-17.4-34.9c-0.8,0.6-1.8,1-2.8,1.1l17.4,34.9L222.1,133l0.6,2.4l-21,0.9L201,87.5h-1l0.8,48.9l-36.8,1.5
		c-0.1-7.5-0.1-14.6-0.2-18.5V119l0,0l-2.3-50.3h-1l2.3,50.2l-37.8-5.4l9-44.9h-2.6c-0.2,0-0.3,0-0.5,0l-9,44.5l-12-1.7l-0.1,0.7
		v0.3l11.9,1.7l-9.6,47.6l-2.6-0.2v5l18.7,1.4v24.7l-18.9,4.3v3.1l21.9-4.9V168l70,5.2v28.6H179l-3,13.3h-18.2l-48.4,8.8v3.1
		l48.7-8.9h55.5l2,24.3l-57.7,5.6l0.2,2l57.7-5.6l3.8,46.5l-58.3-7.6l-0.4,3l58.9,7.7l2.3,27.4l-61.7,6.2l-32,2.3v-42l30.3-17.7
		l-1.5-2.6L127.5,285l-18.5-2.4v3l18.3,2.4v26.7l-18.4,2v3l18.4-2V331l0,0l1.1,37.7l0,0l-19.8,7.7v3.2l19.9-7.8l0.6,20.6l-20.5,1.3
		v0.7l0.1,1.3l20.5-1.3l0.2,6h1l-0.2-6.1l79.4-5c-0.1,3.9-0.3,7.7-0.4,11.1h2c0.1-3.2,0.3-7.1,0.4-11.2l17.1-1.1l2.4,12.3h1
		l-2.5-12.4l39-2.5l0.5,14.8h5 M211.8,387.3c0.1-1.8,0.1-3.6,0.2-5.4h15.6l0.9,4.3L211.8,387.3z M229.4,386.1l-1-4.8l-2.3-22
		l-1.3-16l42.6-3.2l1.3,43.5L229.4,386.1z M239.1,320.8l22.4-2.3l-0.6,8.8l-20.1,2.2L239.1,320.8z M238.1,320.9l3.8,19.2l-17.2,1.3
		l-1.6-19L238.1,320.9z M267.4,338.1l-24.5,1.9l-1.7-8.5l21.6-2.3l0.8-10.8l5.4-0.5l-1.9,8.1L267.4,338.1z M238.4,269l4.4,19.6
		l-22.3,2.3l-1.6-19.5L238.4,269z M243.8,288.6l-4.4-19.6l32.6-4l2,20.5L243.8,288.6z M266.2,205.3l-49.2-3.4l4.7-27.2l3.4,0.3h41.5
		l3.3,1.1l-4.9,17.4L266.2,205.3z M263.2,118.9c0,5.2,1.1,22.2,17.4,28l-1.9,11.1l-10.2-2.6l-16.1-32.2L263.2,118.9z M249.8,124.3
		l16.3,32.7l-0.5,13h-32.4l-8.7-35.7L249.8,124.3z M223,136.5l8.1,33.5h-5.8l-23.1-1.7l-0.5-30.9L223,136.5z M200.8,137.4l0.5,30.8
		l-37.4-2.8c0.2-5,0.1-16.1,0-26.5L200.8,137.4z M124.7,114.4l38.1,5.5c0.2,15.8,0.4,38.2,0.2,45.5l-47.8-3.5L124.7,114.4z
		 M220.7,174.6l-7,40.5h-11.3v-41.9L220.7,174.6z M181.4,204.8h20v10.3h-22.3L181.4,204.8z M214.4,216.6l2-11.8l50.1,3.5l2.8,28.9
		l-52.8,5.1L214.4,216.6z M269.5,239.2l2.2,22.7l-53,6.5l-2-24.1L269.5,239.2z M220.8,294l53.5-5.6l0.5,5.2l-5.6,23.1l-46.2,4.6
		L220.8,294z M225.1,359.5l2.3,21.4H212c0.3-7.1,0.5-14.1,0.7-19.5c0.3-9.5,0.3-9.5-0.3-9.8l-0.5,0.9h-1c0,0.8-0.4,13.9-1,27.9
		l-44.6-21.4l-1.6-30.7l58.3-5.9L225.1,359.5z M159.9,328.8l-0.3,39.5l-30.1,1.4l-1.1-38.6L159.9,328.8z M129.5,371.6L129.5,371.6
		v-0.9l31.1-1.5l0.3-40.5l1.9-0.2l1.6,31.3l45.6,21.8c-0.1,1.9-0.1,3.9-0.2,5.8l-79.6,5L129.5,371.6z"/>
	<polygon class="st7" points="174.9,370.1 131.4,373.2 131.4,387.1 203.2,383.3 	"/>
	<polygon class="st7" points="264.4,211.9 221,209.2 218.3,216.6 219.8,238.9 267,233.3 	"/>
	<path class="st7" d="M108.6,387.3l-0.1,37.6v7.7c0.3,11.5,9.7,20.7,21.2,20.8l139.5,0.6c11.8,0.1,21.4-9.4,21.4-21.2c0,0,0,0,0,0
		l0.1-45.4L108.6,387.3z"/>
	<polygon class="st7" points="158.6,114.6 157.9,73.7 136.7,73.7 130.5,110.5 	"/>
	<polygon class="st7" points="261.6,165.5 263.7,156.7 248.8,128.2 229.6,137.7 236,164.6 	"/>
	<path class="st7" d="M131.4,290.1c0.2,1.3,0,35.9,0,35.9l28-1.8l-3.2-47.3L131.4,290.1z"/>
	<polygon class="st7" points="224.6,318.2 223.2,296.7 271.1,290.6 271.1,294.3 265.3,314 	"/>
	<path class="st8" d="M269.3,372.8l-0.6-14l-42.1,2c-1.1,0.1-2.2-0.2-3.2-0.7L163.7,330c-1.4-0.7-2.3-2.1-2.4-3.6l-8.1-157.7
		c0-0.7,0.3-1.5,0.8-2c0.5-0.5,1.3-0.8,2-0.7l25.6,1.9v-28h3v28.4c0,0.7-0.3,1.4-0.8,1.9c-0.5,0.5-1.3,0.8-2,0.7l-25.6-1.9
		l8.1,157.3c0,0.5,0.3,0.9,0.7,1.1l59.8,30.2c0.5,0.3,1.1,0.4,1.7,0.4l42.5-2.1c0.7,0,1.4,0.2,1.9,0.7c0.5,0.5,0.8,1.1,0.9,1.8
		l0.6,14.3L269.3,372.8z"/>
	<path class="st3" d="M257,122.6c0,3.2-2.6,5.8-5.8,5.8c-3.2,0-5.8-2.6-5.8-5.8c0-3.2,2.6-5.8,5.8-5.8l0,0
		C254.4,116.8,257,119.4,257,122.6C257,122.6,257,122.6,257,122.6z"/>
	<g class="st9">
		<circle class="st8" cx="251.1" cy="122.6" r="5.8"/>
	</g>
	<path class="st3" d="M255,122.4c0,2.1-1.7,3.9-3.9,3.9c-2.1,0-3.9-1.7-3.9-3.9c0-2.1,1.7-3.9,3.9-3.9c0,0,0,0,0,0
		C253.3,118.5,255,120.3,255,122.4z"/>
	<path class="st3" d="M273.3,373.6c0,1.4-1.1,2.5-2.5,2.5c-1.4,0-2.5-1.1-2.5-2.5c0-1.4,1.1-2.5,2.5-2.5c0,0,0,0,0,0
		C272.2,371.1,273.3,372.2,273.3,373.6z"/>
	<ellipse class="st4" cx="133.3" cy="405.1" rx="0.3" ry="1.5"/>
	<ellipse class="st4" cx="133.3" cy="411.1" rx="0.3" ry="1.5"/>
	<ellipse class="st4" cx="133.3" cy="417.1" rx="0.3" ry="1.5"/>
	<ellipse class="st4" cx="133.3" cy="423.1" rx="0.3" ry="1.5"/>
	<ellipse class="st4" cx="133.3" cy="428.6" rx="0.3" ry="1.1"/>
	<path class="st10" d="M137.6,434.9c0-2.3-1.9-4.3-4.2-4.3c-2.3,0-4.3,1.9-4.3,4.2c0,0.8,0.2,1.5,0.6,2.2l0,0
		c0.2,0.3,0.4,0.5,0.6,0.8l2.5,3.3c0.3,0.3,0.7,0.4,1.1,0.2c0.1,0,0.1-0.1,0.2-0.2l2.4-3.2c0.2-0.3,0.5-0.5,0.7-0.8l0,0
		C137.4,436.4,137.6,435.6,137.6,434.9z M133.3,436.7c-1,0-1.9-0.8-1.9-1.9c0-1,0.8-1.9,1.9-1.9c1,0,1.9,0.8,1.9,1.9l0,0
		C135.2,435.9,134.3,436.7,133.3,436.7z"/>
	<path class="st4" d="M241.2,436.7c0,0.1-21.6,0.3-48.1,0.3s-48.1-0.1-48.1-0.3s21.6-0.3,48.1-0.3S241.2,436.6,241.2,436.7z"/>
	<path class="st3" d="M203.2,432.5c0,0.1-13.1,0.3-29.2,0.3s-29.2-0.1-29.2-0.3s13.1-0.3,29.2-0.3S203.2,432.4,203.2,432.5z"/>
	<path class="st4" d="M160.6,441.5c-2.6,0.3-5.1,0.3-7.7,0.3c-2.6,0.1-5.2,0-7.7-0.3c2.6-0.3,5.1-0.4,7.7-0.3
		C155.5,441.1,158.1,441.2,160.6,441.5z"/>
	<path class="st3" d="M137.6,401.7c0-2.3-1.9-4.3-4.2-4.3c-2.3,0-4.3,1.9-4.3,4.2c0,0.8,0.2,1.5,0.6,2.2l0,0l0,0
		c0.2,0.3,0.4,0.5,0.6,0.8l2.5,3.3c0.3,0.3,0.7,0.4,1.1,0.2c0.1,0,0.1-0.1,0.2-0.2l2.4-3.2c0.2-0.3,0.4-0.5,0.6-0.8l0,0
		C137.3,403.2,137.6,402.5,137.6,401.7z M133.3,403.6c-1,0-1.9-0.8-1.9-1.9c0-1,0.8-1.9,1.9-1.9c1,0,1.9,0.8,1.9,1.9l0,0
		C135.2,402.7,134.3,403.6,133.3,403.6z"/>
	<path class="st4" d="M261.5,403.6c0,0.1-26.1,0.3-58.3,0.3s-58.3-0.1-58.3-0.3s26.1-0.3,58.3-0.3S261.5,403.4,261.5,403.6z"/>
	<path class="st3" d="M227.4,399.4c0,0.1-18.5,0.3-41.3,0.3s-41.3-0.1-41.3-0.3s18.5-0.3,41.3-0.3S227.4,399.2,227.4,399.4z"/>
	<path class="st4" d="M190.4,408.4c0,0.1-10.1,0.3-22.6,0.3s-22.6-0.1-22.6-0.3s10.1-0.3,22.6-0.3S190.4,408.2,190.4,408.4z"/>
</g>
<g id="freepik--speech-bubble--inject-84">
	<path class="st8" d="M428.5,163.4l-4.6-10.1c-14.3-1.2-24.9-13.7-23.7-27.9s13.7-24.9,27.9-23.7c14.3,1.2,24.9,13.7,23.7,27.9
		c-0.9,10.7-8.3,19.8-18.7,22.8l0,0L428.5,163.4z"/>
</g>
<g id="freepik--Character--inject-84">
	<path class="st4" d="M355.5,116c0.9-3.3,3.4-5,6.7-6.1c3.3-1.1,7-0.5,9.8,1.6c1.8,1.4,3.3,3.4,5.5,4.2c3.6,1.3,7.8-1.4,11.3,0.2
		c2.5,1.1,3.5,4,2.4,6.5c-0.8,1.8-2.7,2.9-4.7,2.8c2.3,0.9,3.1,4.2,1.7,6.3s-4.2,2.9-6.6,2.4c-2.4-0.6-4.7-1.8-6.4-3.6
		c-1.9-1.7-3.5-3.6-5.5-5.1c-1.9-1.6-4.4-2.5-6.9-2.5c-3.4,0.2-6.3,2.7-7.8,5.8s-1.9,6.5-2,9.9s-0.3,6.8-1.3,10
		c-0.1,0.4-0.3,0.8-0.7,0.9c-0.5,0.2-1-0.4-1.3-0.9c-3.1-5.7-5-12-5.7-18.4c-0.4-3.7-0.3-7.3,1.8-10.4S353,114,355.5,116"/>
	<path class="st11" d="M349,131.7l-1.7,37.9c-0.3,6.4,0.6,16,10.8,16l0,0c8.9-0.7,11.5-8.9,11.7-14.9c0.1-2.9,0.2-5.2,0.3-5.5
		c0,0,9.7-0.5,10.8-10c0.5-4.6,0.9-14.1,1.1-22.8c0.2-9.3-6.7-17.2-16-18.2l-0.9-0.1C355.1,113.5,349.2,121.7,349,131.7z"/>
	<path class="st12" d="M370,164.9c-4.4-0.4-8.6-2.1-12-4.9c0,0,2.2,7.2,11.8,7.3L370,164.9z"/>
	<path class="st4" d="M379.5,139.3c-0.1,0.7-0.7,1.3-1.5,1.2c-0.7,0-1.3-0.6-1.3-1.3c0,0,0,0,0,0c0.1-0.7,0.7-1.3,1.5-1.2
		C379,138,379.5,138.6,379.5,139.3C379.5,139.3,379.5,139.3,379.5,139.3z"/>
	<path class="st4" d="M379.4,136.7c-0.2,0.2-1.1-0.7-2.6-0.9s-2.6,0.5-2.8,0.3s0.1-0.4,0.6-0.7c0.7-0.4,1.5-0.5,2.2-0.4
		c0.7,0.1,1.4,0.4,2,0.9C379.4,136.3,379.5,136.6,379.4,136.7z"/>
	<path class="st4" d="M365.1,138.3c-0.1,0.7-0.7,1.3-1.5,1.2c-0.7,0-1.3-0.6-1.3-1.3c0,0,0,0,0,0c0.1-0.7,0.7-1.3,1.5-1.2
		C364.6,136.9,365.1,137.5,365.1,138.3C365.1,138.3,365.1,138.3,365.1,138.3z"/>
	<path class="st4" d="M365,135.4c-0.2,0.2-1.1-0.7-2.6-0.9s-2.6,0.5-2.8,0.3s0.1-0.4,0.6-0.7c0.7-0.4,1.5-0.5,2.2-0.4
		c0.7,0.1,1.4,0.4,2,0.9C365,135,365.1,135.4,365,135.4z"/>
	<path class="st4" d="M369.2,146.9c0.8-0.2,1.6-0.2,2.4-0.2c0.4,0,0.7,0,0.8-0.3c0.1-0.4,0-0.8-0.1-1.1c-0.3-0.9-0.5-1.9-0.8-3
		c-1.1-4.2-1.9-7.7-1.7-7.7s1.2,3.3,2.3,7.6c0.3,1,0.5,2,0.8,3c0.2,0.5,0.2,1,0,1.5c-0.1,0.3-0.4,0.4-0.7,0.5c-0.2,0-0.4,0-0.6,0
		C370.7,147.1,369.9,147,369.2,146.9z"/>
	<path class="st4" d="M366,129.7c-0.2,0.4-1.6,0-3.4,0.1s-3.2,0.3-3.4,0c-0.1-0.2,0.2-0.5,0.8-0.9c0.8-0.4,1.7-0.6,2.6-0.6
		c0.9,0,1.8,0.2,2.6,0.6C365.8,129.2,366.1,129.6,366,129.7z"/>
	<path class="st4" d="M379.3,132.4c-0.3,0.3-1.3-0.1-2.5-0.3s-2.3,0-2.5-0.4c-0.1-0.2,0.1-0.5,0.6-0.8c0.6-0.3,1.4-0.4,2.1-0.3
		c0.7,0.1,1.4,0.4,1.9,0.9C379.4,131.9,379.5,132.3,379.3,132.4z"/>
	<path class="st11" d="M349,138.8c-0.1-0.1-6.3-2.6-6.8,3.9s6.2,5.7,6.2,5.5S349,138.8,349,138.8z"/>
	<path class="st12" d="M346.5,145.6c0,0-0.1,0.1-0.3,0.1c-0.3,0.1-0.6,0.1-0.9,0c-0.8-0.6-1.2-1.6-1.1-2.6c0-0.6,0.2-1.1,0.4-1.6
		c0.2-0.4,0.5-0.7,0.9-0.8c0.3-0.1,0.5,0.1,0.6,0.4c0.1,0.2,0,0.3,0.1,0.3s0.1-0.1,0.1-0.4c0-0.2-0.1-0.3-0.2-0.4
		c-0.2-0.1-0.4-0.2-0.6-0.2c-0.5,0.1-1,0.4-1.3,0.9c-0.3,0.5-0.5,1.2-0.5,1.8c-0.1,1.2,0.4,2.3,1.5,2.9c0.3,0.1,0.7,0.1,1-0.1
		C346.5,145.7,346.6,145.6,346.5,145.6z"/>
	<path class="st4" d="M384.2,130.5c-4.4,0.7-8.8-0.8-11.9-4c-2.1-2.2-3.6-5.2-6.4-6.4c-1.9-0.7-4.1-0.7-6,0.2
		c-1.9,0.9-3.5,2.1-4.9,3.6c1.3,5-0.5,10.3-2.3,15.2c-0.1,0.6-0.5,1.1-0.9,1.4c-0.8,0.5-1.9-0.1-2.5-0.9c-0.9-1.3-1.3-2.9-1.3-4.4
		c-0.3-3.6,0.1-7.1,1.2-10.5c1.1-3.4,3.2-6.4,6-8.7c3.6-2.7,8.1-3.9,12.6-3.3c4.4,0.6,8.6,2.6,11.8,5.7c1.6,1.4,2.8,3.1,3.5,5"/>
	<path class="st12" d="M369.6,151c-0.2,0.6-0.5,1.1-0.8,1.6c-0.4,0.5-0.9,0.8-1.6,0.9c-0.7,0-1.3-0.3-1.7-0.9
		c-0.3-0.6-0.5-1.2-0.5-1.9c0-0.6,0.3-1.3,0.9-1.4c0.2,0,0.5,0,0.7,0.2l3.1,1.3"/>
	<path class="st4" d="M368.4,153.6c-0.6,0-1.1,0-1.7-0.2c-0.5-0.2-1-0.6-1.3-1.1c-0.3-0.6-0.3-1.4,0-2c0.1-0.2,0.2-0.3,0.3-0.5
		c0.1-0.1,0.1-0.1,0.2-0.1s0.3,0.1,0.5,0.2s0.4,0.1,0.5,0.2c0.7,0.3,1.3,0.5,1.8,0.7c0.5,0.3,1.1,0.4,1.7,0.5
		c-0.5-0.4-1-0.7-1.5-0.9c-0.5-0.2-1.1-0.5-1.7-0.8l-0.5-0.2c-0.2-0.1-0.4-0.2-0.6-0.2c-0.2,0-0.3,0-0.5,0c-0.1,0.1-0.3,0.2-0.4,0.3
		c-0.1,0.2-0.3,0.4-0.4,0.6c-0.3,0.8-0.3,1.7,0.1,2.5c0.3,0.6,0.9,1.1,1.6,1.3c0.4,0.1,0.9,0.1,1.4,0
		C368.2,153.7,368.4,153.6,368.4,153.6z"/>
	<path class="st3" d="M427.1,422.8l7.3,21.1c0,0,23.9-0.3,25.7,3.5L419.5,463l-12.7-32.5L427.1,422.8z"/>
	<path class="st2" d="M421.1,447c-0.7,0.6-0.9,1.6-0.4,2.3c0.5,0.7,1.5,0.9,2.3,0.4c0.8-0.6,0.9-1.7,0.4-2.5
		c-0.6-0.7-1.7-0.8-2.5-0.2"/>
	<g class="st9">
		<path class="st8" d="M419.5,463l-1.1-3.3l39.3-13.7c0,0,2.1,0.1,2.4,1.4L419.5,463z"/>
	</g>
	<path class="st4" d="M434.9,443.5c0.1,0.2-0.9,0.7-1.6,1.7s-0.9,2-1.1,2s-0.4-1.3,0.5-2.5S434.9,443.3,434.9,443.5z"/>
	<path class="st4" d="M439.9,443.6c0.1,0.2-0.6,0.8-1,1.9s-0.2,2-0.4,2.1s-0.8-1-0.3-2.4S439.8,443.4,439.9,443.6z"/>
	<path class="st4" d="M444.2,447.7c-0.2,0.1-0.8-0.8-0.7-2s0.9-2.1,1-1.9s-0.2,0.9-0.3,2S444.4,447.6,444.2,447.7z"/>
	<path class="st4" d="M432.7,438.8c0,0.2-1,0.3-2.1,0.8s-1.8,1.2-2,1.1s0.4-1.2,1.7-1.7S432.8,438.6,432.7,438.8z"/>
	<path class="st3" d="M278.5,420l-0.5,0.6l-8.8,11.4l-10.9,7.4l14.5,28h16c0,0-1.1-3.9-8.9-5.8l-0.5-15.4l13.8-15.2"/>
	<g class="st9">
		<polygon class="st8" points="258.5,439.5 273,467.5 289,467.5 287.2,465.1 274.2,464.4 260.8,437.9 		"/>
	</g>
	<path class="st4" d="M280,454.6c-0.1,0.2-1-0.4-2.3-0.3s-2.1,0.5-2.3,0.4s0.8-1.1,2.3-1.1S280.2,454.5,280,454.6z"/>
	<path class="st4" d="M279.8,450.8c-0.2,0.1-0.9-0.8-2.1-1.1s-2.3,0.3-2.4,0.2s0.1-0.3,0.6-0.6c1.2-0.6,2.8-0.3,3.7,0.7
		C279.8,450.4,279.9,450.8,279.8,450.8z"/>
	<path class="st4" d="M279.9,445.9c-0.2,0.1-0.7-0.8-1.8-1.2s-2.1,0-2.2-0.2s0.2-0.3,0.6-0.5c0.6-0.2,1.2-0.2,1.8,0
		c0.6,0.2,1.1,0.6,1.4,1.1C280,445.6,280,445.9,279.9,445.9z"/>
	<path class="st4" d="M284.2,442.1c-0.2,0.1-0.6-0.9-1.6-1.5s-2-0.7-2-0.9s1.2-0.5,2.4,0.4S284.4,442.1,284.2,442.1z"/>
	<g class="st9">
		<path class="st8" d="M271.2,439c0,1-0.9,1.9-1.9,1.9c-1,0-1.9-0.9-1.9-1.9c0-1,0.9-1.9,1.9-1.9l0,0
			C270.4,437.1,271.2,438,271.2,439z"/>
	</g>
	<polygon class="st4" points="331.8,304.8 381.3,377.3 408,440.7 430.7,428.6 407.8,365.1 374.1,298.4 	"/>
	<polygon class="st4" points="311.4,298.4 303.1,356.8 269.4,430.4 289.5,442.1 332.4,369.1 356.3,298.4 	"/>
	<path class="st10" d="M289.5,442.1c0-0.1,0.1-0.2,0.2-0.4c0.1-0.3,0.3-0.6,0.6-1c0.5-0.9,1.3-2.2,2.2-3.9c1.9-3.4,4.7-8.2,8.2-14.1
		l27.1-46.6l5-8.7v0l14.9-44.7c1.9-5.6,3.4-10.1,4.5-13.3l1.2-3.6l0.3-0.9c0-0.1,0.1-0.2,0.1-0.3c0,0.1,0,0.2-0.1,0.3l-0.3,0.9
		l-1.1,3.6l-4.3,13.3c-3.7,11.3-8.9,27-14.7,44.8l0,0l-5,8.7c-10.6,18.1-20.2,34.6-27.2,46.5c-3.5,5.9-6.3,10.7-8.3,14.1
		c-1,1.6-1.8,2.9-2.3,3.8l-0.6,1C289.6,441.9,289.6,442,289.5,442.1z"/>
	<path class="st3" d="M377.3,266.8l-1.7-25.1l-6.3-59.1l2.3-12.3l-25-10l-3,6c-15,2.3-21.3,31.9-21.3,31.9l-0.5,60.3L305,299.4
		l4.3,3.8c6.8,4.1,70.5,1.5,70.5,1.5L377.3,266.8z"/>
	<g class="st5">
		<path d="M311.4,283.7c4.4,5.5,9.4,10.4,15.1,14.6c3.1,2.3,6.8,4.5,10.6,3.9s6.5-3.6,8.9-6.5l13.7-16.1c0.9-0.8,1.5-1.9,1.8-3.1
			c0.1-1.6-0.6-3.1-1.9-4c-1.3-0.8-2.8-1.3-4.4-1.4c-9.6-1.1-19,3.6-28.6,3.7c-3.3,0-8.7-0.6-11.8,0.5L311.4,283.7"/>
	</g>
	<path class="st10" d="M362.9,244.4c5.1,5,5.9,13,1.9,18.9l-8.5,12.5L343.8,292c-3.3,4.3-9.4,5.1-13.7,1.8c-0.3-0.2-0.6-0.5-0.9-0.8
		l-56.6-43.6c-3.6-2.8-4.4-7.9-1.7-11.6l23-32.4c2.7-3.8,8-4.7,11.8-2c0,0,0,0,0,0L362.9,244.4z"/>
	<path class="st4" d="M333.6,295.5c0-0.1,0.1-0.2,0.1-0.3l0.5-0.9c0.5-0.7,1.1-1.8,2-3.2c1.8-2.8,4.4-6.7,7.7-11.6
		s7.2-10.6,11.5-17.1c1.1-1.6,2.1-3.3,3-5.1c0.4-0.9,0.6-1.9,0.6-2.9c-0.1-1-0.5-2-1.1-2.7c-1.3-1.6-3.1-2.7-4.9-4l-5.4-3.8
		l-37.4-26.7l-11.3-8.2l-3.1-2.2l-0.8-0.6c-0.2-0.1-0.3-0.2-0.3-0.2c0.1,0.1,0.2,0.1,0.3,0.2l0.8,0.5l3.1,2.2l11.4,8l37.5,26.5
		l5.4,3.9c1.7,1.3,3.6,2.4,5,4.1c0.7,0.9,1.1,1.9,1.2,3c0,1.1-0.2,2.1-0.7,3.1c-0.9,1.8-1.9,3.5-3.1,5.1
		c-4.3,6.5-8.3,12.2-11.6,17.1C337.6,289.4,333.6,295.5,333.6,295.5z"/>
	<path class="st4" d="M355.1,168.4c0,0-16.1-8.5-40.3,30l4.3,5c0,0,20.3-35.6,33.7-31.3s-6.3,60.5-6.3,60.5S375.9,176.6,355.1,168.4
		z"/>
	<path class="st3" d="M301.4,211.7c-6.9,6.9-8,17.7-2.8,25.9c0.2,0.3,0.4,0.6,0.6,0.8l21.9,33.9l18.3-11.3l0,0L321.5,229
		c0,0,8.2-8.5,17.2-18.1c12.1-12.9,24.9-28.7,15.7-37.8c0,0-6.3-5-15.9,2.5C331.6,181,311.8,201.1,301.4,211.7z"/>
	<path class="st11" d="M416.5,187.6l9.5-2.4c0,0,2.6,2.3,1.2,4.7s-3.6,8.4-3.6,8.4l-7.4,2.4l-2.1,6l-12.7-5.4l3.4-11.3l7.1-8.8
		l5.4-0.8l3.6,3.1c0,0-3,2.2-5-0.2l-2.5,0.9l0.2,1.5c0.2,1.2,1.3,2,2.5,1.9C416.4,187.6,416.5,187.6,416.5,187.6z"/>
	<path class="st11" d="M426,185.6l6.2-3c0.8-0.3,1.7-0.1,2.4,0.4l0.3,0.6l-7.5,4.9L426,185.6z"/>
	<path class="st12" d="M412.9,195.3c0.1-0.6,0.4-1.1,0.6-1.6c0.6-1.2,0.9-2.5,1-3.9c0-0.7-0.2-1.4-0.5-2.1c-0.2-0.3-0.3-0.6-0.4-0.9
		c-0.1-0.3-0.1-0.6-0.1-0.9c0-0.6,0-1.2,0.2-1.7c0.1,0.6,0.2,1.1,0.2,1.7c0,0.6,0.2,1.2,0.6,1.6c0.4,0.7,0.6,1.5,0.6,2.3
		c0,1.4-0.4,2.8-1.1,4C413.6,194.4,413.3,194.9,412.9,195.3z"/>
	<path class="st4" d="M441.1,172.6c0.1,0.2,1.4,2.1,1.4,2.1l-28.4,20.9l-1.8-2.3L441.1,172.6z"/>
	<path class="st11" d="M423.6,197.9c0.5-0.7,0.3-1.7-0.4-2.2c0,0,0,0-0.1,0c-0.7-0.4-1.6-0.6-2.5-0.6c-1.4-0.1-2.8,0-4.2,0.2
		c-0.5,0.1-0.9,0.2-1.3,0.5c-0.4,0.3-0.5,0.8-0.4,1.2c0.2,0.5,0.8,0.7,1.4,0.8c1.5,0.3,3,0.4,4.5,0.4"/>
	<path class="st12" d="M420.7,198.3c-0.9,0.2-1.8,0.2-2.7,0.1c-0.4,0-0.9-0.1-1.4-0.1c-0.5,0-1.1-0.2-1.6-0.4
		c-0.3-0.2-0.5-0.5-0.5-0.9c0-0.4,0.1-0.7,0.3-1c0.5-0.5,1.1-0.8,1.8-0.9c1.2-0.2,2.4-0.3,3.6-0.2c1-0.1,2,0.1,2.9,0.6
		c0.6,0.4,1,1.1,0.9,1.8c-0.1,0.5-0.4,0.6-0.4,0.6s0.2-0.2,0.2-0.6c0-0.6-0.3-1.2-0.9-1.5c-0.9-0.4-1.8-0.5-2.7-0.4
		c-1.2,0-2.3,0-3.5,0.2c-0.5,0-1.1,0.3-1.5,0.7c-0.3,0.3-0.3,0.8,0,1c0,0,0.1,0.1,0.1,0.1c0.4,0.2,0.9,0.4,1.4,0.4
		c0.5,0.1,0.9,0.2,1.3,0.2C419.7,198.3,420.7,198.2,420.7,198.3z"/>
	<path class="st11" d="M426,192.1c-2.3-0.6-3.9-0.8-6.2-1.3c-0.7-0.3-1.5-0.3-2.2-0.1c-0.7,0.3-1.1,1.3-0.6,1.8
		c0.2,0.2,0.4,0.3,0.7,0.4l6.8,2.7"/>
	<path class="st12" d="M424.4,195.6c-0.9-0.2-1.8-0.5-2.6-0.8l-2.8-1.1l-1.7-0.6c-0.4-0.1-0.7-0.4-0.8-0.8c-0.1-0.4,0-0.8,0.2-1.1
		c0.2-0.3,0.5-0.6,0.9-0.7c0.3-0.1,0.7-0.2,1-0.1c0.6,0.1,1.2,0.2,1.8,0.4l2.9,0.7c0.9,0.2,1.8,0.4,2.7,0.8
		c-0.9-0.1-1.8-0.2-2.8-0.4c-0.8-0.1-1.9-0.3-3-0.6c-0.6-0.2-1.1-0.3-1.7-0.3c-0.6-0.1-1.1,0.2-1.4,0.6c-0.1,0.2-0.2,0.5-0.1,0.7
		c0.1,0.2,0.3,0.4,0.5,0.5l1.6,0.7l2.8,1.1C422.8,194.7,423.6,195.1,424.4,195.6z"/>
	<path class="st11" d="M427.4,188.6l-6.1-1.1c-0.7-0.2-1.5-0.2-2.3,0.1c-0.7,0.3-1,1.4-0.5,1.9c0.2,0.2,0.4,0.3,0.7,0.4l6.9,2.2"/>
	<path class="st12" d="M426.2,192c-0.9-0.1-1.8-0.4-2.7-0.7l-2.9-0.9l-1.7-0.5c-0.4-0.1-0.7-0.4-0.8-0.7c-0.1-0.4-0.1-0.8,0.1-1.1
		c0.2-0.3,0.5-0.6,0.8-0.8c0.3-0.1,0.7-0.2,1-0.2c0.6,0,1.2,0.1,1.8,0.2l2.9,0.6c0.9,0.1,1.8,0.4,2.7,0.7c-0.9,0-1.8-0.1-2.8-0.3
		l-3-0.5c-0.6-0.1-1.1-0.2-1.7-0.2c-0.6-0.1-1.1,0.2-1.4,0.7c-0.7,1.2,1.2,1.3,2.1,1.7l2.8,1C424.5,191.3,425.4,191.6,426.2,192z"/>
	<path class="st3" d="M415,205.9l-18.5,39.5c-1.8,3.8-5.3,6.4-9.4,6.9l0,0c-5.3,0.7-10.5-2.2-12.6-7.2l-13.8-31.6l7.8-34.1
		l18.5,39.8l15.2-21.5L415,205.9z"/>
	<path class="st4" d="M381.6,232.5c0.6-2.4,1.4-4.7,2.4-7c0.8-2.3,1.8-4.6,2.9-6.8c-0.6,2.4-1.4,4.7-2.4,7
		C383.7,228.1,382.7,230.3,381.6,232.5z"/>
	<path class="st4" d="M377.5,266.4c-0.1-0.3-0.1-0.6-0.1-0.8c0-0.6-0.1-1.4-0.2-2.4c-0.2-2.2-0.5-5.2-0.8-9
		c-0.7-7.6-1.6-18.1-2.6-29.7s-2.1-22.1-2.9-29.6c-0.4-3.8-0.8-6.8-1-9c-0.1-1-0.2-1.8-0.3-2.4c0-0.3-0.1-0.6-0.1-0.9
		c0,0,0.1,0.3,0.2,0.8s0.2,1.4,0.4,2.4c0.3,2.1,0.7,5.2,1.2,8.9c0.9,7.6,2,18.1,3.1,29.6s1.9,22.1,2.4,29.7c0.3,3.8,0.5,6.8,0.6,9
		c0.1,1,0.1,1.9,0.1,2.5C377.5,265.8,377.5,266.1,377.5,266.4z"/>
	<path class="st11" d="M335.5,263.4l2.4,5c0,0,4.8,0.6,6.8,1.5s9.1,7.1,9.1,7.1c-0.5,1-1.6,1.5-2.7,1.3c-1.6-0.9-3.1-1.9-4.5-3l0,0
		c-1.3,0.2-2.2,1.5-2,2.8c0.1,0.3,0.2,0.6,0.4,0.9c1.4,2.1,3,4.6,3.2,5s3.3,1.7,5.7,2.7c0.8,0.4,1.2,1.3,0.8,2.1
		c-0.2,0.5-0.6,0.8-1.1,0.9c-0.1,0-0.3,0-0.4,0c0,0,1.1,2.4-3,1.7c0,0-2.7,1.9-4.9,0.7c0,0-3.9,0.9-5.6,0.3s-8.9-10.7-8.9-10.7
		l-6.2-11.3L335.5,263.4z"/>
	<path class="st12" d="M341.9,281.5c0.2,0.7,0.5,1.4,0.8,2c0.7,1.6,1.9,3.1,3.3,4.2c1.5,1,3.2,1.5,5,1.6c0.7,0.1,1.4,0.1,2.1,0
		c-0.7-0.2-1.4-0.3-2.1-0.4c-1.7-0.2-3.3-0.8-4.7-1.7c-1.3-1.1-2.4-2.4-3.2-3.9C342.8,282.7,342.4,282.1,341.9,281.5z"/>
	<path class="st12" d="M339.9,283.9c0.1,0.7,0.3,1.3,0.6,1.9c0.3,0.6,0.7,1.3,1.1,1.9c0.5,0.7,1.2,1.4,1.9,1.9
		c0.8,0.4,1.6,0.7,2.5,0.9l2,0.5c0.6,0.2,1.3,0.3,1.9,0.4c-0.6-0.3-1.2-0.6-1.8-0.8c-0.6-0.2-1.3-0.4-2-0.7
		c-0.8-0.2-1.6-0.5-2.3-0.9c-0.7-0.5-1.3-1-1.8-1.7c-0.4-0.5-0.8-1.1-1.2-1.7C340.2,284.5,340,283.8,339.9,283.9z"/>
	<path class="st12" d="M337.7,286.7c-0.2,0.1,1.1,1.9,2.8,4c0.2,0.3,0.5,0.5,0.9,0.6c0.3,0.1,0.6,0.2,0.9,0.3c0.5,0.2,1,0.3,1.5,0.3
		c0.9,0.1,1.4,0,1.4-0.1s-0.5-0.1-1.4-0.3c-0.5-0.1-1-0.3-1.4-0.4c-0.3-0.1-0.5-0.2-0.8-0.3c-0.3-0.1-0.5-0.3-0.7-0.5
		c-0.8-1.1-1.6-2-2.2-2.6S337.8,286.7,337.7,286.7z"/>
	<path class="st4" d="M367,168.8c-0.1,1.7-0.4,3.3-0.7,4.9c-0.2,1.7-0.5,3.3-1,4.9c-0.1-1.7,0.1-3.4,0.5-5
		C365.9,172,366.4,170.4,367,168.8z"/>
	<path class="st4" d="M359.3,171.9c0-1,0.2-1.9,0.6-2.8c0.2-0.9,0.6-1.8,1.1-2.6c0,1-0.3,1.9-0.6,2.8
		C360.2,170.2,359.8,171.1,359.3,171.9z"/>
	<path class="st4" d="M353.6,169.1c0.2-0.9,0.5-1.7,1-2.5c0.3-0.8,0.8-1.6,1.5-2.3c-0.2,0.9-0.5,1.7-1,2.5
		C354.8,167.7,354.3,168.4,353.6,169.1z"/>
	<path class="st4" d="M346.2,168.2c0.5-1.1,1.2-2.1,2-3c0.7-1,1.5-1.9,2.4-2.7c-0.5,1.1-1.2,2.1-2,3
		C347.9,166.5,347.1,167.4,346.2,168.2z"/>
	<path class="st4" d="M321.6,229.3c-0.6-0.4-1.1-0.8-1.7-1.2c-2.7-1.9-5.9-2.8-9.2-2.7c-0.7,0.1-1.3,0.1-2,0.1
		c0.6-0.3,1.3-0.4,2-0.5c1.7-0.2,3.4,0,5,0.5c1.6,0.5,3.1,1.3,4.5,2.3C320.8,228.2,321.3,228.7,321.6,229.3z"/>
	<path class="st4" d="M316.3,216.5c0.6,0.4,1.1,0.9,1.6,1.4c2.3,2.6,3.8,5.9,4.2,9.3c0.1,0.7,0.1,1.4,0,2.1
		C321.6,224.6,319.6,220.1,316.3,216.5L316.3,216.5z"/>
	<path class="st4" d="M339.4,260.9c-0.1-0.2-0.3-0.4-0.4-0.6l-1-1.8l-3.8-6.7c-3.2-5.7-7.6-13.6-12.7-22.6l-0.1-0.2l0.1-0.1l3.9-4.1
		l20.5-21.5l6.3-6.5l1.7-1.7c0.2-0.2,0.4-0.4,0.6-0.6c-0.2,0.2-0.4,0.5-0.5,0.7l-1.6,1.8l-6.1,6.6c-5.3,5.6-12.5,13.2-20.4,21.6
		l-3.9,4.1V229c5,9,9.4,16.9,12.5,22.7c1.5,2.8,2.8,5.1,3.7,6.8l1,1.8C339.2,260.4,339.3,260.7,339.4,260.9z"/>
	<g class="st5">
		<path d="M329.8,220.6l7.1,5.1c1-0.5,1.9-1.3,2.6-2.2c5.4-7.5,9.3-15.9,11.6-24.9L329.8,220.6z"/>
	</g>
	<path class="st1" d="M340.1,209.3c-0.1-1.3-0.5-2.6-1.2-3.8c-0.7-1.2-1.7-2.3-2.8-3.2c-1.4-1.1-3-1.9-4.6-2.5
		c-1.8-0.7-3.5-1.2-5.1-1.8c-1.4-0.5-2.7-1.3-3.7-2.4c-0.7-0.7-1.2-1.7-1.4-2.7c-0.1-0.4-0.1-0.7,0-1.1c0,0,0,0.4,0.2,1.1
		c0.3,0.9,0.8,1.8,1.4,2.5c1,1,2.3,1.8,3.6,2.2c1.5,0.6,3.3,1.1,5.1,1.8c1.7,0.6,3.3,1.5,4.8,2.6c1.2,0.9,2.1,2.1,2.9,3.4
		c0.5,0.9,0.8,1.9,0.9,2.9C340.2,208.6,340.2,209,340.1,209.3z"/>
	<path class="st1" d="M372.8,213.8c-0.4,0-0.9,0-1.3-0.1c-1.2-0.1-2.4-0.1-3.6,0c-1.5,0.1-3.3,0.4-5.3,0.7c-2.2,0.4-4.4,0.6-6.6,0.6
		c-2.3,0.1-4.5-0.4-6.5-1.3c-1.7-0.8-3.1-2-4.2-3.5c-0.7-1-1.2-2.2-1.3-3.4c0-0.3,0-0.7,0-1c0-0.2,0-0.3,0.1-0.3s0,0.5,0.1,1.3
		c0.2,1.2,0.7,2.3,1.4,3.3c1,1.4,2.4,2.6,4.1,3.3c2,0.8,4.2,1.3,6.3,1.2c2.2,0,4.4-0.2,6.5-0.6c2-0.3,3.8-0.5,5.4-0.6
		c1.2-0.1,2.4,0,3.6,0.1C371.9,213.5,372.4,213.6,372.8,213.8z"/>
	<path class="st1" d="M379.5,204.5c-1.5,2.8-4.2,4.7-7.2,5.4c0-0.1,1.9-0.8,3.9-2.3S379.4,204.4,379.5,204.5z"/>
	<path class="st1" d="M382.4,211.2c-2.1,3.4-5.5,5.8-9.4,6.6c1.7-0.8,3.4-1.8,5-2.8C379.5,213.8,381,212.6,382.4,211.2z"/>
	<path class="st1" d="M374.1,225c-1.8-1-3.8-1.6-5.8-1.8c-2.2-0.2-4.5-0.2-6.7,0c-2.7,0.2-5.5,0.2-8.2-0.1c-5-0.5-9.8-2.1-14.2-4.6
		c-1.3-0.8-2.6-1.6-3.8-2.5c-0.5-0.3-0.9-0.7-1.3-1.1c0.5,0.3,0.9,0.6,1.4,0.9c1.2,0.8,2.5,1.6,3.8,2.4c4.4,2.4,9.1,3.9,14.1,4.4
		c2.7,0.3,5.4,0.3,8.2,0.1c2.2-0.2,4.5-0.1,6.7,0.1c1.5,0.2,3,0.6,4.4,1.3c0.4,0.2,0.7,0.4,1.1,0.6C374,224.9,374.1,225,374.1,225z"
		/>
	<path class="st1" d="M336,212.7c0,0.2-0.1,0.5-0.2,0.7l-0.1,0.2l-0.1-0.2c-0.7-1.4-1.8-2.6-3.2-3.3c-1.1-0.6-2.2-1-3.4-1.4
		c-1.3-0.4-2.7-0.7-4.2-1.2c-3.1-1.1-5.8-3-7.9-5.5c-0.6-0.7-1.2-1.5-1.7-2.4c-0.2-0.3-0.4-0.6-0.5-1c0.1-0.1,0.8,1.3,2.5,3.1
		c2.2,2.4,4.8,4.2,7.8,5.3c1.4,0.5,2.8,0.9,4.1,1.3c1.2,0.3,2.4,0.8,3.5,1.5c1.5,0.8,2.6,2.1,3.2,3.6h-0.1
		C335.9,212.9,336,212.7,336,212.7z"/>
</g>
<g id="freepik--Floor--inject-84">
	<path class="st4" d="M478.1,467.5c0,0.1-103,0.3-230.1,0.3s-230.1-0.1-230.1-0.3s103-0.3,230.1-0.3S478.1,467.3,478.1,467.5z"/>
</g>
<path class="st4" d="M257,114.2c0-3.2-2.6-5.9-5.9-5.9c-3.2,0-5.9,2.6-5.9,5.9c0,1.1,0.3,2.1,0.8,3l0,0l0,0c0.2,0.4,0.5,0.7,0.8,1
	l3.4,4.5c0.4,0.5,1,0.6,1.5,0.2c0.1-0.1,0.1-0.1,0.2-0.2l3.4-4.4c0.3-0.4,0.6-0.7,0.9-1.1l0,0l0,0C256.7,116.3,257,115.2,257,114.2z
	 M251.2,116.8c-1.4,0-2.6-1.2-2.6-2.6c0-1.4,1.2-2.6,2.6-2.6c1.4,0,2.6,1.2,2.6,2.6c0,0,0,0,0,0
	C253.8,115.6,252.6,116.8,251.2,116.8C251.2,116.8,251.2,116.8,251.2,116.8L251.2,116.8z"/>
<g class="st9">
	<circle class="st8" cx="137.5" cy="218.2" r="5.8"/>
</g>
<path class="st3" d="M141.4,218c0,2.1-1.7,3.9-3.9,3.9c-2.1,0-3.9-1.7-3.9-3.9s1.7-3.9,3.9-3.9c0,0,0,0,0,0
	C139.7,214.1,141.4,215.9,141.4,218z"/>
<path class="st4" d="M143.4,209.8c0-3.2-2.6-5.9-5.9-5.9c-3.2,0-5.9,2.6-5.9,5.9c0,1.1,0.3,2.1,0.8,3l0,0l0,0c0.2,0.4,0.5,0.7,0.8,1
	l3.4,4.5c0.4,0.5,1,0.6,1.5,0.2c0.1-0.1,0.1-0.1,0.2-0.2l3.4-4.4c0.3-0.4,0.6-0.7,0.9-1.1l0,0l0,0
	C143.2,211.9,143.4,210.9,143.4,209.8z M137.6,212.4c-1.4,0-2.6-1.2-2.6-2.6c0-1.4,1.2-2.6,2.6-2.6s2.6,1.2,2.6,2.6c0,0,0,0,0,0
	C140.2,211.2,139,212.4,137.6,212.4C137.6,212.4,137.6,212.4,137.6,212.4L137.6,212.4z"/>
<g class="st9">
	<circle class="st8" cx="241.1" cy="310" r="5.8"/>
</g>
<path class="st3" d="M245,309.8c0,2.1-1.7,3.9-3.9,3.9c-2.1,0-3.9-1.7-3.9-3.9s1.7-3.9,3.9-3.9c0,0,0,0,0,0
	C243.3,305.9,245,307.6,245,309.8z"/>
<path class="st4" d="M247.1,301.6c0-3.2-2.6-5.9-5.9-5.9c-3.2,0-5.9,2.6-5.9,5.9c0,1.1,0.3,2.1,0.8,3l0,0l0,0c0.2,0.4,0.5,0.7,0.8,1
	l3.4,4.5c0.4,0.5,1,0.6,1.5,0.2c0.1-0.1,0.1-0.1,0.2-0.2l3.4-4.4c0.3-0.4,0.6-0.7,0.9-1.1l0,0l0,0
	C246.8,303.6,247.1,302.6,247.1,301.6z M241.2,304.1c-1.4,0-2.6-1.2-2.6-2.6c0-1.4,1.2-2.6,2.6-2.6c1.4,0,2.6,1.2,2.6,2.6
	c0,0,0,0,0,0C243.8,303,242.6,304.1,241.2,304.1C241.2,304.1,241.2,304.1,241.2,304.1L241.2,304.1z"/>
</svg>
