<?xml version="1.0" encoding="utf-8"?>
<!-- Generator: Adobe Illustrator 25.2.0, SVG Export Plug-In . SVG Version: 6.00 Build 0)  -->
<svg version="1.1" id="Layer_1" xmlns="http://www.w3.org/2000/svg" xmlns:xlink="http://www.w3.org/1999/xlink" x="0px" y="0px"
	 viewBox="0 0 500 500" style="enable-background:new 0 0 500 500;" xml:space="preserve">
<style type="text/css">
	.st0{fill:#263238;}
	.st1{fill:#FFC108;}
	.st2{fill:#455A64;}
	.st3{fill:#B78876;}
	.st4{fill:#AA6550;}
	.st5{opacity:0.2;}
	.st6{fill:#FAFAFA;}
	.st7{fill:#FFFFFF;stroke:#263238;stroke-linecap:round;stroke-linejoin:round;}
	.st8{fill:none;stroke:#263238;stroke-linecap:round;stroke-linejoin:round;}
	.st9{fill:#FFC108;stroke:#263238;stroke-linecap:round;stroke-linejoin:round;}
	.st10{fill:none;stroke:#263238;stroke-width:0.5;stroke-linecap:round;stroke-linejoin:round;}
	.st11{fill:#FFFFFF;stroke:#263238;stroke-width:0.75;stroke-linecap:round;stroke-linejoin:round;}
	.st12{fill:#FFC108;stroke:#263238;stroke-width:0.75;stroke-linecap:round;stroke-linejoin:round;}
	.st13{fill:none;stroke:#263238;stroke-width:0.75;stroke-linecap:round;stroke-linejoin:round;}
	.st14{fill:#C7C7C7;}
	.st15{fill:#FFC100;}
	.st16{opacity:0.2;enable-background:new    ;}
	.st17{fill:#37474F;}
	.st18{opacity:0.1;enable-background:new    ;}
	.st19{opacity:0.4;enable-background:new    ;}
	.st20{fill:#FFFFFF;}
	.st21{opacity:0.4;fill:#FFFFFF;enable-background:new    ;}
	.st22{opacity:0.5;}
</style>
<g id="freepik--Floor--inject-213">
	<path class="st0" d="M441,469.3c0,0.1-85.5,0.3-191,0.3s-191-0.1-191-0.3s85.5-0.3,191-0.3S441,469.1,441,469.3z"/>
</g>
<g id="freepik--Plants--inject-213">
	<path class="st1" d="M122.5,425.4c2.1,2.9,6,1.9,7.8,0.1s2.6-4.4,3.3-6.8c1.6-5.6,3.1-11.5,1.9-17.2c-0.3-1.7-1.1-3.3-2.2-4.7
		c-1.2-1.3-3-1.9-4.8-1.5c-2,0.5-3.2,2.5-4.1,4.4c-2.6,5.5-3.9,11.5-3.9,17.6C120.5,420.1,120.9,423.1,122.5,425.4"/>
	<path class="st1" d="M130.2,440c3.4-1.6,7.2-2.1,10.9-1.4c2,0.2,3.9,1,5.4,2.4c1.4,1.5,1.6,4.1,0.1,5.4c-1,0.7-2.2,1-3.4,0.9
		c-2.9,0-6.1-0.5-8.4,1.3c-1.3,1-2.2,2.7-3.7,3.2c-1.6,0.4-3.3-0.3-4.1-1.8c-0.8-1.4-0.9-3.1-0.5-4.7
		C126.9,443,128.3,441.1,130.2,440z"/>
	<path class="st1" d="M116.9,429.6c2.1-2.8,2.7-6.4,1.6-9.8c-1.2-3.3-3.2-6.1-5.8-8.3c-3-2.7-6.6-4.7-10.4-6
		c-1.5-0.6-3.1-0.8-4.7-0.8c-1.6,0.1-3.1,1-3.9,2.4c-1.1,2.1,0,4.6,1.1,6.6c2,3.6,4.3,7,6.9,10.3c2,2.6,4.4,5.2,7.5,6.3s6.3,1,8-1.2
		"/>
	<path class="st0" d="M122.8,469.3c0.1-0.4,0.2-0.9,0.2-1.3c0.1-1,0.2-2.2,0.3-3.6c0.2-1.8,0.4-3.6,0.8-5.3c0.4-2.1,1.1-4.2,1.9-6.3
		c0.8-2,1.8-3.9,3.1-5.7c1.1-1.4,2.4-2.6,4-3.4c1.1-0.5,2.2-0.9,3.4-1.1c0.4,0,0.9-0.1,1.3-0.2c-0.4-0.1-0.9-0.1-1.3,0
		c-1.2,0.1-2.4,0.4-3.5,1c-1.7,0.8-3.1,2-4.2,3.4c-1.4,1.8-2.5,3.7-3.3,5.8c-0.8,2.1-1.4,4.2-1.8,6.4c-0.3,1.8-0.5,3.6-0.7,5.4
		c-0.1,1.5-0.1,2.8-0.1,3.6C122.7,468.4,122.7,468.8,122.8,469.3z"/>
	<path class="st0" d="M123,466.5c0-0.2,0-0.4,0-0.6c0-0.5,0-1,0-1.8c0-1.5,0-3.7,0-6.4c0.1-5.4,0.5-13,1.3-21.2s2-15.7,3-21
		c0.3-1.3,0.5-2.5,0.7-3.6s0.4-2,0.6-2.7s0.3-1.3,0.4-1.7c0.1-0.2,0.1-0.4,0.1-0.6c-0.1,0.2-0.2,0.4-0.2,0.6l-0.5,1.7
		c-0.2,0.7-0.4,1.6-0.7,2.7s-0.5,2.3-0.8,3.6c-1.4,7-2.5,14-3.2,21.1c-0.8,8.3-1.2,15.8-1.1,21.3c0,2.7,0.1,4.9,0.2,6.5
		c0,0.7,0.1,1.3,0.1,1.8C122.9,466.1,122.9,466.3,123,466.5z"/>
	<path class="st0" d="M122.9,452c0-0.6,0-1.2,0-1.8c-0.1-1.2-0.3-2.9-0.6-5c-0.4-2.4-1-4.8-1.7-7.2c-0.8-2.9-1.9-5.8-3.1-8.5
		c-2.1-5.1-5.2-9.7-9-13.7c-0.7-0.7-1.4-1.3-2.1-1.9c-0.3-0.3-0.6-0.5-0.9-0.8l-0.8-0.5c-0.5-0.4-1-0.7-1.6-1
		c1.8,1.4,3.5,2.9,5.1,4.5c3.7,4,6.7,8.7,8.8,13.7c1.2,2.7,2.3,5.6,3.1,8.4c0.8,2.6,1.4,5.1,1.8,7.1s0.6,3.7,0.8,4.9
		C122.7,450.8,122.8,451.4,122.9,452z"/>
	<path class="st2" d="M379,411.8c2.4,1.8,3.9,4.6,4.2,7.5c0.3,3-0.1,6-1.1,8.8c-1.8,5.4-6.2,10.4-10.6,14.1
		c-3.8-5.1-3.4-12.5-2.9-16.2C369.4,420,374.3,409.8,379,411.8"/>
	<path class="st2" d="M375.3,453.2c-0.2-3.4,1.4-6.6,4.3-8.4c2.8-1.8,6.3-2.3,9.5-1.6c1.5,0.2,2.9,1.1,3.8,2.4
		c0.6,1.3,0.4,2.9-0.5,4c-0.9,1.1-2.1,2-3.4,2.5C384.5,454.1,379.8,455.2,375.3,453.2"/>
	<path class="st0" d="M365.6,468.3c0.1-0.4,0.2-0.8,0.4-1.1c0.3-0.7,0.7-1.8,1.3-3c1.5-3.3,3.4-6.4,5.7-9.2c2.3-2.8,5.4-5,8.9-6.2
		c1-0.4,2.1-0.6,3.2-0.6c0.4-0.1,0.8-0.1,1.2,0c-1.5,0.2-2.9,0.6-4.3,1c-3.3,1.3-6.2,3.4-8.5,6.2c-2.3,2.8-4.2,5.8-5.8,9
		C367.1,465.6,366.4,467,365.6,468.3z"/>
	<path class="st0" d="M376.1,420c0,0.7-0.1,1.3-0.2,2c-0.2,1.3-0.5,3.1-0.9,5.3c-0.8,4.5-2,10.7-3.5,17.5s-3,13-4.2,17.4
		c-0.6,2.2-1.1,4-1.4,5.2c-0.2,0.6-0.4,1.3-0.6,1.9c0.1-0.7,0.2-1.3,0.4-2c0.3-1.4,0.7-3.1,1.2-5.3c1-4.5,2.5-10.6,4-17.4
		s2.8-13,3.7-17.5c0.4-2.1,0.8-3.9,1.1-5.3C375.8,421.3,375.9,420.6,376.1,420z"/>
	<path class="st2" d="M366,454.3c0.5-7.1-2.5-14-8-18.5c-1.4-1.1-3.3-2.1-4.9-1.2s-1.8,3-1.5,4.8c1.2,7.5,6.8,13.6,14.1,15.4"/>
	<path class="st0" d="M357.4,441.1c0.3,0.2,0.7,0.4,1,0.6c0.4,0.3,0.7,0.6,1,0.9c0.4,0.4,0.9,0.8,1.3,1.3c1.1,1.2,2,2.4,2.8,3.8
		c1,1.6,1.8,3.4,2.4,5.2c0.6,1.8,0.9,3.7,1.1,5.6c0.1,1.6,0.1,3.1-0.1,4.7c-0.1,0.6-0.2,1.2-0.3,1.8c-0.1,0.4-0.2,0.9-0.3,1.3
		c-0.1,0.4-0.2,0.7-0.4,1.1c-0.1,0,0.4-1.6,0.6-4.2c0.1-1.5,0.1-3.1,0-4.6c-0.2-1.9-0.6-3.7-1.1-5.5c-0.6-1.8-1.3-3.5-2.3-5.1
		c-0.8-1.3-1.7-2.6-2.6-3.7C358.6,442.2,357.3,441.2,357.4,441.1z"/>
</g>
<g id="freepik--Character--inject-213">
	<path class="st0" d="M229.7,228.2c15-19.7,30.7-16.9,41.7-12.1c11.1,5.1,18.1,16.4,17.6,28.6c-0.2,3.1-0.9,6.4,0.4,9.3
		c2.1,4.6,8,5.9,11.5,9.6c4.7,5.1,3.7,13.1,2.1,19.8s-3.3,14.4,0.7,20.1c3.6,5.2,10.5,6.6,16.3,9.4c7.7,3.7,13.4,10.4,15.8,18.6
		c2.3,8.2,0.2,17.1-5.4,23.5c-5.5,6-13.9,8.7-22,9.9c-44.3,6.5-85.5-24.1-92-68.4c-0.8-5.3-1-10.6-0.8-15.9"/>
	<path class="st2" d="M321.7,357.1c0,0,0.5-0.5,1.4-1.5c1.2-1.5,2.1-3.2,2.7-5.1c0.8-3,0.8-6.1,0.1-9c-0.8-4-2.8-7.6-5.5-10.6
		c-1.6-1.7-3.4-3.2-5.4-4.5c-2.2-1.3-4.5-2.4-6.8-3.4c-2.6-1-5.1-2.2-7.5-3.6c-2.5-1.6-4.7-3.6-6.5-6c-3.7-5.2-5.8-11.5-5.8-17.9
		c-0.1-3.4,0.2-6.7,0.9-10c0.6-3.3,1.5-6.7,2.1-10c0.5-2.3,0.8-4.7,0.8-7.1c-0.1-2.3-0.6-4.6-1.6-6.8c-0.9-2.2-1.9-4.3-2.7-6.5
		c-0.7-2.2-1.2-4.5-1.4-6.8c-0.3-2.3-0.3-4.5-0.5-6.6c-0.2-2.1-0.6-4.2-1.2-6.2c-1-3.8-2.7-7.5-5-10.7l0,0l0,0
		c-3.5-5.4-9.1-9.1-15.4-10c-4.9-0.7-9.8,0.4-14,2.9c-2.7,1.6-5.1,3.8-6.9,6.4c-1.3,1.8-1.7,2.9-1.8,2.9c0.4-1.1,0.9-2.1,1.6-3
		c1.8-2.7,4.1-5,6.8-6.6c4.3-2.7,9.4-3.9,14.4-3.2c6.6,0.9,12.4,4.6,16.1,10.2l0,0c2.4,3.3,4.2,7,5.2,11c0.6,2.1,1,4.2,1.3,6.3
		c0.3,2.2,0.3,4.4,0.5,6.6c0.2,2.2,0.7,4.4,1.4,6.6c0.8,2.1,1.8,4.2,2.7,6.5c1,2.3,1.5,4.7,1.6,7.1c0,2.5-0.3,4.9-0.8,7.4
		c-0.7,3.4-1.5,6.7-2.1,10c-0.6,3.2-0.9,6.5-0.9,9.8c0,6.2,1.9,12.3,5.5,17.4c1.7,2.3,3.8,4.3,6.2,5.9c2.4,1.4,4.8,2.6,7.4,3.5
		c2.4,0.9,4.8,2.1,7,3.4c2,1.3,3.9,2.9,5.5,4.6c2.8,3.1,4.8,6.8,5.6,10.9c0.7,3.1,0.6,6.3-0.3,9.3c-0.6,1.9-1.6,3.6-2.9,5.1
		C322.9,356.2,322.3,356.7,321.7,357.1z"/>
	<path class="st1" d="M320.8,375.5c-4.7-27.2-13.2-40.5-16.2-43.7c-10.2-11.2-42.5-9.5-42.5-9.5l-45.1,5.5c0,0-32.9,3.4-41.9,29.7
		l-7,31.3l36.2,1.4l0.7,6c0.9,3.2,2,7,3.2,10.1c2,5.2,6.8,16.1,4,21.2c-7.2,12.8-14.2,43.1-14.2,43.1l0,0l103.7-1.4l-12.4-75.5
		L320.8,375.5"/>
	<path class="st3" d="M220.7,236c-3.4,0.6-5.8,3.7-5.5,7.1l0,0l7.1,91.1c0.8,10.6,10.6,18.3,21.9,17.3l0,0
		c11.4-1,20.2-10.4,19.5-21.1c-0.7-11.2-1.2-23.1-1.2-23.1s14.3-3.3,16.1-22.4c0.9-9.5-0.6-24.8-2.2-37.3
		c-1.4-11-11.4-18.7-22.4-17.3c-0.3,0-0.5,0.1-0.8,0.1L220.7,236z"/>
	<path class="st0" d="M270.1,258.3c0.1,1.3-0.9,2.5-2.2,2.6c-1.3,0.2-2.4-0.7-2.6-1.9c0,0,0,0,0-0.1c-0.1-1.3,0.9-2.5,2.2-2.6
		C268.7,256.1,269.9,257,270.1,258.3C270.1,258.3,270.1,258.3,270.1,258.3z"/>
	<path class="st0" d="M273.5,255.8c-0.3,0.3-2.2-0.9-4.8-0.7s-4.4,1.6-4.7,1.3c-0.1-0.1,0.1-0.7,0.9-1.4c1.1-0.8,2.4-1.3,3.8-1.4
		c1.4-0.1,2.7,0.3,3.9,1C273.4,255.1,273.7,255.7,273.5,255.8z"/>
	<path class="st0" d="M244.5,260.6c0.1,1.3-0.9,2.5-2.2,2.6c-1.3,0.2-2.4-0.7-2.6-1.9c0,0,0,0,0-0.1c-0.1-1.3,0.9-2.5,2.2-2.6
		C243.1,258.4,244.3,259.3,244.5,260.6C244.5,260.6,244.5,260.6,244.5,260.6z"/>
	<path class="st0" d="M248,258c-0.3,0.3-2.2-0.9-4.8-0.7s-4.4,1.6-4.7,1.3c-0.1-0.1,0.1-0.7,0.9-1.4c1.1-0.8,2.4-1.3,3.8-1.4
		c1.4-0.1,2.7,0.3,3.9,1C247.8,257.3,248.1,257.8,248,258z"/>
	<path class="st0" d="M258.7,276.6c0-0.1,1.6-0.5,4.2-1c0.7-0.1,1.3-0.3,1.4-0.7c0-0.7-0.2-1.4-0.6-2c-0.7-1.6-1.5-3.2-2.3-4.9
		c-3.2-7-5.6-12.8-5.3-13c0.3-0.2,3.1,5.5,6.3,12.5c0.8,1.7,1.5,3.4,2.2,5c0.5,0.8,0.7,1.7,0.5,2.6c-0.2,0.5-0.5,0.8-1,1
		c-0.4,0.1-0.7,0.2-1.1,0.2C260.3,276.7,258.7,276.8,258.7,276.6z"/>
	<path class="st4" d="M262.5,307.3c-8.9,0.7-17.8-1.1-25.7-5.1c0,0,7,12.6,25.7,9.6L262.5,307.3z"/>
	<path class="st0" d="M248,247.7c-0.2,0.7-2.8,0.6-5.9,1.1s-5.4,1.6-5.9,0.9c-0.2-0.3,0.2-1,1.1-1.7c2.6-1.9,5.9-2.5,8.9-1.6
		C247.5,246.8,248.1,247.4,248,247.7z"/>
	<path class="st0" d="M272.1,248.3c-0.4,0.6-2.3,0.1-4.4,0.2s-4,0.6-4.4,0.1c-0.2-0.3,0-0.9,0.8-1.5c1-0.8,2.3-1.2,3.5-1.2
		c1.3-0.1,2.5,0.3,3.6,1C272,247.4,272.3,248,272.1,248.3z"/>
	<path class="st4" d="M255.1,279.1c1.7,0,3.4,0.6,4.8,1.7c0.5,0.3,0.9,0.7,1.2,1.2c0.3,0.8,0.2,1.6-0.3,2.3
		c-0.9,1.5-2.5,2.4-4.3,2.3c-1.8-0.2-3.2-1.5-3.6-3.2C252.6,281.6,253.5,279.9,255.1,279.1"/>
	<path class="st0" d="M261.5,284.2c0,0.2-0.6,0.5-1.8,0.4c-1.4-0.1-2.8-0.6-4.1-1.3c-1.3-0.7-2.4-1.6-3.3-2.7
		c-0.7-0.9-0.9-1.6-0.7-1.7c0.4-0.2,2.1,1.6,4.8,3c1.1,0.6,2.3,1.2,3.5,1.6C260.9,283.9,261.5,284,261.5,284.2z"/>
	<path class="st0" d="M223.1,326.7c13-4.6,14.3-33.2,5.5-46.8c6-6.8,7.1-16.6,2.9-24.6c9.6-2.7,15.3-12.7,12.6-22.3
		c-0.3-1.1-0.7-2.2-1.2-3.2c0,0-7.6-4.3-14.8-2.4s-12.3,7.5-15.6,21c-3.3,13.5-0.2,25.2-5.8,33.6s-12.6,14.7-11.8,23.6
		s6.8,27.2,6.8,27.2L223.1,326.7z"/>
	<path class="st2" d="M196.5,314.3c-0.4-1.2-0.6-2.5-0.7-3.8c-0.1-1.5-0.1-3,0-4.6c0.7-7.4,4.5-14.1,10.5-18.4
		c2.3-1.8,4.9-3.6,6.7-6.2c0.9-1.3,1.5-2.8,1.9-4.4c0.4-1.6,0.6-3.3,0.7-4.9c0.2-3.4,0-6.7,0.3-9.9c0.1-1.6,0.4-3.2,0.8-4.7
		c0.2-0.7,0.5-1.5,0.8-2.2c0.3-0.7,0.6-1.4,1.1-2c1.6-2.3,3.6-4.4,5.8-6.1c2-1.6,4-3.1,5.6-4.6c3.3-3,5.1-6.3,5.6-8.7
		c0.2-1.3,0.3-2.6,0.1-3.8c0,0,0,0.1,0.1,0.2l0.1,0.7c0.1,1,0.1,1.9-0.1,2.9c-0.4,2.5-2.2,5.9-5.5,8.9c-1.6,1.5-3.6,3-5.6,4.7
		c-2.2,1.7-4.1,3.7-5.7,6c-0.4,0.6-0.7,1.3-1,2c-0.3,0.7-0.6,1.4-0.8,2.1c-0.4,1.5-0.7,3.1-0.8,4.6c-0.3,3.2-0.1,6.5-0.3,9.9
		c-0.1,1.7-0.3,3.4-0.7,5c-0.4,1.6-1.1,3.1-2,4.5c-1.9,2.7-4.5,4.5-6.9,6.3c-2.3,1.6-4.2,3.6-5.9,5.8c-1.4,2-2.5,4.1-3.3,6.4
		c-0.7,1.9-1.1,3.8-1.3,5.8c-0.2,1.5-0.2,3-0.1,4.5c0.1,1,0.2,1.9,0.4,2.8c0.1,0.3,0.1,0.5,0.1,0.7
		C196.5,314.2,196.5,314.3,196.5,314.3z"/>
	<g class="st5">
		<path d="M282.7,443.6c-4.3,1.4-9.2,0-12.7-2.8c-3.4-3-5.9-7-7-11.4c-1.1-4.4-1.6-8.9-1.5-13.5c-0.3-13.7,0.5-27.3,1.4-41
			L282.7,443.6z"/>
	</g>
	<path class="st0" d="M214.3,422.4c-0.3-0.5-0.5-1-0.8-1.6c-0.5-1-1.1-2.5-1.9-4.3c-2.1-4.8-3.8-9.7-5.2-14.8
		c-1.4-5-2.1-10.3-2-15.5c0-1.6,0.2-3.2,0.4-4.7c0.1-0.6,0.2-1,0.2-1.3c0-0.1,0.1-0.3,0.1-0.4c0,0.6,0,1.2-0.1,1.7
		c-0.1,1.1-0.2,2.7-0.2,4.7c0.1,5.2,0.8,10.4,2.1,15.4c1.4,5,3.1,9.9,5,14.8c0.7,1.8,1.3,3.3,1.7,4.4
		C214,421.3,214.2,421.8,214.3,422.4z"/>
	<path class="st0" d="M259.5,378.1c-0.3,0.4-0.6,0.7-1,1c-0.4,0.4-0.9,0.7-1.4,0.9c-0.7,0.3-1.4,0.5-2.2,0.4c-1-0.1-1.8-0.6-2.3-1.5
		c-0.4-1-0.7-2-0.8-3c-0.5-2.1-1-4.4-1.5-6.8c-1.1-4.8-2-9.2-2.7-12.4c-0.3-1.5-0.6-2.8-0.8-3.8c-0.1-0.5-0.2-0.9-0.2-1.4
		c0.2,0.4,0.3,0.9,0.4,1.4l0.9,3.7c0.8,3.1,1.8,7.5,2.8,12.4c0.5,2.4,1,4.7,1.5,6.8c0.2,1,0.4,1.9,0.7,2.9c0.4,0.8,1.1,1.3,2,1.3
		c1.3,0.1,2.5-0.3,3.5-1.1C258.8,378.6,259.1,378.3,259.5,378.1z"/>
	<path class="st0" d="M252.4,354.3c0,0,0.2-0.2,0.6-0.2c0.6-0.1,1.2,0,1.6,0.3c0.8,0.4,1.3,1.2,1.5,2c0,1.5-1.1,2.8-2.7,2.8
		c-0.7,0-1.4-0.2-2-0.7c-0.6-0.7-0.8-1.6-0.6-2.4c0.1-0.6,0.4-1.1,0.9-1.5c0.3-0.2,0.5-0.3,0.6-0.3s-0.2,0.1-0.4,0.4
		c-0.3,0.4-0.6,0.9-0.6,1.4c-0.1,0.7,0.1,1.5,0.6,2c1,0.8,2.4,0.7,3.3-0.3c0.3-0.4,0.5-0.9,0.5-1.4c-0.1-0.7-0.5-1.4-1.1-1.8
		c-0.4-0.3-0.9-0.4-1.4-0.4C252.6,354.3,252.4,354.3,252.4,354.3z"/>
	<path class="st0" d="M256,366.6c0,0,0.2-0.2,0.6-0.3c0.6-0.1,1.2,0,1.6,0.3c0.8,0.4,1.3,1.2,1.5,2c0,1.5-1.2,2.8-2.7,2.8
		c-0.7,0-1.4-0.2-1.9-0.7c-0.6-0.7-0.8-1.6-0.6-2.4c0.1-0.6,0.4-1.1,0.9-1.5c0.3-0.3,0.5-0.3,0.6-0.3s-0.2,0.1-0.4,0.4
		c-0.8,1-0.8,2.4,0,3.4c1,0.8,2.4,0.7,3.3-0.3c0.3-0.4,0.5-0.9,0.5-1.4c-0.1-0.7-0.5-1.4-1.2-1.8c-0.4-0.3-0.9-0.4-1.4-0.4
		C256.3,366.5,256.1,366.6,256,366.6z"/>
	<path class="st6" d="M315.6,354.1c0,0.1-31.7,3.1-70.8,6.6S174,367,174,366.8s31.7-3.1,70.8-6.6S315.6,353.9,315.6,354.1z"/>
	<path class="st6" d="M316.8,359c0,0.1-32.4,3.2-72.4,6.8s-72.4,6.4-72.4,6.3s32.4-3.2,72.4-6.8S316.7,358.9,316.8,359z"/>
	<path class="st0" d="M201.6,333.8c0.2,0.5,0.4,1,0.5,1.5c0.3,1,0.6,2.5,1,4.3c1,4.7,1.8,9.5,2.2,14.3c0.4,4.8,0.5,9.6,0.3,14.5
		c-0.1,1.9-0.2,3.4-0.3,4.4c0,0.5-0.1,1.1-0.2,1.6c0-0.5,0-1.1,0-1.6c0-1,0.1-2.5,0.1-4.4c0.1-4.8-0.1-9.6-0.5-14.4
		c-0.4-4.8-1.1-9.6-2-14.3c-0.4-1.8-0.7-3.3-0.9-4.3C201.7,334.9,201.7,334.3,201.6,333.8z"/>
	<path class="st3" d="M239.5,320.6c0,0,17.3-12.5,18-12.2s9.3,2.3,9.3,2.3l1.4-7.5c0,0-2.5-14,0-15.3s3,0,3,1.2s2.8,11.2,2.8,11.2
		l1.1,13.7l3.7,3.3v27l-16.9,4.6l-4.1-8.3l-0.7-5.1c0,0-3.2,1.2-3.7,0.5s-1.1-4-1.1-4l-0.7,4.7c0,0-4.7,1.4-5.3,0.5
		s1.6-12.5,1.6-12.5l5.6-7.7c0,0-6.9,4.2-8.2,4.7C242.4,322.9,239.5,320.6,239.5,320.6z"/>
	<path class="st3" d="M261.3,348.4c0,1,2.6,56,3.2,60s0.9,41.2,22.4,44.1c0,0,10.7-0.1,11.7-1l0,0c11.7-8.7,19-22.1,19.9-36.6
		l2.2-39.3c0,0-12.3,1.6-28.3,3v10.3c0,0-3.7-10.4-4.3-13.3s-9.4-31.2-9.4-31.2L261.3,348.4z"/>
	<path class="st4" d="M275.1,314c-0.1-0.3-0.1-0.7-0.2-1l-0.3-2.9c-0.2-2.6-0.6-6.1-1-10.3l0,0c-0.7-3.6-1.5-7.8-2.4-12.2v-0.2
		l0.2,0.2l-1.7-0.2h0.2c-1.4,0.8-2.4,2.2-2.7,3.9c-0.3,1.5-0.3,3.1,0,4.6c0.2,1.5,0.6,2.8,0.8,4.2c0.2,1.2,0.3,2.5,0.2,3.7
		c-0.1,1.8-0.4,3.5-1,5.2c-0.2,0.6-0.4,1-0.5,1.3s-0.2,0.5-0.2,0.4s0.2-0.6,0.6-1.8c0.5-1.7,0.8-3.4,0.8-5.2c0-1.2-0.1-2.4-0.3-3.6
		c-0.2-1.3-0.5-2.7-0.8-4.1c-0.3-1.6-0.3-3.2,0-4.8c0.3-1.8,1.4-3.3,2.9-4.2h0.1h0.1l1.7,0.2h0.2v0.2v0.2c0.9,4.4,1.6,8.6,2.3,12.2
		l0,0l0,0c0.3,4.2,0.6,7.7,0.8,10.3c0.1,1.2,0.1,2.2,0.2,2.9C275.1,313.3,275.1,313.7,275.1,314z"/>
	<path class="st4" d="M253.5,317.1c-0.3,0.2-0.6,0.5-0.9,0.6c-0.6,0.4-1.6,1-2.7,1.6s-2.6,1.5-4.3,2.4c-0.4,0.3-0.9,0.4-1.4,0.6
		c-0.5,0.1-1.1,0.1-1.6-0.1c-1.1-0.4-2-1-2.8-1.9l-0.2-0.2l0.2-0.2l8.3-5.6l9.4-6.3l0.1-0.1h0.1l10,2.5l2.8,0.8
		c0.3,0.1,0.7,0.2,1,0.3c-0.3,0-0.7-0.1-1-0.2l-2.9-0.6l-10-2.3h0.2l-9.3,6.3l-8.3,5.6l0.1-0.4c0.7,0.8,1.6,1.4,2.6,1.8
		c0.4,0.2,0.9,0.2,1.4,0.1c0.5-0.1,0.9-0.3,1.3-0.5c1.7-0.8,3.1-1.6,4.3-2.3l2.8-1.5C252.9,317.5,253.2,317.3,253.5,317.1z"/>
	<path class="st4" d="M252.9,328c0,0.2,0,0.4,0,0.5c0,0.4-0.1,0.9-0.2,1.5c-0.2,1.4-0.4,3.3-0.7,5.6v0l0,0c-0.6,0.8-1.5,1.4-2.5,1.6
		c-1.1,0.1-2.3-0.1-3.3-0.8l-0.1-0.1v-0.2c0.5-2.8,1-5.9,1.5-9.1c0.2-1,0.4-2,0.5-3v0l0,0c0.7-1,1.5-1.9,2.4-2.8
		c0.8-0.9,1.6-1.7,2.3-2.5c1.5-1.6,2.9-3,4.1-4.2l0,0h0c1-0.3,1.9-0.6,2.9-0.8c0.4-0.1,0.9,0,1.3,0.2c0.3,0.1,0.7,0.3,1,0.4
		c0.4,0.2,0.9,0.4,1.3,0.6c0.2,0,0.3,0.1,0.5,0.2c-0.6,0-1.3-0.2-1.9-0.5c-0.3-0.1-0.6-0.3-1-0.4c-0.4-0.1-0.8-0.2-1.1-0.1
		c-0.9,0.1-1.8,0.5-2.9,0.8h0.1c-1.2,1.3-2.6,2.7-4.1,4.2l-2.3,2.5c-0.8,0.9-1.6,1.8-2.3,2.8v-0.1c-0.2,1-0.3,2-0.5,3
		c-0.6,3.2-1.1,6.3-1.6,9.1l-0.1-0.2c0.9,0.6,1.9,0.8,2.9,0.7c0.9-0.2,1.7-0.7,2.3-1.4v0.1c0.4-2.3,0.7-4.2,0.9-5.6l0.3-1.5
		C252.8,328.4,252.8,328.2,252.9,328z"/>
	<path class="st4" d="M265.6,327.9c-0.6,0.1-1.1,0.1-1.7,0.2l-4.7,0.2l0.2-0.1c-0.6,1-1.5,1.9-2.5,2.6l0.1-0.2c0,1.3-0.2,2.7-0.5,4
		c-0.1,0.4-0.3,0.7-0.5,1c-0.2,0.3-0.6,0.6-1,0.8c-0.8,0.3-1.6,0.3-2.4,0.1h-0.2v-0.2c0-1,0-2.1,0-3.1c0-2,0-3.8,0-5.6v-0.1l0.1-0.1
		l4.6-5.9l0.1-0.1h0.1l6.1-0.2h1.7c0.4,0,0.6,0,0.6,0c-0.2,0.1-0.4,0.1-0.6,0.1l-1.7,0.1l-6.1,0.4l0.1-0.1l-4.5,6l0.1-0.1v8.8
		l-0.2-0.3c0.7,0.2,1.4,0.1,2-0.1c0.3-0.1,0.6-0.3,0.7-0.6c0.2-0.3,0.3-0.6,0.4-0.9c0.3-1.2,0.5-2.5,0.5-3.8v-0.1l0.1-0.1
		c0.9-0.6,1.8-1.4,2.4-2.4l0-0.1h0.1l4.7-0.1C264.4,327.9,265,327.9,265.6,327.9z"/>
	<path class="st4" d="M261.9,348.4c-0.6-0.5-1.1-1.1-1.5-1.8c-2.1-3.2-3.4-6.9-3.6-10.7c-0.1-0.8-0.1-1.6,0.1-2.4
		C257.1,338.8,258.9,343.9,261.9,348.4z"/>
	<path class="st4" d="M264.6,335.5c-1.6-2-4.2-2.8-6.6-2.2c0-0.1,0.3-0.3,1-0.5c0.9-0.2,1.9-0.2,2.8,0.1c0.9,0.3,1.7,0.8,2.3,1.5
		C264.5,335,264.7,335.5,264.6,335.5z"/>
	<path class="st4" d="M265,328.5c0.1,1.1,0.1,2.2-0.1,3.3c0,1.1-0.2,2.2-0.6,3.3c-0.2-1.1-0.1-2.2,0.1-3.3
		C264.4,330.7,264.6,329.6,265,328.5z"/>
	<path class="st4" d="M302.9,433.3c0.7-1,1.3-2.1,1.6-3.3c0.4-1.4,0.5-2.8,0.5-4.2c-0.1-1.9-0.5-3.8-1.2-5.5c-0.7-2-1.6-4.1-2.5-6.4
		s-1.9-4.8-2.9-7.4c-1.9-5.3-3.9-11.1-6-17.2c-4-12.3-7.5-23.5-9.9-31.6c-1.2-4.1-2.2-7.4-2.8-9.6c-0.3-1.1-0.5-2-0.7-2.6
		c-0.1-0.3-0.1-0.5-0.2-0.7c0-0.1,0-0.2,0-0.2c0,0.1,0.1,0.1,0.1,0.2l0.2,0.7l0.8,2.6c0.7,2.3,1.7,5.6,3,9.6c2.5,8.1,6,19.3,10,31.6
		c2,6.1,4,12,5.9,17.2c1,2.6,1.9,5.1,2.8,7.4s1.8,4.5,2.5,6.5c0.6,1.8,1,3.7,1.1,5.6c0.1,1.5-0.1,2.9-0.6,4.3
		c-0.3,0.9-0.7,1.7-1.2,2.5C303.4,432.8,303.1,433,302.9,433.3z"/>
	<path class="st3" d="M262.8,445.9L196,436l8.3-45.8l-35.3-1.5l-8.9,50.4c-2.9,15,6.9,29.4,21.9,32.3c1.7,0.3,3.3,0.5,5,0.5
		l77.8-0.9L262.8,445.9z"/>
	<path class="st3" d="M257.9,447.1c0.7,0.2,15.3-6.8,15.3-6.8l25.8,1.3c0,0-0.6,4.4-2.6,5.5s-14,0-14,0l6.1,4.4l10.5-0.9l2.6-2.2
		c0,0,0.3,7.2-1.7,8.5s-7.6,1.8-7.6,1.8c-0.1,1.1-0.2,2.2-0.5,3.3c-0.4,1.1-3.4,2.3-3.4,2.3c-0.8,1.7-1.7,3.3-2.7,4.9
		c-0.4,0.4-3.1,1.3-6.1,2.1c-4.8,1.3-9.8,1.3-14.6-0.1l-7.1-2.1v-21.5"/>
	<path class="st4" d="M302.1,448.5c0,0-0.1,0.1-0.3,0.3c-0.3,0.2-0.7,0.4-1,0.6c-1.3,0.7-2.7,1.3-4.1,1.6c-2.2,0.5-4.5,0.5-6.8,0.1
		c-1.4-0.3-2.7-0.7-3.9-1.4c-1.3-0.6-2.5-1.6-4-2.1l-1.1-0.4l1.2,0c2,0,4,0.1,6,0.4c2.1,0.3,4.2,0.2,6.2-0.4
		c2.4-0.7,4.5-2.8,4.5-5.2l0.3,0.3l-18.7-1.1l-5.5-0.4l-1.5-0.1c-0.2,0-0.3,0-0.5-0.1c0.2,0,0.3,0,0.5,0h1.5l5.5,0.2l18.7,0.9h0.3
		v0.2c-0.1,1.3-0.6,2.6-1.5,3.5c-0.9,1-2.1,1.7-3.4,2.1c-2.1,0.6-4.3,0.7-6.4,0.4c-2-0.3-3.9-0.4-5.9-0.4l0.1-0.5
		c1.4,0.7,2.7,1.4,4,2.2c1.2,0.6,2.5,1.1,3.8,1.4c3.6,0.8,7.5,0.3,10.8-1.4C301.6,448.8,302.1,448.5,302.1,448.5z"/>
	<path class="st4" d="M296.5,458.2c-1.9,0.6-3.9,0.9-5.9,1.1c-2,0.3-4,0.4-6,0.2c2-0.4,4-0.6,6-0.7
		C292.6,458.4,294.6,458.2,296.5,458.2z"/>
	<path class="st4" d="M290.9,463.1c-1,0.7-2.1,1.2-3.2,1.5c-1.1,0.5-2.2,0.8-3.4,1c1-0.7,2.1-1.2,3.2-1.5
		C288.6,463.6,289.7,463.3,290.9,463.1z"/>
	<g class="st5">
		<path d="M255.2,370.4c-0.1,1.3,0.8,2.4,2.1,2.5s2.4-0.8,2.5-2.1c0-0.4,0-0.8-0.2-1.1c-0.5,1.4-2.1,2.1-3.5,1.6
			c-0.6-0.2-1.2-0.7-1.5-1.3"/>
	</g>
	<g class="st5">
		<path d="M251.7,358.2c-0.1,1.3,0.8,2.4,2.1,2.5s2.4-0.8,2.5-2.1c0-0.4,0-0.8-0.2-1.1c-0.5,1.4-2.1,2.1-3.5,1.5
			c-0.6-0.2-1.1-0.7-1.4-1.3"/>
	</g>
	<g class="st5">
		<path d="M205.9,380.6c1.2,9.2,6.6,17.6,6.6,26.9c0,0.9-0.2,2-1.1,2.4c-1.1,0.4-2-0.9-2.5-1.9c-3.8-8.5-5-18-3.7-27.2"/>
	</g>
	<path class="st0" d="M291,346.3c0.1,0.5,0.2,1,0.3,1.6c0.1,1,0.3,2.5,0.5,4.3c0.4,3.6,0.7,8.6,0.9,14.1s0.1,10.5,0,14.1
		c-0.1,1.8-0.1,3.3-0.2,4.3c0,0.5-0.1,1-0.2,1.6c0-0.5,0-1,0-1.6c0-1.1,0-2.5,0-4.3c0-3.6,0-8.6-0.1-14.1s-0.5-10.5-0.7-14.1
		c-0.1-1.7-0.2-3.2-0.3-4.3C291,347.4,291,346.8,291,346.3z"/>
</g>
<g id="freepik--Pizza--inject-111">
	<path class="st7" d="M103.3,207.9c-3-2.9-6.5-4.8-10.1-4.6c-3.8,0.2-7,3-7,3s-4.4-2.5-9-0.8c-2.6,0.8-4.9,2.4-6.7,4.5
		c0,0-5.6-1.1-9.1,1c-2.1,1.2-3.7,3.1-4.5,5.4c0,0-7.2,0.3-10.8,3.9s-4.5,5.8-4.5,5.8c-0.5,2.7,0.2,5.5,1.8,7.7
		c2.8,3.6,5.2,2.6,8.8,5.8c3.6,3.2,14.6,10.3,28.4,20.5c13.8,10.2,27.1,15.5,33.5,23.5c6.4,7.9,10.1,9.7,14.4,12.5
		c4.4,2.9,5.2-5.8,2.8-10.1s2.2-12.7-4.7-30.5s-13.2-28-14.1-31.8C110.9,217.7,107.7,212.3,103.3,207.9z"/>
	<path class="st8" d="M41.6,226.1c0,0,1.5-6.7,10.4-2.8s7.1,9.8,9.8,13.8c2.8,4,16.5,8.9,20.7,14.8c4.2,5.9,13.4,12.1,17.1,14.6
		s14.3,12.6,18,14.7c3.7,2.1,7.6,6.1,9,8.5c1.3,2.4,2,5.4,3.2,4.3c1.2-1.1,1.6-7.9,1.6-7.9"/>
	<path class="st8" d="M60.7,229.5c0,0-0.2-2.3,7.4-3.7c7.7-1.5,8.3-6.7,12.2-8.4c3.9-1.7,11.8-0.5,14-0.3c2.3,0.1,5-0.8,6.1-1.2
		c1.1-0.4,5.7-3.7,5.7-3.7"/>
	<path class="st9" d="M79.6,228.8c-2.4,0.9-4.2,2.5-4.6,5.1c-0.7,5,7.3,10.7,11.8,8.8c2.3-1,10.7-9.2,8.2-11.6
		C92.2,228.2,84.6,226.9,79.6,228.8z"/>
	<path class="st9" d="M108.1,242.2c-1.7-0.1-3.4,0-5.1,0.3c-2,0.3-4.6,0.6-4.9,2.9c-0.3,2.6,4.1,5,6.1,5.1c2.6,0.1,10.3-1.7,10.1-4
		C113.9,243.4,111.1,242.4,108.1,242.2z"/>
	<path class="st9" d="M106.9,229.5c-2.4,0.2-4.2,1.2-2.8,2.8c2.8,3.2,8.6,2,8.7,0.5C112.9,230.2,109.6,229.3,106.9,229.5z"/>
	<path class="st9" d="M110.7,261.5c-2.2-0.4-4.4,0.6-3.9,3.5c0.6,3.4,6.9,5.3,7.7,3.5C116.4,264.6,113.5,262,110.7,261.5z"/>
	<path class="st10" d="M56.9,216.4c0,0,8.9-2.9,11.9,3.7"/>
	<path class="st10" d="M74.6,212.1c0,0,4.5,1.4,5.1,3.3"/>
	<path class="st10" d="M85.8,207.1c0,0,4.5,1.4,5.1,3.3"/>
	<path class="st7" d="M56.6,236.4c0,0-6.1-12-8.9-9.5s-2.1,4.4,1.5,6.5c3.7,2.1,9.9,6.2,11.7,7.1C62.7,241.3,56.6,236.4,56.6,236.4z
		"/>
</g>
<g id="freepik--french-fries--inject-111">
	<path class="st7" d="M157.8,127.2c0,0-2.5-9.2-6.7-15.4c-4.2-6.2-8.4-16.7-8.8-18.3c-0.5-1.5,1-3.1,2.1-3.6s2.2,0,3.5,1.2
		c1.3,1.2,5.7,12.8,8.7,18.7c1.9,3.8,4.1,7.5,6.4,11.1c0.9,1.6,1.7,3.3,2.4,5L157.8,127.2z"/>
	<path class="st10" d="M144.3,89.9c-0.7,3.2,0.2,6.5,2.4,9c3.7,4.6,8.6,15.1,10.4,17.3c1.4,2.2,2.7,4.4,3.7,6.8"/>
	<path class="st7" d="M166,115.2c0,0,3.9,15,7.5,23.1c3.6,8.1,6.2,15.1,7.5,18.2c1.3,3.2,2.5,3.1,1.8,5.1s-4.6,3.3-5.8,3
		s-4.7-8.7-6.4-13.1c-1.7-4.4-6.6-17-8.8-22.1c-2.3-5.2-3.2-10.9-3.8-12.7c-0.6-1.8-6.5-22-6.3-23.5c0.2-1.5,5.9-2.8,6.9-2.9
		C159.6,90.2,166,115.2,166,115.2z"/>
	<path class="st10" d="M179.5,163.7c0,0,1.1-1-1.2-3.3c-2.2-2.3-7.8-12.9-10.4-20.7c-2.6-7.8-5.5-18.8-7.2-23.3
		c-1.7-4.6-2.8-8.8-3.5-11.6c-0.8-3.6-1.3-7.2-1.3-10.8c0.1-1,0-2-0.2-3"/>
	<path class="st7" d="M140.4,145.3c0,0-2.5-9.2-6.7-15.4c-4.2-6.1-8.4-16.7-8.9-18.2c-0.5-1.5,1-3.1,2.1-3.6s2.2,0,3.5,1.2
		c1.3,1.2,5.7,12.8,8.7,18.7c1.9,3.8,4.1,7.5,6.4,11.1c0.9,1.6,1.7,3.3,2.4,5L140.4,145.3z"/>
	<path class="st10" d="M127,108c-0.7,3.2,0.2,6.6,2.4,9c3.7,4.6,8.6,15,10.4,17.3c1.4,2.2,2.7,4.4,3.7,6.8"/>
	<path class="st7" d="M152.1,145.6c0,0-6-14.3-10.8-21.7c-4.8-7.4-8.3-14.1-10.1-17c-1.7-2.9-2.9-2.7-2.5-4.8c0.4-2.1,4-3.9,5.3-3.9
		c1.3,0.1,5.9,8,8.3,12c2.4,4.1,9,15.9,11.9,20.6s4.7,10.4,5.6,12.1c0.9,1.7,9.6,20.8,9.6,22.4c0,1.6-5.4,3.6-6.4,3.8
		C162.1,169.4,152.1,145.6,152.1,145.6z"/>
	<path class="st10" d="M131.8,99.5c0,0-0.9,1.2,1.6,3.1c2.6,1.9,9.5,11.6,13.3,18.9c3.7,7.3,8.2,17.8,10.5,22s4,8.3,5.1,11
		c1.3,3.4,2.3,6.9,2.9,10.5c0.1,1,0.3,2,0.6,2.9"/>
	<path class="st7" d="M183.6,128.9c0,0-6-14.2-10.8-21.7s-8.3-14.1-10-17c-1.7-2.9-2.9-2.7-2.5-4.8c0.4-2.1,4-3.9,5.3-3.8
		c1.3,0.1,5.9,8,8.3,12c2.4,4.1,8.9,15.9,11.9,20.6c3,4.8,4.7,10.4,5.6,12.1s9.6,20.8,9.6,22.4c0,1.6-5.4,3.6-6.4,3.8
		C193.5,152.7,183.6,128.9,183.6,128.9z"/>
	<path class="st10" d="M163.2,82.8c0,0-0.9,1.2,1.6,3.1c2.6,1.9,9.5,11.6,13.3,18.9c3.7,7.3,8.2,17.8,10.5,22s4,8.3,5.1,11
		c1.3,3.4,2.3,6.9,2.9,10.5c0.1,1,0.3,2,0.6,2.9"/>
	<path class="st7" d="M167.8,151.5c0,0-6-14.2-10.8-21.7c-4.8-7.5-8.3-14.1-10.1-17c-1.7-2.9-2.9-2.7-2.5-4.8c0.4-2.1,4-3.9,5.3-3.9
		s5.9,8,8.3,12s8.9,15.9,11.9,20.6c3,4.8,4.7,10.4,5.6,12c0.9,1.7,9.6,20.9,9.6,22.4c0,1.6-5.4,3.6-6.4,3.8
		C177.8,175.2,167.8,151.5,167.8,151.5z"/>
	<path class="st10" d="M147.4,105.4c0,0-0.9,1.2,1.6,3.1c2.6,1.9,9.5,11.7,13.3,19c3.7,7.3,8.2,17.8,10.5,22c2.2,4.2,4,8.3,5.1,11
		c1.3,3.4,2.3,6.9,2.9,10.5c0.1,1,0.3,2,0.6,2.9"/>
	<path class="st7" d="M168.7,146.5c0,0,0.1-15.5-1.3-24.2s-2.1-16.3-2.5-19.6s-1.6-3.7-0.4-5.4c1.2-1.7,5.3-2,6.4-1.4
		c1.2,0.6,2.3,9.7,2.8,14.3c0.6,4.7,1.9,18.1,2.7,23.7c0.8,5.5,0.1,11.4,0.3,13.3c0.2,1.9,0.5,22.9-0.1,24.4
		c-0.6,1.5-6.4,1.1-7.5,0.9C168.2,172.3,168.7,146.5,168.7,146.5z"/>
	<path class="st10" d="M168.5,96.2c0,0-1.3,0.7,0.3,3.5c1.6,2.8,4.1,14.5,4.6,22.7c0.5,8.2,0.4,19.6,0.8,24.4
		c0.4,4.8,0.4,9.2,0.3,12.1c-0.1,3.6-0.7,7.3-1.6,10.8c-0.3,0.9-0.6,1.9-0.6,2.9"/>
	<path class="st7" d="M182.9,116c0,0,1.3,15.4,3.5,24s3.5,16,4.3,19.3c0.7,3.3,1.9,3.5,0.9,5.3c-1,1.8-5.1,2.5-6.3,2
		c-1.2-0.5-3.1-9.4-4.1-14s-3.6-17.9-4.9-23.3c-1.3-5.5-1.3-11.3-1.6-13.2c-0.3-1.9-2.7-22.8-2.2-24.3c0.4-1.5,6.3-1.7,7.3-1.6
		S182.9,116,182.9,116z"/>
	<path class="st10" d="M187.9,166.1c0,0,1.2-0.8-0.6-3.5c-1.8-2.6-5.4-14.1-6.7-22.1c-1.3-8.1-2.2-19.4-3.1-24.2
		c-0.8-4.8-1.2-9.1-1.5-12c-0.2-3.6,0-7.3,0.5-10.9c0.3-1,0.4-2,0.3-3"/>
	<path class="st7" d="M149.1,116.7c0,0,4.7,14.7,8.8,22.6s7.1,14.7,8.5,17.8c1.4,3.1,2.7,3,2.1,5c-0.6,2-4.4,3.6-5.6,3.4
		c-1.2-0.2-5.2-8.5-7.2-12.7s-7.5-16.6-10.1-21.6c-2.5-5-3.8-10.7-4.4-12.5c-0.7-1.7-7.7-21.6-7.6-23.1c0.1-1.6,5.8-3.1,6.8-3.3
		C141.4,92.1,149.1,116.7,149.1,116.7z"/>
	<path class="st10" d="M165.3,164.4c0,0,1-1.1-1.4-3.2c-2.4-2.2-8.4-12.4-11.5-20s-6.6-18.4-8.5-22.9c-1.9-4.5-3.3-8.6-4.1-11.4
		c-1-3.5-1.7-7.1-1.9-10.7c0-1-0.1-2-0.3-3"/>
	<path class="st7" d="M194.8,122.2c0,0,3.9,15,7.5,23.1c3.6,8.1,6.2,15.1,7.5,18.3s2.5,3.1,1.8,5.1c-0.7,2-4.6,3.3-5.8,3
		s-4.7-8.7-6.4-13.1c-1.7-4.4-6.5-17-8.8-22.1s-3.2-10.9-3.8-12.7s-6.5-22-6.3-23.5c0.2-1.5,5.9-2.8,6.9-2.9
		C188.4,97.1,194.8,122.2,194.8,122.2z"/>
	<path class="st10" d="M208.3,170.7c0,0,1.1-1-1.2-3.3c-2.3-2.3-7.8-12.9-10.5-20.7c-2.7-7.8-5.5-18.8-7.2-23.3
		c-1.7-4.6-2.8-8.8-3.5-11.6c-0.8-3.6-1.2-7.2-1.3-10.8c0.1-1,0-2-0.2-3"/>
	<path class="st9" d="M194.7,108.2c1.6-0.2,19.5,61.3,19.2,63.9c-0.3,2.6-2.5,8.1-10.2,15.6c-7.8,7.5-19.7,14-23.1,12.8
		c-3.4-1.3-10.8-1.9-12.4-3.8S138.4,143,138.4,143s2.2-2.1,7-2.6c0,0,0.9-0.1,2.2,0l0,0c2.2,0,5.5,0.3,6.8,1.7
		c1.3,1.1,2.7,2,4.3,2.8l0,0c5.8,2.9,16.3,6,25.5,0.1c5.2-3.1,8.8-8.4,9.8-14.4l0,0c0.5-3,0.6-6.1,0.2-9.1l0,0
		c-0.2-1.8-0.5-3.4-0.7-4.8C192.3,109.9,193,108.3,194.7,108.2z"/>
	<line class="st10" x1="164.4" y1="167.5" x2="180.6" y2="200.5"/>
	<line class="st10" x1="163.2" y1="164.2" x2="156.7" y2="151.4"/>
	<path class="st10" d="M147.7,140.3c0.1,0,0.2,0.2,0.3,0.3"/>
	<path class="st10" d="M158.8,144.8l0.1,0.2"/>
</g>
<g id="freepik--Burger--inject-111">
	<path class="st11" d="M357.5,193.2c-0.4,0.9-0.9,1.8-1.5,2.7c-5.9,9.4-24.2,3.5-43.7-8.8c-19.5-12.3-32.7-26.2-26.8-35.6
		c1-1.6,1.3-2.3,2.4-3.3l3-2.3c0,0,7.1,11.1,16.3,18.9c9.2,7.8,25.4,16.2,35.1,20.7s16.2,4.8,16.2,4.8L357.5,193.2z"/>
	<path class="st11" d="M296.8,137.8c0,0-3.8,1-5.4,3.4c-1.6,2.4-2.8,4.4-1.8,7.2c0.9,2.8,2.8,6.1,6.8,9.7c4,3.6,9.2,9.1,12.6,12.3
		c3.4,3.3,15.9,10.1,20.3,12.2c4.5,2.1,6.3,3.3,12.4,6.7c6.2,3.5,7.6,2.5,10.9,2c3.2-0.5,5.4,2.1,8.7-1.9c3.2-4,2.9-7.3,1.7-8.8
		c-1.2-1.5-6.9-2.2-15.3-7.7c-8.4-5.5-21.7-12.2-32.5-21.2c-5.7-4.7-11.2-9.7-16.4-15L296.8,137.8z"/>
	<path class="st11" d="M345.9,183.8c-0.2,0.3-0.7,0.3-1.2,0c-0.4-0.3-0.6-0.8-0.4-1.1c0.2-0.3,0.7-0.3,1.2,0
		C345.9,183,346.1,183.5,345.9,183.8z"/>
	<path class="st11" d="M347.5,187.3c-0.1,0.3-0.4,0.4-0.7,0.3c-0.3-0.1-0.4-0.4-0.3-0.7c0-0.1,0.1-0.1,0.1-0.2
		c0.1-0.3,0.4-0.4,0.7-0.3s0.4,0.4,0.3,0.7C347.6,187.1,347.6,187.2,347.5,187.3z"/>
	<path class="st11" d="M345.3,185.8c-0.1,0.1-0.3,0.1-0.5,0c-0.2-0.1-0.3-0.3-0.2-0.4c0.1-0.1,0.3-0.1,0.5,0
		C345.3,185.4,345.4,185.6,345.3,185.8z"/>
	<path class="st11" d="M347.1,181c-0.1,0.2-0.4,0.3-0.6,0.2s-0.3-0.4-0.2-0.6c0.1-0.2,0.4-0.3,0.6-0.2c0,0,0,0,0.1,0
		C347.2,180.6,347.3,180.8,347.1,181z"/>
	<path class="st11" d="M348.8,184.3c-0.2,0.2-0.5,0.2-0.7,0.1c-0.2-0.1-0.3-0.3-0.3-0.6c0.1-0.2,0.3-0.3,0.6-0.3
		c0.1,0,0.1,0.1,0.2,0.1C348.8,183.8,348.9,184.1,348.8,184.3z"/>
	<path class="st11" d="M357.1,187.1c-0.3-0.3-0.1-0.8,0.2-1.2c0.4-0.4,0.9-0.5,1.2-0.2s0.1,0.8-0.2,1.1
		C357.8,187.3,357.3,187.4,357.1,187.1z"/>
	<path class="st11" d="M353.3,188c-0.2-0.3-0.1-0.6,0.2-0.8c0.3-0.2,0.6-0.1,0.8,0.2c0.1,0.2,0.1,0.5-0.1,0.7
		C353.9,188.3,353.6,188.2,353.3,188z"/>
	<path class="st11" d="M355.3,186.1c-0.1-0.1,0-0.3,0.1-0.5c0.2-0.2,0.4-0.2,0.5-0.1c0.1,0.1,0,0.3-0.1,0.5S355.4,186.3,355.3,186.1
		z"/>
	<path class="st11" d="M359.5,189c-0.1-0.2-0.1-0.4,0.1-0.6c0.1-0.2,0.4-0.2,0.6,0c0.1,0.2,0.1,0.5-0.1,0.6
		C359.9,189.1,359.7,189.1,359.5,189z"/>
	<path class="st11" d="M356,189.8c-0.3-0.2-0.3-0.5-0.2-0.8c0.2-0.3,0.5-0.3,0.8-0.2c0.3,0.2,0.3,0.5,0.2,0.8c0,0-0.1,0.1-0.1,0.1
		C356.5,190,356.2,190,356,189.8z"/>
	<path class="st11" d="M293.6,146.5c0.1-0.3,0.6-0.5,1.1-0.3c0.5,0.2,0.8,0.6,0.7,0.9c-0.1,0.3-0.6,0.5-1.1,0.3
		S293.5,146.9,293.6,146.5z"/>
	<path class="st11" d="M291.1,143.7c0.2-0.3,0.5-0.4,0.8-0.2c0.3,0.2,0.4,0.5,0.2,0.8c-0.1,0.2-0.4,0.3-0.7,0.2
		C291.1,144.3,291,144,291.1,143.7z"/>
	<path class="st11" d="M293.6,144.5c0.1-0.1,0.3-0.2,0.5-0.1c0.2,0.1,0.4,0.2,0.3,0.4s-0.3,0.2-0.5,0.1
		C293.7,144.8,293.6,144.7,293.6,144.5z"/>
	<path class="st11" d="M293.1,149.6c0.1-0.2,0.3-0.3,0.5-0.2c0.2,0.1,0.3,0.3,0.3,0.5c-0.1,0.2-0.3,0.3-0.5,0.2
		C293.1,150,293,149.8,293.1,149.6C293.1,149.6,293.1,149.6,293.1,149.6z"/>
	<path class="st11" d="M290.7,146.8c0.2-0.3,0.5-0.3,0.8-0.2c0.2,0.1,0.3,0.3,0.3,0.5c-0.1,0.2-0.4,0.3-0.7,0.2
		C290.8,147.3,290.6,147.1,290.7,146.8z"/>
	<ellipse transform="matrix(0.5488 -0.8359 0.8359 0.5488 3.664 357.4662)" class="st11" cx="333" cy="175.3" rx="9.5" ry="11.8"/>
	
		<ellipse transform="matrix(0.5488 -0.8359 0.8359 0.5488 4.524 357.5404)" class="st11" cx="333.5" cy="174.6" rx="9.5" ry="11.8"/>
	<path class="st11" d="M341.6,172c-0.7-1.5-1.8-2.9-3.1-3.9c-2.3-1.7-2.9-1.7-2.9-1c0,0.9-0.4,1.9-1,2.6c-0.7,1-1.6,0.2-2.8-1.3
		c-1.2-1.5-0.3-2.4-2.9-2.3c-2.7,0.1-3.8,0.9-4.8,2.7s-1.1,3-0.1,3.7c1,0.6,3.9-0.2,6.2,1c2.2,1.2-0.3,0.4-2.2,1.5s-3.2,1.1-1.4,3.6
		s4.4,4.4,6.6,4.6c1.5,0.2,2.9-0.9,3.1-2.5c0,0,0-0.1,0-0.1c0-0.8,0.1-2.4,0.8-2.1c0.7,0.3,1,4.3,2.6,3.9c2.1-0.5,3.6-2.3,3.8-4.5
		c0-2.4-2-1.9-2.9-3.3c-0.9-1.3-0.8-1.6-0.1-1.7S341.8,172.8,341.6,172z"/>
	<path class="st11" d="M332.9,171.5c0,0-1.3-1.3-2.3-2.4s-2.7,0-2.8,0.9s0.6,0.9,1.9,1.3c1.4,0.4,3,1.8,3.1,2.5c0.2,0.7-1,1.5-1.9,2
		c-0.9,0.5-0.2,3.3,1.4,4s2.7-2,3.3-2.9c0.6-0.9,1.4-0.9,1.8,0s1.4,2.6,2.2,1.4c0.7-0.9,0.6-2.1-0.2-2.9c0,0-0.1-0.1-0.1-0.1
		c-0.7-0.5-2.5-1.6-2.2-2c0.3-0.4,3.3-0.6,2.2-2.2c-1.1-1.6-2.7-1.7-3.2-0.6c-0.5,1-1,1.8-1.7,1.7C334,172,333.5,171.8,332.9,171.5z
		"/>
	
		<ellipse transform="matrix(0.5488 -0.8359 0.8359 0.5488 11.8725 321.3502)" class="st11" cx="303.6" cy="149.7" rx="9.5" ry="11.8"/>
	
		<ellipse transform="matrix(0.5488 -0.8359 0.8359 0.5488 12.7325 321.4243)" class="st11" cx="304.1" cy="148.9" rx="9.5" ry="11.8"/>
	<path class="st11" d="M312.3,146.4c-0.7-1.6-1.8-2.9-3.1-3.9c-2.3-1.7-2.9-1.7-2.9-1c0,0.9-0.4,1.9-1,2.6c-0.7,1-1.6,0.2-2.8-1.3
		s-0.3-2.4-2.9-2.3c-2.7,0.1-3.8,0.9-4.8,2.7c-0.9,1.8-1.1,3-0.1,3.7c1,0.7,3.9-0.2,6.1,1c2.2,1.2-0.3,0.4-2.1,1.5
		c-1.9,1-3.2,1.1-1.4,3.6c1.7,2.5,4.4,4.4,6.6,4.6c1.5,0.2,2.9-0.9,3.1-2.5c0,0,0-0.1,0-0.1c0-0.8,0.1-2.4,0.8-2.1
		c0.7,0.3,1,4.3,2.6,3.9c2.1-0.5,3.6-2.3,3.8-4.5c0-2.4-2-1.9-2.9-3.3c-0.9-1.3-0.8-1.6-0.1-1.7S312.5,147.1,312.3,146.4z"/>
	<path class="st11" d="M303.6,145.8c0,0-1.3-1.3-2.3-2.4c-1-1.1-2.7,0.1-2.8,0.9c-0.1,0.8,0.6,0.9,1.9,1.3s3,1.8,3.1,2.5
		c0.2,0.7-1,1.5-1.9,2s-0.2,3.3,1.4,4c1.6,0.7,2.7-2,3.3-2.9c0.6-0.9,1.4-0.9,1.8,0c0.4,0.9,1.4,2.6,2.3,1.4
		c0.7-0.9,0.6-2.1-0.3-2.9c0,0,0,0-0.1-0.1c-0.7-0.5-2.5-1.6-2.2-2s3.3-0.6,2.2-2.2c-1.1-1.6-2.7-1.7-3.2-0.7c-0.5,1-1,1.8-1.7,1.7
		C304.6,146.4,304.1,146.1,303.6,145.8z"/>
	<path class="st12" d="M371.5,170.3c0,0-0.4,3.7-0.5,8s-3.9,2.3-8.3,4.1c-4.4,1.9-4.2,5.2-9.7,0.8c-5.5-4.4-3.2-7.3-7.8-7.5
		s-9.5,0.5-11.7-4.1c-2.2-4.6-3.9-6.2-7.5-6.1s-8.3,0.5-10.7-5c-2.3-5.5-4.3-5.6-9.9-4.9c-5.6,0.7-8.7-3.7-7.3-8.4s-0.8-3.7-2.3-8.7
		c-1.5-5,3.8-6.3,3.8-6.3l1.9,0.7c0,0,0.7,5.2,6.1,11.2c5.5,6.1,36.5,25.1,41.4,26.9c4.9,1.8,8.1,3.5,11.9,2.4
		c3.2-1,6.4-2.3,9.4-3.7C370.2,169.7,371.1,168.1,371.5,170.3z"/>
	<path class="st13" d="M333,163.4c-1.8-0.7-3.7-0.8-5.6-0.5c-2.6,0.7-4.8,1.8-7.8,0.4c-3.1-1.4-3.2-7.3-5.6-9.3s-8.9-5.2-9.1-3.2
		s5.1,2.8,3.8,3.1c-1.4,0.3-3.1,0-5.4,0.2c-2.3,0.2-3.2-0.4-3.2-4"/>
	<path class="st13" d="M341.8,174c0,0,5.2-1,7.1,0.3s1.3,5.6,5.4,7.9c4.1,2.3,5.3,0.2,7-0.6"/>
	<path class="st11" d="M360.6,178.4c-2.4,0-4.8-0.6-7-1.7c-3-1.7-8.7-5.1-13.2-8c-2.7-1.8-5.6-3.2-8.6-4.2
		c-3.9-1.1-7.6-2.9-10.8-5.3c-3.5-2.7-6.4-6.1-8.6-9.9c-0.7-0.9-1.6-1.7-2.5-2.3c-1.3-0.9-3.9-4.8-6.1-6.2c-2.2-1.5-5.9-3.6-5.8-9.2
		c0.2-5.6,5.3-4.5,5.3-4.5c0.9,0,1.7,0.6,2.1,1.5c0.6,1.5,18,17.2,33.1,25.8s23.4,13.4,28.1,13.1s5.9,2.6,5.9,2.6s3.6,4.3,0.6,7.8
		s-9,1.1-9,1.1L360.6,178.4z"/>
	<path class="st11" d="M301.6,132.8c-0.2,0.3-0.7,0.3-1.2,0s-0.6-0.8-0.4-1.1c0.2-0.3,0.7-0.3,1.2,0
		C301.6,132,301.8,132.5,301.6,132.8z"/>
	<path class="st11" d="M303.3,136.2c-0.2,0.2-0.6,0.2-0.8,0c-0.2-0.2-0.2-0.6,0-0.8c0.2-0.2,0.5-0.2,0.7-0.1
		C303.5,135.6,303.5,136,303.3,136.2z"/>
	
		<ellipse transform="matrix(0.5488 -0.8359 0.8359 0.5488 23.2823 312.0858)" class="st11" cx="300.8" cy="134.5" rx="0.2" ry="0.4"/>
	
		<ellipse transform="matrix(0.5488 -0.8359 0.8359 0.5488 28.0825 311.463)" class="st11" cx="302.6" cy="129.7" rx="0.4" ry="0.4"/>
	<ellipse transform="matrix(0.5488 -0.8359 0.8359 0.5488 26.0559 314.1835)" class="st11" cx="304.1" cy="133" rx="0.4" ry="0.5"/>
	<path class="st11" d="M335.3,159.7c-0.2,0.3-0.7,0.3-1.2,0c-0.5-0.3-0.6-0.8-0.4-1.1c0.2-0.3,0.7-0.3,1.2,0
		C335.3,158.9,335.5,159.3,335.3,159.7z"/>
	<path class="st11" d="M337,163.1c-0.2,0.2-0.6,0.2-0.8,0c-0.2-0.2-0.2-0.6,0-0.8c0.2-0.2,0.5-0.2,0.7-0.1
		C337.2,162.4,337.2,162.8,337,163.1z"/>
	<path class="st11" d="M334.8,161.5c-0.1,0.1-0.3,0.1-0.5,0c-0.2-0.1-0.3-0.3-0.2-0.4c0.1-0.1,0.3-0.1,0.5,0
		S334.9,161.4,334.8,161.5z"/>
	<path class="st11" d="M336.6,156.8c-0.1,0.2-0.4,0.3-0.6,0.2c-0.2-0.1-0.3-0.4-0.2-0.6c0.1-0.2,0.4-0.3,0.6-0.2c0,0,0,0,0.1,0
		C336.6,156.4,336.7,156.6,336.6,156.8C336.6,156.8,336.6,156.8,336.6,156.8z"/>
	<path class="st11" d="M338.2,160.1c-0.2,0.2-0.5,0.2-0.7,0.1c-0.2-0.1-0.3-0.3-0.3-0.6c0.1-0.2,0.3-0.3,0.6-0.3
		c0.1,0,0.1,0.1,0.2,0.1C338.2,159.5,338.3,159.8,338.2,160.1z"/>
	<path class="st11" d="M369.2,175c0-0.4,0.4-0.6,1-0.6c0.6,0,1,0.3,0.9,0.7c0,0.4-0.4,0.6-1,0.6C369.7,175.7,369.2,175.4,369.2,175z
		"/>
	<path class="st11" d="M366,172.9c0.1-0.3,0.4-0.5,0.7-0.4c0.3,0.1,0.5,0.4,0.4,0.7c-0.1,0.3-0.3,0.5-0.6,0.4
		C366.2,173.5,365.9,173.2,366,172.9z"/>
	<path class="st11" d="M368.6,173.1c0-0.1,0.2-0.2,0.4-0.2c0.2,0,0.4,0.1,0.4,0.3s-0.2,0.2-0.4,0.2
		C368.8,173.3,368.6,173.2,368.6,173.1z"/>
	<path class="st11" d="M369.5,178.1c0-0.2,0.3-0.4,0.5-0.4c0.2,0,0.4,0.2,0.4,0.4c0,0.2-0.2,0.4-0.4,0.3c0,0,0,0,0,0
		C369.7,178.5,369.5,178.3,369.5,178.1z"/>
	<path class="st11" d="M366.4,176.1c-0.1-0.3,0.1-0.6,0.4-0.7c0.3-0.1,0.6,0.1,0.7,0.4c0.1,0.3-0.1,0.6-0.4,0.7c0,0-0.1,0-0.1,0
		C366.7,176.5,366.5,176.4,366.4,176.1z"/>
	
		<ellipse transform="matrix(0.5488 -0.8359 0.8359 0.5488 22.3468 336.8481)" class="st11" cx="323.2" cy="147.7" rx="9.5" ry="11.8"/>
	
		<ellipse transform="matrix(0.5488 -0.8359 0.8359 0.5488 23.2068 336.9222)" class="st11" cx="323.7" cy="147" rx="9.5" ry="11.8"/>
	<path class="st11" d="M331.9,144.4c-0.7-1.5-1.8-2.9-3.1-3.9c-2.3-1.7-2.9-1.7-2.9-1c0,1-0.4,1.9-1,2.6c-0.7,1-1.6,0.2-2.8-1.3
		c-1.2-1.5-0.3-2.4-2.9-2.3s-3.8,0.9-4.8,2.7c-0.9,1.8-1.1,3-0.1,3.7c1,0.7,3.9-0.2,6.1,1c2.2,1.2-0.3,0.4-2.1,1.5s-3.2,1.1-1.4,3.6
		c1.7,2.5,4.4,4.4,6.6,4.6c1.5,0.2,2.9-0.9,3.1-2.5c0,0,0-0.1,0-0.1c0-0.8,0.1-2.4,0.8-2.1c0.7,0.3,1,4.3,2.6,3.9
		c2.1-0.5,3.6-2.3,3.8-4.5c0-2.4-2-1.9-2.9-3.3c-0.9-1.3-0.8-1.6-0.1-1.7C331.4,145.4,332.1,145.2,331.9,144.4z"/>
	<path class="st11" d="M323.2,143.9c0,0-1.3-1.3-2.3-2.4s-2.7,0-2.8,0.9c-0.1,0.8,0.6,0.9,1.9,1.3s3,1.8,3.1,2.5
		c0.2,0.7-1,1.5-1.9,2c-0.9,0.5-0.2,3.3,1.4,4c1.6,0.7,2.7-2,3.3-2.9s1.4-0.9,1.8,0s1.4,2.6,2.2,1.4c0.7-0.9,0.6-2.1-0.2-2.9
		c0,0-0.1-0.1-0.1-0.1c-0.7-0.5-2.5-1.6-2.2-2c0.3-0.4,3.3-0.6,2.2-2.2c-1.1-1.6-2.7-1.7-3.2-0.7c-0.5,1-1,1.8-1.7,1.7
		C324.3,144.4,323.7,144.2,323.2,143.9z"/>
	<ellipse transform="matrix(0.5488 -0.8359 0.8359 0.5488 20.594 371.4326)" class="st11" cx="354.4" cy="166.6" rx="8" ry="9.9"/>
	<ellipse transform="matrix(0.5488 -0.8359 0.8359 0.5488 21.3143 371.4948)" class="st11" cx="354.8" cy="166" rx="8" ry="9.9"/>
	<path class="st11" d="M361.6,163.9c-0.6-1.3-1.5-2.4-2.6-3.3c-1.9-1.4-2.5-1.5-2.4-0.8c0,0.8-0.3,1.6-0.8,2.2
		c-0.6,0.8-1.3,0.2-2.3-1.1c-1-1.3-0.3-2-2.5-1.9c-2.2,0.1-3.2,0.8-4,2.3s-0.9,2.5,0,3.1c0.9,0.6,3.3-0.2,5.2,0.8
		c1.9,1-0.2,0.4-1.8,1.2c-1.6,0.9-2.6,0.9-1.2,3c1.4,2.1,3.7,3.7,5.6,3.9c1.3,0.2,2.4-0.7,2.6-2c0,0,0-0.1,0-0.1
		c0-0.7,0.1-2,0.7-1.7c0.6,0.2,0.8,3.6,2.2,3.3c1.8-0.4,3-2,3.2-3.8c0-2-1.7-1.6-2.4-2.7c-0.8-1.1-0.7-1.4-0.1-1.4
		C361.3,164.7,361.8,164.5,361.6,163.9z"/>
	<path class="st11" d="M354.4,163.4c0,0-1.1-1.1-1.9-2c-0.8-0.9-2.3,0-2.3,0.7c-0.1,0.7,0.5,0.8,1.6,1.1c1.2,0.3,2.5,1.5,2.6,2.1
		s-0.9,1.3-1.6,1.7c-0.7,0.4-0.2,2.8,1.2,3.4c1.4,0.6,2.3-1.7,2.8-2.4c0.5-0.7,1.2-0.7,1.5,0c0.3,0.8,1.1,2.2,1.9,1.2
		c0.6-0.7,0.5-1.8-0.2-2.4c0,0,0,0,0,0c-0.6-0.4-2.1-1.3-1.9-1.7c0.2-0.4,2.8-0.5,1.8-1.8c-1-1.3-2.3-1.4-2.7-0.5
		c-0.4,0.9-0.8,1.5-1.4,1.4C355.3,163.9,354.8,163.7,354.4,163.4z"/>
	<path class="st12" d="M379.1,158.8c0,0-0.4,3.7-0.5,8c0,4.3-3.9,2.3-8.3,4.1c-4.4,1.9-4.2,5.2-9.7,0.8c-5.5-4.4-3.2-7.3-7.8-7.5
		s-9.5,0.5-11.7-4.1c-2.2-4.6-3.9-6.2-7.5-6.1s-8.3,0.5-10.7-5s-4.3-5.6-9.9-4.9c-5.6,0.7-8.7-3.7-7.3-8.4c1.4-4.7-0.8-3.7-2.3-8.7
		s3.8-6.3,3.8-6.3l1.9,0.7c0,0,0.7,5.2,6.1,11.2c5.5,6.1,36.5,25.1,41.3,26.9c4.9,1.8,8.1,3.5,11.9,2.4c3.2-1,6.4-2.3,9.4-3.7
		C377.8,158.2,378.6,156.6,379.1,158.8z"/>
	<path class="st13" d="M319.7,140c-1.3,0.2-2.6,0.6-3.7,1.4c-1.6,1.2-2.2,2.4-5.1,1.8"/>
	<path class="st13" d="M312.9,133.9c-1.6,0-3.1-0.2-4.7-0.5"/>
	<path class="st13" d="M334,148.8c-0.2,1.3-0.7,2.5-1.4,3.7"/>
	<path class="st13" d="M372.5,161.3c0,0,2.4,2.8,3,4.8c0.2,1.1,1.1,1.9,2.2,2.1"/>
	<path class="st13" d="M357.2,163.2c0,0,1.7,1.3,2,4.9c0.3,3.5,5.8,5.6,6.8,4.8"/>
	<path class="st13" d="M337,153.1c0,0,4.5,1.9,5.9,4.9c1.4,2.9,1.8,5.4,6.1,5"/>
	<path class="st11" d="M382.3,154c-13.8,21-27.5,8-46.8-4.7c-19.3-12.6-37.4-18.9-22.9-41.1c8.5-12.9,30.9-13.1,50.2-0.5
		C382.1,120.4,390.8,141.1,382.3,154z"/>
	<path class="st11" d="M353.7,117.7c0,0-2.1,0.6-3.5-0.4c-1.5-1-1.7-3.1-1.7-3.1s2.1-0.6,3.5,0.4S353.7,117.7,353.7,117.7z"/>
	<path class="st11" d="M367.2,121.9c0,0-2.1,0.6-3.5-0.4s-1.7-3.1-1.7-3.1s2.1-0.6,3.5,0.4C366.9,119.8,367.2,121.9,367.2,121.9z"/>
	<path class="st11" d="M375.9,125.4c0,0-2.1,0.6-3.5-0.4c-1.4-0.9-1.7-3.1-1.7-3.1s2.1-0.6,3.5,0.4
		C375.6,123.2,375.9,125.4,375.9,125.4z"/>
	<path class="st11" d="M345.5,107.7c0,0-2.1,0.6-3.5-0.4c-1.4-0.9-1.7-3.1-1.7-3.1s2.1-0.6,3.5,0.4
		C345.2,105.5,345.5,107.7,345.5,107.7z"/>
	<path class="st11" d="M336.3,109.8c0,0-2.1,0.6-3.5-0.4c-1.4-0.9-1.7-3.1-1.7-3.1s2.1-0.6,3.5,0.4S336.3,109.8,336.3,109.8z"/>
	<path class="st11" d="M345.6,119.6c0,0-2.1,0.6-3.5-0.4c-1.4-0.9-1.7-3.1-1.7-3.1s2.1-0.6,3.5,0.4
		C345.3,117.5,345.6,119.6,345.6,119.6z"/>
	<path class="st11" d="M326.9,109.4c0,0-2.1,0.6-3.5-0.4c-0.9-0.8-1.5-1.9-1.7-3c0,0,2.1-0.6,3.5,0.4
		C326.6,107.3,326.9,109.4,326.9,109.4z"/>
	<path class="st11" d="M358.3,112.1c0,0-2.1,0.6-3.5-0.4c-1.4-0.9-1.7-3.1-1.7-3.1s2.1-0.6,3.5,0.4C358,110,358.3,112.1,358.3,112.1
		z"/>
	<path class="st11" d="M372.2,130.4c0,0-2.1,0.6-3.5-0.4c-1.4-0.9-1.7-3.1-1.7-3.1s2.1-0.6,3.5,0.4
		C372,128.3,372.2,130.4,372.2,130.4z"/>
	<path class="st11" d="M375.7,137.8c0,0-2.1,0.6-3.5-0.4c-1.4-0.9-1.7-3.1-1.7-3.1s2.1-0.6,3.5,0.4
		C375.5,135.7,375.7,137.8,375.7,137.8z"/>
	<path class="st11" d="M359.9,127.5c0,0-2.1,0.6-3.5-0.4c-1.4-0.9-1.7-3.1-1.7-3.1s2.1-0.6,3.5,0.4
		C359.6,125.4,359.9,127.5,359.9,127.5z"/>
	<path class="st11" d="M363.5,157.8c-6.3-0.6-5-3-7.3-4.8s-5.3-2.2-11.7-5.5c-6.4-3.3-4.9-4.2-7.9-7.4c-3-3.2-6.2-1.2-11.1-4.4
		c-4.9-3.2-3.6-5.2-7.4-7.7c-3.8-2.5-4.4-2-7-5.9c-1.1-1.6-2-3.2-2.9-4.9c-4.7,15.3,9.1,22.6,25.5,33.3c16.6,10.9,31,21,43,10.2
		C374.8,159.2,369.7,158.3,363.5,157.8z"/>
</g>
<g id="freepik--pina-colada--inject-65">
	<polygon class="st14" points="423.7,229.7 422.4,229 438.6,193.1 439.9,193.8 	"/>
	<path class="st15" d="M418,193.3l1.3,0.3c0.4,0.1,0.8,0.2,1.2,0.3c0.4,0.1,0.8,0.2,1.2,0.3c0.8,0.2,1.6,0.5,2.4,0.8
		c0.8,0.3,1.6,0.7,2.3,1.1c0.7,0.4,1.4,0.8,2,1.3l0.1,0l0.1,0c1.2,0.2,2.3,0.6,3.5,1c0.6,0.2,1.1,0.4,1.7,0.7
		c0.5,0.3,1.1,0.5,1.6,0.8c1.1,0.5,2.1,1.2,3.1,1.8c0.9,0.6,1.8,1.3,2.7,2.1l0.1,0.1l0.2,0c0.5,0.2,1,0.3,1.4,0.5
		c0.5,0.2,0.9,0.3,1.4,0.6c0.9,0.4,1.8,0.9,2.6,1.4c0.8,0.5,1.6,1.1,2.3,1.7c0.4,0.3,0.7,0.6,1,0.9l0.5,0.5c0.1,0.1,0.1,0.2,0.2,0.3
		c0,0,0.1,0.1,0.1,0.1l0.1,0.1c0,0,0,0,0.1,0c0.1,0,0,0.1,0.1,0.1s0-0.1,0-0.1l0-0.1l-0.1-0.1c-0.1-0.1-0.1-0.2-0.2-0.3
		c-0.1-0.2-0.3-0.3-0.4-0.5c-0.2-0.2-0.4-0.4-0.6-0.6l-1.9-2.4l-2.9-4c-1-1.3-1.9-2.6-2.9-3.9c-1-1.3-2-2.6-3-3.8l-0.2-0.3l-0.4,0
		l-4.9-0.2c-1.6-0.1-3.2-0.1-4.9-0.2c-3.2-0.1-6.4-0.2-9.7-0.3c0,0,0,0,0,0L418,193.3z"/>
	<path class="st16" d="M428.7,197.5c1.7-0.6,3.4-1.2,5.2-1.8s3.5-1.2,5.2-1.8c-1.7,0.6-3.4,1.2-5.2,1.8S430.4,197,428.7,197.5z"/>
	<path class="st16" d="M441.4,204c-0.4-1.7-0.8-3.3-1.2-5c-0.4-1.7-0.8-3.3-1.1-5c0.4,1.7,0.8,3.3,1.2,5
		C440.6,200.6,441,202.3,441.4,204z"/>
	<polygon class="st2" points="419.9,254.2 417.5,253.5 426.9,198.6 429.3,199.3 	"/>
	<polygon class="st2" points="428.5,197.1 426.9,198.7 411.6,185 413.1,183.4 	"/>
	<polygon class="st17" points="426.9,198.6 429.3,199.3 429.3,198.9 	"/>
	<polygon class="st2" points="426.9,198.6 429.3,198.9 429.3,198.5 	"/>
	<polygon class="st17" points="426.9,198.6 429.3,198.5 429.2,198.2 	"/>
	<polygon class="st2" points="426.9,198.6 429.2,198.2 429,197.8 	"/>
	<polygon class="st17" points="426.9,198.6 429,197.8 428.7,197.4 	"/>
	<polygon class="st2" points="426.9,198.6 428.7,197.4 428.4,197.1 	"/>
	<path class="st15" d="M440,224.4c1-1.2,1.9-2.4,2.9-3.6c1-1.2,2-2.3,3-3.5c1-1.2,2.1-2.3,3.1-3.4c1.1-1.1,2.1-2.2,3.3-3.3
		c-1,1.2-1.9,2.4-2.9,3.6c-1,1.2-2,2.3-3,3.5c-1,1.2-2.1,2.3-3.1,3.4S441.1,223.4,440,224.4z"/>
	<path class="st15" d="M447.1,217.6c-1-0.5-1.8-1.2-1.9-2.3c-0.5-1-0.2-1.9,0.3-2.6c1-1.4,3.7-1.9,4.7-0.6c0.8,1,0.5,1.6,0.8,2.3
		s0.9,1.1,0.8,2.3C451.6,218.1,448.9,218.5,447.1,217.6z"/>
	<path class="st18" d="M447.1,217.6c-1-0.5-1.8-1.2-1.9-2.3c-0.5-1-0.2-1.9,0.3-2.6c1-1.4,3.7-1.9,4.7-0.6c0.8,1,0.5,1.6,0.8,2.3
		s0.9,1.1,0.8,2.3C451.6,218.1,448.9,218.5,447.1,217.6z"/>
	<path class="st15" d="M450.4,214.3c3.5-2.1,11.3-0.8,13.5,0c0.6,0.2,0,0.8-0.3,0.6s-5.5-1.5-8.8-1.3c-3.1,0.2-4.3,1-4.3,1
		L450.4,214.3z"/>
	<path class="st19" d="M450.4,214.3c3.5-2.1,11.3-0.8,13.5,0c0.6,0.2,0,0.8-0.3,0.6s-5.5-1.5-8.8-1.3c-3.1,0.2-4.3,1-4.3,1
		L450.4,214.3z"/>
	<path class="st18" d="M450.2,213.6c0,0.3,0.1,0.6,0.2,0.9c0,0.1,0.1,0.3,0.2,0.4c0.1,0.1,0.1,0.3,0.2,0.4c-0.3-0.2-0.5-0.5-0.6-0.8
		c-0.1-0.2-0.1-0.3-0.1-0.5C450.1,213.9,450.1,213.8,450.2,213.6z"/>
	<path class="st20" d="M449.8,212.5c-0.3-0.2-0.6-0.3-0.9-0.3c-0.3,0-0.6,0-0.9,0c-0.6,0.1-1.1,0.2-1.6,0.5c0.4-0.4,0.9-0.7,1.5-0.8
		c0.3,0,0.6,0,1,0.1C449.3,212.1,449.6,212.2,449.8,212.5z"/>
	<path class="st15" d="M452.3,210.6c-0.9,1.1-1.8,2.2-2.7,3.3c-0.1,0.1-0.2,0.2-0.3,0.3l0,0c-0.1-0.1-0.1-0.3-0.2-0.4
		c0.1-0.1,0.2-0.2,0.3-0.3C450.4,212.5,451.4,211.6,452.3,210.6z"/>
	<path class="st9" d="M409,293.8L377,273c0,0,2.1-0.6,4.1,0.2c3.8,1.6,9.4,4,12.1,4.1c0.4,0,2.3-1.8,2.3-1.8l0.9-1.4
		c-0.8-1.8,0-3.6,1.7-4.1c0.3-0.1,0.7-0.1,1-0.1l2.3-3.5c1.1,0.9,2.3,1.7,3.6,2.4l-2.3,3.5c0.8,1.8,0,3.6-1.7,4.1
		c-0.3,0.1-0.7,0.1-1,0.1l-0.9,1.5c0,0-0.8,2.5-0.7,2.9c1.2,2.6,5.9,6.8,8.9,9.7C408.8,291.8,409,293.8,409,293.8z"/>
	<path class="st20" d="M380.1,273.7c2.3,1.4,4.6,2.8,6.8,4.2c2.3,1.4,4.5,2.9,6.8,4.3c2.2,1.5,4.5,2.9,6.7,4.4
		c2.2,1.5,4.4,3,6.6,4.5c-2.3-1.4-4.6-2.8-6.8-4.2c-2.3-1.4-4.5-2.9-6.8-4.3c-2.2-1.5-4.5-2.9-6.7-4.4
		C384.6,276.8,382.3,275.3,380.1,273.7z"/>
	<path class="st20" d="M399.5,270.5c-0.4,0.2-0.7,0.4-1,0.6c-0.3,0.2-0.6,0.5-0.8,0.8c-0.1,0.1-0.2,0.3-0.3,0.5
		c-0.1,0.2-0.1,0.3-0.1,0.5c0,0.2-0.1,0.4-0.1,0.6c0,0.2,0,0.4,0,0.6c-0.1-0.2-0.2-0.4-0.3-0.6c-0.1-0.2-0.1-0.4-0.1-0.7
		c0-0.5,0.1-0.9,0.4-1.2c0.2-0.3,0.6-0.6,1-0.8C398.6,270.6,399,270.5,399.5,270.5z"/>
	<path class="st20" d="M401.9,267c0.2,0.1,0.4,0.2,0.7,0.3c0.2,0.1,0.4,0.2,0.6,0.4c0.2,0.1,0.4,0.3,0.6,0.4
		c0.2,0.1,0.4,0.3,0.6,0.5c-0.5,0-1-0.2-1.4-0.5c-0.2-0.1-0.4-0.3-0.6-0.5C402.2,267.5,402,267.3,401.9,267z"/>
	<path class="st7" d="M403.3,267.7c6.5,4.2,21,7.7,27.3-4.8c6.3-12.5,10.7-25.5,14.6-31.2c1.8-2.6,3.8-4.8,5.8-5.9
		c0.5-0.3,1.5,0.1,1.9-0.1c1.4-0.8,1.7-1.6,1.7-1.6s-6-5.9-15.1-11.8c-5.4-3.5-11-6.5-16.8-9.1c0,0-0.6,0.6-0.8,2.2
		c-0.1,0.5,0.7,1.4,0.6,2c-0.2,2.2-1.4,4.8-3,7.4c-3.6,5.9-13.7,15.2-22.7,26C387.8,251.6,396.8,263.4,403.3,267.7z"/>
	<path class="st20" d="M449,222.1c0.8,0.3,1.5,0.6,2.3,0.9c0.8,0.3,1.5,0.7,2.2,1.1c-0.8-0.2-1.6-0.5-2.3-0.9
		C450.5,222.9,449.7,222.6,449,222.1z"/>
	<path class="st20" d="M445,220.1c0.5,0.2,1,0.4,1.5,0.6c0.5,0.2,1,0.5,1.4,0.8C446.9,221.3,445.9,220.8,445,220.1z"/>
	<path class="st9" d="M422.9,204.1c1.5,1.4,3.1,2.8,4.7,4.1c0.8,0.7,1.6,1.3,2.4,1.9l1.2,1l1.3,0.9c0.4,0.3,0.8,0.6,1.3,0.9
		s0.8,0.6,1.3,0.9l1.3,0.9l1.3,0.9c1.7,1.2,3.5,2.3,5.3,3.4c-0.5-0.2-0.9-0.5-1.4-0.7s-0.9-0.5-1.4-0.8c-0.9-0.5-1.8-1-2.7-1.6
		c-1.8-1.1-3.5-2.3-5.2-3.5c-1.7-1.2-3.3-2.6-4.9-3.9C425.8,207.1,424.3,205.6,422.9,204.1z"/>
	<path class="st15" d="M404.8,265.4c5.7,3.8,18.5,6.8,24.1-4.2c5.6-11.1,9.7-23.7,13-28.8c1.4-2.2,5.2-6.3,5.2-6.3
		C433.5,219.3,424,211,424,211c-0.2,0.4-1.9,4.5-3.7,7.2c-3.3,5.1-13.4,13.8-21.3,23.4C391.1,251.1,399.1,261.6,404.8,265.4z"/>
	<g>
		<path class="st9" d="M404.8,265.4c5.7,3.8,18.5,6.8,24.1-4.2c5.6-11.1,9.7-23.7,13-28.8c1.4-2.2,5.2-6.3,5.2-6.3
			C433.5,219.3,424,211,424,211c-0.2,0.4-1.9,4.5-3.7,7.2c-3.3,5.1-13.4,13.8-21.3,23.4C391.1,251.1,399.1,261.6,404.8,265.4z"/>
	</g>
	<path class="st21" d="M420.1,222.8c-0.2,0.4-0.4,0.9-0.7,1.3c-0.2,0.4-0.5,0.8-0.7,1.3c-0.5,0.8-1.1,1.6-1.6,2.4
		c-1.1,1.6-2.4,3.1-3.6,4.6c-2.5,2.9-5.2,5.7-7.8,8.5l-0.9,1.1c-0.3,0.3-0.6,0.7-0.9,1.1l-0.4,0.5l-0.4,0.6l-0.4,0.6l-0.2,0.3
		l-0.2,0.3c-0.3,0.4-0.5,0.8-0.8,1.2c-0.2,0.4-0.4,0.8-0.7,1.2c-0.4,0.8-0.7,1.6-0.9,2.5c-0.8,3.5,0.2,7.7,2.5,11.4
		c-0.8-0.8-1.5-1.7-2.1-2.6c-0.6-1-1.1-1.9-1.5-3c-0.8-2.1-1.1-4.3-0.9-6.4c0.1-1.1,0.4-2.1,0.8-3c0.2-0.5,0.4-0.9,0.7-1.4
		s0.5-0.9,0.8-1.3c1.1-1.7,2.3-3.2,3.6-4.7c2.6-2.9,5.4-5.6,8.3-8.2c1.4-1.3,2.8-2.6,4.2-4C417.5,225.6,418.8,224.2,420.1,222.8z"/>
	<path class="st21" d="M405.4,245.1c0.1-0.7,0.5-1.4,0.8-2c0.4-0.6,0.8-1.2,1.2-1.7c0.9-1.1,1.8-2.2,2.7-3.2
		c1.9-2.1,3.8-4.2,5.6-6.3c0.9-1,1.8-2.1,2.7-3.2c0.9-1.1,1.7-2.2,2.6-3.3c1.7-2.2,3.2-4.6,4.5-7.1c-0.4,1.4-0.9,2.7-1.5,4
		c-0.3,0.6-0.6,1.3-1,1.9c-0.3,0.6-0.7,1.2-1.1,1.8c-1.5,2.4-3.3,4.6-5.2,6.7c-1.9,2.1-3.9,4.1-5.9,6.1c-1,1-2,2-3,3
		c-0.5,0.5-1,1-1.4,1.5c-0.1,0.1-0.2,0.3-0.3,0.4l-0.2,0.2l-0.1,0.2l-0.1,0.2l-0.1,0.2C405.5,244.7,405.5,244.9,405.4,245.1z"/>
	<path class="st15" d="M446.5,220.9l11.3-6.6c0.4,0.6,0.8,1.1,1.1,1.7c0.2,0.4,0.7,0.7,1,1.2c0.3,0.5,0.2,1.2,0.5,1.8
		c0.3,0.8,0.9,1.4,1.2,2.4c0.2,0.6,0.1,1.5,0.2,2.2c0.2,1,0.7,2,0.8,3c0,0.9-0.6,1.5-0.7,2.4c-0.1,0.6,0.3,1.7,0.2,2.2
		c-0.2,0.8-1.2,1.3-1.6,2.1c-0.3,0.5-0.1,1.2-0.4,1.6c-0.2,0.4-0.7,0.6-1,0.9l-11.6-7c0,0,2.2-2.6,3.8-3.1c0.4-0.1,1.1,0.2,1.5,0.1
		c0.3-0.1,1.5-0.9,1.8-1.7l-1.2-0.1C453.3,224,448.5,222,446.5,220.9z"/>
	<path class="st18" d="M449.9,221.7c0.6-0.4,1.3-0.8,1.9-1.2c0.7-0.4,1.3-0.8,2-1.1s1.3-0.7,2-1.1l1-0.5c0.3-0.2,0.7-0.3,1-0.5
		c-0.3,0.2-0.6,0.4-1,0.6l-1,0.6c-0.6,0.4-1.3,0.8-2,1.1c-0.7,0.4-1.3,0.7-2,1.1S450.6,221.4,449.9,221.7z"/>
	<path class="st18" d="M453,223.2c0.8-0.4,1.6-0.8,2.5-1.1c0.8-0.3,1.7-0.6,2.6-0.8c-0.8,0.4-1.6,0.8-2.5,1.1
		C454.8,222.6,453.9,222.9,453,223.2z"/>
	<path class="st18" d="M455.5,224.5c0.9-0.1,1.7-0.1,2.6-0.1c0.9,0,1.8,0,2.6,0.1c-0.9,0.1-1.7,0.1-2.6,0.1
		C457.2,224.6,456.3,224.6,455.5,224.5z"/>
	<path class="st18" d="M453,226.2c0.7,0.1,1.4,0.3,2,0.5c0.7,0.2,1.4,0.3,2,0.5c0.7,0.2,1.3,0.4,2,0.6l1,0.3c0.3,0.1,0.7,0.2,1,0.3
		c-0.3-0.1-0.7-0.1-1-0.2l-1-0.2c-0.7-0.2-1.4-0.3-2-0.5s-1.3-0.4-2-0.6C454.3,226.6,453.6,226.4,453,226.2z"/>
	<path class="st18" d="M450.4,228c0.8,0.4,1.5,0.8,2.3,1.2c0.8,0.4,1.5,0.8,2.3,1.2c0.7,0.4,1.5,0.8,2.2,1.3l1.1,0.7
		c0.4,0.2,0.7,0.4,1.1,0.7c-0.4-0.2-0.8-0.4-1.1-0.6l-1.1-0.6c-0.8-0.4-1.5-0.8-2.3-1.2c-0.7-0.4-1.5-0.8-2.2-1.3
		C451.9,228.9,451.2,228.5,450.4,228z"/>
	<path class="st18" d="M454.9,230c1.3,0.4,2.5,1,3.6,1.7C457.3,231.3,456.1,230.7,454.9,230z"/>
	<path class="st18" d="M455.1,219.6c0.5-0.5,1.2-0.8,1.9-0.9C456.5,219.1,455.8,219.4,455.1,219.6z"/>
	<path class="st18" d="M454.4,226.1c0.6,0,1.2,0.2,1.8,0.5c-0.3,0-0.6,0-0.9-0.1C455,226.4,454.7,226.3,454.4,226.1z"/>
	<path class="st18" d="M449.2,221.6c0.2-0.2,0.4-0.4,0.6-0.6c0.2-0.2,0.5-0.3,0.8-0.3C450.3,221.1,449.8,221.4,449.2,221.6z"/>
	<path class="st18" d="M459,228.4c0.4,0,0.8,0.1,1.2,0.4c-0.2,0-0.4,0-0.6-0.1C459.3,228.6,459.1,228.5,459,228.4z"/>
	<path class="st18" d="M458.8,221c0.1-0.1,0.3-0.2,0.5-0.3c0.2-0.1,0.4-0.1,0.6,0c-0.1,0.1-0.3,0.2-0.5,0.3
		C459.2,221,459,221,458.8,221z"/>
	<path class="st18" d="M449.7,228.2c0.2,0,0.4,0.1,0.6,0.2c0.2,0.1,0.4,0.3,0.5,0.4c-0.2,0-0.4-0.1-0.6-0.2
		C450,228.5,449.8,228.4,449.7,228.2z"/>
	<path class="st18" d="M458.4,232c0.4,0.1,0.8,0.3,1.1,0.7C459,232.6,458.6,232.3,458.4,232z"/>
	<path class="st18" d="M457.7,224c0.5-0.1,1-0.2,1.5-0.2c0.5,0,1.1,0,1.6,0c-0.5,0.1-1,0.2-1.5,0.2
		C458.8,224.1,458.3,224.1,457.7,224z"/>
	<g class="st22">
		<path class="st20" d="M454.2,218.7c0.4-0.3,0.8-0.6,1.3-0.9c0.5-0.3,1-0.5,1.5-0.7c-0.4,0.3-0.8,0.6-1.3,0.9
			C455.2,218.3,454.7,218.5,454.2,218.7z"/>
		<path class="st20" d="M453.9,222.4c0.5-0.4,1.1-0.7,1.8-0.7c-0.2,0.2-0.5,0.4-0.8,0.5C454.5,222.3,454.2,222.4,453.9,222.4z"/>
		<path class="st20" d="M456.7,226.8c1,0.1,2.1,0.4,3.1,0.8c-0.5,0-1-0.1-1.6-0.3C457.7,227.2,457.2,227,456.7,226.8z"/>
		<path class="st20" d="M453.8,232.3c1.7,0.8,3.4,1.8,5,2.9C457.1,234.3,455.4,233.4,453.8,232.3L453.8,232.3z"/>
		<path class="st20" d="M452.2,228.5c0.3,0.1,0.7,0.2,1,0.4c0.3,0.2,0.6,0.4,0.9,0.6C453.4,229.4,452.8,229,452.2,228.5z"/>
		<path class="st20" d="M454.5,216.7c0.5-0.4,1-0.7,1.5-1s1-0.6,1.6-0.9l0.1,0l0.1,0.1c0.1,0.2,0.3,0.3,0.4,0.5
			c0.1,0.2,0.3,0.3,0.4,0.5c-0.2-0.1-0.3-0.3-0.5-0.4s-0.3-0.3-0.5-0.5l0.1,0c-0.5,0.3-1,0.6-1.5,0.9S455,216.5,454.5,216.7z"/>
		<path class="st20" d="M453.6,217.2c-0.6,0.4-1.1,0.8-1.8,1.2c-0.6,0.4-1.2,0.7-1.9,1c0.6-0.4,1.1-0.8,1.8-1.2
			C452.3,217.9,452.9,217.5,453.6,217.2z"/>
		<path class="st20" d="M462.2,227.1c-0.1,0.3-0.2,0.6-0.3,0.9c-0.1,0.3-0.2,0.6-0.3,0.8c-0.1,0.3-0.1,0.6,0,0.9
			c0.1,0.3,0.1,0.6,0.2,1c-0.2-0.3-0.3-0.6-0.4-1c0-0.2-0.1-0.3-0.1-0.5c0-0.2,0-0.3,0-0.5c0.1-0.3,0.2-0.6,0.4-0.9
			C461.8,227.6,462,227.4,462.2,227.1z"/>
		<path class="st20" d="M459.6,217.6c0.1,0.3,0.1,0.6,0.1,0.9c0,0.3,0.1,0.6,0.2,0.9c0.1,0.3,0.3,0.5,0.5,0.7
			c0.2,0.2,0.4,0.4,0.7,0.6l0,0l0,0c0.1,0.2,0.2,0.4,0.2,0.6c0,0.2,0,0.4,0,0.6c0,0.4,0,0.7,0,1.1c-0.1-0.4-0.1-0.8-0.2-1.1
			c0-0.2-0.1-0.4-0.1-0.6c0-0.2-0.1-0.3-0.2-0.5l0,0c-0.3-0.2-0.5-0.4-0.7-0.7c-0.1-0.1-0.2-0.3-0.3-0.4c-0.1-0.1-0.2-0.3-0.2-0.5
			c-0.1-0.3-0.1-0.6-0.1-0.9C459.6,218.2,459.6,217.9,459.6,217.6z"/>
	</g>
</g>
</svg>
