<?xml version="1.0" encoding="utf-8"?>
<!-- Generator: Adobe Illustrator 25.2.0, SVG Export Plug-In . SVG Version: 6.00 Build 0)  -->
<svg version="1.1" id="Layer_1" xmlns="http://www.w3.org/2000/svg" xmlns:xlink="http://www.w3.org/1999/xlink" x="0px" y="0px"
	 viewBox="0 0 500 500" style="enable-background:new 0 0 500 500;" xml:space="preserve">
<style type="text/css">
	.st0{fill:#FFFFFF;stroke:#263238;stroke-linecap:round;stroke-linejoin:round;}
	.st1{fill:#263238;stroke:#263238;stroke-linecap:round;stroke-linejoin:round;}
	.st2{fill:#FFC108;stroke:#263238;stroke-linecap:round;stroke-linejoin:round;}
	.st3{fill:none;stroke:#263238;stroke-linecap:round;stroke-linejoin:round;}
	.st4{fill:#263238;}
	.st5{fill:none;stroke:#9C9C9C;stroke-linecap:round;stroke-linejoin:round;}
	.st6{fill:none;stroke:#263238;stroke-miterlimit:10;}
	.st7{fill:#FFFFFF;stroke:#263238;stroke-miterlimit:10;}
	.st8{fill:#FFFFFF;stroke:#263238;stroke-linecap:round;stroke-miterlimit:10;}
	.st9{fill:none;stroke:#263238;stroke-linecap:round;stroke-miterlimit:10;}
</style>
<g id="freepik--Character--inject-212">
	<path class="st0" d="M305.6,312.2l-0.7-5.6c-0.8-5.3-2.8-19.2-2.8-20.5c0-1.6-7.7-6.4-7.7-6.4l-9.2,13.1l-6.3,12.4
		c0,0,4.1,3.7,7.7,6.4c2.4,1.7,5,2.9,7.9,3.5l18.5,63.3l12.4-25.1L305.6,312.2z"/>
	<path class="st0" d="M275.5,261l13.3-0.7c2.7-0.1,5.1,2,5.2,4.7l1.8,35.8c0.1,2.7-2,5.1-4.7,5.2l-13.3,0.7c-2.7,0.1-5.1-2-5.2-4.7
		l-1.8-35.8C270.7,263.4,272.8,261.1,275.5,261z"/>
	<path class="st1" d="M277,260.9l13.3-0.7c2.7-0.1,5.1,2,5.2,4.7l1.8,35.8c0.1,2.7-2,5.1-4.7,5.2l-13.3,0.7c-2.7,0.1-5.1-2-5.2-4.7
		l-1.8-35.8C272.1,263.3,274.2,261,277,260.9z"/>
	<path class="st2" d="M294.8,266.5c-0.1-2.3-1.8-4.2-4.1-4.6l-1.6,2.2l-9.1,0.6l-2.8-1.9l12.5-0.9h-0.1l-11.7,0.6
		c-2.7,0.2-4.8,2.5-4.7,5.2l1.6,32.8c0.2,2.7,2.5,4.8,5.2,4.7l11.7-0.6c2.7-0.2,4.8-2.5,4.7-5.2L294.8,266.5z"/>
	<path class="st0" d="M301.2,313.3c-3.6-0.5-6.5-3.3-6.9-6.9c-0.9-6.3,2.1-13.6,2.1-13.6c-2-1.2-4.1-2.2-6.3-3
		c-3.3-1.2-0.9-7.5,0.3-5.7s9.6,3,12,4.5s3,10.3,3,10.3l0.2,13.3"/>
	<path class="st1" d="M388.8,421l30.2-79.2c2.5-6.6-0.6-13.9-7.1-16.7l0,0c-6.6-2.8-14.2,0.2-17.1,6.8L355.9,421H388.8z"/>
	<path class="st2" d="M312.7,385c-1.2,0.9-25.1,29.5-30.6,36H352c4.2-5.9,21.1-29.8,28.4-46.7c8.3-19.3,9-42.3,7.3-49.3
		s-3.3-12-3.3-12s-32.4,5.7-49.4,14.7c0,0-20.7,16-24.7,26.3S314,384,312.7,385z"/>
	<path class="st0" d="M369.9,373.4c0.8-2,1.5-4,2.1-6c3.1-9.4,7-20.8,4.9-30.8c-2-9.7-14.3-8.7-21.3-3.3s-12,18-15,29
		s-15.7,36.1-15.7,36.1s-45.7-9.7-51-11.7s-12.7-5.3-17.7-10s-18.3-11.7-23-17s-5.3-3.7-5-1.7s2.7,4.3,4.3,6.3c1.6,1.8,3.2,3.4,5,5
		c0,0-7.7-1.7-11.3-3s-5.3-3.3-6.3-1.7s0,3.7,3.3,5.3s16.3,5.3,16.3,5.3h-13.3c-2.7,0-6.3,1.7-4.7,3.3s10,0.7,12.3,0.7h7
		c0,0-9.3,3.3-12,3.7s-2.3,3-0.3,3.3s16.3-2.7,16.3-2.7s6,4.7,8.7,5.3c2.4,0.5,4.9,0.7,7.3,0.7c0,0,24,16,42,22.3
		c12.4,4.4,35.5,16.4,45.3,2.5C355.2,404.6,365.6,384.6,369.9,373.4z"/>
	<path class="st0" d="M361.4,230.2c0,0-7.1,9.3-7.9,14.3s0.4,7.9-2.1,9.3s-10,1.4-11.1,5c-1.1,3.6,3.9,10,3.9,10s0.7,16.1,2.1,19.6
		s14.3,4.3,14.3,4.3l-2.1,15.3l21.1-6.4l5.7-20.7c0,0,8.2-3.6,11.1-15s-2.1-23.2-14.6-30.7S361.4,230.2,361.4,230.2z"/>
	<polygon class="st1" points="360.6,292.7 371.3,293.8 359.9,299.8 	"/>
	<path class="st3" d="M348.8,279.6c0,0,6.8,1.1,10.4-3.6"/>
	<path class="st4" d="M358.9,252.8c-0.5,1.3-1.6,2.1-2.4,1.8s-1-1.6-0.4-2.9s1.6-2.2,2.4-1.9S359.4,251.5,358.9,252.8z"/>
	<path class="st3" d="M358.1,243c0,0,3.9-2.4,6.5,2.4"/>
	<path class="st0" d="M383.3,299c0,0-26.7,10-34.7,12.7s-16,19-16,19s39.7-13.3,47-15.3l5.7-0.7C385.3,314.7,387,301,383.3,299z"/>
	<path class="st1" d="M399.3,214.1c0,0-0.9,0.5,2.4-6.6s-12.7-13.7-31.1-8s-16,20.7-13.7,27.8s16,5.6,15.5,10.4s-3.3,9.4,1.9,13.7
		s0.9,3.3,2.4,5.7s6.1,0.9,7.5,1.9s5.2,4.2,0.9,10.8s-9,5.6-8,13.2s2.8,14.6,12.7,17.4s18.4,3.3,19.8-4.7s-3.8-9.9,1.9-13.2
		s21.2-4.7,23.1-20.3s-1.9-29.7-12.7-38.7C415.6,218.2,407.7,214.9,399.3,214.1z"/>
	<path class="st5" d="M390.6,291.9c2.4,4.3,7.3,6.1,10,5.1c4-1.5,4.5-9.1-0.5-10.1s-6.6,2-4,4.5"/>
	<path class="st5" d="M371.5,225.5c2.5,4,8.7,6.6,19.6,9.9c16.7,5.1,20.7,18.2,16.7,24.7s-16.2,13.1-18.2,23.2
		c-0.3,1.5-0.4,3.1-0.1,4.7"/>
	<path class="st5" d="M383.4,215.3c0,0,6.1-0.5,3-5.6s-14.6-1-16.1,8.1c-0.3,1.4-0.3,2.8-0.1,4.3"/>
	<path class="st5" d="M408.5,233.5c5.2,2.8,11.6,8.1,12.3,18.1c1,13.6-5,18.2-15.1,24.2s-5.6,11.1-5.6,11.1"/>
	<path class="st5" d="M401.6,230.9c1.4,0.3,2.7,0.7,4,1.3"/>
</g>
<g id="freepik--shopping-cart--inject-212">
	<path class="st6" d="M269.5,114.3c-15.3,4.6-27.4,16.5-32.3,31.7"/>
	<path class="st6" d="M293.5,113.4c-3.3-0.7-6.7-1.1-10.1-1.1c-2.3,0-4.6,0.2-6.8,0.5"/>
	<path class="st6" d="M329.6,175.1c7.7-24.9-5.7-51.5-30.3-60.1"/>
	<path class="st6" d="M325.1,185.2c1.3-2.3,2.5-4.6,3.4-7.1"/>
	<path class="st6" d="M263.1,204.7c18,8.3,39.2,4.8,53.5-8.8"/>
	<path class="st6" d="M255.4,200.2c1.4,1,2.9,1.9,4.4,2.8"/>
	<path class="st6" d="M235.6,153c-2.7,16.7,3.5,33.6,16.4,44.6"/>
	
		<ellipse transform="matrix(0.1602 -0.9871 0.9871 0.1602 79.329 414.6401)" class="st7" cx="283.3" cy="160.7" rx="43.8" ry="43.8"/>
	<path class="st0" d="M310.3,189.8h-48.7c-1.4,0-2.6-1-2.8-2.4l-8.7-56.4h-10.8c-1.5,0-2.8-1.2-2.8-2.8c0-1.5,1.2-2.8,2.8-2.8h13.3
		c1.4,0,2.6,1,2.8,2.4l8.7,56.4h46.3c1.5,0,2.8,1.2,2.8,2.8C313.1,188.5,311.8,189.8,310.3,189.8
		C310.3,189.8,310.3,189.8,310.3,189.8L310.3,189.8z"/>
	<path class="st1" d="M235.8,124.7h4.6c1.8,0,3.3,1.5,3.3,3.3v0.4c0,1.8-1.5,3.3-3.3,3.3h-4.6c-1.8,0-3.3-1.5-3.3-3.3V128
		C232.5,126.2,234,124.7,235.8,124.7z"/>
	<polygon class="st1" points="257.4,178 262.8,178 262.2,174.1 256.7,174.1 	"/>
	<polygon class="st2" points="309.3,175.3 256.1,175.3 251.5,138.8 314,138.8 	"/>
	<path class="st0" d="M269.4,171.3L269.4,171.3c-1.5,0-2.7-1.2-2.7-2.7l0,0v-18.4c0-1.5,1.2-2.7,2.7-2.7l0,0c1.5,0,2.7,1.2,2.7,2.7
		v18.4C272.1,170.1,270.9,171.3,269.4,171.3z"/>
	<path class="st0" d="M278.8,171.3L278.8,171.3c-1.5,0-2.7-1.2-2.7-2.7l0,0v-18.4c0-1.5,1.2-2.7,2.7-2.7l0,0c1.5,0,2.7,1.2,2.7,2.7
		v18.4C281.5,170.1,280.3,171.3,278.8,171.3z"/>
	<path class="st0" d="M288.3,171.3L288.3,171.3c-1.5,0-2.7-1.2-2.7-2.7l0,0v-18.4c0-1.5,1.2-2.7,2.7-2.7l0,0c1.5,0,2.7,1.2,2.7,2.7
		v18.4C290.9,170.1,289.7,171.3,288.3,171.3z"/>
	<path class="st0" d="M297.7,171.3L297.7,171.3c-1.5,0-2.7-1.2-2.7-2.7l0,0v-18.4c0-1.5,1.2-2.7,2.7-2.7l0,0c1.5,0,2.7,1.2,2.7,2.7
		v18.4C300.3,170.1,299.1,171.3,297.7,171.3z"/>
	<circle class="st1" cx="273" cy="189.5" r="6.5"/>
	<circle class="st0" cx="273" cy="189.5" r="2.8"/>
	<circle class="st1" cx="295.2" cy="189.5" r="6.5"/>
	<path class="st0" d="M298,189.5c0-1.6-1.3-2.8-2.8-2.8s-2.8,1.3-2.8,2.8c0,1.6,1.3,2.8,2.8,2.8l0,0
		C296.7,192.3,298,191.1,298,189.5C298,189.5,298,189.5,298,189.5z"/>
	<line class="st3" x1="307" y1="144.7" x2="312.7" y2="144.7"/>
	<line class="st3" x1="299.7" y1="144.7" x2="303.8" y2="144.7"/>
	<line class="st3" x1="252.9" y1="144.7" x2="296.6" y2="144.7"/>
	<line class="st6" x1="283.3" y1="204.5" x2="283.3" y2="256"/>
	<circle class="st1" cx="283.3" cy="256" r="2.8"/>
	<circle class="st2" cx="316.6" cy="133.6" r="12.5"/>
	<path class="st4" d="M317.4,139h-0.1c-0.5,0-0.9-0.3-1.2-0.7l-4.8-8.1c-0.5-0.7-0.3-1.6,0.4-2.1c0.7-0.5,1.6-0.3,2.1,0.4
		c0,0,0.1,0.1,0.1,0.1l3.7,6.2l10.3-12.9c0.5-0.6,1.5-0.7,2.1-0.2c0.6,0.5,0.7,1.5,0.2,2.1l-11.7,14.6
		C318.3,138.8,317.9,139,317.4,139z"/>
</g>
<g id="freepik--Device--inject-212">
	<rect x="161.7" y="413" class="st8" width="99.5" height="8"/>
	<rect x="163.3" y="410.3" class="st8" width="6.9" height="2.6"/>
	<rect x="172.2" y="410.3" class="st8" width="6.9" height="2.6"/>
	<rect x="181.1" y="410.3" class="st8" width="6.9" height="2.6"/>
	<rect x="190" y="410.3" class="st8" width="6.9" height="2.6"/>
	<rect x="198.9" y="410.3" class="st8" width="6.9" height="2.6"/>
	<rect x="207.8" y="410.3" class="st8" width="6.9" height="2.6"/>
	<rect x="216.7" y="410.3" class="st8" width="6.9" height="2.6"/>
	<rect x="225.6" y="410.3" class="st8" width="6.9" height="2.6"/>
	<rect x="234.5" y="410.3" class="st8" width="6.9" height="2.6"/>
	<rect x="243.4" y="410.3" class="st8" width="6.9" height="2.6"/>
	<rect x="252.3" y="410.3" class="st8" width="6.9" height="2.6"/>
	<path class="st4" d="M152,421h-43.4c-5,0-9-4.1-9-9c0-0.5,0.1-1.1,0.2-1.6l19.4-102.5l4.7,0.9l-19.4,102.5c-0.4,2.3,1,4.4,3.3,4.9
		c0.3,0.1,0.5,0.1,0.8,0.1H152V421z"/>
	<polygon class="st4" points="121,302.5 114,304.6 119.4,333 127.9,331.4 	"/>
	<path class="st8" d="M137,391.4L137,391.4l-32.3-163.4l2.5,1.5c5.5,3.4,9.4,9,10.7,15.4l24.9,126
		C144.2,378.3,142.1,385.9,137,391.4z"/>
	<line class="st9" x1="439.7" y1="421" x2="453" y2="421"/>
	<line class="st9" x1="74.1" y1="421" x2="423.4" y2="421"/>
</g>
</svg>
