<?xml version="1.0" standalone="no"?>
<!DOCTYPE svg PUBLIC "-//W3C//DTD SVG 20010904//EN"
 "http://www.w3.org/TR/2001/REC-SVG-20010904/DTD/svg10.dtd">
<svg version="1.0" xmlns="http://www.w3.org/2000/svg"
 width="61.000000pt" height="64.000000pt" viewBox="0 0 61.000000 64.000000"
 preserveAspectRatio="xMidYMid meet">

<g transform="translate(0.000000,64.000000) scale(0.100000,-0.100000)"
fill="#000000" stroke="none">
<path d="M59 554 c-19 -24 -17 -108 3 -131 20 -21 24 -97 12 -212 -6 -50 -10
-61 -25 -61 -27 0 -23 -29 5 -40 13 -5 26 -15 29 -22 4 -10 8 -9 18 5 21 27
111 34 145 12 21 -13 36 -15 73 -9 l46 8 -40 7 c-37 6 -38 6 -8 8 47 2 52 21
6 22 l-38 2 40 6 c30 5 36 8 22 14 -30 12 -81 8 -104 -8 -16 -11 -36 -14 -76
-9 l-55 6 -6 52 c-11 98 -7 188 10 207 25 27 30 103 10 134 -19 28 -47 32 -67
9z"/>
<path d="M180 375 c-26 -32 15 -75 44 -45 8 9 6 11 -9 8 -12 -2 -21 3 -23 15
-3 15 0 18 17 12 24 -7 29 10 5 19 -21 8 -20 8 -34 -9z"/>
<path d="M256 374 c-19 -19 -17 -33 7 -48 24 -15 56 17 41 41 -15 24 -29 26
-48 7z m32 -21 c-4 -22 -22 -20 -26 1 -2 10 3 16 13 16 10 0 15 -7 13 -17z"/>
<path d="M327 383 c-11 -10 -8 -51 3 -58 6 -3 10 -1 10 5 0 6 5 8 11 4 8 -4 9
1 4 17 -9 30 -19 41 -28 32z"/>
<path d="M201 268 c-1 -20 -5 -26 -16 -22 -17 7 -21 -11 -4 -22 17 -10 31 11
26 42 l-4 29 -2 -27z"/>
<path d="M251 263 c-1 -31 12 -44 37 -35 6 2 12 17 12 34 0 17 -4 27 -10 23
-5 -3 -10 -16 -10 -28 0 -24 -16 -13 -23 18 -3 13 -5 9 -6 -12z"/>
<path d="M327 283 c-4 -3 -7 -17 -7 -29 0 -17 5 -22 20 -21 22 1 22 2 14 35
-6 22 -15 27 -27 15z"/>
<path d="M210 40 c0 -5 5 -10 11 -10 5 0 7 5 4 10 -3 6 -8 10 -11 10 -2 0 -4
-4 -4 -10z"/>
</g>
</svg>
