<?xml version="1.0" encoding="utf-8"?>
<!-- Generator: Adobe Illustrator 25.2.0, SVG Export Plug-In . SVG Version: 6.00 Build 0)  -->
<svg version="1.1" id="Layer_1" xmlns="http://www.w3.org/2000/svg" x="0px" y="0px" viewBox="0 0 500 500" style="enable-background:new 0 0 500 500;" xml:space="preserve">
<style type="text/css">
	.st0{fill:#EBEBEB;}
	.st1{fill:#E0E0E0;}
	.st2{fill:#F5F5F5;}
	.st3{fill:#FAFAFA;}
	.st4{fill:#FFFFFF;}
	.st5{fill:#263238;}
	.st6{fill:#FFC108;}
	.st7{fill:#455A64;}
	.st8{fill:#FF725E;}
	.st9{opacity:0.4;}
	.st10{fill:#B78876;}
	.st11{fill:#AA6550;}
	.st12{opacity:0.3;}
</style>
<g id="freepik--background-complete--inject-161">
	<path class="st0" d="M109.3,368h46.3c3.3,0,5.9-2.6,5.9-5.9v-14.2c0-5.5-4.5-9.9-9.9-9.9l0,0H109L109.3,368z"/>
	<path class="st0" d="M154.9,377h-91c-2.5,0-4.5-2-4.5-4.5l0,0l0,0c0-2.5,2-4.5,4.4-4.5c0,0,0,0,0,0h91c2.5,0,4.5,2,4.5,4.5l0,0
		C159.3,375,157.3,377,154.9,377z"/>
	<path class="st1" d="M45.3,248.5l50.1-0.9l31.8,120.2l-67.8,0.7L33.8,263.1c-1.5-6.3,2.4-12.7,8.7-14.3
		C43.4,248.6,44.3,248.5,45.3,248.5z"/>
	<polygon class="st0" points="70.2,377 55.2,464.1 59.3,464.1 79.1,377 	"/>
	<polygon class="st1" points="105.6,377 89.6,464.1 93.7,464.1 114.4,377 	"/>
	<polygon class="st0" points="144.6,377 162.4,464.1 158.3,464.1 135.8,377 	"/>
	<path class="st0" d="M89.6,247.6l24.8,120.3h19l-19.9-106.3c-1.5-8.1-8.6-14-16.8-14L89.6,247.6z"/>
	<rect x="166.5" y="288" class="st0" width="68.6" height="3.3"/>
	<polygon class="st0" points="245.7,291.4 258.5,243.2 205,243.2 193.4,291.4 	"/>
	<polygon class="st1" points="196.6,287.7 244.4,287.7 255.5,245.4 207.5,245.4 	"/>
	<rect x="152.9" y="301.2" class="st2" width="3.5" height="165.3"/>
	<rect x="156.4" y="301.7" class="st0" width="3.5" height="164.8"/>
	<rect x="366.2" y="301.2" class="st0" width="3.5" height="165.3"/>
	<rect x="369.7" y="301.7" class="st1" width="3.5" height="164.8"/>
	<rect x="138" y="291.6" class="st1" width="263" height="13.6"/>
	<rect x="252.2" y="305.2" class="st0" width="115.8" height="22.4"/>
	<path class="st1" d="M315.2,314.9c0,1.4-1.2,2.6-2.6,2.6s-2.6-1.2-2.6-2.6s1.2-2.6,2.6-2.6h0C314.1,312.3,315.2,313.4,315.2,314.9z
		"/>
	<rect x="37.3" y="136.7" class="st1" width="144.1" height="6.4"/>
	<rect x="60.9" y="139.8" class="st1" width="5.8" height="21.9"/>
	<rect x="148.2" y="139.8" class="st1" width="5.9" height="21.9"/>
	<path class="st0" d="M126.8,81.4c0.2-0.2,1.8,0.9,3.9,3.3c1.2,1.4,2.3,2.9,3.3,4.5c2.5,3.9,4.3,8.2,5.4,12.6c0.5,1.8,0.8,3.7,1,5.6
		c0.3,3.2,0,5.2-0.3,5.2c-0.8,0.1-1.4-7.7-5.2-16.3S126.2,81.9,126.8,81.4z"/>
	<path class="st0" d="M142.6,119c-0.3,0-1.2-4.2-2.1-11.1s-1.6-16.6-1.8-27.2s-0.2-20.3,0-27.3s0.5-11.3,0.9-11.3s0.7,4.3,0.9,11.3
		s0.4,16.6,0.7,27.2s0.7,20.2,1.1,27.1S143,119,142.6,119z"/>
	<path class="st0" d="M158,58.5c0.3,0.2-1,3.1-2.7,8.1s-4,11.8-6.1,19.6s-3.8,14.8-4.7,19.9s-1.4,8.4-1.8,8.3s-0.6-3.3,0-8.6
		c0.8-6.9,2.2-13.7,4.1-20.3c1.8-6.7,4.1-13.2,6.9-19.5C155.8,61.1,157.7,58.3,158,58.5z"/>
	<path class="st1" d="M122.9,110.2v8.5c0,9.9,7.9,18,17.8,18.1l0,0c9.9-0.1,17.9-8.2,17.9-18.1v-8.5H122.9z"/>
	<path class="st3" d="M158.9,117.3c0,0.2-8.1,0.3-18,0.3s-18-0.1-18-0.3s8.1-0.3,18-0.3S158.9,117.2,158.9,117.3z"/>
	<path class="st3" d="M158.9,119.7c0,0.1-8.1,0.3-18,0.3s-18-0.1-18-0.3s8.1-0.3,18-0.3S158.9,119.5,158.9,119.7z"/>
	<rect x="55.5" y="108" transform="matrix(1 -5.236017e-03 5.236017e-03 1 -0.5854 0.395)" class="st1" width="39.3" height="8"/>
	
		<rect x="55.7" y="124.4" transform="matrix(1 -5.236017e-03 5.236017e-03 1 -0.6827 0.4082)" class="st2" width="43.8" height="12.4"/>
	<path class="st1" d="M91.1,136.6c-0.2-2.1-0.3-4.1-0.2-6.2c-0.1-2.1,0-4.2,0.2-6.2c0.2,2.1,0.3,4.1,0.2,6.2
		C91.4,132.5,91.3,134.5,91.1,136.6z"/>
	<path class="st1" d="M93,136.6c-0.2-2.1-0.3-4.1-0.2-6.2c-0.1-2.1,0-4.2,0.2-6.2c0.2,2.1,0.3,4.1,0.2,6.2
		C93.3,132.5,93.2,134.5,93,136.6z"/>
	<path class="st1" d="M62.3,136.6c-0.2-2.1-0.3-4.1-0.2-6.2c-0.1-2.1,0-4.2,0.2-6.2c0.2,2.1,0.3,4.1,0.2,6.2
		C62.6,132.5,62.5,134.5,62.3,136.6z"/>
	<path class="st1" d="M64.2,136.6c-0.2-2.1-0.3-4.1-0.2-6.2c-0.1-2.1,0-4.2,0.2-6.2c0.2,2.1,0.3,4.1,0.2,6.2
		C64.4,132.5,64.4,134.5,64.2,136.6z"/>
	<path class="st1" d="M68.2,130.6c0-0.1,4.4-0.2,9.9-0.2s9.9,0.1,9.9,0.2s-4.4,0.2-9.9,0.2S68.2,130.7,68.2,130.6z"/>
	
		<rect x="61.9" y="115.9" transform="matrix(1 -5.236017e-03 5.236017e-03 1 -0.6264 0.4674)" class="st0" width="54.1" height="8"/>
	<ellipse class="st1" cx="108.3" cy="120.1" rx="2.6" ry="2.6"/>
	<rect x="65" y="119.3" class="st1" width="36.2" height="1.6"/>
	<rect x="394.3" y="59.1" class="st1" width="71.7" height="103.9"/>
	<rect x="390.7" y="59.1" class="st2" width="71.7" height="103.9"/>
	<rect x="399.6" y="70.4" class="st4" width="53.9" height="81.4"/>
	<path class="st1" d="M453.4,151.8c0,0,0-0.1,0-0.4s0-0.6,0-1.2c0-1,0-2.5,0-4.5c0-3.9,0-9.6,0-16.8c0-14.3,0-34.7-0.1-58.6l0.2,0.2
		h-53.9l0,0l0.2-0.2c0,30.7,0,59,0,81.4l-0.2-0.2l39.2,0.1h10.8h2.9c0.6,0,1,0,1,0h-1h-2.8H439l-39.3,0.1h-0.1v-0.1
		c0-22.4,0-50.7,0-81.4V70h0.2h53.9h0.2v0.2c0,24-0.1,44.3-0.1,58.7c0,7.2,0,12.8,0,16.7c0,1.9,0,3.4,0,4.4c0,0.5,0,0.9,0,1.1
		S453.4,151.8,453.4,151.8z"/>
	<path class="st1" d="M462.5,59.1c-0.4,0.7-0.8,1.3-1.3,1.9c-0.8,1.1-2,2.6-3.4,4.3c-1.4,1.6-2.6,3.1-3.5,4.1
		c-0.5,0.6-1,1.1-1.6,1.6c0.4-0.6,0.9-1.2,1.4-1.8l3.4-4.2l3.4-4.2C461.5,60.2,462,59.6,462.5,59.1z"/>
	<path class="st4" d="M453.7,151.5c2.7,4.3,5.8,8.2,9.4,11.8"/>
	<path class="st1" d="M463.1,163.2c-0.6-0.4-1.2-0.9-1.6-1.5c-2.5-2.5-4.7-5.3-6.7-8.3c-0.4-0.6-0.8-1.2-1.1-1.9
		c0.5,0.6,0.9,1.1,1.3,1.8c0.8,1.1,1.9,2.6,3.2,4.3s2.5,3,3.4,4.1C462.2,162.1,462.7,162.6,463.1,163.2z"/>
	<path class="st4" d="M390.6,162.9l9.4-11.6"/>
	<path class="st1" d="M400,151.3c-1.4,2.1-2.9,4-4.5,5.9c-1.5,2-3.1,3.9-4.8,5.7c-0.1-0.1,2-2.7,4.5-5.9
		C396.7,155,398.3,153.1,400,151.3z"/>
	<path class="st1" d="M390.7,59.1c1.6,1.7,3.1,3.6,4.6,5.5c1.5,1.8,2.9,3.7,4.3,5.7c-1.6-1.7-3.1-3.5-4.6-5.4
		C393.4,63,392,61.1,390.7,59.1z"/>
	<rect x="418.6" y="86.9" class="st1" width="18" height="51.2"/>
</g>
<g id="freepik--Floor--inject-161">
	<path class="st5" d="M479.9,464.9c0,0.1-99.9,0.3-223,0.3s-223.1-0.1-223.1-0.3s99.9-0.3,223.1-0.3S479.9,464.8,479.9,464.9z"/>
</g>
<g id="freepik--Plant--inject-161">
	<path class="st6" d="M406.6,378.3c9.6,3.4,22.2,0.4,30.4-5.6s14.1-14.6,19.4-23.4c2.2-3.7,4.4-7.6,5.1-11.9s-0.3-9.1-3.7-11.9
		c-5.2-4.4-13.1-2.1-19,1.2C420.3,337.6,408.2,356.9,406.6,378.3"/>
	<path class="st6" d="M417,401.4c5.8,7.6,15.7,11,25.3,11.5s19-2.2,27.9-5.6c3.2-1.2,6.8-3,7.9-6.2c0.7-2.6,0.1-5.3-1.7-7.4
		c-1.8-2-4-3.5-6.5-4.4c-8.8-3.7-18.9-3.9-28.1-1.5S424.5,395.5,417,401.4"/>
	<path class="st6" d="M406.5,337.1c8,0.2,14-6.8,17.6-13.9c5-9.9,6.7-21.2,4.7-32.2c-0.7-4.1-2.3-8.5-5.9-10.4s-8.5-0.7-11.6,2.2
		s-4.8,6.9-6,10.9C401,307.5,401.9,323.4,406.5,337.1"/>
	<path class="st6" d="M380.3,381.2c13.6-23.1,15.8-51.4,7.8-76.9c-1.3-4.1-3.8-8.9-8.1-9.2c-4.8-0.3-7.8,5.1-9.1,9.7
		c-4.7,16.2-3.7,33.5-2.6,50.3C368.9,365.5,372.5,374.3,380.3,381.2"/>
	<path class="st6" d="M366.2,390.7c-5.1-16-17.2-28.9-32.9-34.9c-3.6-1.4-8.2-2.1-10.9,0.6s-1.8,7.2-0.1,10.6
		c2.7,5.5,7.2,9.8,11.6,14c4,3.8,8.2,7.7,13.3,9.9S361.6,393.7,366.2,390.7"/>
	<path class="st5" d="M450.4,331.3c0,0-0.1,0.1-0.2,0.2l-0.7,0.6l-2.8,2.1l-2.1,1.5c-0.7,0.6-1.5,1.2-2.4,1.9
		c-1.7,1.4-3.7,2.9-5.7,4.8l-3.2,2.9c-1.1,1-2.2,2.2-3.3,3.3c-2.3,2.3-4.6,4.9-7,7.6c-10.3,12-18.7,25.5-24.8,40.1
		c-1.3,3.4-2.7,6.6-3.6,9.7c-0.5,1.5-1.1,3-1.5,4.5l-1.2,4.2c-0.8,2.6-1.3,5.1-1.8,7.2c-0.2,1.1-0.5,2.1-0.7,3s-0.3,1.8-0.4,2.5
		c-0.3,1.5-0.5,2.6-0.6,3.5c-0.1,0.4-0.1,0.7-0.2,0.9s-0.1,0.3-0.1,0.3c0-0.1,0-0.2,0-0.3c0-0.2,0.1-0.5,0.1-0.9
		c0.1-0.9,0.3-2,0.5-3.5c0.1-0.8,0.3-1.6,0.4-2.5s0.4-1.9,0.6-3c0.5-2.1,0.9-4.6,1.7-7.3c0.4-1.3,0.7-2.7,1.1-4.2s0.9-2.9,1.4-4.5
		c1-3.1,2.3-6.3,3.6-9.7c6.1-14.7,14.5-28.3,24.9-40.3c2.5-2.7,4.7-5.3,7.1-7.6c1.2-1.1,2.2-2.3,3.4-3.3l3.2-2.9
		c2-1.9,4-3.4,5.7-4.8c0.9-0.7,1.6-1.3,2.4-1.9l2.1-1.5l2.9-2l0.8-0.5C450.3,331.4,450.4,331.3,450.4,331.3z"/>
	<path class="st5" d="M468.4,395.4c-0.3,0-0.6-0.1-0.9-0.1c-0.6-0.1-1.5-0.4-2.6-0.5c-25.2-5-51.1,3.8-68.1,23
		c-2.2,2.5-4.2,5.1-6.1,7.8c-0.7,1-1.1,1.7-1.5,2.3c-0.2,0.3-0.3,0.5-0.5,0.8c0.1-0.3,0.3-0.6,0.4-0.8c0.3-0.5,0.7-1.3,1.4-2.3
		c1.8-2.8,3.8-5.5,5.9-8c14.6-16.9,36.3-26,58.6-24.3c3.3,0.2,6.6,0.7,9.9,1.4c1.1,0.2,2,0.5,2.6,0.6
		C467.8,395.1,468.1,395.2,468.4,395.4z"/>
	<path class="st5" d="M418.2,289.9c0,0.1,0,0.2,0,0.4c-0.1,0.3-0.1,0.6-0.2,1c-0.2,1-0.5,2.3-0.9,4c-0.8,3.5-2,8.4-3.5,14.6
		c-3,12.3-7.3,29.2-11.9,48c-2.3,9.4-4.3,18.4-6,26.5s-3.2,15.6-4.3,21.8c-0.6,3.1-1,5.9-1.5,8.4s-0.8,4.6-1,6.4s-0.5,3.1-0.6,4
		c-0.1,0.4-0.1,0.8-0.2,1s-0.1,0.4-0.1,0.4c0-0.1,0-0.2,0-0.4c0-0.3,0.1-0.6,0.1-1.1c0.1-1,0.3-2.3,0.5-4s0.5-3.9,0.9-6.4
		s0.8-5.3,1.4-8.4c1-6.3,2.5-13.6,4.2-21.9s3.7-17.2,6-26.6c4.5-18.8,9-35.7,12-48l3.7-14.5c0.4-1.7,0.8-3,1-4
		c0.1-0.4,0.2-0.8,0.3-1C418.1,290.1,418.2,290,418.2,289.9z"/>
	<path class="st5" d="M387,424.5c0-0.1-0.1-0.2-0.1-0.3l-0.2-0.8c-0.2-0.8-0.4-1.9-0.7-3.2c-0.6-2.8-1.3-6.9-2.2-11.9
		c-1.7-10-3.8-24-5.1-39.5c-0.6-7.8-1-15.2-1.1-21.9s0-12.8,0.2-17.9c0.1-2.5,0.2-4.9,0.3-6.9s0.2-3.8,0.4-5.2s0.2-2.5,0.3-3.3
		c0-0.3,0.1-0.6,0.1-0.9s0-0.3,0.1-0.3c0,0.1,0,0.2,0,0.3c0,0.2,0,0.5,0,0.9c0,0.8-0.1,1.9-0.2,3.3s-0.2,3.2-0.3,5.2
		s-0.2,4.3-0.2,6.9c-0.1,5.1-0.2,11.2,0,17.9s0.5,14.1,1.1,21.9c1.3,15.5,3.3,29.5,4.9,39.5c0.8,5,1.5,9.1,2,11.9
		c0.2,1.4,0.4,2.5,0.5,3.2c0,0.3,0.1,0.6,0.1,0.9C387.1,424.3,387.1,424.4,387,424.5z"/>
	<path class="st5" d="M388,427.4c-0.1-0.3-0.3-0.5-0.4-0.8l-0.9-2.3c-0.2-0.5-0.4-1.1-0.6-1.7l-0.9-2c-0.3-0.7-0.6-1.5-1-2.3
		s-0.8-1.6-1.2-2.5s-0.9-1.8-1.4-2.7l-1.7-2.8c-1.1-2-2.5-4-3.9-6.1c-3.1-4.5-6.5-8.9-10.1-13.1c-3.7-4.1-7.6-8-11.7-11.8
		c-2-1.6-3.7-3.3-5.5-4.7l-2.6-2l-2.4-1.8c-1.5-1.2-3-2.1-4.3-3s-2.4-1.6-3.3-2.2l-2.2-1.4c-0.3-0.1-0.5-0.3-0.7-0.5
		c0.3,0.1,0.5,0.2,0.8,0.4l2.2,1.2c1,0.5,2.1,1.2,3.4,2.1s2.8,1.8,4.3,2.9l2.5,1.8l2.6,2c1.8,1.4,3.6,3,5.6,4.6
		c4.2,3.7,8.1,7.6,11.8,11.8c3.7,4.2,7.1,8.6,10.2,13.2c1.4,2.2,2.8,4.2,3.8,6.2c0.6,1,1.1,2,1.6,2.9l1.4,2.7
		c0.4,0.9,0.9,1.7,1.2,2.5l1,2.3l0.8,2c0.2,0.6,0.4,1.2,0.6,1.7c0.3,1,0.6,1.8,0.8,2.4C388,426.9,388,427.2,388,427.4z"/>
	<path class="st5" d="M445.4,358.1c0,0.1-1.6,0.1-4.3,0.2c-3.4,0.2-6.9,0.6-10.3,1.2c-3.4,0.7-6.7,1.5-10,2.6
		c-2.5,0.8-4,1.4-4.1,1.3c0.3-0.2,0.6-0.4,1-0.5c0.7-0.3,1.7-0.8,2.9-1.2c6.5-2.4,13.4-3.7,20.4-3.9c1.3,0,2.4,0,3.1,0.1
		C444.6,358,445,358,445.4,358.1z"/>
	<path class="st5" d="M455.6,408.1c-0.2,0.1-1.7-4.3-5.6-8.4s-8.1-6-8-6.2c1,0.3,1.9,0.7,2.8,1.2c4.3,2.5,7.7,6.1,9.8,10.6
		C455,406.2,455.4,407.1,455.6,408.1z"/>
	<path class="st5" d="M420.7,308.6c0.1,0.1-2.4,2.6-5.1,6s-4.7,6.3-4.8,6.2s1.6-3.2,4.3-6.6C416.7,312.1,418.5,310.2,420.7,308.6z"
		/>
	<path class="st5" d="M412.5,294.5c0.2,0,0.7,2.4,1.2,5.4s0.8,5.4,0.6,5.5s-0.7-2.4-1.2-5.4S412.3,294.5,412.5,294.5z"/>
	<path class="st5" d="M387.1,338.9c0.1,0.1-1.6,3.8-4,8.4s-4.4,8.1-4.5,8.1s1.6-3.8,4-8.4S386.9,338.8,387.1,338.9z"/>
	<path class="st5" d="M372,323.8c0.2-0.1,1.7,2.6,3.4,6s3,6.3,2.8,6.3s-1.7-2.6-3.4-6S371.8,323.9,372,323.8z"/>
	<path class="st5" d="M349.7,375.4c0,0.2-2.7-0.3-6.1-0.6s-6.1-0.1-6.1-0.3s2.7-0.6,6.2-0.4S349.8,375.3,349.7,375.4z"/>
	<path class="st5" d="M364.9,421l7.6,39.7c0.5,2.6,2.8,4.5,5.5,4.5h22.3c2.7,0,5-2,5.5-4.7l6.6-39.6H364.9z"/>
	<polygon class="st7" points="367.4,434 410.1,434 412.3,421 364.9,421 	"/>
	<polygon class="st3" points="367.4,434 368.3,438.7 409.4,438.7 410.1,434 	"/>
</g>
<g id="freepik--Character--inject-161">
	<path class="st8" d="M193.6,459.7l2.6-11l21.4,0.5l-1.8,15.6l-1.4,0.1c-6.1,0.4-30.9,1.7-35,0.5C175,464.1,193.6,459.7,193.6,459.7
		z"/>
	<g class="st9">
		<path d="M207.8,464.8c0.3-1.9,1.3-3.5,2.8-4.7c1.4-1.2,3.3-1.8,5.1-1.7l0.1,6.1L207.8,464.8z"/>
	</g>
	<g class="st9">
		<path d="M184.5,462.2c0,0-6.5,2-5.7,3s26,0.8,37-0.4v-0.5l-29.3,0.6C186.5,465,185.8,462.2,184.5,462.2z"/>
	</g>
	<path class="st5" d="M216.1,464.4c-0.1,0-0.3,0-0.4,0l-1.1,0.1l-4,0.2c-3.4,0.2-8,0.3-13.2,0.4s-9.8,0-13.2,0l-4-0.1h-1.1h-0.4
		c0.1,0,0.3,0,0.4,0h1.1h4c3.4,0,8,0,13.2,0s9.8-0.2,13.2-0.3l4-0.1h1.1L216.1,464.4z"/>
	<path class="st5" d="M186.5,465.4c-0.2-0.7-0.4-1.3-0.8-1.9c-0.4-0.6-0.9-1.1-1.4-1.5c0.7,0.2,1.3,0.7,1.6,1.4
		C186.4,463.9,186.6,464.6,186.5,465.4z"/>
	<path class="st5" d="M192.9,462c-0.1,0-0.4-0.3-0.7-0.8s-0.5-0.9-0.5-1s0.4,0.3,0.7,0.8S193,461.9,192.9,462z"/>
	<path class="st5" d="M194.7,461c0,0-0.4-0.2-0.8-0.5s-0.7-0.7-0.6-0.7s0.4,0.2,0.8,0.5S194.8,461,194.7,461z"/>
	<path class="st5" d="M195.8,458.9c-0.4,0.1-0.8,0.2-1.1,0.2c-0.4,0-0.8,0-1.1-0.1c0.4-0.1,0.8-0.2,1.1-0.2
		C195,458.8,195.4,458.8,195.8,458.9z"/>
	<path class="st5" d="M196.2,457.5c-0.8,0.4-1.7,0.5-2.6,0.2c0.4-0.1,0.9-0.1,1.3-0.1C195.3,457.5,195.7,457.5,196.2,457.5z"/>
	<path class="st5" d="M192.2,460.1c-0.5,0.1-1,0.1-1.4,0c-0.5-0.1-1-0.2-1.5-0.3c-0.3-0.1-0.6-0.2-0.9-0.4c-0.2-0.1-0.3-0.2-0.4-0.4
		c0-0.2,0-0.4,0.2-0.6c1.1-0.6,2.5-0.3,3.2,0.7c0.2,0.3,0.4,0.6,0.5,0.9c0.1,0.2,0.1,0.4,0,0.4c-0.1-0.4-0.4-0.8-0.7-1.2
		c-0.3-0.4-0.7-0.6-1.2-0.8c-0.6-0.2-1.2-0.1-1.7,0.1c-0.2,0.2-0.1,0.4,0.1,0.6c0.3,0.1,0.5,0.3,0.8,0.3c0.5,0.2,1,0.3,1.5,0.4
		C191.6,460,192.2,460,192.2,460.1z"/>
	<path class="st5" d="M191.8,460.1c-0.2-0.3-0.2-0.7-0.2-1c0-0.4,0.2-0.7,0.4-1c0.2-0.4,0.7-0.7,1.2-0.7c0.3,0.1,0.5,0.3,0.4,0.6
		c0,0.2-0.1,0.4-0.2,0.6c-0.2,0.3-0.4,0.6-0.7,0.9c-0.4,0.4-0.8,0.6-0.8,0.6s0.3-0.3,0.7-0.7c0.2-0.3,0.4-0.6,0.6-0.9
		c0.2-0.3,0.3-0.8,0-0.9s-0.7,0.3-0.9,0.6c-0.2,0.3-0.3,0.6-0.4,0.9C191.8,459.5,191.8,459.8,191.8,460.1z"/>
	<path class="st5" d="M215.6,458.4c0,0-0.6,0-1.6,0.1c-2.6,0.3-4.9,2.1-5.7,4.7c-0.3,1-0.4,1.6-0.4,1.6c0-0.1,0-0.3,0-0.4
		c0-0.4,0.1-0.8,0.2-1.2c0.8-2.7,3.1-4.6,5.9-4.8c0.4,0,0.8,0,1.2,0C215.3,458.3,215.5,458.3,215.6,458.4z"/>
	<path class="st5" d="M213.2,449.2c0.2,1.5,0.2,3,0.3,4.5c0.1,1.5,0.1,3,0,4.5c-0.2-1.5-0.3-3-0.3-4.5
		C213.1,452.3,213.1,450.7,213.2,449.2z"/>
	<path class="st5" d="M205,462.7c-2.1,0.4-4.3,0.5-6.4,0.1c0-0.1,1.4,0,3.2,0S205,462.6,205,462.7z"/>
	<path class="st5" d="M209.3,462.6c0.1,0-0.1,0.3-0.3,0.6s-0.2,0.6-0.3,0.6s-0.1-0.3,0.1-0.7S209.3,462.6,209.3,462.6z"/>
	<path class="st5" d="M210.9,460.6c0.1,0-0.1,0.3-0.3,0.5s-0.4,0.4-0.5,0.3s0.1-0.3,0.3-0.5S210.9,460.5,210.9,460.6z"/>
	<path class="st5" d="M213.3,459.6c0,0.1-0.3,0.1-0.6,0.2s-0.6,0.3-0.6,0.3s0.1-0.4,0.5-0.5S213.3,459.6,213.3,459.6z"/>
	<path class="st5" d="M214.9,459.2c0,0.1-0.1,0.2-0.3,0.3s-0.4,0.1-0.4,0s0.1-0.2,0.3-0.3S214.9,459.1,214.9,459.2z"/>
	<path class="st8" d="M281.3,459.8l0.1-11.7l-22-0.3l-0.3,17.2l1.4,0.1c6.1,0.4,30.9,1.7,35,0.5
		C299.9,464.2,281.3,459.8,281.3,459.8z"/>
	<g class="st9">
		<path d="M267,464.9c-0.3-1.9-1.3-3.5-2.8-4.7c-1.4-1.2-3.3-1.8-5.1-1.7l-0.1,6.1L267,464.9z"/>
	</g>
	<g class="st9">
		<path d="M290.4,462.3c0,0,6.5,2,5.7,3s-26,0.8-37-0.4v-0.5l29.3,0.6C288.4,465,289.1,462.3,290.4,462.3z"/>
	</g>
	<path class="st5" d="M258.8,464.4h0.4l1.1,0.1l4,0.2c3.4,0.2,8,0.3,13.2,0.4s9.8,0,13.2,0l4-0.1h1.1h0.4c-0.1,0-0.3,0-0.4,0h-1.1
		h-4c-3.4,0-8,0-13.2,0s-9.8-0.2-13.2-0.3l-4-0.1h-1.1L258.8,464.4z"/>
	<path class="st5" d="M288.4,465.4c0.2-0.7,0.4-1.3,0.8-1.9c0.4-0.6,0.9-1.1,1.4-1.5c-0.7,0.2-1.3,0.7-1.6,1.4
		C288.5,464,288.3,464.7,288.4,465.4z"/>
	<path class="st5" d="M281.9,462c0.1,0,0.4-0.3,0.7-0.8s0.5-0.9,0.5-1s-0.4,0.3-0.7,0.8S281.9,462,281.9,462z"/>
	<path class="st5" d="M280.2,461.1c0,0,0.4-0.2,0.8-0.5s0.6-0.6,0.6-0.7s-0.4,0.2-0.8,0.5S280.1,461,280.2,461.1z"/>
	<path class="st5" d="M279.1,459c0.4,0.1,0.8,0.2,1.1,0.2c0.4,0.1,0.8,0,1.1-0.1c-0.4-0.1-0.8-0.2-1.1-0.2
		C279.8,458.8,279.4,458.9,279.1,459z"/>
	<path class="st5" d="M278.7,457.5c0.8,0.4,1.7,0.5,2.6,0.2c-0.4-0.1-0.9-0.1-1.3-0.1C279.6,457.5,279.1,457.5,278.7,457.5z"/>
	<path class="st5" d="M282.7,460.1c0.5,0.1,1,0.1,1.4,0c0.5-0.1,1-0.2,1.5-0.3c0.3-0.1,0.6-0.2,0.9-0.3c0.2-0.1,0.3-0.3,0.4-0.4
		c0-0.2,0-0.4-0.2-0.6c-1.1-0.6-2.4-0.3-3.2,0.7c-0.2,0.3-0.4,0.6-0.5,0.9c0,0.1,0,0.3,0,0.4c0.1-0.4,0.4-0.8,0.7-1.2
		c0.3-0.4,0.7-0.6,1.2-0.8c0.6-0.2,1.2-0.1,1.7,0.1c0.2,0.2,0.1,0.4-0.1,0.6c-0.3,0.1-0.5,0.2-0.8,0.3c-0.5,0.2-1,0.3-1.5,0.4
		C283.3,460.1,282.7,460.1,282.7,460.1z"/>
	<path class="st5" d="M283.1,460.2c0.2-0.3,0.2-0.7,0.2-1c0-0.4-0.2-0.7-0.4-1c-0.2-0.4-0.7-0.7-1.2-0.7c-0.3,0.1-0.5,0.4-0.4,0.6
		c0,0.2,0.1,0.4,0.2,0.6c0.2,0.3,0.4,0.6,0.7,0.9c0.4,0.4,0.8,0.6,0.8,0.6s-0.3-0.3-0.7-0.7c-0.2-0.3-0.4-0.5-0.6-0.9
		c-0.2-0.3-0.3-0.8,0-0.9s0.7,0.3,0.9,0.6c0.2,0.3,0.3,0.6,0.4,0.9C283.1,459.6,283.1,459.9,283.1,460.2z"/>
	<path class="st5" d="M259.3,458.4c0,0,0.6,0,1.6,0.1c2.6,0.3,4.9,2.1,5.7,4.7c0.3,0.9,0.4,1.6,0.4,1.6c0-0.1,0-0.3,0-0.4
		c0-0.4-0.1-0.8-0.2-1.2c-0.4-1.3-1.1-2.4-2.2-3.3c-1.1-0.8-2.3-1.4-3.7-1.5c-0.4,0-0.8,0-1.2,0
		C259.6,458.3,259.4,458.4,259.3,458.4z"/>
	<path class="st5" d="M261.7,449.3c-0.2,1.5-0.2,3-0.3,4.5c-0.1,1.5-0.1,3,0,4.5c0.2-1.5,0.3-3,0.3-4.5
		C261.8,452.3,261.8,450.8,261.7,449.3z"/>
	<path class="st5" d="M269.8,462.8c2.1,0.4,4.3,0.5,6.4,0.1c0-0.1-1.5,0-3.2,0S269.9,462.7,269.8,462.8z"/>
	<path class="st5" d="M265.5,462.7c-0.1,0,0.1,0.3,0.3,0.6s0.2,0.6,0.3,0.6s0.1-0.4,0-0.7S265.6,462.6,265.5,462.7z"/>
	<path class="st5" d="M263.9,460.6c-0.1,0,0.1,0.3,0.3,0.5s0.5,0.4,0.5,0.3s-0.1-0.3-0.3-0.5S264,460.6,263.9,460.6z"/>
	<path class="st5" d="M261.6,459.7c0,0.1,0.3,0.1,0.6,0.2s0.5,0.3,0.6,0.2s-0.1-0.4-0.5-0.5S261.6,459.6,261.6,459.7z"/>
	<path class="st5" d="M260,459.2c0,0.1,0.1,0.2,0.3,0.3s0.4,0.1,0.4,0s-0.1-0.2-0.3-0.3S260,459.2,260,459.2z"/>
	<polygon class="st5" points="293.8,245.3 283.8,457 256.3,457.6 258.5,274.1 217.4,458 194,456.9 230.6,245.8 	"/>
	<path class="st7" d="M265.2,248.2c0,1.2-0.1,2.3-0.3,3.5c-0.2,2.1-0.6,5.1-1,8.3c-0.1,1.5-0.4,3.1-0.8,4.6c-0.3,1.3-1,2.4-2,3.3
		c-0.7,0.6-1.5,1-2.3,1.1c-0.3,0.1-0.6,0.1-1,0c2.4-0.4,4.3-2.2,4.8-4.6c0.3-1.5,0.6-3,0.7-4.5c0.4-3.3,0.8-6.2,1.2-8.3
		C264.7,250.4,264.9,249.3,265.2,248.2z"/>
	<path class="st7" d="M258.4,249.4c0.1,0.1-0.2,0.4,0,0.9c0.1,0.3,0.3,0.5,0.6,0.7c0.3,0.1,0.7,0,1-0.2c0.3-0.2,0.4-0.6,0.3-1
		c-0.1-0.3-0.4-0.5-0.6-0.6c-0.5-0.2-0.9,0-1-0.1s0.3-0.5,1.1-0.4c0.4,0.1,0.8,0.4,1,0.8c0.3,0.8-0.1,1.6-0.9,1.9
		c-0.4,0.1-0.8,0.1-1.1,0c-0.4-0.2-0.7-0.6-0.7-1.1C257.9,249.7,258.4,249.4,258.4,249.4z"/>
	<path class="st7" d="M241,253.1c-0.9-1.9-0.7-4.1,0.4-5.9c0.2,0.1-0.3,1.3-0.4,2.9S241.2,253,241,253.1z"/>
	<path class="st7" d="M244.9,252.7c-0.8-2-0.8-4.2,0.2-6.1c0,1-0.1,2-0.2,3C245,250.6,245,251.7,244.9,252.7z"/>
	<path class="st7" d="M278.7,252.3c-0.1-1.1,0-2.1,0.1-3.2c-0.1-1.1-0.1-2.1,0-3.2C279.6,248,279.5,250.3,278.7,252.3L278.7,252.3z"
		/>
	<path class="st7" d="M283,251.9c-0.2-0.1,0.3-1.4,0.4-3.2s-0.3-3.2-0.1-3.2c0.6,1,0.9,2.1,0.7,3.3C284,249.8,283.7,251,283,251.9z"
		/>
	<polygon class="st8" points="246.6,149.7 246.6,149.7 246.6,149.7 	"/>
	<path class="st5" d="M276.7,112.6c1.1-1.3,2-3.7,1.3-5.3c1.3-0.7,1.5-1.9,1.5-3.4c-0.1-1.5-0.5-3-1.3-4.3c-1.1-2.2-2.7-4-4.8-5.3
		c-2.2-1.2-4.8-1.1-6.9,0.3c-3-3.5-8.2-4-11.7-1c-0.1,0.1-0.1,0.1-0.2,0.2c-0.5,0.6-1.1,1.2-1.8,1.7c-1.2,0.7-2.6,0.4-4,0.5
		c-3.9,0.3-6.7,3.7-6.4,7.6c0.1,0.8,0.3,1.5,0.6,2.2c-1.9,1.3-3.1,3.5-3.2,5.8c-0.1,2.3,0.2,4.6,0.8,6.8c0.6,2.8,1.3,5.7,3.3,7.7
		c1.4,1.4,3.2,2.3,5.1,2.4c2.8,0.2,5.5-1.1,7.2-3.4"/>
	<path class="st10" d="M247.4,159.8l22.2-1c0.1-2.4-1.1-17-1.1-17s8.4-1.3,8.5-9.7s-1.4-27.7-1.4-27.7l0,0
		c-9.7-4.2-20.9-2.8-29.3,3.7l-1.2,1L247.4,159.8z"/>
	<path class="st11" d="M268.6,141.7c-3.9,0.1-7.7-1-11-3.1c0,0,2.6,6,11,5.3V141.7z"/>
	<path class="st10" d="M246.2,117.8c-0.1-0.1-5.8-1.7-5.6,4s5.9,4.4,5.9,4.2S246.2,117.8,246.2,117.8z"/>
	<path class="st11" d="M244.7,123.9c0,0-0.1,0.1-0.3,0.2c-0.2,0.1-0.5,0.1-0.7,0c-0.8-0.5-1.2-1.3-1.2-2.2c0-0.5,0.1-1,0.2-1.4
		c0.1-0.4,0.4-0.7,0.7-0.8c0.2-0.1,0.5,0,0.6,0.3c0.1,0.2,0.1,0.3,0.1,0.3s0.1-0.1,0.1-0.3c0-0.1-0.1-0.3-0.2-0.3
		c-0.2-0.1-0.4-0.2-0.6-0.1c-0.5,0.1-0.8,0.5-1,0.9c-0.2,0.5-0.3,1.1-0.3,1.6c0,1,0.6,2,1.5,2.4c0.3,0.1,0.6,0,0.9-0.2
		C244.7,124,244.7,123.9,244.7,123.9z"/>
	<path class="st5" d="M273.9,117.6c0,0.6-0.5,1.2-1.1,1.2c-0.6,0.1-1.2-0.4-1.2-1.1c0,0,0,0,0,0c0-0.6,0.5-1.2,1.1-1.2
		C273.3,116.5,273.8,116.9,273.9,117.6C273.9,117.6,273.9,117.6,273.9,117.6z"/>
	<path class="st5" d="M274.1,116.3c-0.1,0.2-1-0.5-2.3-0.5s-2.2,0.7-2.4,0.5s0.1-0.3,0.5-0.7c0.6-0.4,1.2-0.6,1.9-0.6
		c0.7,0,1.3,0.2,1.9,0.6C274.1,115.9,274.2,116.2,274.1,116.3z"/>
	<path class="st5" d="M261.2,117.9c0,0.6-0.5,1.2-1.1,1.2c-0.6,0.1-1.2-0.4-1.2-1.1c0,0,0,0,0,0c0-0.7,0.5-1.2,1.2-1.2
		C260.6,116.8,261.2,117.2,261.2,117.9C261.2,117.9,261.2,117.9,261.2,117.9z"/>
	<path class="st5" d="M261.5,116.5c-0.1,0.2-1.1-0.5-2.4-0.5s-2.2,0.7-2.4,0.5s0.1-0.3,0.5-0.7c0.6-0.4,1.2-0.6,1.9-0.6
		c0.7,0,1.3,0.2,1.9,0.6C261.4,116.1,261.5,116.4,261.5,116.5z"/>
	<path class="st5" d="M266.1,126.1c0.7-0.2,1.4-0.3,2.1-0.4c0.3,0,0.6-0.1,0.7-0.3c0-0.3-0.1-0.7-0.2-1l-1-2.5
		c-0.9-2.1-1.6-4.3-2.2-6.6c1.1,2,2,4.2,2.7,6.4l0.9,2.5c0.2,0.4,0.3,0.9,0.2,1.3c-0.1,0.2-0.3,0.4-0.5,0.5
		c-0.2,0.1-0.4,0.1-0.6,0.1C267.6,126.1,266.8,126.1,266.1,126.1z"/>
	<path class="st5" d="M262.3,127c0.2,0,0.2,1.4,1.4,2.4s2.7,0.8,2.7,1s-0.3,0.3-1,0.3c-0.8,0-1.6-0.3-2.3-0.8c-0.6-0.5-1-1.2-1.1-2
		C262.1,127.3,262.3,127,262.3,127z"/>
	<path class="st5" d="M261.8,111.4c-0.1,0.3-1.4,0.2-2.9,0.4s-2.7,0.6-2.9,0.3c-0.1-0.2,0.1-0.5,0.6-0.8c0.7-0.4,1.4-0.7,2.2-0.8
		c0.8-0.1,1.6,0,2.3,0.3C261.6,111,261.9,111.3,261.8,111.4z"/>
	<path class="st5" d="M273.7,112.5c-0.2,0.3-1.1,0-2.2,0s-2,0.2-2.2-0.1c-0.1-0.2,0-0.4,0.5-0.7c1.1-0.7,2.5-0.6,3.5,0.1
		C273.6,112.1,273.8,112.4,273.7,112.5z"/>
	<path class="st5" d="M244.7,108.7c0.1,2.4-0.4,5.2,0,7.6c0.1,0.4,1,1.3,1.1,1.7c0.5,2.1,1.4,3,2.6,0.8c0.5-1.3,0.8-2.7,1-4.1
		l1.5-7.8c2,1,4.2,1.6,6.4,1.5c2.2-0.1,4.3-1.3,5.5-3.2c1.9,3.2,6.1,4.2,9.3,2.3c0.4-0.3,0.8-0.6,1.2-0.9c0.9,1.2,2.5,1.5,3.7,0.8
		c1.2-0.8,1.8-2.3,1.4-3.7c-0.6-2.1-2.8-3.2-4.8-3.8c-8-2.3-16.8-0.5-24,3.7c-1.1,0.6-2,1.3-2.9,2.2c-0.8,0.9-1.9,2-2,3.2"/>
	<path class="st7" d="M263.7,122.5c0,0,0.3-0.4,0.7-1.1c0.6-1,0.8-2.2,0.6-3.3c-0.4-2.7-2.9-4.6-5.7-4.2c-2.7,0.4-4.6,2.9-4.2,5.7
		c0.3,2.2,2,3.9,4.2,4.2c1.1,0.2,2.3,0,3.3-0.6C263.4,122.8,263.7,122.5,263.7,122.5s-0.1,0.1-0.2,0.3c-0.2,0.2-0.5,0.4-0.8,0.6
		c-1,0.7-2.2,0.9-3.5,0.8c-3-0.4-5.1-3.1-4.7-6.1s3.1-5.1,6.1-4.7c2.5,0.3,4.4,2.3,4.7,4.7c0.2,1.2-0.1,2.4-0.8,3.4
		c-0.2,0.3-0.4,0.5-0.6,0.8C263.8,122.4,263.8,122.5,263.7,122.5z"/>
	<path class="st7" d="M277,122.5c0,0,0.3-0.4,0.7-1.1c0.6-1,0.8-2.2,0.6-3.3c-0.4-2.7-2.9-4.6-5.7-4.2c-2.7,0.4-4.6,2.9-4.2,5.7
		c0.3,2.2,2,3.9,4.2,4.2c1.1,0.2,2.3,0,3.3-0.6C276.6,122.8,276.9,122.5,277,122.5s-0.1,0.1-0.2,0.3c-0.2,0.2-0.5,0.4-0.8,0.6
		c-1,0.7-2.2,0.9-3.4,0.8c-3-0.4-5.1-3.1-4.7-6.1c0.4-3,3.1-5.1,6.1-4.7c2.5,0.3,4.4,2.3,4.7,4.7c0.2,1.2-0.1,2.4-0.8,3.4
		c-0.2,0.3-0.4,0.5-0.6,0.8C277.1,122.4,277,122.5,277,122.5z"/>
	<path class="st7" d="M268.2,118.4c0,0.2-0.7,0.3-1.5,0.3s-1.5-0.1-1.5-0.3s0.7-0.3,1.5-0.3S268.2,118.3,268.2,118.4z"/>
	<path class="st7" d="M245.8,118c1.5-0.3,3-0.5,4.6-0.4c1.5-0.1,3.1-0.1,4.6,0.1c-1.5,0.3-3,0.5-4.6,0.4
		C248.9,118.2,247.3,118.2,245.8,118z"/>
	<path class="st10" d="M250.6,116.4l-7.2-2.6l-6.8,2.4l-9.4,9.8l-6.1,5.8l10,4.4l5.3-2.1l8.4-5.7l4.8-9c0,0-1.4-0.6-2.9,1.5
		l-1.4,1.9l-1.4-5.2v-1.5l4.2,1.3c0.9,0.3,1.8,0,2.4-0.7L250.6,116.4z"/>
	<path class="st11" d="M237.1,124c0.1,0,0.4,0.4,0.6,1.1c0.7,2,0.6,4.2-0.4,6.1c-0.4,0.7-0.7,1.1-0.8,1.1c0.5-1.3,0.8-2.7,1-4.1
		C237.6,126.8,237.5,125.4,237.1,124z"/>
	<path class="st11" d="M237.2,124.1c0.8-0.3,1.7-0.5,2.6-0.6l0,0h0.1c0.3,0.2,0.5,0.6,0.4,1c-0.1,0.4-0.2,0.7-0.4,1
		c-0.2,0.3-0.3,0.6-0.2,0.9c0.2,0.3,0.4,0.6,0.7,0.8h-0.3c0.7-0.4,1.4-1,1.8-1.8c0.7-1.1-0.1-2.3-0.5-3.3c-0.1-0.2-0.2-0.5-0.4-0.7
		c-0.2-0.1-0.4-0.2-0.6-0.1l-1.4,0.2c-0.9,0.2-1.9,0.3-2.8,0.3c0.9-0.3,1.8-0.5,2.8-0.7l1.4-0.3c0.3-0.1,0.7,0,0.9,0.2
		c0.2,0.2,0.3,0.5,0.4,0.8c0.2,0.5,0.5,1.1,0.8,1.7c0.2,0.7,0.2,1.5-0.2,2.1c-0.5,0.8-1.2,1.4-2,1.9l-0.2,0.1l-0.1-0.1
		c-0.4-0.3-0.7-0.6-0.8-1.1c-0.1-0.4,0-0.9,0.3-1.3c0.2-0.3,0.3-0.6,0.4-0.9c0.1-0.2,0-0.5-0.2-0.6h0.1
		C239,124,238.1,124.1,237.2,124.1z"/>
	<path class="st11" d="M242.5,124.9c0,0,0.1,0.2,0.5,0.3c0.5,0.1,1-0.1,1.1-0.6c0,0,0,0,0,0c0.2-0.8,0-1.6-0.4-2.2
		c-0.4-0.8-0.7-1.8-1.2-2.8s-1.5-0.8-2.4-0.7s-1.7,0.2-2.4,0.3c-0.7,0.2-1.5,0.3-2.3,0.3c0.7-0.3,1.4-0.6,2.2-0.7
		c0.7-0.2,1.5-0.3,2.4-0.4c0.5-0.1,1-0.1,1.5-0.1c0.6,0.1,1.2,0.4,1.4,1c0.5,1,0.8,2,1.2,2.8c0.2,0.4,0.3,0.8,0.4,1.3
		c0.1,0.4,0.1,0.8-0.1,1.2c-0.1,0.3-0.4,0.6-0.8,0.7c-0.3,0.1-0.5,0.1-0.8-0.1C242.5,125.2,242.5,124.8,242.5,124.9z"/>
	<path class="st11" d="M245.3,122.8c-0.3-0.6-0.5-1.3-0.7-1.9c-0.2-0.7-0.4-1.4-0.6-2.1c-0.1-0.4-0.2-0.8-0.4-1.2
		c-0.1-0.4-0.4-0.7-0.8-0.8c-0.8-0.2-1.7-0.1-2.5,0.2l-2.1,0.6c-0.6,0.2-1.3,0.3-2,0.4c0.6-0.3,1.2-0.6,1.9-0.8l2.1-0.7
		c0.9-0.4,1.9-0.5,2.8-0.3c0.5,0.2,0.9,0.6,1.1,1.1c0.1,0.5,0.2,0.9,0.3,1.3l0.5,2.1C245.2,121.5,245.3,122.2,245.3,122.8z"/>
	<path class="st11" d="M227.2,126c0-0.1,0.1-0.1,0.1-0.2c0.1-0.1,0.3-0.3,0.5-0.5l1.9-2l6.8-7.2l0,0l0,0l6.8-2.4l0,0h0.1l7.2,2.6
		h0.1v0.5l0,0c-0.3,0.4-0.7,0.6-1.1,0.8c-0.5,0.1-0.9,0.1-1.4,0l0,0l-2.9-0.9l-1.3-0.4l0.2-0.1c0,0.5,0,1,0,1.5v-0.1
		c0.5,1.8,0.9,3.5,1.4,5.2h-0.3c0.6-0.8,1.2-1.6,1.8-2.4c0.6-0.9,1.7-1.3,2.7-1.1h0.1l-0.1,0.2l-4.8,9l0,0l0,0l-6.2,4.2l-1.8,1.2
		c-0.4,0.3-0.6,0.4-0.6,0.4s0.2-0.2,0.6-0.4l1.7-1.2l6.1-4.2l0,0l4.7-9l0.1,0.2c-0.4-0.1-0.9-0.1-1.3,0.1c-0.4,0.2-0.8,0.5-1.1,0.9
		c-0.6,0.7-1.2,1.6-1.8,2.4l-0.2,0.3l-0.1-0.3c-0.4-1.7-0.9-3.4-1.4-5.2l0,0c0-0.5,0-1,0-1.5v-0.2l0.2,0.1l1.3,0.4l2.9,0.9l0,0
		c0.4,0.1,0.9,0.1,1.3,0c0.4-0.1,0.7-0.3,1-0.7v0.1v-0.3l0.1,0.1l-7.2-2.6h0.1l-6.8,2.3l0,0l-6.9,7.1l-1.9,2l-0.5,0.5
		C227.3,126,227.3,126,227.2,126z"/>
	<path class="st6" d="M230.1,189.3l-0.5-34.6l9-3c2.8-0.5,5.6-1.6,8.9-1.7l0,0c6.2,4.9,15,5.1,21.4,0.3l0.3-0.2
		c0.9,0.1,2,0.2,3.4,0.4h0.3c3.6,0.4,6.9,1.8,9.8,3.9l0,0l44.7,26.7l26.3-20l13.3,10.4c0,0-34.4,34.4-37.7,35.2
		c-2.3,0.6-25.3-12-39.2-19.7c0.6,8.3,3.7,54.6,3.5,61h-63.9l-0.1-29.2v-7.9L230.1,189.3z"/>
	<path class="st5" d="M289.4,167.3c-0.1,0.5-0.1,1,0,1.5c0,1.1,0.1,2.5,0.1,4.2c0.1,3.5,0.4,8.4,0.6,13.7s0.6,10.2,0.8,13.7
		c0.1,1.6,0.2,3,0.3,4.1c0,0.5,0.1,1,0.2,1.5c0.1-0.5,0.1-1,0-1.5c0-1.1-0.1-2.5-0.1-4.2c-0.1-3.5-0.4-8.4-0.6-13.7
		s-0.6-10.2-0.8-13.7c-0.1-1.6-0.2-3-0.3-4.1C289.5,168.3,289.5,167.8,289.4,167.3z"/>
	<path class="st5" d="M346.8,166.8c-0.1,0.2,2.7,2.9,6.4,6.1s6.8,5.7,6.9,5.6s-2.8-2.8-6.5-6.1c-1.8-1.6-3.5-3-4.8-4.1
		C348.2,167.8,347.5,167.3,346.8,166.8z"/>
	<path class="st5" d="M343.7,169.1c-0.1,0.1,2.8,2.9,6.5,6.2c1.9,1.6,3.5,3.1,4.8,4.1c0.6,0.6,1.4,1.1,2.1,1.6
		c-0.5-0.7-1.1-1.3-1.8-1.9c-1.2-1.1-2.8-2.6-4.7-4.3s-3.5-3.1-4.8-4.1C345.2,170,344.5,169.5,343.7,169.1z"/>
	<path class="st6" d="M223.1,126.1c0,0-25.6,23.9-33.6,33.7c-3.6,4.4-4.5,11-1.5,15.9l0,0c2.3,3.9,6.7,6.2,11.3,5.9l30.8-2.1
		l2.3-25.6l-18.6,5.8l21.7-22.7L223.1,126.1z"/>
	<path class="st5" d="M229.8,199.8c-0.1,0-0.2-5.5-0.1-12.3s0.3-12.3,0.4-12.3s0.2,5.5,0.1,12.3S230,199.8,229.8,199.8z"/>
	<path class="st5" d="M222.1,150.9c-0.2,0.4-0.5,0.7-0.8,1l-2.3,2.5c-1.9,2.1-4.7,5.1-7.8,8.4l0.1-0.1c-0.3,1.1-0.7,2.2-1.1,3.3
		c-0.9,2.4-2,4.7-3.4,6.9c-1.2,1.7-2.7,3.2-4.5,4.3c-1.2,0.8-2.5,1.3-3.9,1.6c-0.4,0.1-0.8,0.1-1.1,0.1c-0.3,0-0.4,0-0.4,0
		s0.6-0.1,1.5-0.3c1.3-0.3,2.6-0.9,3.8-1.7c1.7-1.1,3.2-2.6,4.3-4.3c1.3-2.1,2.5-4.4,3.3-6.8c0.4-1.1,0.8-2.2,1.1-3.3v-0.1l0,0
		c3.1-3.3,5.9-6.3,7.9-8.3l2.4-2.4C221.5,151.5,221.8,151.2,222.1,150.9z"/>
	<path class="st5" d="M209.9,166.7c0.9,3.2,0.5,6.6-1.1,9.4c-0.1-0.1,0.7-2,1-4.7S209.7,166.7,209.9,166.7z"/>
	<path class="st3" d="M239.1,247.4c-0.1-0.1-0.1-0.1-0.1-0.2l-0.4-0.6l-1.4-2.4c-0.8-1.3-1.5-2.6-2.1-3.9c-0.9-1.8-1.2-3.8-0.9-5.8
		c0.4-2.2,1.7-4.3,2.7-6.6c0.5-1.2,0.8-2.5,0.8-3.8c0-1.4-0.1-2.8-0.4-4.1c-0.6-2.8-1.7-5.7-1.9-8.8c-0.2-3.3,0.1-6.5,0.9-9.7
		c0.7-3.3,1.6-6.4,2.3-9.4c0.3-1.5,0.5-3,0.7-4.5c0-0.7,0.1-1.5,0.1-2.2s0-1.5,0-2.2c-0.4-5.1-1.2-10.1-2.5-15
		c-1-4.2-1.7-7.7-2-10.1c-0.2-1.2-0.3-2.1-0.3-2.8c0-0.3,0-0.5,0-0.7c0-0.1,0-0.2,0-0.3c0,0,0,0.1,0.1,0.3s0.1,0.4,0.1,0.7
		c0.1,0.6,0.2,1.6,0.4,2.8c0.4,2.4,1.1,5.8,2.2,10.1c1.4,4.9,2.2,10,2.6,15.1c0,0.7,0,1.5,0,2.2s-0.1,1.5-0.1,2.3
		c-0.1,1.5-0.4,3-0.7,4.6c-0.6,3.1-1.5,6.2-2.3,9.4c-0.8,3.1-1.1,6.3-0.9,9.5c0.3,3.1,1.3,5.9,1.9,8.8c0.3,1.4,0.5,2.8,0.4,4.2
		c-0.1,1.3-0.3,2.7-0.9,3.9c-1,2.4-2.3,4.4-2.7,6.5c-0.3,1.9-0.1,3.9,0.8,5.6c0.6,1.3,1.3,2.6,2,3.9l1.4,2.4l0.3,0.6
		C239.1,247.3,239.1,247.4,239.1,247.4z"/>
	<path class="st3" d="M253,153.9c0,0.1,0.1,0.2,0.1,0.2l0.2,0.7c0.1,0.6,0.3,1.5,0.5,2.7c0.5,3.4,0.8,6.8,0.9,10.2
		c0.1,5.1-0.4,10.1-1.3,15.1c-1,5.6-2.7,11.7-3.2,18.3s0.5,12.8,1.2,18.5c0.8,5,1.3,10.1,1.5,15.1c0.1,3.4-0.3,6.8-1.2,10.2
		l-0.2,0.8l-0.3,0.7l-0.4,1.1l-0.3,0.7c-0.1,0.1-0.1,0.2-0.1,0.2c0-0.1,0-0.2,0-0.3l0.2-0.7l0.4-1.1c0.1-0.2,0.1-0.4,0.2-0.7
		s0.1-0.5,0.2-0.8c0.8-3.3,1.1-6.7,1-10.1c-0.2-5-0.8-10-1.6-15c-0.8-5.6-1.8-11.9-1.3-18.6s2.2-12.7,3.3-18.3c1-5,1.4-10,1.4-15.1
		c0-3.4-0.3-6.8-0.7-10.2c-0.2-1.2-0.3-2.1-0.4-2.8c0-0.3-0.1-0.5-0.1-0.7C252.9,154.1,253,154,253,153.9z"/>
	<path class="st3" d="M276.5,247.4l-0.1-0.2l-0.4-0.6c-0.2-0.3-0.4-0.7-0.5-1.1c-0.1-0.2-0.2-0.5-0.3-0.7s-0.1-0.6-0.2-0.9
		c-0.3-1.5-0.4-3-0.3-4.5c0.2-2,0.4-4,0.8-5.9c0.5-2.4,0.8-4.7,0.9-7.1c0-2.7-0.4-5.4-1.4-8c-1.1-2.9-2.1-5.8-2.8-8.8
		c-0.5-3.3-0.4-6.6,0.2-9.9c0.5-3.4,1.2-6.6,1.4-9.7c0.1-3-0.1-6.1-0.7-9.1c-1.1-5.7-2.7-10.8-3.2-15.2c-0.5-3.5-0.4-7,0.3-10.5
		c0.3-1.3,0.7-2.5,1.3-3.6c0,0.1,0,0.2-0.1,0.3l-0.3,0.7c-0.3,0.9-0.6,1.8-0.8,2.7c-0.7,3.4-0.7,6.9-0.1,10.4
		c0.6,4.4,2.1,9.4,3.3,15.2c0.6,3,0.9,6.1,0.8,9.2c-0.2,3.2-0.9,6.5-1.4,9.8c-0.6,3.2-0.7,6.5-0.2,9.7c0.7,3,1.6,5.9,2.7,8.7
		c0.5,1.4,0.8,2.7,1.1,4.2c0.2,1.3,0.3,2.7,0.3,4.1c-0.2,2.4-0.5,4.8-1,7.2c-0.4,1.9-0.7,3.9-0.9,5.9c-0.1,1.5-0.1,3,0.2,4.5
		C275.4,245.1,275.9,246.3,276.5,247.4z"/>
	<path class="st3" d="M284.9,157.6c0,0.1,0.1,0.2,0.1,0.2l0.2,0.7c0.2,0.6,0.4,1.5,0.6,2.6c0.5,3.3,0.6,6.6,0.4,9.9
		c-0.2,4.2-1,9.1-1.8,14.5c-0.8,5.9-1.1,11.9-1.1,17.8c0.2,10.8,1.2,21.6,2.9,32.3c0.6,4.1,1.1,7.4,1.5,9.8c0.2,1.1,0.3,2,0.4,2.6
		c0,0.3,0.1,0.5,0.1,0.7c0,0.1,0,0.2,0,0.2c0-0.1-0.1-0.2-0.1-0.2c0-0.2-0.1-0.4-0.1-0.7c-0.1-0.6-0.3-1.5-0.5-2.6
		c-0.4-2.3-1-5.6-1.6-9.7c-1.8-10.7-2.8-21.5-3-32.4c0-6,0.4-12,1.2-17.9c0.8-5.4,1.6-10.3,1.9-14.5c0.3-3.3,0.2-6.6-0.2-9.8
		c-0.2-1.1-0.3-2-0.5-2.6l-0.1-0.7C285,157.7,284.9,157.6,284.9,157.6z"/>
	<path class="st3" d="M300.3,193.3c-0.1-0.3-0.1-0.7-0.1-1c-0.1-0.7-0.1-1.6-0.2-2.8c-0.1-2.4-0.2-5.6-0.3-9.3s0.1-6.9,0.2-9.3
		c0.1-1.2,0.1-2.1,0.2-2.8c0-0.3,0-0.7,0.1-1c0.1,0.3,0.1,0.7,0.1,1v2.8c0,2.5,0,5.7,0,9.3s0.1,6.8,0.1,9.3c0,1.1,0,2,0,2.8
		C300.4,192.6,300.4,193,300.3,193.3z"/>
	<path class="st3" d="M310,170.8c-0.1,0.3-0.3,0.6-0.5,0.9c-0.4,0.8-0.6,1.7-0.6,2.6c0,1.1,0.2,2.6,0.4,4.1s0.5,3.2,0.8,5
		c0.2,1.7,0.3,3.4,0.1,5.1c-0.1,1.4-0.4,2.8-1,4.1c-0.4,0.9-0.9,1.7-1.5,2.4c-0.4,0.5-0.7,0.8-0.7,0.8c0.7-1,1.3-2.1,1.9-3.3
		c0.9-2.9,1.2-6,0.7-9c-0.2-1.8-0.5-3.5-0.7-5c-0.2-1.4-0.3-2.8-0.3-4.2c0-1,0.3-1.9,0.8-2.7C309.5,171.3,309.7,171,310,170.8z"/>
	<path class="st3" d="M202.3,179.9c0.4,0,0.9,0,1.3,0c1.2,0,2.4-0.1,3.6-0.3c1.7-0.5,3.2-1.5,4.3-2.9c1.3-1.5,2.7-3.3,4.1-5.1
		c2.9-3.7,5.6-7,7.5-9.4l2.3-2.8c0.3-0.4,0.6-0.7,0.9-1c-0.2,0.4-0.5,0.8-0.8,1.1l-2.2,2.9c-1.9,2.4-4.5,5.8-7.4,9.4
		c-1.5,1.8-2.8,3.6-4.2,5.1c-1.2,1.4-2.8,2.5-4.6,2.9c-1.2,0.2-2.4,0.3-3.7,0.2C203.2,180.1,202.7,180,202.3,179.9z"/>
	<path class="st3" d="M227.7,132.1c-0.1,0.2-0.1,0.4-0.2,0.6c-0.2,0.6-0.5,1.1-0.9,1.6c-1.2,1.9-2.7,3.6-4.4,5
		c-2.1,1.8-5,3.7-7.9,5.9s-6.1,4.9-8.1,8.6c-0.9,1.9-1.9,3.8-2.9,5.6c-1.1,1.6-2.6,3-4.2,4.1c-1.5,1.1-3.1,2-4.4,2.9
		c-1.3,0.8-2.4,1.8-3.4,3c-1.4,1.7-2.1,3.9-1.9,6.1c0.1,0.8,0.4,1.6,0.8,2.3c0,0,0,0-0.1-0.1c-0.1-0.1-0.2-0.2-0.3-0.4
		c-0.3-0.5-0.5-1.1-0.6-1.7c-0.3-2.3,0.3-4.6,1.8-6.3c1-1.2,2.1-2.3,3.4-3.1c1.3-1,2.9-1.9,4.4-2.9c1.6-1.1,3-2.4,4.1-4
		c1.1-1.8,2-3.6,2.9-5.5c2-3.9,5.3-6.6,8.3-8.8s5.8-4,8-5.7c1.7-1.4,3.3-3,4.5-4.8c0.3-0.5,0.7-1,0.9-1.5
		C227.4,132.4,227.5,132.3,227.7,132.1z"/>
	<g class="st12">
		<path d="M197.4,178.8c8.7,0.1,15.9-6.8,16-15.5c0-0.1,0-0.1,0-0.2c0-0.5-0.1-1.2-0.6-1.4c-0.5-0.2-1,0-1.3,0.4
			c-0.2,0.4-0.4,0.9-0.4,1.4c-1.4,6.9-6,12.8-12.4,15.7"/>
	</g>
	<g class="st12">
		<path d="M320.4,178c-0.7,0.5-1.2,1.2-1.6,2c-2.2,3.4-6.5,4.8-9.3,7.6c-2.2,2.2-3.9,4.8-4,7.9l4.7,2.1l12.2-19
			C322.3,177.8,321.1,177.5,320.4,178z"/>
	</g>
	<path class="st1" d="M101,414.5c0,0-16.4,3.5-7.9,23.5s3.4,25.5-2.5,26.9l45.1-0.3l4-50.3L101,414.5z"/>
	<path class="st2" d="M133.8,464.8c-3.2,0-6.3-1.1-8.7-3.3c-3.7-3.3-8.3-9.4-9.2-19.9c-1.9-22.4-14.9-27.2-14.9-27.2l38.7-0.2
		c0,0,12.6,0,13.6,19.9c1.1,20.8,29.9,32.8,47.8,30.5L133.8,464.8z"/>
	<path class="st0" d="M191.4,379.9c0,0-20.3-2.4-22.5,42.5s-36.2,42.5-36.2,42.5h67.7c0,0,14.1-3.1,10.8-34.8
		c-1.4-13.3,22.5-50.1,22.5-50.1L191.4,379.9z"/>
	<path class="st1" d="M180.1,384.9c-2.2,2.6-1.3,6.7,0.6,9.5s4.8,4.7,7.8,6.3s6.1,2.9,8.8,4.9c4.2,3.2,6.9,7.9,8.6,12.9
		c1.5,5,2.6,10.2,3.1,15.4c0,0-2.2-37.3-8.8-47.6S184.3,380,180.1,384.9z"/>
	<path class="st2" d="M232.3,464.8c0,0-20,1-22.8-22.2s-5.1-61.4-18.1-62.8h41c5.8,0,11,3.5,13.1,8.9c1.8,4.6,3.6,11.4,4.7,21.2
		c2.4,20.8,14.2,55.1,43.7,54.8L232.3,464.8z"/>
	<path class="st5" d="M245.8,445.7c0,0.1-6,0.3-13.4,0.3s-13.4-0.1-13.4-0.3s6-0.3,13.4-0.3S245.8,445.6,245.8,445.7z"/>
	<path class="st5" d="M252.6,447.3c-0.1-1.3-0.2-2.6-0.2-3.9l0.2,0.2h-3.9l0.3-0.3l0,0v1c0,0.4,0,0.7,0,1c0,0.6,0,1.3,0,1.9
		l-0.2-0.2c1.3,0,2.6,0.1,3.9,0.2c-1.3,0.2-2.6,0.3-3.9,0.2h-0.2v-0.2c0-0.6,0-1.2,0-1.9c0-0.3,0-0.7,0-1v-1l0,0l0.3-0.3h3.9h0.2
		v0.2C252.9,444.7,252.8,446,252.6,447.3z"/>
	<path class="st5" d="M251.9,454.3c0,0.1-6,0.3-13.3,0.3s-13.4-0.1-13.4-0.3s6-0.3,13.4-0.3S251.9,454.2,251.9,454.3z"/>
	<path class="st5" d="M258.7,455.9c-0.2-1.3-0.2-2.6-0.2-3.9l0.2,0.2h-3.9l0.3-0.3l0,0v2.1c0,0.7,0,1.3,0,1.9l-0.2-0.2
		C256.2,455.7,257.5,455.7,258.7,455.9c-1.3,0.1-2.6,0.2-3.9,0.2h-0.2v-0.2c0-0.6,0-1.2,0-1.9v-2l0,0c-0.2,0.2,0.3-0.3,0.3-0.3h3.9
		h0.2v0.3C259,453.3,258.9,454.6,258.7,455.9z"/>
	<path class="st5" d="M240.6,424c0,0.1-6,0.3-13.3,0.3s-13.4-0.1-13.4-0.3s6-0.3,13.4-0.3S240.6,423.9,240.6,424z"/>
	<path class="st5" d="M247.4,425.6c-0.2-1.3-0.2-2.6-0.2-3.9l0.2,0.2h-3.9l0.3-0.3l0,0v2c0,0.6,0,1.3,0,1.9l-0.2-0.2
		c1.3,0,2.6,0.1,3.9,0.2c-1.3,0.2-2.6,0.3-3.9,0.2h-0.2v-0.2c0-0.6,0-1.2,0-1.9v-2l0,0c-0.2,0.2,0.3-0.3,0.3-0.3h3.9h0.2v0.2
		C247.8,423,247.6,424.3,247.4,425.6z"/>
	<path class="st5" d="M239.2,412.7c0,0.1-6,0.3-13.4,0.3s-13.4-0.1-13.4-0.3s6-0.3,13.4-0.3S239.2,412.5,239.2,412.7z"/>
	<path class="st5" d="M246,414.3c-0.1-1.3-0.2-2.6-0.2-3.9l0.2,0.2h-3.9l0.3-0.3l0,0v1c0,0.4,0,0.7,0,1c0,0.6,0,1.3,0,1.9l-0.2-0.2
		c1.3,0,2.6,0.1,3.9,0.2c-1.3,0.2-2.6,0.2-3.9,0.2h-0.2v-0.2c0-0.6,0-1.2,0-1.9c0-0.3,0-0.7,0-1v-1l0,0c-0.2,0.2,0.3-0.3,0.3-0.3
		h3.9h0.2v0.2C246.3,411.6,246.2,413,246,414.3z"/>
	<path class="st5" d="M237.2,402.3c0,0.1-6,0.3-13.4,0.3s-13.4-0.1-13.4-0.3s6-0.3,13.4-0.3S237.2,402.2,237.2,402.3z"/>
	<path class="st5" d="M244,403.9c-0.1-1.3-0.2-2.6-0.2-3.9l0.2,0.2h-3.9l0.3-0.3l0,0v1c0,0.4,0,0.7,0,1c0,0.6,0,1.3,0,1.9l-0.2-0.2
		c1.3,0,2.6,0.1,3.9,0.2c-1.3,0.2-2.6,0.3-3.9,0.2h-0.2v-0.2c0-0.6,0-1.2,0-1.9c0-0.3,0-0.7,0-1v-1l0,0c-0.2,0.2,0.3-0.3,0.3-0.3
		h3.9h0.2v0.3C244.3,401.3,244.2,402.6,244,403.9z"/>
	<path class="st5" d="M234.5,392.8c0,0.1-6,0.3-13.4,0.3s-13.4-0.1-13.4-0.3s6-0.3,13.4-0.3S234.5,392.6,234.5,392.8z"/>
	<path class="st5" d="M241.3,394.4c-0.1-1.3-0.2-2.6-0.2-3.9l0.2,0.2h-3.9l0.3-0.3l0,0v1c0,0.3,0,0.7,0,1c0,0.6,0,1.3,0,1.9
		l-0.2-0.2C238.7,394.1,240,394.2,241.3,394.4c-1.3,0.1-2.6,0.2-3.9,0.2h-0.2v-0.2c0-0.6,0-1.2,0-1.9c0-0.3,0-0.7,0-1v-1l0,0
		l0.3-0.3h3.9h0.2v0.2C241.6,391.7,241.5,393.1,241.3,394.4z"/>
	<path class="st5" d="M229.9,384.8c0,0.1-6,0.3-13.4,0.3s-13.4-0.1-13.4-0.3s6-0.3,13.4-0.3S229.9,384.7,229.9,384.8z"/>
	<path class="st5" d="M236.7,386.4c-0.1-1.3-0.2-2.6-0.2-3.9l0.2,0.2h-3.9l0.3-0.3l0,0v1c0,0.4,0,0.7,0,1c0,0.6,0,1.3,0,1.9
		l-0.2-0.2c1.3,0,2.6,0.1,3.9,0.2c-1.3,0.2-2.6,0.3-3.9,0.2h-0.2v-0.2c0-0.6,0-1.2,0-1.9c0-0.3,0-0.7,0-1v-1l0,0l0.3-0.3h3.9h0.2
		v0.2C237,383.8,236.9,385.1,236.7,386.4z"/>
	<path class="st6" d="M239.2,405.2c0.5-1,1.1-1.8,1.8-2.6c0.2-0.3,0.4-0.5,0.7-0.8l0.2-0.2l0.2,0.2c0.9,0.8,1.5,1.5,1.4,1.6
		s-0.8-0.4-1.8-1.2h0.4l-0.6,0.8C240.8,403.8,240,404.6,239.2,405.2z"/>
	<path class="st6" d="M241.2,415.1c0.5-1,1.1-1.8,1.8-2.6l0.7-0.8l0.2-0.2l0.2,0.2c0.9,0.8,1.5,1.5,1.4,1.6s-0.8-0.4-1.8-1.2h0.4
		l-0.6,0.8C242.8,413.7,242.1,414.5,241.2,415.1z"/>
	<path class="st6" d="M247.1,449c0.5-1,1.1-1.8,1.8-2.6c0.2-0.3,0.4-0.5,0.7-0.8l0.2-0.2l0.2,0.2c0.9,0.8,1.5,1.5,1.4,1.6
		s-0.8-0.4-1.8-1.2h0.4l-0.6,0.8C248.7,447.6,247.9,448.4,247.1,449z"/>
	<path class="st6" d="M242.7,426.5c0.4-1,1.1-1.8,1.8-2.6l0.7-0.8l0.2-0.2l0.2,0.2c0.9,0.8,1.5,1.5,1.4,1.6s-0.8-0.4-1.8-1.2h0.4
		l-0.6,0.8C244.3,425.1,243.5,425.9,242.7,426.5z"/>
	<path class="st5" d="M243.2,434.9c0,0.1-6,0.3-13.4,0.3s-13.4-0.1-13.4-0.3s6-0.3,13.4-0.3S243.2,434.7,243.2,434.9z"/>
	<path class="st5" d="M250,436.5c-0.1-1.3-0.2-2.6-0.2-3.9l0.2,0.2h-3.9l0.3-0.3l0,0v1c0,0.4,0,0.7,0,1c0,0.6,0,1.3,0,1.9l-0.2-0.2
		c1.3,0,2.6,0.1,3.9,0.2c-1.3,0.2-2.6,0.3-3.9,0.2h-0.2v-0.2c0-0.6,0-1.2,0-1.9c0-0.3,0-0.7,0-1v-1l0,0c-0.2,0.2,0.3-0.3,0.3-0.3
		h3.9h0.2v0.2C250.3,433.8,250.2,435.1,250,436.5z"/>
	<path class="st6" d="M244.7,437.8c0.5-1,1.1-1.8,1.8-2.6c0.2-0.3,0.4-0.5,0.7-0.8l0.2-0.2l0.2,0.2c0.9,0.8,1.5,1.5,1.4,1.6
		s-0.8-0.4-1.8-1.2h0.4l-0.6,0.8C246.3,436.4,245.6,437.2,244.7,437.8z"/>
	<path class="st5" d="M132.2,451.8c0-0.1,5.4-0.3,12.1-0.3s12.1,0.1,12.1,0.3s-5.4,0.3-12.1,0.3S132.2,451.9,132.2,451.8z"/>
	<path class="st5" d="M126.1,450.3c0.1,1.2,0.2,2.4,0.2,3.6l-0.2-0.2h3.6c0.1-0.1-0.5,0.5-0.3,0.3l0,0V452c0-0.6,0-1.1,0-1.7
		l0.2,0.2C128.4,450.5,127.2,450.5,126.1,450.3c1.1-0.1,2.3-0.2,3.5-0.2h0.2v0.2c0,0.5,0,1.1,0,1.7v1.9l0,0l-0.3,0.3H126h-0.2v-0.2
		C125.8,452.7,125.9,451.5,126.1,450.3z"/>
	<path class="st6" d="M130.9,449.1c-0.4,0.9-0.9,1.7-1.6,2.4l-0.6,0.7l-0.2,0.2l-0.2-0.2c-0.8-0.8-1.4-1.4-1.3-1.5s0.7,0.4,1.6,1.1
		h-0.4l0.6-0.7C129.9,449.9,130.8,449,130.9,449.1z"/>
	<path class="st5" d="M127.4,444.6c0-0.1,5.4-0.3,12.1-0.3s12.1,0.1,12.1,0.3s-5.4,0.3-12.1,0.3S127.4,444.8,127.4,444.6z"/>
	<path class="st5" d="M121.2,443.2c0.1,1.2,0.2,2.4,0.2,3.6l-0.2-0.2h3.6l-0.3,0.3l0,0v-1c0-0.3,0-0.6,0-0.9c0-0.6,0-1.1,0-1.7
		l0.2,0.2C123.6,443.5,122.4,443.4,121.2,443.2c1.2-0.1,2.3-0.2,3.5-0.2h0.2v0.2c0,0.5,0,1.1,0,1.7c0,0.3,0,0.6,0,0.9v1l0,0
		l-0.3,0.3h-3.6H121v-0.2C121,445.6,121.1,444.4,121.2,443.2z"/>
	<path class="st6" d="M126.1,442c-0.4,0.9-0.9,1.7-1.6,2.4l-0.6,0.7l-0.2,0.2l-0.2-0.2c-0.8-0.8-1.4-1.4-1.3-1.5s0.8,0.4,1.6,1.1
		h-0.3l0.6-0.8C125,442.8,126,441.9,126.1,442z"/>
	<path class="st5" d="M125.8,436.6c0-0.1,5.4-0.3,12.1-0.3s12.1,0.1,12.1,0.3s-5.4,0.3-12.1,0.3S125.8,436.8,125.8,436.6z"/>
	<path class="st5" d="M119.6,435.1c0.1,1.2,0.2,2.4,0.2,3.6l-0.2-0.2h3.6l-0.3,0.3l0,0v-1.9c0-0.6,0-1.1,0-1.7l0.2,0.2
		C121.9,435.4,120.7,435.4,119.6,435.1c1.1-0.1,2.3-0.2,3.5-0.2h0.2v0.2c0,0.5,0,1.1,0,1.7v1.9l0,0c0.2-0.2-0.3,0.3-0.3,0.3h-3.6
		h-0.2v-0.2C119.3,437.6,119.4,436.4,119.6,435.1z"/>
	<path class="st6" d="M124.4,433.9c-0.4,0.9-0.9,1.7-1.6,2.4l-0.6,0.7l-0.2,0.2l-0.2-0.2c-0.8-0.8-1.4-1.4-1.3-1.5s0.7,0.4,1.6,1.1
		h-0.3l0.6-0.7C123.4,434.8,124.3,433.9,124.4,433.9z"/>
	<path class="st5" d="M124,428.4c0-0.1,5.4-0.3,12.1-0.3s12.1,0.1,12.1,0.3s-5.4,0.3-12.1,0.3S124,428.5,124,428.4z"/>
	<path class="st5" d="M117.8,426.9c0.2,1.2,0.2,2.4,0.2,3.6l-0.2-0.2h3.6l-0.3,0.3l0,0v-0.9c0-0.3,0-0.6,0-0.9c0-0.6,0-1.1,0-1.7
		l0.2,0.2C120.2,427.2,119,427.1,117.8,426.9c1.2-0.1,2.3-0.2,3.5-0.2h0.2v0.2c0,0.5,0,1.1,0,1.7c0,0.3,0,0.6,0,0.9v0.9l0,0
		l-0.3,0.3h-3.6h-0.2v-0.2C117.5,429.4,117.6,428.1,117.8,426.9z"/>
	<path class="st6" d="M122.6,425.7c-0.4,0.9-0.9,1.7-1.6,2.4l-0.6,0.7l-0.2,0.2l-0.2-0.2c-0.8-0.8-1.4-1.4-1.3-1.5s0.8,0.4,1.6,1.1
		H120l0.6-0.7C121.6,426.5,122.5,425.6,122.6,425.7z"/>
	<path class="st5" d="M119.4,420.3c0-0.1,5.4-0.3,12.1-0.3s12.1,0.1,12.1,0.3s-5.4,0.3-12.1,0.3S119.4,420.5,119.4,420.3z"/>
	<path class="st5" d="M113.2,418.8c0.2,1.2,0.2,2.4,0.2,3.6l-0.2-0.2h3.6l-0.3,0.3l0,0v-1c0-0.3,0-0.6,0-0.9c0-0.6,0-1.1,0-1.7
		l0.2,0.2C115.6,419.1,114.4,419,113.2,418.8c1.1-0.1,2.3-0.2,3.5-0.2h0.2v0.2c0,0.5,0,1.1,0,1.7c0,0.3,0,0.6,0,0.9v1l0,0
		c0.2-0.2-0.3,0.3-0.3,0.3h-3.6H113v-0.2C113,421.3,113.1,420,113.2,418.8z"/>
	<path class="st6" d="M118.1,417.6c-0.4,0.9-0.9,1.7-1.6,2.4l-0.6,0.7l-0.2,0.2l-0.2-0.2c-0.8-0.8-1.4-1.4-1.3-1.4s0.7,0.4,1.6,1.1
		h-0.4l0.6-0.7C117,418.5,117.9,417.5,118.1,417.6z"/>
	<path class="st5" d="M190.7,379.8h0.2h0.6h2.4l8.9-0.1h30.6l0,0c2.2-0.3,4.4,0.1,6.3,1.2c2,1.1,3.7,2.6,5,4.5
		c2,3.2,3.4,6.8,3.9,10.5c0.7,3.6,1.2,7,1.6,10.4c0.9,6.6,1.4,12.6,2.5,17.5c0.8,3.8,2.1,7.6,3.8,11.1c0.6,1.3,1.1,2.2,1.5,2.9
		c0.2,0.3,0.3,0.5,0.4,0.7c0.1,0.1,0.1,0.2,0.1,0.3c-0.1-0.1-0.1-0.1-0.2-0.2l-0.5-0.7c-0.6-0.9-1.1-1.9-1.6-2.8
		c-1.8-3.6-3.2-7.3-4.1-11.2c-1.1-5-1.7-10.9-2.6-17.5c-0.4-3.3-1-6.8-1.7-10.3c-0.6-3.7-1.9-7.2-3.9-10.4c-1.2-1.8-2.9-3.3-4.8-4.3
		c-1.8-1-3.9-1.4-6-1.1l0,0l-30.6-0.2l-8.9-0.1l-2.4,0H191L190.7,379.8z"/>
	<path class="st5" d="M90.6,464.9c0.3-0.1,0.6-0.1,0.8-0.2c0.8-0.3,1.6-0.6,2.3-1.1c1.1-0.8,2-1.9,2.6-3.2c0.8-1.8,1.1-3.7,1-5.6
		c0-2.4-0.4-4.8-1-7.1c-0.8-2.7-1.8-5.4-3-8c-0.6-1.4-1.1-2.9-1.6-4.5c-0.5-1.6-0.9-3.3-1.2-5c-0.6-3.7,0.1-7.5,2-10.8
		c1.1-1.7,2.6-3.1,4.4-4.1c0.5-0.2,1-0.4,1.5-0.5c0.3-0.1,0.5-0.1,0.8-0.2l0.8-0.1c1.1-0.1,2.2,0.1,3.1,0.6c1.9,1.1,3.5,2.6,4.8,4.4
		c1.4,1.8,2.6,3.7,3.6,5.7c1.1,2.1,2,4.2,2.8,6.4c0.4,1.1,0.7,2.3,1,3.5c0.2,1.2,0.3,2.4,0.5,3.6c0.3,2.4,0.8,4.8,1.3,7.2
		c0.6,2.4,1.4,4.9,2.2,7.2c0.4,1.2,0.9,2.4,1.6,3.5c0.7,1.1,1.5,2.1,2.5,2.9c1,0.9,2,1.6,3.2,2.3c1.1,0.7,2.3,1.3,3.5,1.8
		c1.2,0.5,2.5,0.7,3.9,0.8c1.3,0,2.7-0.1,4-0.3c2.7-0.2,5.4-0.7,8-1.7c2.6-1,5.1-2.3,7.3-4c2.3-1.6,4.3-3.7,5.9-6
		c3.3-4.8,5.8-10.1,7.3-15.7c0.7-2.5,1.2-5.1,1.5-7.7c0.3-2.6,0.5-5.2,0.7-7.8c0.4-5.1,1-10.2,1.9-15.2c0.5-2.5,1.1-4.9,1.8-7.3
		c0.7-2.4,1.5-4.7,2.5-6.9c1-2.2,2.3-4.3,3.8-6.1c1.5-1.9,3.4-3.4,5.5-4.5l0,0c1.8-1.1,3.8-1.6,5.9-1.7c2.1,0,4,0.7,5.6,2.1
		c1.5,1.3,2.6,3,3.4,4.8c0.8,1.7,1.5,3.5,2.1,5.3c2.2,6.8,3.8,13.8,4.7,20.9c0.9,6.7,1.4,13,1.8,18.9s1,11.3,2.5,16
		c1.2,4.2,3.4,8.1,6.3,11.4c2.2,2.4,5,4.2,8.1,5.2c1.9,0.6,4,0.9,6,0.8c0.7-0.1,1.2-0.1,1.6-0.2l0.5-0.1l-0.5,0.1
		c-0.5,0.1-1,0.2-1.6,0.2c-2,0.1-4.1-0.1-6.1-0.7c-3.1-1-6-2.8-8.3-5.2c-3-3.3-5.2-7.2-6.5-11.4c-1.5-4.7-2.2-10.2-2.6-16
		s-0.9-12.2-1.9-18.9c-0.9-7.1-2.6-14-4.8-20.8c-0.6-1.8-1.2-3.6-2-5.3c-0.8-1.7-1.9-3.3-3.3-4.6c-1.5-1.3-3.4-2-5.3-2
		c-2,0-3.9,0.6-5.6,1.6l0,0c-2,1.1-3.8,2.6-5.3,4.4c-1.5,1.8-2.8,3.8-3.8,6c-1,2.2-1.8,4.5-2.4,6.9c-0.7,2.4-1.3,4.8-1.8,7.2
		c-0.9,5-1.6,10-1.9,15.1c-0.2,2.6-0.4,5.2-0.7,7.8c-0.4,2.6-0.9,5.2-1.5,7.8c-1.5,5.7-4,11.1-7.4,15.9c-1.6,2.4-3.7,4.5-6,6.1
		c-2.3,1.7-4.8,3-7.4,4.1c-2.6,0.9-5.4,1.5-8.1,1.7c-1.4,0.1-2.7,0.2-4.1,0.3c-1.4,0-2.7-0.3-4-0.8c-1.3-0.5-2.5-1.1-3.6-1.8
		c-1.1-0.7-2.2-1.5-3.2-2.3c-1-0.9-1.9-1.9-2.6-3c-0.7-1.1-1.2-2.3-1.6-3.6c-0.9-2.4-1.6-4.8-2.3-7.3c-0.6-2.4-1-4.8-1.3-7.3
		c-0.5-4.7-1.9-9.2-4.2-13.3c-1-2-2.2-3.9-3.5-5.6c-1.2-1.7-2.8-3.2-4.7-4.3c-1.8-1.1-4-0.6-5.8,0.2c-1.7,0.9-3.2,2.2-4.2,3.9
		c-1.9,3.2-2.6,6.9-2,10.5c0.2,1.7,0.6,3.3,1.1,4.9c0.5,1.6,1,3,1.6,4.5c1.2,2.6,2.2,5.3,3,8.1c0.6,2.3,1,4.7,1,7.2
		c0.1,1.9-0.3,3.9-1.1,5.6c-0.6,1.3-1.5,2.4-2.7,3.2c-0.7,0.5-1.5,0.9-2.3,1.1C91.3,464.7,90.9,464.8,90.6,464.9z"/>
	<path class="st5" d="M160.9,450.5c0,0-0.1,0-0.2-0.1s-0.3-0.2-0.5-0.4c-0.6-0.5-1.2-1.1-1.8-1.7c-0.9-0.9-1.7-1.9-2.5-3
		c-1-1.4-1.8-3-2.5-4.6c-0.6-2-1.1-4.1-1.4-6.1c-0.4-2.2-0.6-4.6-1.1-7.1c-0.4-2.6-1.2-5.1-2.4-7.5c-0.6-1.2-1.4-2.3-2.4-3.3
		c-0.5-0.5-1-0.9-1.6-1.3c-0.6-0.3-1.3-0.5-2-0.6c-2.8-0.4-5.6-0.5-8.4-0.4c-2.8,0-5.4,0.2-7.9,0.2l-13.4,0.1h-9.1h-2.5
		c-0.3,0-0.6,0-0.9,0c0.3,0,0.6-0.1,0.9-0.1l2.5-0.1l9.1-0.2l13.4-0.2c2.5,0,5.2-0.2,7.9-0.2c2.9-0.1,5.7,0,8.6,0.4
		c0.7,0.1,1.5,0.3,2.1,0.6c0.4,0.2,0.7,0.4,1,0.6c0.3,0.2,0.5,0.5,0.8,0.8c1,1,1.8,2.2,2.5,3.5c1.2,2.4,2,5,2.4,7.6
		c0.4,2.5,0.7,4.9,1,7.1c0.3,2.1,0.7,4.1,1.3,6.1c0.6,1.6,1.4,3.1,2.4,4.5c0.7,1.1,1.5,2.1,2.4,3.1c0.7,0.8,1.3,1.4,1.7,1.8
		S160.9,450.5,160.9,450.5z"/>
	<path class="st10" d="M371,148.1c0.1-2.4,1.4-4.7,3.6-5.8c0.3-0.2,0.7-0.3,1.1-0.3c0.4,0,0.8,0.2,0.9,0.6c0.1,0.4,0,0.8-0.3,1.1
		c-0.3,0.3-0.6,0.5-1,0.8c-1,0.8-1.5,2.2-1.2,3.4"/>
	<path class="st0" d="M352.1,105.3c-9.5,0.7-16.7,9-16,18.5c0.9,13.5,0.6,31.8-5.8,43c-11.2,19.3-27.9,22.8-26.6,61.4
		s3,42.7-4.7,52.7s-24.5,4.8-31.8,27.6s-2.1,136.5-13.7,148.5c0,0-9.4,9-19.3,8.1h55.5c4.7,0.1,9.3-1.7,12.7-5
		c2.8-2.7,4.4-6.5,4.4-10.4c0-7.8,2.6-118.5,6.9-127.9s26.6-19.1,30-40.9s2.2-57.1,2.2-63.4c0-6,1.2-17.8,12.7-31.5
		c17.5-20.8,15.1-43.4,15.5-51.2s-3-31-3-31L352.1,105.3z"/>
	<path class="st1" d="M337.7,120.9c0.8-2.8,3.7-4.5,6.6-3.7c1.2,0.3,2.3,1.1,3,2.1c1.6,2.4,1.3,6,3.5,7.9c1.4,1.2,3.5,1.3,5.3,1.3
		c5.9-0.1,11.7-0.8,17.4-2.2l-1.3-18.3c0,0-27.8-2.4-31.1,2.1S337.7,120.9,337.7,120.9z"/>
	<path class="st2" d="M336.4,130.3c0-4.1,0.9-7.8,1.9-11.8c1.2-4.8,4.5-8.4,8.6-9c5.2-0.7,10.3,6.7,10.3,6.7s20.1-2.9,29.7-3.6
		c-0.7-2.5-5.7-8.9-9.3-9.7c-3.6-0.6-7.3-0.8-11-0.6c-6.6,0.2-13.4,0.4-19.4,3.3s-12.1,7-10.6,22.3"/>
	<path class="st5" d="M375.5,103.4c-0.3,0.1-0.7,0.1-1,0.1l-2.7,0.2c-2.3,0.2-5.5,0.4-9,0.8s-6.7,0.8-8.9,1.2l-2.7,0.5
		c-0.3,0.1-0.7,0.1-1,0.2c0.3-0.1,0.7-0.2,1-0.3c0.6-0.2,1.5-0.4,2.7-0.6c2.3-0.4,5.4-1,8.9-1.3s6.7-0.6,9-0.7l2.7-0.1
		C374.8,103.4,375.1,103.4,375.5,103.4z"/>
	<path class="st5" d="M313.2,322.9c0,0.1-8.5,1.5-19,3.1s-19.1,2.7-19.1,2.6s8.5-1.5,19-3.1S313.2,322.8,313.2,322.9z"/>
	<path class="st5" d="M315.2,318.8c0,0.1-7.8,0.3-17.5,0.4s-17.5,0-17.5-0.2s7.8-0.3,17.5-0.4S315.2,318.6,315.2,318.8z"/>
	<path class="st5" d="M236.7,465.2l1-0.1c0.9-0.1,1.9-0.3,2.8-0.6c3.5-1,6.8-2.7,9.7-4.8c1-0.7,2-1.5,2.9-2.3c1-0.9,1.7-2.1,2.2-3.4
		c1.1-2.9,1.9-5.9,2.4-9c1.2-7.5,2.1-15.1,2.5-22.8c1.2-16.9,1.6-37.2,2.4-59.6c0.4-11.2,0.7-23,1.7-35.2c0.2-3,0.5-6.1,0.9-9.2
		c0.3-3.1,0.9-6.2,1.8-9.3c0.5-1.5,1.1-3,1.6-4.5l1.1-2.1l0.5-1.1c0.2-0.3,0.4-0.7,0.6-1c1.7-2.8,3.9-5.2,6.5-7.2
		c2.6-1.9,5.5-3.4,8.6-4.5c3-1.1,5.9-2.4,8.6-3.9l1-0.6c0.3-0.2,0.6-0.5,0.9-0.7l0.9-0.7l0.8-0.9c0.3-0.3,0.5-0.6,0.8-0.9l0.7-0.9
		c0.5-0.6,0.9-1.3,1.3-1.9c0.8-1.3,1.5-2.6,2.1-4.1c0.5-1.4,0.9-2.9,1.1-4.4c0.4-3,0.6-6,0.5-9c0-3-0.1-6-0.2-8.9
		c-0.2-5.9-0.5-11.6-0.7-17.2c-0.1-2.8-0.3-5.6-0.2-8.3c0-1.4,0-2.7,0-4.1s0.1-2.7,0.2-4c0.1-2.7,0.5-5.3,0.9-7.8
		c0.4-2.5,1-5,1.8-7.4c1.4-4.6,3.6-9,6.3-13c2.6-3.6,5.4-7.1,8.4-10.4c2.7-3,5.1-6.2,7.4-9.6l1.5-2.4c0.5-0.8,0.9-1.6,1.3-2.4
		c0.7-1.6,1.4-3.2,1.9-4.8c1.7-5.5,2.7-11.2,3-17c0.3-4.7,0.3-8.4,0.3-10.9c0-1.2,0-2.2,0-2.9s0-1,0-1s0.1,1.3,0.2,3.8
		s0.1,6.2-0.2,10.9c-0.3,5.8-1.3,11.5-2.9,17c-0.5,1.7-1.2,3.3-1.9,4.9c-0.4,0.8-0.8,1.6-1.3,2.4s-1,1.6-1.5,2.4
		c-2.3,3.4-4.7,6.6-7.4,9.6c-3,3.3-5.8,6.8-8.4,10.4c-2.7,4-4.8,8.3-6.3,12.9c-0.7,2.4-1.3,4.9-1.8,7.4c-0.3,2.6-0.8,5.1-0.8,7.8
		c-0.1,1.3-0.2,2.6-0.2,4s0,2.7,0,4.1c0,2.7,0.1,5.5,0.2,8.3c0.2,5.6,0.4,11.4,0.7,17.2c0.1,2.9,0.2,5.9,0.2,8.9
		c0.1,3-0.1,6.1-0.5,9.1c-0.2,1.5-0.6,3-1.1,4.5c-0.6,1.5-1.3,2.9-2.1,4.2c-0.4,0.7-0.9,1.3-1.3,1.9l-0.7,0.9
		c-0.3,0.3-0.5,0.6-0.8,0.9l-0.8,0.9l-0.9,0.8c-0.3,0.2-0.6,0.5-0.9,0.7l-1,0.6c-2.8,1.6-5.7,2.9-8.7,3.9c-3,1.1-5.8,2.6-8.5,4.5
		c-2.6,1.9-4.8,4.3-6.4,7c-0.2,0.3-0.4,0.7-0.6,1l-0.5,1.1l-1,2.1c-0.6,1.5-1.1,3-1.6,4.4c-0.8,3-1.4,6.1-1.8,9.2
		c-0.4,3.1-0.7,6.1-0.9,9.2c-0.9,12.2-1.3,24-1.7,35.2c-0.7,22.4-1.2,42.7-2.5,59.6c-0.5,7.7-1.3,15.3-2.6,22.8
		c-0.5,3.1-1.3,6.1-2.5,9.1c-0.5,1.3-1.3,2.5-2.3,3.5c-1,0.8-2,1.6-3,2.3c-3,2.2-6.3,3.8-9.8,4.8c-0.9,0.2-1.9,0.4-2.8,0.5
		L236.7,465.2z"/>
	<path class="st5" d="M336.4,128.3l-0.1-1.3c0-0.8-0.1-2.1-0.2-3.7c0-0.9,0-1.8,0.1-2.7c0.1-1,0.4-2.1,0.6-3.3
		c0.6-2.7,1.9-5.2,3.7-7.3c2.5-2.4,5.5-4.3,8.8-5.4c3.9-1.4,7.9-2.2,12-2.5c2.2-0.2,4.5-0.3,6.9-0.3c2.5-0.1,4.9,0.2,7.3,0.8
		c1.2,0.3,2.5,0.8,3.6,1.3c1.2,0.6,2.3,1.3,3.3,2.2c1,0.9,2,1.8,2.8,2.9c0.4,0.5,0.8,1.1,1.1,1.8c0.4,0.6,0.6,1.3,0.6,2.1v0.2h-0.2
		c-4.5,0.4-9.3,1.4-14.3,2l0.2-0.2c0.6,4.9,1.2,10,1.5,15.2c0.1,1.3,0.1,2.6,0.1,4s-0.1,2.7-0.1,4c0,2.7,0,5.5-0.2,8.3
		c-0.3,5.8-1.3,11.5-2.9,17c-1.7,5.8-4.3,11.3-7.6,16.4c-3.3,5.3-7.9,9.7-11,15.3c-3.4,5.6-5.5,11.8-6.2,18.3
		c-0.2,3.3-0.3,6.7-0.1,10c0,3.3,0.1,6.7,0.1,10.1c0,6.8,0,13.7-0.2,20.6c-0.3,8-0.7,16-1.7,23.7c-0.4,3.9-1.3,7.7-2.8,11.3
		c-1.5,3.5-3.5,6.9-5.9,9.9c-4.7,6-10.5,10.8-15.9,15.7l-1.9,1.9c-0.6,0.7-1.2,1.3-1.8,2l-0.8,1.1c-0.3,0.3-0.5,0.7-0.7,1.1
		l-0.6,1.1c-0.2,0.4-0.3,0.8-0.4,1.2c-0.7,3.4-1.3,6.9-1.5,10.4c-1.3,13.8-2,27.1-2.5,39.4s-1,23.9-1.4,34.4s-0.6,20-0.9,28.4
		c-0.1,4.2-0.2,8.1-0.3,11.6c0,1.7,0,3.4-0.3,5.1c-0.3,1.5-0.8,3-1.6,4.4c-1.3,2.3-3.2,4.2-5.4,5.6c-1.6,1-3.4,1.8-5.3,2.2
		c-1.1,0.3-2.3,0.5-3.5,0.5c-0.8,0-1.2,0-1.2,0h0.3c0.2,0,0.5,0,0.9,0c3.1-0.2,6.1-1.2,8.7-2.8c2.2-1.4,4-3.3,5.3-5.6
		c0.8-1.3,1.3-2.8,1.5-4.3c0.2-1.7,0.3-3.4,0.3-5.1c0.1-3.6,0.1-7.5,0.2-11.6c0.2-8.4,0.4-17.9,0.8-28.4s0.7-22,1.3-34.4
		s1.2-25.6,2.5-39.5c0.3-3.5,0.8-7,1.5-10.5c0.1-0.4,0.3-0.9,0.5-1.3l0.7-1.2c0.2-0.4,0.5-0.8,0.8-1.1l0.8-1.1
		c0.6-0.7,1.2-1.4,1.8-2l2-1.9c5.4-4.9,11.2-9.7,15.8-15.6c2.3-3,4.3-6.3,5.8-9.8c1.4-3.6,2.3-7.4,2.7-11.2c1-7.8,1.4-15.7,1.7-23.7
		c0.2-6.9,0.3-13.8,0.2-20.6c0-3.4-0.1-6.8-0.1-10.1c-0.2-3.3-0.1-6.7,0.1-10c0.7-6.5,2.9-12.8,6.3-18.4c3.1-5.7,7.7-10.1,11-15.3
		c3.3-5,5.8-10.5,7.5-16.3c1.6-5.5,2.6-11.2,2.9-16.9c0.2-2.8,0.2-5.6,0.2-8.3c0-1.4,0.1-2.7,0.1-4s0-2.7-0.1-4
		c-0.3-5.3-0.9-10.3-1.5-15.2v-0.2h0.2c5-0.6,9.8-1.6,14.4-2l-0.2,0.2c-0.2-1.3-0.8-2.6-1.7-3.6c-0.8-1-1.8-2-2.8-2.9
		c-1-0.8-2.1-1.6-3.2-2.2c-1.1-0.5-2.3-1-3.6-1.3c-2.4-0.6-4.8-0.9-7.2-0.8c-2.4,0-4.6,0.1-6.8,0.3c-4.1,0.3-8.1,1.1-12,2.5
		c-3.3,1.1-6.2,2.9-8.7,5.3c-1.9,2-3.1,4.5-3.7,7.2c-0.2,1.2-0.5,2.2-0.6,3.2c-0.1,0.9-0.2,1.8-0.1,2.7c0.1,1.6,0.1,2.9,0.2,3.7
		S336.4,128.3,336.4,128.3z"/>
	<path class="st5" d="M386.9,112.8c-0.2,0.1-0.4,0.1-0.6,0.1l-1.6,0.2l-6,0.8l-19.9,2.4l-1.6,0.2H357l-0.1-0.1
		c-1-1.5-2.1-2.9-3.3-4.2c-1.1-1.2-2.6-2-4.2-2.4c-1.4-0.3-2.9-0.2-4.4,0.3c-1.2,0.4-2.3,1.1-3.2,2c-1.3,1.4-2.3,3-3,4.7
		c-0.2,0.6-0.4,1.1-0.5,1.4c0,0.2-0.1,0.3-0.2,0.5c0-0.2,0-0.4,0.1-0.5c0.1-0.5,0.3-1,0.4-1.5c0.6-1.8,1.6-3.5,2.9-4.9
		c0.9-1,2.1-1.7,3.4-2.2c1.5-0.5,3.1-0.6,4.6-0.3c1.7,0.4,3.2,1.3,4.4,2.5c1.3,1.3,2.4,2.7,3.4,4.3l-0.3-0.1l1.6-0.2l19.9-2.3l6-0.6
		l1.6-0.2C386.4,112.7,386.6,112.7,386.9,112.8z"/>
	<path class="st10" d="M374,149.9c0,0.5-0.3,1-0.8,1.1l-6,2.3c-0.9,0.4-2.1,0.6-2.7-0.2c-0.3-0.6-0.2-1.4,0.2-1.9
		c0.5-0.5,1.1-0.8,1.7-1c2.3-1,4.8-1.9,7.2-2.9c0.2-0.1,0.4,0,0.4,0.2c0,0,0,0.1,0,0.2L374,149.9z"/>
	<path class="st10" d="M374.2,151.9c0.3,1.2-0.4,2.5-1.6,2.9l-5.6,2.1c-0.9,0.4-2.1,0.6-2.7-0.2c-0.3-0.6-0.2-1.4,0.2-1.9
		c0.5-0.5,1.1-0.8,1.7-1c2.2-0.9,4.6-1.9,6.9-2.8c0.4-0.2,0.8,0,1,0.4c0,0,0,0.1,0,0.1L374.2,151.9z"/>
	<path class="st10" d="M373.2,154.9c0.4,1.8-0.5,3.7-2.3,4.3l-4.6,1.8c-0.9,0.4-2.1,0.6-2.7-0.2c-0.3-0.6-0.2-1.4,0.2-1.9
		c0.5-0.5,1.1-0.8,1.7-1C368,157,370.7,155.9,373.2,154.9L373.2,154.9z"/>
	<path class="st5" d="M348.7,202.4c0,0.1-7.3,2.9-16.4,6.1s-16.6,5.7-16.6,5.6s7.3-2.9,16.4-6.1S348.7,202.2,348.7,202.4z"/>
	<path class="st5" d="M344.8,206.4c-0.8,0.7-1.7,1.3-2.7,1.9c-1.7,1.1-4,2.6-6.7,4.2s-5.1,2.9-6.9,3.9c-0.9,0.6-1.9,1-2.9,1.4
		c0.9-0.6,1.8-1.2,2.8-1.7l6.8-4l6.8-4C342.8,207.4,343.8,206.8,344.8,206.4z"/>
</g>
<g id="freepik--speech-bubble--inject-161">
	<path class="st7" d="M200.6,68h-0.4H199c-0.3,0-0.6,0-0.9,0l-1.1,0.2l-1.2,0.2l-1.4,0.3c-2.4,0.6-4.6,1.6-6.7,2.9
		c-6.2,3.9-10.2,10.5-10.9,17.8c-0.1,1.1-0.1,2.2-0.1,3.2c0,0.6,0,1.1,0.1,1.7s0.2,1.1,0.3,1.7c0.4,2.3,1.2,4.5,2.3,6.6
		c1.1,2.2,2.6,4.2,4.3,5.9c1.8,1.8,3.9,3.3,6.2,4.4c2.4,1.2,4.9,2,7.6,2.3c0.7,0.1,1.3,0.2,2,0.2c0.7,0,1.3,0,2,0
		c1.4-0.1,2.7-0.2,4.1-0.5c2.9-0.6,5.6-1.8,8.1-3.4h-0.2l8.3,3.3l0.5,0.2l-0.1-0.5c-0.8-3-1.6-6-2.4-8.8v0.2c2.2-3,3.7-6.4,4.4-10
		c0.3-1.7,0.4-3.4,0.3-5.2c0-0.8-0.1-1.7-0.2-2.5c-0.1-0.4-0.1-0.8-0.2-1.2s-0.2-0.8-0.3-1.2c-1.4-5.4-4.7-10.2-9.2-13.5
		c-1.7-1.2-3.5-2.2-5.5-2.9l-1.2-0.4l-1.2-0.3l-1.1-0.3l-1-0.2c-0.6-0.1-1.2-0.2-1.7-0.2h-1.2h-0.8L200.6,68c0,0,0.1,0,0.2,0
		l0.7,0.1l1.2,0.1c0.5,0,1,0.2,1.6,0.3c9.2,1.6,16.6,8.4,18.8,17.5c0.1,0.4,0.2,0.8,0.3,1.2s0.1,0.8,0.2,1.2
		c0.1,0.8,0.2,1.6,0.2,2.4c0.1,1.7,0,3.4-0.3,5.1c-0.7,3.6-2.2,7-4.4,9.9l-0.1,0.1v0.1l2.4,8.8l0.4-0.3l-8.2-3.4l-0.1-0.1l-0.1,0.1
		c-3.5,2.4-7.7,3.7-11.9,3.8c-0.7,0-1.3,0-2,0c-0.7,0-1.3-0.1-2-0.2c-2.6-0.3-5.1-1.1-7.4-2.3c-2.2-1.1-4.3-2.6-6.1-4.3
		c-1.7-1.7-3.1-3.7-4.2-5.8c-1.1-2-1.8-4.2-2.2-6.4c-0.1-0.6-0.2-1.1-0.3-1.6s-0.1-1.1-0.1-1.6c0-1.1,0-2.1,0.1-3.2
		c0.6-7.2,4.5-13.6,10.6-17.5c2-1.3,4.2-2.4,6.6-3l1.4-0.4l1.2-0.2l1.1-0.2l0.9-0.1l1.2-0.1C200.3,68,200.4,68,200.6,68z"/>
</g>
<g id="freepik--Bubble--inject-2">
	<path class="st6" d="M193.2,82.1c4-1.1,6.4,1.4,7.4,3c1.1-1.6,3.6-4,7.6-2.7c4.3,1.4,5.7,7,1.9,11.9c-2.7,3.6-7,6-9.1,7
		c-0.3,0.1-0.5,0.2-0.7,0.3l-0.7-0.3c-2.1-1.1-6.3-3.7-8.9-7.4C187.2,88.8,188.9,83.3,193.2,82.1z"/>
</g>
</svg>
